<svg width="457" height="340" viewBox="0 0 457 340" fill="none" xmlns="http://www.w3.org/2000/svg">
<path d="M456.418 314.655H0V314.895H456.418V314.655Z" fill="#EBEBEB"/>
<path d="M216.342 271.791H40.083C38.7022 271.789 37.3788 271.209 36.4033 270.181C35.4278 269.152 34.8799 267.757 34.8799 266.304V5.43967C34.8919 3.99424 35.4451 2.61217 36.4193 1.59367C37.3936 0.575162 38.7101 0.00247609 40.083 0H216.342C217.725 0 219.051 0.578169 220.028 1.60732C221.006 2.63646 221.555 4.03229 221.555 5.48772V266.304C221.555 267.759 221.006 269.155 220.028 270.184C219.051 271.213 217.725 271.791 216.342 271.791V271.791ZM40.083 0.192215C38.7628 0.194761 37.4974 0.748738 36.5647 1.73255C35.6319 2.71636 35.1081 4.04962 35.1081 5.43967V266.304C35.1081 267.694 35.6319 269.027 36.5647 270.011C37.4974 270.994 38.7628 271.548 40.083 271.551H216.342C217.664 271.548 218.93 270.995 219.864 270.011C220.798 269.028 221.324 267.694 221.327 266.304V5.43967C221.324 4.04874 220.798 2.7155 219.864 1.73196C218.93 0.748426 217.664 0.194756 216.342 0.192215H40.083Z" fill="#EBEBEB"/>
<path d="M413.797 271.791H237.529C236.147 271.789 234.823 271.21 233.846 270.181C232.869 269.153 232.319 267.758 232.316 266.304V5.43967C232.331 3.99336 232.886 2.61131 233.862 1.59307C234.837 0.574826 236.155 0.00244909 237.529 0H413.797C415.169 0.0050019 416.483 0.578805 417.455 1.59704C418.427 2.61528 418.979 3.9959 418.991 5.43967V266.304C418.991 267.756 418.445 269.149 417.471 270.177C416.498 271.206 415.176 271.786 413.797 271.791V271.791ZM237.529 0.192215C236.208 0.194756 234.941 0.748426 234.007 1.73196C233.073 2.7155 232.547 4.04874 232.545 5.43967V266.304C232.547 267.694 233.073 269.028 234.007 270.011C234.941 270.995 236.208 271.548 237.529 271.551H413.797C415.118 271.548 416.385 270.995 417.319 270.011C418.253 269.028 418.779 267.694 418.781 266.304V5.43967C418.779 4.04874 418.253 2.7155 417.319 1.73196C416.385 0.748426 415.118 0.194756 413.797 0.192215H237.529Z" fill="#EBEBEB"/>
<path d="M167.049 35.6363H80.6309V240.604H167.049V35.6363Z" fill="#F5F5F5"/>
<path d="M163.79 236.76V39.4807L83.8895 39.4807L83.8895 236.76H163.79Z" fill="#FAFAFA"/>
<path d="M124.758 38.4908H122.923V238.682H124.758V38.4908Z" fill="#F5F5F5"/>
<path d="M169.039 32.9648H78.6318V42.6139H169.039V32.9648Z" fill="#F5F5F5"/>
<path d="M169.039 43.6805H78.6318V44.8242H169.039V43.6805Z" fill="#F5F5F5"/>
<path d="M169.039 46.2755H78.6318V47.4192H169.039V46.2755Z" fill="#F5F5F5"/>
<path d="M169.039 48.8704H78.6318V50.014H169.039V48.8704Z" fill="#F5F5F5"/>
<path d="M169.039 51.4651H78.6318V52.6088H169.039V51.4651Z" fill="#F5F5F5"/>
<path d="M169.039 54.0602H78.6318V55.2039H169.039V54.0602Z" fill="#F5F5F5"/>
<path d="M169.039 56.655H78.6318V57.7987H169.039V56.655Z" fill="#F5F5F5"/>
<path d="M169.039 59.2499H78.6318V60.3935H169.039V59.2499Z" fill="#F5F5F5"/>
<path d="M169.039 61.8449H78.6318V62.9886H169.039V61.8449Z" fill="#F5F5F5"/>
<path d="M169.039 64.4398H78.6318V65.5834H169.039V64.4398Z" fill="#F5F5F5"/>
<path d="M169.039 67.0345H78.6318V68.1782H169.039V67.0345Z" fill="#F5F5F5"/>
<path d="M169.039 69.6295H78.6318V70.7732H169.039V69.6295Z" fill="#F5F5F5"/>
<path d="M169.039 72.2245H78.6318V73.3682H169.039V72.2245Z" fill="#F5F5F5"/>
<path d="M169.039 74.8192H78.6318V75.9628H169.039V74.8192Z" fill="#F5F5F5"/>
<path d="M169.039 77.4143H78.6318V78.558H169.039V77.4143Z" fill="#F5F5F5"/>
<path d="M169.039 80.0088H78.6318V81.1525H169.039V80.0088Z" fill="#F5F5F5"/>
<path d="M169.039 82.6038H78.6318V83.7475H169.039V82.6038Z" fill="#F5F5F5"/>
<path d="M169.039 85.1989H78.6318V86.3426H169.039V85.1989Z" fill="#F5F5F5"/>
<path d="M169.039 87.7939H78.6318V88.9376H169.039V87.7939Z" fill="#F5F5F5"/>
<path d="M269.368 35.6363H182.95V240.604H269.368V35.6363Z" fill="#F5F5F5"/>
<path d="M266.109 236.75V39.4709L186.209 39.4709V236.75H266.109Z" fill="#FAFAFA"/>
<path d="M227.077 38.4908H225.242V238.682H227.077V38.4908Z" fill="#F5F5F5"/>
<path d="M271.358 32.9648H180.951V42.6139H271.358V32.9648Z" fill="#F5F5F5"/>
<path d="M271.358 43.6805H180.951V44.8242H271.358V43.6805Z" fill="#F5F5F5"/>
<path d="M271.358 46.2755H180.951V47.4192H271.358V46.2755Z" fill="#F5F5F5"/>
<path d="M271.358 48.8704H180.951V50.014H271.358V48.8704Z" fill="#F5F5F5"/>
<path d="M271.358 51.4651H180.951V52.6088H271.358V51.4651Z" fill="#F5F5F5"/>
<path d="M271.358 54.0602H180.951V55.2039H271.358V54.0602Z" fill="#F5F5F5"/>
<path d="M271.358 56.655H180.951V57.7987H271.358V56.655Z" fill="#F5F5F5"/>
<path d="M271.358 59.2499H180.951V60.3935H271.358V59.2499Z" fill="#F5F5F5"/>
<path d="M271.358 61.8449H180.951V62.9886H271.358V61.8449Z" fill="#F5F5F5"/>
<path d="M271.358 64.4398H180.951V65.5834H271.358V64.4398Z" fill="#F5F5F5"/>
<path d="M271.358 67.0345H180.951V68.1782H271.358V67.0345Z" fill="#F5F5F5"/>
<path d="M271.358 69.6295H180.951V70.7732H271.358V69.6295Z" fill="#F5F5F5"/>
<path d="M271.358 72.2245H180.951V73.3682H271.358V72.2245Z" fill="#F5F5F5"/>
<path d="M271.358 74.8192H180.951V75.9628H271.358V74.8192Z" fill="#F5F5F5"/>
<path d="M271.358 77.4143H180.951V78.558H271.358V77.4143Z" fill="#F5F5F5"/>
<path d="M271.358 80.0088H180.951V81.1525H271.358V80.0088Z" fill="#F5F5F5"/>
<path d="M271.358 82.6038H180.951V83.7475H271.358V82.6038Z" fill="#F5F5F5"/>
<path d="M271.358 85.1989H180.951V86.3426H271.358V85.1989Z" fill="#F5F5F5"/>
<path d="M271.358 87.7939H180.951V88.9376H271.358V87.7939Z" fill="#F5F5F5"/>
<path d="M371.68 35.6363H285.262V240.604H371.68V35.6363Z" fill="#F5F5F5"/>
<path d="M368.421 236.76V39.4807L288.52 39.4807V236.76H368.421Z" fill="#FAFAFA"/>
<path d="M329.389 38.4908H327.554V238.682H329.389V38.4908Z" fill="#F5F5F5"/>
<path d="M373.679 32.9648H283.271V42.6139H373.679V32.9648Z" fill="#F5F5F5"/>
<path d="M373.679 43.6805H283.271V44.8242H373.679V43.6805Z" fill="#F5F5F5"/>
<path d="M373.679 46.2755H283.271V47.4192H373.679V46.2755Z" fill="#F5F5F5"/>
<path d="M373.679 48.8704H283.271V50.014H373.679V48.8704Z" fill="#F5F5F5"/>
<path d="M373.679 51.4651H283.271V52.6088H373.679V51.4651Z" fill="#F5F5F5"/>
<path d="M373.679 54.0602H283.271V55.2039H373.679V54.0602Z" fill="#F5F5F5"/>
<path d="M373.679 56.655H283.271V57.7987H373.679V56.655Z" fill="#F5F5F5"/>
<path d="M373.679 59.2499H283.271V60.3935H373.679V59.2499Z" fill="#F5F5F5"/>
<path d="M373.679 61.8449H283.271V62.9886H373.679V61.8449Z" fill="#F5F5F5"/>
<path d="M373.679 64.4398H283.271V65.5834H373.679V64.4398Z" fill="#F5F5F5"/>
<path d="M373.679 67.0345H283.271V68.1782H373.679V67.0345Z" fill="#F5F5F5"/>
<path d="M373.679 69.6295H283.271V70.7732H373.679V69.6295Z" fill="#F5F5F5"/>
<path d="M373.679 72.2245H283.271V73.3682H373.679V72.2245Z" fill="#F5F5F5"/>
<path d="M373.679 74.8192H283.271V75.9628H373.679V74.8192Z" fill="#F5F5F5"/>
<path d="M373.679 77.4143H283.271V78.558H373.679V77.4143Z" fill="#F5F5F5"/>
<path d="M373.679 80.0088H283.271V81.1525H373.679V80.0088Z" fill="#F5F5F5"/>
<path d="M373.679 82.6038H283.271V83.7475H373.679V82.6038Z" fill="#F5F5F5"/>
<path d="M373.679 85.1989H283.271V86.3426H373.679V85.1989Z" fill="#F5F5F5"/>
<path d="M373.679 87.7939H283.271V88.9376H373.679V87.7939Z" fill="#F5F5F5"/>
<path d="M302.925 218.663H412.602C412.602 220.703 411.853 222.664 410.513 224.138C409.173 225.611 407.345 226.483 405.409 226.572C393.624 227.13 375.495 229.1 369.744 235.962C359.028 248.764 360.059 293.723 372.903 304.131C376.928 307.399 388.658 313.876 388.658 313.876H326.859C326.859 313.876 337.813 307.264 341.638 304.131C354.418 293.636 354.774 248.706 344.002 235.962C338.48 229.427 321.483 227.312 310.081 226.649C308.145 226.534 306.324 225.642 304.993 224.156C303.662 222.671 302.922 220.705 302.925 218.663V218.663Z" fill="#F5F5F5"/>
<path d="M399.01 226.995C387.864 227.957 374.518 230.254 369.735 235.962C368.171 237.933 366.937 240.169 366.084 242.574H347.69C346.833 240.171 345.598 237.936 344.039 235.962C339.237 230.282 325.782 227.947 314.828 226.995H399.01Z" fill="#E6E6E6"/>
<path d="M349.634 218.72L351.132 200.768H329.516L328.019 218.72H349.634Z" fill="#EBEBEB"/>
<path d="M349.635 218.72L351.132 200.768H352.291L350.803 218.72H349.635Z" fill="#E0E0E0"/>
<path d="M347.589 216.895L348.776 202.604H331.56L330.373 216.895H347.589Z" fill="#F0F0F0"/>
<path d="M346.267 215.713L347.262 203.776H332.885L331.89 215.713H346.267Z" fill="#FAFAFA"/>
<path d="M356.654 218.663H378.37L375.96 189.667H354.244L356.654 218.663Z" fill="#E6E6E6"/>
<path d="M356.655 218.663H355.614L353.204 189.667H354.245L356.655 218.663Z" fill="#E0E0E0"/>
<path d="M358.616 215.703H375.905L373.988 192.628H356.699L358.616 215.703Z" fill="#F0F0F0"/>
<path d="M359.886 213.81H374.327L372.72 194.521H358.279L359.886 213.81Z" fill="#FAFAFA"/>
<path d="M367.179 203.199C366.947 203.446 366.67 203.642 366.365 203.775C366.061 203.909 365.734 203.978 365.404 203.978C365.074 203.978 364.747 203.909 364.442 203.775C364.137 203.642 363.861 203.446 363.628 203.199C363.394 202.954 363.208 202.663 363.081 202.342C362.954 202.022 362.889 201.677 362.889 201.33C362.889 200.982 362.954 200.638 363.081 200.317C363.208 199.997 363.394 199.705 363.628 199.461V199.461C363.861 199.214 364.137 199.018 364.442 198.885C364.747 198.751 365.074 198.682 365.404 198.682C365.734 198.682 366.061 198.751 366.365 198.885C366.67 199.018 366.947 199.214 367.179 199.461V199.461C367.648 199.958 367.911 200.63 367.911 201.33C367.911 202.03 367.648 202.702 367.179 203.199V203.199Z" fill="#EBEBEB"/>
<path d="M366.111 206.438C366.281 206.257 366.483 206.112 366.707 206.014C366.93 205.916 367.17 205.865 367.412 205.865C367.654 205.865 367.893 205.916 368.117 206.014C368.34 206.112 368.543 206.257 368.712 206.438C368.976 206.706 369.158 207.051 369.233 207.429C369.308 207.807 369.273 208.199 369.133 208.556C368.993 208.913 368.755 209.217 368.449 209.429C368.142 209.641 367.783 209.751 367.416 209.744C367.049 209.753 366.688 209.644 366.38 209.433C366.073 209.222 365.833 208.918 365.692 208.561C365.551 208.203 365.515 207.81 365.59 207.431C365.665 207.053 365.846 206.707 366.111 206.438V206.438Z" fill="#F0F0F0"/>
<path d="M151.951 307.947H173.101L161.974 212.608C161.708 210.616 160.78 208.787 159.354 207.448C157.928 206.109 156.097 205.346 154.187 205.295H61.8994L75.4276 307.947H151.951Z" fill="#F5F5F5"/>
<path d="M84.8933 307.947H63.7155L52.5972 212.608C52.4605 211.692 52.5168 210.755 52.762 209.864C53.0072 208.973 53.4353 208.149 54.0161 207.452C54.5969 206.754 55.3162 206.199 56.1231 205.826C56.9301 205.454 57.8049 205.272 58.6858 205.295H65.9885C67.8992 205.347 69.7305 206.111 71.1575 207.45C72.5845 208.788 73.5151 210.616 73.7841 212.608L84.8933 307.947Z" fill="#F0F0F0"/>
<path d="M92.6625 307.831L88.8286 261.7C88.7424 260.697 88.3332 259.756 87.6691 259.033C87.0049 258.309 86.1257 257.846 85.1773 257.721L83.6163 257.567C82.3481 257.398 81.1733 256.777 80.2878 255.806C79.4024 254.835 78.8599 253.574 78.7509 252.233L78.048 243.824C77.977 243.007 78.0684 242.184 78.3163 241.407C78.5643 240.629 78.9634 239.915 79.4881 239.309C80.0129 238.703 80.6519 238.219 81.3642 237.888C82.0766 237.557 82.8467 237.385 83.6255 237.385H48.2805C47.5042 237.385 46.7366 237.556 46.0263 237.886C45.3159 238.215 44.6784 238.697 44.154 239.3C43.6297 239.902 43.23 240.613 42.9802 241.387C42.7304 242.161 42.636 242.981 42.703 243.795L43.3968 252.204C43.5035 253.551 44.0457 254.818 44.9329 255.794C45.8201 256.77 46.9985 257.396 48.2713 257.567L49.8506 257.778C50.8002 257.9 51.6813 258.362 52.3461 259.087C53.0108 259.811 53.4189 260.754 53.5019 261.757L57.3358 307.889C57.4705 309.512 58.1778 311.023 59.3184 312.124C60.4589 313.225 61.9499 313.837 63.4974 313.838H98.8424C97.2825 313.843 95.7784 313.226 94.6322 312.112C93.486 310.998 92.7824 309.469 92.6625 307.831V307.831Z" fill="#E6E6E6"/>
<path d="M189.934 250.176C190.226 246.685 191.749 243.435 194.204 241.067C196.659 238.699 199.868 237.385 203.197 237.385H172.425C169.094 237.383 165.883 238.698 163.428 241.068C160.972 243.438 159.45 246.692 159.162 250.186L156.122 286.707H186.894L189.934 250.176Z" fill="#E6E6E6"/>
<path d="M216.872 237.385H203.179C199.849 237.386 196.639 238.701 194.184 241.07C191.729 243.44 190.206 246.693 189.916 250.186L186.876 286.707H113.603L110.563 250.186C110.273 246.693 108.75 243.44 106.295 241.07C103.84 238.701 100.63 237.386 97.2997 237.385H83.6071C82.8309 237.385 82.0632 237.556 81.3529 237.886C80.6426 238.215 80.0051 238.697 79.4807 239.3C78.9564 239.902 78.5566 240.613 78.3069 241.387C78.0571 242.161 77.9627 242.981 78.0297 243.795L78.7326 252.204C78.8363 253.553 79.3788 254.823 80.2684 255.8C81.1581 256.777 82.3405 257.401 83.6163 257.567L85.1955 257.778C86.1439 257.904 87.0231 258.367 87.6872 259.09C88.3514 259.814 88.7605 260.755 88.8468 261.757L92.6716 307.889C92.8063 309.512 93.5136 311.023 94.6541 312.124C95.7947 313.225 97.2857 313.837 98.8332 313.838H201.682C203.229 313.837 204.719 313.225 205.858 312.124C206.997 311.022 207.702 309.511 207.835 307.889L211.669 261.757C211.755 260.755 212.164 259.814 212.828 259.09C213.493 258.367 214.372 257.904 215.32 257.778L216.899 257.567C218.168 257.398 219.342 256.777 220.228 255.806C221.113 254.835 221.656 253.574 221.765 252.233L222.468 243.824C222.539 243.006 222.447 242.181 222.198 241.402C221.949 240.624 221.548 239.908 221.021 239.302C220.495 238.696 219.854 238.212 219.139 237.882C218.424 237.552 217.652 237.382 216.872 237.385V237.385Z" fill="#F0F0F0"/>
<path d="M346.924 82.4983H154.243C152.045 82.4983 150.263 84.3743 150.263 86.6886V273.146C150.263 275.46 152.045 277.336 154.243 277.336H346.924C349.122 277.336 350.904 275.46 350.904 273.146V86.6886C350.904 84.3743 349.122 82.4983 346.924 82.4983Z" fill="#A12366"/>
<path opacity="0.4" d="M346.924 82.4983H154.243C152.045 82.4983 150.263 84.3743 150.263 86.6886V273.146C150.263 275.46 152.045 277.336 154.243 277.336H346.924C349.122 277.336 350.904 275.46 350.904 273.146V86.6886C350.904 84.3743 349.122 82.4983 346.924 82.4983Z" fill="white"/>
<path opacity="0.6" d="M152.444 121.681V272.281C152.447 273.007 152.722 273.702 153.209 274.215C153.696 274.729 154.357 275.018 155.046 275.02H346.093C346.783 275.018 347.443 274.729 347.93 274.215C348.418 273.702 348.692 273.007 348.695 272.281V121.681H152.444Z" fill="white"/>
<path d="M237.603 93.3296H187.552C186.6 93.3296 185.827 94.1428 185.827 95.146V111.273C185.827 112.276 186.6 113.089 187.552 113.089H237.603C238.556 113.089 239.328 112.276 239.328 111.273V95.146C239.328 94.1428 238.556 93.3296 237.603 93.3296Z" fill="#A12366"/>
<path d="M210.337 105.458H205.389L204.321 107.948H203.354L207.397 98.6252H208.31L212.354 107.948H211.368L210.337 105.458ZM209.999 104.661L207.872 99.6535L205.745 104.661H209.999Z" fill="white"/>
<path d="M213.86 98.6252H217.466C220.296 98.6252 222.204 100.547 222.204 103.286C222.204 106.025 220.296 107.948 217.466 107.948H213.86V98.6252ZM217.411 107.102C217.927 107.174 218.451 107.13 218.949 106.971C219.447 106.813 219.907 106.544 220.299 106.183C220.69 105.823 221.004 105.378 221.219 104.879C221.433 104.38 221.545 103.839 221.545 103.291C221.545 102.743 221.433 102.202 221.219 101.703C221.004 101.205 220.69 100.76 220.299 100.399C219.907 100.038 219.447 99.7696 218.949 99.6112C218.451 99.4528 217.927 99.4082 217.411 99.4805H214.791V107.102H217.411Z" fill="white"/>
<path d="M224.303 98.6252H227.908C230.747 98.6252 232.655 100.547 232.655 103.286C232.655 106.025 230.747 107.948 227.908 107.948H224.303V98.6252ZM227.863 107.102C228.378 107.174 228.903 107.13 229.401 106.971C229.899 106.813 230.359 106.544 230.75 106.183C231.142 105.823 231.455 105.378 231.67 104.879C231.885 104.38 231.996 103.839 231.996 103.291C231.996 102.743 231.885 102.202 231.67 101.703C231.455 101.205 231.142 100.76 230.75 100.399C230.359 100.038 229.899 99.7696 229.401 99.6112C228.903 99.4528 228.378 99.4082 227.863 99.4805H225.243V107.102H227.863Z" fill="white"/>
<path d="M198.707 102.729H190.564V103.69H198.707V102.729Z" fill="white"/>
<path d="M195.092 98.9232H194.179V107.496H195.092V98.9232Z" fill="white"/>
<path d="M177.1 95.1077H162.705V110.264H177.1V95.1077Z" fill="white"/>
<path d="M177.091 110.744H162.704C162.584 110.742 162.469 110.69 162.384 110.601C162.299 110.511 162.25 110.39 162.248 110.264V95.1461C162.248 95.0186 162.296 94.8964 162.382 94.8063C162.467 94.7162 162.583 94.6655 162.704 94.6655H177.091C177.212 94.6655 177.328 94.7162 177.413 94.8063C177.499 94.8964 177.547 95.0186 177.547 95.1461V110.302C177.538 110.423 177.486 110.535 177.401 110.617C177.317 110.699 177.206 110.745 177.091 110.744ZM163.152 109.783H176.634V95.5882H163.161L163.152 109.783Z" fill="#A12366"/>
<path opacity="0.6" d="M332.337 131.638H187.552C186.6 131.638 185.827 132.451 185.827 133.454V149.581C185.827 150.584 186.6 151.398 187.552 151.398H332.337C333.29 151.398 334.063 150.584 334.063 149.581V133.454C334.063 132.451 333.29 131.638 332.337 131.638Z" fill="#A12366"/>
<g opacity="0.6">
<path opacity="0.6" d="M177.1 134.579H162.705V149.735H177.1V134.579Z" fill="white"/>
<path opacity="0.6" d="M177.091 150.206H162.704C162.583 150.206 162.467 150.155 162.382 150.065C162.296 149.975 162.248 149.853 162.248 149.725V134.55C162.248 134.423 162.296 134.3 162.382 134.21C162.467 134.12 162.583 134.069 162.704 134.069H177.091C177.212 134.069 177.328 134.12 177.413 134.21C177.499 134.3 177.547 134.423 177.547 134.55V149.696C177.551 149.762 177.542 149.828 177.521 149.889C177.499 149.951 177.466 150.007 177.424 150.055C177.381 150.103 177.329 150.141 177.272 150.167C177.215 150.193 177.153 150.206 177.091 150.206ZM163.152 149.245H176.634V135.059H163.161L163.152 149.245Z" fill="#A12366"/>
</g>
<path d="M194.28 139.058H191.843V138.394H197.457V139.058H195.019V145.699H194.28V139.058Z" fill="white"/>
<path d="M202.65 143.748H198.789L197.958 145.67H197.173L200.35 138.366H201.071L204.238 145.67H203.471L202.65 143.748ZM202.385 143.123L200.724 139.192L198.999 143.123H202.385Z" fill="white"/>
<path d="M204.731 144.814L205.024 144.218C205.658 144.8 206.474 145.115 207.315 145.102C208.611 145.102 209.14 144.526 209.14 143.805C209.14 141.806 204.868 143.036 204.868 140.336C204.868 139.259 205.663 138.327 207.424 138.327C208.186 138.318 208.934 138.542 209.579 138.971L209.323 139.586C208.757 139.2 208.099 138.99 207.424 138.98C206.155 138.98 205.599 139.576 205.599 140.307C205.599 142.315 209.871 141.104 209.871 143.767C209.871 144.843 209.058 145.766 207.287 145.766C206.354 145.789 205.444 145.45 204.731 144.814V144.814Z" fill="white"/>
<path d="M213.65 142.239L212.235 143.748V145.67H211.496V138.394H212.235V142.806L216.343 138.394H217.192L214.18 141.7L217.393 145.699H216.48L213.65 142.239Z" fill="white"/>
<path d="M220.542 142.046C220.542 139.72 221.701 138.327 223.28 138.327C224.86 138.327 226.019 139.72 226.019 142.046C226.019 144.372 224.851 145.766 223.28 145.766C221.71 145.766 220.542 144.372 220.542 142.046ZM225.353 142.046C225.353 140.124 224.513 139.019 223.308 139.019C222.103 139.019 221.263 140.095 221.263 142.046C221.263 143.997 222.094 145.074 223.308 145.074C224.522 145.074 225.353 143.997 225.353 142.046Z" fill="white"/>
<path d="M229.012 138.394V145.699H228.3V139.058H226.657V138.394H229.012Z" fill="white"/>
<path d="M326.914 146.765H319.027V135.819H326.914V146.765ZM319.94 145.804H326.001V136.78H319.94V145.804Z" fill="white"/>
<path d="M328.435 137.702L323.743 142.752L324.396 143.424L329.087 138.374L328.435 137.702Z" fill="white"/>
<path opacity="0.6" d="M332.776 158.817H187.991C187.038 158.817 186.266 159.63 186.266 160.633V176.76C186.266 177.763 187.038 178.577 187.991 178.577H332.776C333.729 178.577 334.501 177.763 334.501 176.76V160.633C334.501 159.63 333.729 158.817 332.776 158.817Z" fill="#A12366"/>
<g opacity="0.6">
<path opacity="0.6" d="M177.547 161.748H163.151V176.904H177.547V161.748Z" fill="white"/>
<path opacity="0.6" d="M177.547 177.385H163.152C163.031 177.385 162.915 177.334 162.829 177.244C162.743 177.154 162.695 177.032 162.695 176.905V161.748C162.695 161.621 162.743 161.499 162.829 161.409C162.915 161.319 163.031 161.268 163.152 161.268H177.547C177.667 161.27 177.782 161.322 177.867 161.411C177.952 161.501 178.001 161.622 178.004 161.748V176.905C178.004 177.032 177.955 177.154 177.87 177.244C177.784 177.334 177.668 177.385 177.547 177.385ZM163.608 176.424H177.091V162.229H163.608V176.424Z" fill="#A12366"/>
</g>
<path d="M194.28 166.266H191.843V165.593H197.457V166.266H195.019V172.907H194.28V166.266Z" fill="white"/>
<path d="M202.65 170.917H198.789L197.958 172.839H197.173L200.35 165.525H201.071L204.238 172.839H203.471L202.65 170.917ZM202.385 170.292L200.724 166.371L198.999 170.292H202.385Z" fill="white"/>
<path d="M204.731 172.032L205.024 171.436C205.654 172.025 206.472 172.344 207.315 172.33C208.611 172.33 209.14 171.753 209.14 171.032C209.14 169.024 204.868 170.264 204.868 167.553C204.868 166.477 205.663 165.554 207.424 165.554C208.186 165.546 208.934 165.769 209.579 166.198L209.323 166.813C208.757 166.428 208.099 166.218 207.424 166.208C206.155 166.208 205.599 166.804 205.599 167.534C205.599 169.543 209.871 168.332 209.871 170.994C209.871 172.07 209.058 172.983 207.287 172.983C206.353 173.011 205.442 172.672 204.731 172.032V172.032Z" fill="white"/>
<path d="M213.65 169.437L212.235 170.955V172.878H211.496V165.564H212.235V169.985L216.307 165.564H217.156L214.143 168.88L217.356 172.878H216.444L213.65 169.437Z" fill="white"/>
<path d="M220.542 169.216C220.542 166.89 221.701 165.506 223.28 165.506C224.86 165.506 226.019 166.89 226.019 169.216C226.019 171.542 224.851 172.935 223.28 172.935C221.71 172.935 220.542 171.551 220.542 169.216ZM225.353 169.216C225.353 167.294 224.513 166.189 223.308 166.189C222.103 166.189 221.263 167.265 221.263 169.216C221.263 171.167 222.094 172.243 223.308 172.243C224.522 172.243 225.353 171.177 225.353 169.216Z" fill="white"/>
<path d="M231.861 172.205V172.878H226.996V172.339L229.88 169.37C230.665 168.553 230.793 168.063 230.793 167.563C230.793 166.717 230.227 166.188 229.168 166.188C228.815 166.165 228.462 166.227 228.134 166.368C227.807 166.51 227.514 166.728 227.279 167.005L226.768 166.544C227.081 166.192 227.465 165.917 227.891 165.737C228.316 165.558 228.774 165.479 229.232 165.506C230.638 165.506 231.533 166.256 231.533 167.428C231.516 167.875 231.405 168.312 231.207 168.707C231.01 169.103 230.731 169.448 230.392 169.716L228.027 172.157L231.861 172.205Z" fill="white"/>
<path d="M327.362 173.954H319.493V162.998H327.38L327.362 173.954ZM320.406 172.993H326.467V163.959H320.406V172.993Z" fill="white"/>
<path d="M328.874 164.88L324.183 169.929L324.835 170.602L329.527 165.552L328.874 164.88Z" fill="white"/>
<path opacity="0.6" d="M333.222 185.987H188.437C187.484 185.987 186.712 186.8 186.712 187.803V203.93C186.712 204.933 187.484 205.746 188.437 205.746H333.222C334.175 205.746 334.947 204.933 334.947 203.93V187.803C334.947 186.8 334.175 185.987 333.222 185.987Z" fill="#A12366"/>
<g opacity="0.6">
<path opacity="0.6" d="M177.995 188.927H163.6V204.083H177.995V188.927Z" fill="white"/>
<path opacity="0.6" d="M178.005 204.564H163.6C163.479 204.564 163.363 204.513 163.277 204.423C163.192 204.333 163.144 204.211 163.144 204.083V188.927C163.144 188.8 163.192 188.678 163.277 188.588C163.363 188.497 163.479 188.447 163.6 188.447H178.005C178.126 188.447 178.242 188.497 178.327 188.588C178.413 188.678 178.461 188.8 178.461 188.927V204.083C178.459 204.21 178.41 204.331 178.325 204.42C178.24 204.51 178.125 204.562 178.005 204.564V204.564ZM164.066 203.603H177.548V189.408H164.056L164.066 203.603Z" fill="#A12366"/>
</g>
<path d="M194.28 193.406H191.843V192.743H197.457V193.406H195.019V200.047H194.28V193.406Z" fill="white"/>
<path d="M202.65 198.096H198.789L197.949 200.018H197.173L200.34 192.714H201.071L204.238 200.018H203.471L202.65 198.096ZM202.385 197.471L200.724 193.541L198.999 197.471H202.385Z" fill="white"/>
<path d="M204.731 199.163L205.024 198.567C205.658 199.149 206.474 199.464 207.315 199.451C208.611 199.451 209.14 198.884 209.14 198.163C209.14 196.155 204.868 197.385 204.868 194.684C204.868 193.608 205.653 192.676 207.424 192.676C208.188 192.666 208.937 192.893 209.579 193.329L209.323 193.944C208.758 193.555 208.099 193.345 207.424 193.339C206.155 193.339 205.599 193.935 205.599 194.665C205.599 196.664 209.871 195.453 209.871 198.115C209.871 199.192 209.058 200.114 207.287 200.114C206.353 200.144 205.441 199.804 204.731 199.163V199.163Z" fill="white"/>
<path d="M213.65 196.616L212.235 198.125V200.047H211.496V192.743H212.235V197.154L216.307 192.743H217.156L214.143 196.049L217.356 200.047H216.444L213.65 196.616Z" fill="white"/>
<path d="M220.542 196.395C220.542 194.069 221.701 192.676 223.28 192.676C224.86 192.676 226.019 194.069 226.019 196.395C226.019 198.721 224.851 200.114 223.28 200.114C221.71 200.114 220.542 198.721 220.542 196.395ZM225.353 196.395C225.353 194.473 224.513 193.368 223.308 193.368C222.103 193.368 221.263 194.444 221.263 196.395C221.263 198.346 222.094 199.423 223.308 199.423C224.522 199.423 225.353 198.346 225.353 196.395Z" fill="white"/>
<path d="M231.596 197.981C231.596 199.201 230.757 200.143 229.077 200.143C228.16 200.17 227.268 199.826 226.585 199.182L226.932 198.586C227.515 199.152 228.285 199.455 229.077 199.432C230.227 199.432 230.903 198.865 230.903 197.962C230.903 197.058 230.318 196.51 229.077 196.51H228.575V195.953L230.501 193.416H226.95V192.753H231.414V193.281L229.451 195.886C230.857 195.953 231.596 196.779 231.596 197.981Z" fill="white"/>
<path d="M327.81 201.114H319.923V190.167H327.81V201.114ZM320.836 200.153H326.897V191.128H320.836V200.153Z" fill="white"/>
<path d="M329.328 192.055L324.637 197.104L325.289 197.776L329.981 192.727L329.328 192.055Z" fill="white"/>
<path opacity="0.6" d="M333.669 213.166H188.884C187.932 213.166 187.159 213.979 187.159 214.982V231.109C187.159 232.112 187.932 232.925 188.884 232.925H333.669C334.622 232.925 335.395 232.112 335.395 231.109V214.982C335.395 213.979 334.622 213.166 333.669 213.166Z" fill="#A12366"/>
<g opacity="0.6">
<path opacity="0.6" d="M178.442 216.107H164.047V231.263H178.442V216.107Z" fill="white"/>
<path opacity="0.6" d="M178.433 231.734H164.046C163.925 231.734 163.809 231.683 163.724 231.593C163.638 231.503 163.59 231.381 163.59 231.253V216.107C163.59 215.979 163.638 215.857 163.724 215.767C163.809 215.677 163.925 215.626 164.046 215.626H178.433C178.554 215.626 178.67 215.677 178.755 215.767C178.841 215.857 178.889 215.979 178.889 216.107V231.253C178.889 231.381 178.841 231.503 178.755 231.593C178.67 231.683 178.554 231.734 178.433 231.734ZM164.503 230.773H178.004V216.587H164.503V230.773Z" fill="#A12366"/>
</g>
<path d="M194.28 220.585H191.843V219.912H197.457V220.585H195.019V227.226H194.28V220.585Z" fill="white"/>
<path d="M202.65 225.275H198.789L197.949 227.197H197.173L200.34 219.884H201.071L204.238 227.197H203.471L202.65 225.275ZM202.385 224.65L200.724 220.72L198.999 224.65H202.385Z" fill="white"/>
<path d="M204.731 226.332L205.024 225.746C205.658 226.328 206.474 226.643 207.315 226.63C208.611 226.63 209.14 226.054 209.14 225.333C209.14 223.334 204.868 224.564 204.868 221.854C204.868 220.787 205.653 219.855 207.424 219.855C208.186 219.846 208.934 220.07 209.579 220.499L209.323 221.114C208.757 220.728 208.099 220.518 207.424 220.508C206.155 220.508 205.599 221.104 205.599 221.835C205.599 223.843 209.871 222.632 209.871 225.295C209.871 226.371 209.058 227.284 207.287 227.284C206.353 227.313 205.441 226.974 204.731 226.332Z" fill="white"/>
<path d="M213.65 223.786L212.235 225.304V227.226H211.496V219.912H212.235V224.333L216.307 219.912H217.156L214.143 223.228L217.356 227.226H216.444L213.65 223.786Z" fill="white"/>
<path d="M220.542 223.574C220.542 221.239 221.701 219.855 223.28 219.855C224.86 219.855 226.019 221.239 226.019 223.574C226.019 225.91 224.851 227.284 223.28 227.284C221.71 227.284 220.542 225.9 220.542 223.574ZM225.353 223.574C225.353 221.652 224.513 220.547 223.308 220.547C222.103 220.547 221.263 221.614 221.263 223.574C221.263 225.535 222.094 226.602 223.308 226.602C224.522 226.602 225.353 225.525 225.353 223.574Z" fill="white"/>
<path d="M233.011 225.304H231.624V227.226H230.948V225.304H227.032V224.766L230.684 219.912H231.478L227.927 224.631H230.948V222.969H231.642V224.66H233.03L233.011 225.304Z" fill="white"/>
<path d="M328.257 228.293H320.406V217.346H328.302L328.257 228.293ZM321.273 227.332H327.344V218.308H321.319L321.273 227.332Z" fill="white"/>
<path d="M329.768 219.237L325.076 224.286L325.729 224.958L330.42 219.909L329.768 219.237Z" fill="white"/>
<path opacity="0.6" d="M334.117 240.345H189.332C188.379 240.345 187.606 241.158 187.606 242.161V258.288C187.606 259.291 188.379 260.105 189.332 260.105H334.117C335.069 260.105 335.842 259.291 335.842 258.288V242.161C335.842 241.158 335.069 240.345 334.117 240.345Z" fill="#A12366"/>
<g opacity="0.6">
<path opacity="0.6" d="M178.881 243.276H164.485V258.432H178.881V243.276Z" fill="white"/>
<path opacity="0.6" d="M178.917 258.913H164.485C164.364 258.913 164.248 258.862 164.162 258.772C164.076 258.682 164.028 258.56 164.028 258.432V243.276C164.031 243.15 164.079 243.029 164.165 242.939C164.25 242.85 164.364 242.798 164.485 242.796H178.917C179.038 242.796 179.154 242.846 179.239 242.936C179.325 243.027 179.373 243.149 179.373 243.276V258.432C179.373 258.56 179.325 258.682 179.239 258.772C179.154 258.862 179.038 258.913 178.917 258.913ZM164.978 257.952H178.46V243.757H164.941L164.978 257.952Z" fill="#A12366"/>
</g>
<path d="M194.28 247.755H191.843V247.092H197.457V247.755H195.019V254.405H194.28V247.755Z" fill="white"/>
<path d="M202.65 252.445H198.789L197.949 254.367H197.173L200.34 247.053H201.071L204.238 254.367H203.471L202.65 252.445ZM202.385 251.82L200.724 247.899L198.999 251.801L202.385 251.82Z" fill="white"/>
<path d="M204.731 253.512L205.024 252.916C205.656 253.501 206.472 253.819 207.315 253.809C208.611 253.809 209.14 253.233 209.14 252.512C209.14 250.503 204.868 251.734 204.868 249.033C204.868 247.957 205.653 247.034 207.424 247.034C208.186 247.025 208.934 247.249 209.579 247.678L209.323 248.293C208.757 247.907 208.099 247.697 207.424 247.687C206.155 247.687 205.599 248.283 205.599 249.014C205.599 251.022 209.871 249.802 209.871 252.474C209.871 253.54 209.058 254.463 207.287 254.463C206.353 254.492 205.441 254.153 204.731 253.512Z" fill="white"/>
<path d="M213.65 250.965L212.235 252.483V254.405H211.496V247.092H212.235V251.512L216.307 247.092H217.156L214.143 250.398L217.356 254.405H216.444L213.65 250.965Z" fill="white"/>
<path d="M220.542 250.744C220.542 248.418 221.701 247.034 223.28 247.034C224.86 247.034 226.019 248.418 226.019 250.744C226.019 253.069 224.851 254.463 223.28 254.463C221.71 254.463 220.542 253.079 220.542 250.744ZM225.353 250.744C225.353 248.822 224.513 247.716 223.308 247.716C222.103 247.716 221.263 248.793 221.263 250.744C221.263 252.695 222.094 253.771 223.308 253.771C224.522 253.771 225.353 252.695 225.353 250.744Z" fill="white"/>
<path d="M231.862 252.253C231.862 253.492 231.04 254.463 229.342 254.463C228.428 254.49 227.539 254.146 226.859 253.502L227.206 252.906C227.782 253.471 228.546 253.775 229.333 253.752C230.52 253.752 231.159 253.146 231.159 252.262C231.159 251.378 230.602 250.734 228.84 250.734H227.298L227.654 247.072H231.451V247.736H228.274L228.037 250.071H228.95C231.022 250.09 231.862 250.955 231.862 252.253Z" fill="white"/>
<path d="M328.704 255.472H320.808V244.516H328.704V255.472ZM321.72 254.511H327.791V245.477H321.72V254.511Z" fill="white"/>
<path d="M330.207 246.414L325.516 251.464L326.168 252.136L330.86 247.087L330.207 246.414Z" fill="white"/>
<path d="M324.732 93.4738H260.943C256.154 93.4738 252.271 97.5594 252.271 102.599C252.271 107.639 256.154 111.725 260.943 111.725H324.732C329.522 111.725 333.404 107.639 333.404 102.599C333.404 97.5594 329.522 93.4738 324.732 93.4738Z" fill="white"/>
<path d="M321.51 104.901C321.004 104.902 320.505 104.771 320.059 104.521C319.612 104.27 319.231 103.907 318.949 103.464C318.667 103.021 318.494 102.512 318.444 101.982C318.394 101.451 318.469 100.916 318.663 100.423C318.856 99.931 319.162 99.4964 319.554 99.1583C319.945 98.8202 320.41 98.589 320.906 98.4853C321.403 98.3815 321.916 98.4084 322.4 98.5636C322.885 98.7188 323.325 98.9974 323.683 99.3748V99.3748C324.112 99.8277 324.404 100.404 324.522 101.032C324.641 101.659 324.58 102.31 324.347 102.901C324.115 103.492 323.722 103.997 323.217 104.353C322.712 104.709 322.118 104.9 321.51 104.901V104.901ZM321.51 99.394C321.091 99.4015 320.682 99.5374 320.334 99.7852C319.987 100.033 319.715 100.382 319.552 100.789C319.39 101.197 319.343 101.645 319.419 102.08C319.494 102.515 319.688 102.917 319.977 103.238C320.39 103.649 320.937 103.878 321.506 103.878C322.074 103.878 322.621 103.649 323.035 103.238C323.323 102.918 323.517 102.517 323.593 102.083C323.668 101.649 323.623 101.201 323.461 100.794C323.3 100.387 323.029 100.038 322.683 99.789C322.337 99.5405 321.929 99.4033 321.51 99.394V99.394Z" fill="#A12366"/>
<path d="M327.061 107.996C326.938 107.995 326.82 107.943 326.733 107.851L323.036 103.949C322.992 103.906 322.957 103.854 322.934 103.796C322.91 103.739 322.897 103.676 322.897 103.613C322.897 103.55 322.91 103.488 322.934 103.43C322.957 103.372 322.992 103.32 323.036 103.277C323.078 103.232 323.129 103.196 323.184 103.172C323.24 103.147 323.3 103.135 323.36 103.135C323.42 103.135 323.48 103.147 323.535 103.172C323.591 103.196 323.641 103.232 323.684 103.277L327.381 107.121C327.424 107.166 327.458 107.219 327.481 107.277C327.504 107.336 327.516 107.399 327.516 107.462C327.516 107.526 327.504 107.588 327.481 107.647C327.458 107.706 327.424 107.759 327.381 107.803C327.343 107.857 327.295 107.902 327.24 107.935C327.185 107.968 327.124 107.989 327.061 107.996V107.996Z" fill="#A12366"/>
<path d="M357.778 324.496C357.778 324.496 353.259 314.107 358.426 303.872C363.592 293.636 365.089 291.224 361.794 289.119C358.499 287.014 356.992 297.317 356.992 297.317C355.361 292.669 355.192 287.591 356.509 282.834C358.8 275.424 360.233 263.362 357.102 262.065C353.971 260.767 356.509 277.115 353.788 282.69C352.409 278.774 351.517 274.688 351.132 270.532C350.758 264.583 351.351 255.088 348.877 252.646C346.404 250.205 344.824 251.897 347.253 265.025C348.712 272.871 349.518 280.837 349.662 288.831C349.662 288.831 344.295 271.608 340.698 271.099C337.102 270.59 337.102 276.173 340.178 281.017C343.254 285.861 349.206 294.52 350.219 298.98C350.219 298.98 344.331 286.015 339.028 289.994C333.724 293.973 343.61 301.776 348.019 304.66C352.428 307.543 355.505 325.217 355.505 325.217L357.778 324.496Z" fill="#A12366"/>
<path opacity="0.2" d="M357.778 324.496C357.778 324.496 353.259 314.107 358.426 303.872C363.592 293.636 365.089 291.224 361.794 289.119C358.499 287.014 356.992 297.317 356.992 297.317C355.361 292.669 355.192 287.591 356.509 282.834C358.8 275.424 360.233 263.362 357.102 262.065C353.971 260.767 356.509 277.115 353.788 282.69C352.409 278.774 351.517 274.688 351.132 270.532C350.758 264.583 351.351 255.088 348.877 252.646C346.404 250.205 344.824 251.897 347.253 265.025C348.712 272.871 349.518 280.837 349.662 288.831C349.662 288.831 344.295 271.608 340.698 271.099C337.102 270.59 337.102 276.173 340.178 281.017C343.254 285.861 349.206 294.52 350.219 298.98C350.219 298.98 344.331 286.015 339.028 289.994C333.724 293.973 343.61 301.776 348.019 304.66C352.428 307.543 355.505 325.217 355.505 325.217L357.778 324.496Z" fill="black"/>
<path d="M354.18 328.754C354.18 328.754 358.58 318.297 353.267 308.139C347.954 297.98 346.457 295.597 349.725 293.444C352.993 291.291 354.627 301.565 354.627 301.565C356.204 296.895 356.316 291.815 354.947 287.072C352.564 279.701 350.994 267.659 354.107 266.323C357.22 264.987 354.874 281.354 357.658 286.89C358.996 282.956 359.843 278.857 360.177 274.694C360.478 268.735 359.785 259.249 362.231 256.77C364.677 254.29 366.275 255.962 363.993 269.129C362.626 276.994 361.912 284.969 361.857 292.964C361.857 292.964 367.023 275.664 370.62 275.097C374.217 274.53 374.271 280.114 371.25 285.006C368.228 289.898 362.441 298.643 361.483 303.122C361.483 303.122 367.224 290.071 372.564 293.953C377.904 297.836 368.082 305.832 363.701 308.725C359.319 311.618 356.453 329.407 356.453 329.407L354.18 328.754Z" fill="#A12366"/>
<path d="M90.8828 324.583L95.2918 327.312C97.3599 324.383 99.5976 321.591 101.992 318.951V318.951C103.27 317.529 104.612 315.953 106.009 314.261C108.802 310.888 111.823 307.034 114.991 302.892L117.83 299.153C128.866 284.535 140.797 267.351 145.215 255.732C146.602 252.118 147.278 249.052 146.977 246.755C146.064 239.816 143.508 229.37 140.587 219.278C136.132 203.901 131.121 189.235 131.121 189.235L118.806 211.196C118.806 211.196 122.586 220.682 126.027 230.782C129.414 240.701 132.472 251.224 131.34 253.963C131.23 254.233 131.093 254.55 130.938 254.925C128.93 259.336 123.234 269.437 116.844 280.633L114.881 284.026C111.431 289.984 107.843 296.106 104.521 301.729C103.224 303.939 101.965 306.073 100.769 308.091C95.1092 317.634 90.8828 324.583 90.8828 324.583Z" fill="#B97964"/>
<path opacity="0.2" d="M118.075 299.143C112.251 306.832 106.655 313.848 102.493 318.941C101.899 315.808 101.297 312.099 100.822 308.052C105.633 299.922 111.521 289.888 116.87 280.595C116.756 286.803 117.16 293.009 118.075 299.143V299.143Z" fill="black"/>
<path d="M96.1034 235.597C97.6278 246.544 99.7547 256.462 101.215 262.373C102.064 265.919 102.639 268.014 102.639 268.014C102.66 279.255 103.288 290.486 104.52 301.652C104.985 306.053 105.487 310.301 106.008 314.213C107.925 328.764 109.942 339.201 109.942 339.201L115.191 338.48L115.017 302.882L114.908 283.987L114.762 258.279L114.707 253.8L114.451 234.252L114.077 205.42L95.8204 196.77C93.3466 207.726 94.2595 222.411 96.1034 235.597Z" fill="#B97964"/>
<path opacity="0.2" d="M144.958 235.77C140.293 239.162 134.004 241.2 129.686 242.296C128.691 238.711 127.404 234.684 126.035 230.763C122.594 220.662 118.814 211.176 118.814 211.176L131.129 189.216C131.129 189.216 136.14 203.833 140.595 219.259C142.256 224.891 143.771 230.599 144.958 235.77Z" fill="black"/>
<path opacity="0.2" d="M114.58 246.342C108.906 246.219 103.243 245.796 97.61 245.073C97.0805 242.065 96.5602 238.884 96.1038 235.607C94.2781 222.421 93.3653 207.736 95.7934 196.779L114.05 205.429L114.424 234.261L114.58 246.342Z" fill="black"/>
<path d="M145.834 233.858C134.415 240.921 100.832 243.92 100.832 243.92L95.3546 227.659L95.9479 243.747H94.3231C94.3231 243.747 82.0455 200.018 98.3578 171.359L127.569 168.985L130.763 184.824C130.763 184.824 138.97 207.524 145.834 233.858Z" fill="#263238"/>
<path d="M107.852 83.4885C107.852 83.4885 115.154 79.2213 121.097 82.4025C123.835 83.8633 124.812 87.6019 125.387 90.5139C126.2 94.5889 126.3 98.7599 126.875 102.873C127.071 104.613 127.544 106.305 128.272 107.88C129.285 109.966 131.357 112.052 130.946 114.608C130.581 116.867 128.39 118.212 126.483 118.827C121.416 120.471 115.684 119.558 110.453 119.913C106.236 120.192 102.174 121.681 97.9564 121.835C96.7519 121.944 95.5427 121.691 94.4694 121.105C90.4073 118.548 92.1782 111.975 93.4927 108.323C94.6063 105.238 93.7848 102.047 94.1499 98.808C94.404 95.9497 95.0433 93.144 96.0486 90.4755C98.1573 85.1607 102.393 82.3736 107.852 83.4885Z" fill="#263238"/>
<path d="M98.0754 168.216L97.9111 172.858L128.099 171.619L128.29 166.131L98.0754 168.216Z" fill="#263238"/>
<path opacity="0.2" d="M98.0754 168.216L97.9111 172.858L128.099 171.619L128.29 166.131L98.0754 168.216Z" fill="white"/>
<path d="M108.262 166.664L106.765 166.686L106.867 174.71L108.364 174.689L108.262 166.664Z" fill="#263238"/>
<path d="M126.71 165.283L125.213 165.304L125.314 173.329L126.811 173.308L126.71 165.283Z" fill="#263238"/>
<path d="M120.85 166.967C120.673 166.79 120.461 166.654 120.23 166.57C119.998 166.485 119.752 166.454 119.509 166.477L115.939 166.765C115.497 166.799 115.083 167.008 114.782 167.351C114.48 167.693 114.313 168.143 114.314 168.61V171.013C114.312 171.506 114.495 171.98 114.823 172.331C115.152 172.682 115.599 172.882 116.067 172.887H116.222L119.791 172.589C120.233 172.553 120.645 172.343 120.947 172.001C121.248 171.659 121.415 171.21 121.416 170.744V168.351C121.419 168.091 121.37 167.834 121.272 167.596C121.175 167.358 121.031 167.143 120.85 166.967V166.967ZM119.7 171.619L116.131 171.926C116.013 171.936 115.894 171.92 115.783 171.879C115.671 171.837 115.569 171.772 115.483 171.686C115.393 171.602 115.322 171.498 115.274 171.382C115.227 171.265 115.205 171.14 115.209 171.013V168.62C115.208 168.394 115.289 168.176 115.435 168.011C115.58 167.845 115.78 167.743 115.994 167.726L119.563 167.428H119.636C119.85 167.427 120.056 167.513 120.211 167.668C120.3 167.754 120.37 167.858 120.418 167.974C120.465 168.09 120.488 168.215 120.485 168.341V168.706C120.437 168.696 120.387 168.696 120.339 168.706L119.344 168.774C119.185 168.788 119.038 168.868 118.934 168.996C118.83 169.123 118.777 169.288 118.787 169.456C118.792 169.539 118.812 169.62 118.847 169.695C118.882 169.769 118.93 169.836 118.99 169.891C119.049 169.945 119.119 169.987 119.194 170.013C119.269 170.039 119.348 170.049 119.426 170.042L120.43 169.975H120.476V170.763C120.468 170.981 120.385 171.188 120.242 171.345C120.099 171.503 119.906 171.6 119.7 171.619V171.619Z" fill="white"/>
<path d="M89.8691 127.573C90.5173 129.312 90.2525 129.975 90.782 131.532C91.3114 133.089 91.9139 134.771 92.4068 136.251C93.5753 139.749 94.4972 142.777 95.2275 145.458C97.4822 153.743 97.8656 169.677 97.8656 169.677L128.236 167.438C130.344 137.799 125.497 123.152 125.497 123.152L123.507 122.998C121.189 122.825 117.218 122.575 113.585 122.604C109.303 122.741 105.034 123.168 100.805 123.882C97.9569 124.334 93.3562 125.122 89.8691 127.573Z" fill="#A12366"/>
<path opacity="0.2" d="M119.463 148.966C119.463 148.966 107.888 163.382 97.8468 168.764C97.719 165.266 97.1621 152.56 95.2361 145.458C94.7157 143.536 94.095 141.45 93.3556 139.144L92.6162 133.07C92.6162 133.07 96.6053 139.797 97.1804 145.641C97.1804 145.641 110.544 144.68 118.495 139.788L119.463 148.966Z" fill="black"/>
<path d="M112.663 128.909C105.542 127.553 103.534 124.218 103.534 124.218C108.299 119.942 104.903 111.898 104.903 111.898L113.448 114.06C113.189 115.327 113.015 116.612 112.927 117.904C112.599 123.421 114.963 123.603 114.963 123.603C116.341 126.631 112.663 128.909 112.663 128.909Z" fill="#EEC1BB"/>
<path opacity="0.2" d="M113.456 114.06C113.198 115.327 113.024 116.612 112.936 117.904C108.828 116.674 104.912 111.936 104.912 111.936L113.456 114.06Z" fill="black"/>
<path d="M112.826 88.2937C120.32 89.0049 122.374 93.4547 122.228 101.643C122.045 111.869 119.288 118.885 110.105 115.828C97.6725 111.677 100.411 87.1116 112.826 88.2937Z" fill="#EEC1BB"/>
<path d="M117.419 100.74C117.92 101.976 118.56 103.144 119.326 104.219C119.078 104.523 118.756 104.75 118.394 104.875C118.032 105.001 117.644 105.02 117.272 104.93L117.419 100.74Z" fill="#D4827D"/>
<path d="M112.89 99.6631C112.89 100.307 112.479 100.816 112.068 100.788C111.658 100.759 111.356 100.201 111.402 99.5574C111.448 98.9135 111.804 98.4041 112.214 98.4329C112.625 98.4618 112.926 98.9903 112.89 99.6631Z" fill="#263238"/>
<path d="M112.041 98.4522L113.419 97.9909C113.419 97.9909 112.68 99.1346 112.041 98.4522Z" fill="#263238"/>
<path d="M120.568 100.057C120.568 100.711 120.157 101.211 119.746 101.182C119.335 101.153 119.034 100.605 119.08 99.9611C119.125 99.3172 119.491 98.8078 119.901 98.8367C120.312 98.8655 120.613 99.4133 120.568 100.057Z" fill="#263238"/>
<path d="M119.728 98.8559L121.097 98.3946C121.097 98.3946 120.357 99.5383 119.728 98.8559Z" fill="#263238"/>
<path d="M109.924 95.4342C109.882 95.4349 109.84 95.4267 109.801 95.4102C109.762 95.3937 109.726 95.3692 109.696 95.3381C109.666 95.306 109.641 95.2678 109.625 95.2257C109.608 95.1837 109.6 95.1386 109.6 95.0931C109.6 95.0475 109.608 95.0024 109.625 94.9604C109.641 94.9183 109.666 94.8801 109.696 94.848C110.191 94.3978 110.779 94.0762 111.413 93.9093C112.047 93.7423 112.71 93.7347 113.348 93.8869C113.39 93.8961 113.431 93.914 113.467 93.9398C113.503 93.9656 113.534 93.9987 113.558 94.0372C113.581 94.0757 113.598 94.1187 113.605 94.1639C113.613 94.209 113.613 94.2553 113.603 94.3002C113.584 94.3893 113.531 94.4666 113.458 94.5152C113.384 94.5638 113.295 94.5798 113.211 94.5597C112.679 94.444 112.129 94.4548 111.602 94.5911C111.074 94.7274 110.582 94.9859 110.162 95.3478C110.13 95.3793 110.093 95.4033 110.052 95.4183C110.011 95.4332 109.968 95.4387 109.924 95.4342V95.4342Z" fill="#263238"/>
<path d="M121.691 95.665C121.615 95.6629 121.541 95.6361 121.481 95.5881C121.132 95.2435 120.713 94.9866 120.256 94.8368C119.799 94.687 119.316 94.6481 118.843 94.7231C118.758 94.7439 118.669 94.7295 118.594 94.6829C118.519 94.6364 118.465 94.5613 118.441 94.4733C118.419 94.3853 118.43 94.2916 118.473 94.2125C118.515 94.1333 118.586 94.0751 118.669 94.0504C119.24 93.9406 119.828 93.9701 120.386 94.1367C120.945 94.3033 121.46 94.6026 121.891 95.0115C121.926 95.0396 121.955 95.0747 121.976 95.1147C121.998 95.1547 122.011 95.1988 122.016 95.2444C122.022 95.2901 122.018 95.3363 122.006 95.3805C121.994 95.4246 121.974 95.4658 121.946 95.5016C121.917 95.5467 121.88 95.5847 121.836 95.6129C121.791 95.6411 121.742 95.6589 121.691 95.665Z" fill="#263238"/>
<path d="M103.498 100.817C103.498 100.817 107.56 94.6657 107.45 89.6105C107.45 89.6105 122.859 84.6225 122.229 100.567C122.229 100.567 124.885 86.6119 112.024 85.0742C99.1617 83.5365 97.5277 103.392 103.68 109.937C103.68 109.937 100.987 104.67 103.498 100.817Z" fill="#263238"/>
<path d="M104.584 102.595C104.586 101.674 104.243 100.79 103.629 100.135C103.015 99.4797 102.181 99.1064 101.307 99.0963C98.9606 99.0963 97.427 104.065 103.132 105.824C103.917 106.074 104.456 105.257 104.584 102.595Z" fill="#EEC1BB"/>
<path d="M116.596 108.601C115.681 108.646 114.777 108.374 114.023 107.825C113.269 107.276 112.707 106.482 112.424 105.564C112.412 105.521 112.407 105.476 112.412 105.432C112.416 105.387 112.429 105.344 112.449 105.304C112.47 105.265 112.497 105.23 112.531 105.202C112.564 105.174 112.602 105.153 112.643 105.141C112.726 105.117 112.814 105.128 112.889 105.171C112.964 105.214 113.02 105.286 113.045 105.372C113.298 106.163 113.795 106.843 114.456 107.304C115.117 107.766 115.905 107.982 116.696 107.919C116.781 107.913 116.864 107.942 116.928 108C116.993 108.057 117.034 108.138 117.043 108.226C117.048 108.318 117.02 108.408 116.964 108.477C116.908 108.547 116.828 108.592 116.742 108.601H116.596Z" fill="#263238"/>
<path d="M105.36 120.403L112.042 125.795L114.023 120.028L117.272 122.691L120.221 123.498C120.459 123.564 120.681 123.684 120.87 123.85C121.059 124.016 121.211 124.223 121.316 124.458C121.42 124.693 121.475 124.949 121.475 125.208C121.475 125.467 121.421 125.723 121.316 125.958C119.774 129.437 116.332 136.405 113.53 136.53C110.727 136.655 101.207 129.803 97.0531 126.727C96.8843 126.598 96.7548 126.419 96.6806 126.213C96.6064 126.008 96.5906 125.784 96.6351 125.569C96.6796 125.354 96.7825 125.157 96.9313 125.003C97.08 124.849 97.2683 124.743 97.473 124.699L102.74 123.594L105.36 120.403Z" fill="#A12366"/>
<path opacity="0.6" d="M105.36 120.403L112.042 125.795L114.023 120.028L117.272 122.691L120.221 123.498C120.459 123.564 120.681 123.684 120.87 123.85C121.059 124.016 121.211 124.223 121.316 124.458C121.42 124.693 121.475 124.949 121.475 125.208C121.475 125.467 121.421 125.723 121.316 125.958C119.774 129.437 116.332 136.405 113.53 136.53C110.727 136.655 101.207 129.803 97.0531 126.727C96.8843 126.598 96.7548 126.419 96.6806 126.213C96.6064 126.008 96.5906 125.784 96.6351 125.569C96.6796 125.354 96.7825 125.157 96.9313 125.003C97.08 124.849 97.2683 124.743 97.473 124.699L102.74 123.594L105.36 120.403Z" fill="white"/>
<path opacity="0.3" d="M102.74 123.584L107.167 130.254L112.042 126.487L116.761 128.909L117.273 122.652L114.023 119.99L112.042 125.795L105.36 120.403L102.74 123.584Z" fill="white"/>
<path d="M112.252 144.699L114.479 147.592L99.7734 153.252L99.9834 148.284L112.252 144.699Z" fill="#EEC1BB"/>
<path d="M121.097 99.4424C121.019 99.4409 120.944 99.41 120.885 99.3554C120.826 99.3008 120.788 99.226 120.777 99.1444C120.367 95.7422 119.08 93.2242 116.944 91.6289C113.046 88.7456 107.578 89.9278 107.523 89.9374C107.482 89.9472 107.439 89.9483 107.397 89.9406C107.355 89.9329 107.315 89.9164 107.28 89.8923C107.244 89.8681 107.213 89.8367 107.189 89.7999C107.165 89.7631 107.148 89.7216 107.14 89.6779C107.13 89.6343 107.129 89.5892 107.137 89.5452C107.144 89.5012 107.16 89.4592 107.183 89.4216C107.206 89.3841 107.235 89.3517 107.27 89.3264C107.305 89.3011 107.345 89.2833 107.386 89.2742C107.624 89.2742 113.183 88.0056 117.309 91.0714C119.6 92.7725 120.96 95.4635 121.426 99.0579C121.433 99.1468 121.408 99.2354 121.356 99.3052C121.303 99.375 121.227 99.4208 121.143 99.4328L121.097 99.4424Z" fill="#263238"/>
<path d="M92.5249 126.17C87.0479 125.977 72.0044 150.331 77.1619 158.99C82.3194 167.649 103.698 154.185 103.698 154.185L101.872 146.89C101.872 146.89 88.691 149.668 87.979 148.313C87.267 146.958 92.5432 139.874 92.5432 139.874C92.5432 139.874 95.0352 138.241 94.2776 133.003C93.5199 127.765 92.5249 126.17 92.5249 126.17Z" fill="#A12366"/>
<path d="M102.867 155.973L104.583 155.905L103.607 145.641L101.288 145.66L102.867 155.973Z" fill="#A12366"/>
<path d="M181.71 111.878L184.622 113.983L172.015 123.786L170.893 118.952L181.71 111.878Z" fill="#EEC1BB"/>
<path d="M192.288 108.726C191.567 107.871 187.295 104.767 186.382 105.305C185.47 105.843 182.165 111.437 181.143 112.032C181.024 112.1 183.051 115.973 183.051 115.973C183.964 116.047 184.882 116.018 185.789 115.886C186.565 115.665 193.019 109.562 192.288 108.726Z" fill="#EEC1BB"/>
<path d="M125.524 123.152C142.092 124.344 152.681 124.911 158.706 122.604C164.731 120.297 175.822 115.069 175.822 115.069L179.007 121.556C179.007 121.556 159.263 132.407 155.739 132.811C152.216 133.214 126.885 136.52 126.885 136.52L125.524 123.152Z" fill="#A12366"/>
<path d="M115.701 150.292C115.674 150.402 115.67 150.516 115.69 150.627C115.71 150.739 115.753 150.844 115.815 150.936C115.878 151.027 115.959 151.103 116.053 151.158C116.147 151.213 116.251 151.246 116.359 151.253L124.647 152.214C124.878 152.238 125.109 152.173 125.299 152.032C125.488 151.891 125.623 151.683 125.679 151.446L129.33 134.425C129.358 134.309 129.364 134.188 129.346 134.069C129.328 133.951 129.288 133.837 129.227 133.735C129.167 133.634 129.087 133.546 128.993 133.478C128.9 133.41 128.794 133.363 128.682 133.339L120.384 132.378C120.141 132.383 119.906 132.473 119.717 132.635C119.528 132.797 119.397 133.021 119.344 133.272L115.701 150.292Z" fill="#263238"/>
<path opacity="0.5" d="M120.267 133.262L116.615 150.446C116.581 150.545 116.569 150.651 116.58 150.756C116.592 150.86 116.627 150.96 116.682 151.048C116.737 151.136 116.811 151.209 116.897 151.261C116.984 151.314 117.081 151.344 117.181 151.35L124.219 152.157C124.685 152.205 125.579 152.032 125.68 151.551L129.331 134.31C129.441 133.82 128.674 133.349 128.199 133.281L121.17 132.474C120.956 132.473 120.747 132.551 120.582 132.695C120.417 132.839 120.305 133.04 120.267 133.262Z" fill="white"/>
<path d="M123.233 144.824C122.767 143.776 119.499 139.538 118.486 139.788C117.473 140.038 112.799 144.42 111.658 144.68C111.847 146.144 112.106 147.597 112.434 149.033C113.286 149.373 114.171 149.614 115.072 149.754C115.93 149.783 123.717 145.872 123.233 144.824Z" fill="#EEC1BB"/>
<path opacity="0.6" d="M102.867 155.973L104.583 155.905L103.607 145.641L101.288 145.66L102.867 155.973Z" fill="white"/>
<path d="M179.482 123.584L180.961 122.652L175.439 114.127L173.412 115.319L179.482 123.584Z" fill="#A12366"/>
<path opacity="0.6" d="M179.482 123.584L180.961 122.652L175.439 114.127L173.412 115.319L179.482 123.584Z" fill="white"/>
</svg>
