<svg width="277" height="241" viewBox="0 0 277 241" fill="none" xmlns="http://www.w3.org/2000/svg">
<path d="M138.5 240.573C214.991 240.573 277 238.29 277 235.473C277 232.656 214.991 230.373 138.5 230.373C62.0086 230.373 0 232.656 0 235.473C0 238.29 62.0086 240.573 138.5 240.573Z" fill="#A12366"/>
<path opacity="0.8" d="M138.5 240.573C214.991 240.573 277 238.29 277 235.473C277 232.656 214.991 230.373 138.5 230.373C62.0086 230.373 0 232.656 0 235.473C0 238.29 62.0086 240.573 138.5 240.573Z" fill="white"/>
<path d="M205.066 43.7629C204.794 43.7629 204.532 43.8701 204.34 44.0609C204.147 44.2517 204.039 44.5104 204.039 44.7803V49.9957H185.275V44.7803C185.275 44.5104 185.167 44.2517 184.975 44.0609C184.782 43.8701 184.521 43.7629 184.249 43.7629C183.976 43.7629 183.715 43.8701 183.522 44.0609C183.33 44.2517 183.222 44.5104 183.222 44.7803V176.15C183.222 176.42 183.33 176.678 183.522 176.869C183.715 177.06 183.976 177.167 184.249 177.167C184.521 177.167 184.782 177.06 184.975 176.869C185.167 176.678 185.275 176.42 185.275 176.15V146.763H204.039V176.15C204.039 176.42 204.147 176.678 204.34 176.869C204.532 177.06 204.794 177.167 205.066 177.167C205.338 177.167 205.6 177.06 205.792 176.869C205.985 176.678 206.093 176.42 206.093 176.15V44.7599C206.087 44.4936 205.977 44.2401 205.785 44.0537C205.593 43.8673 205.335 43.7629 205.066 43.7629V43.7629ZM204.039 144.749H185.275V138.156H204.039V144.749ZM204.039 136.115H185.275V129.53H204.039V136.115ZM204.039 127.488H185.275V120.923H204.039V127.488ZM204.039 118.868H185.275V112.33H204.039V118.868ZM204.039 110.255H185.275V103.791H204.039V110.255ZM204.039 101.669H185.275V95.1646H204.039V101.669ZM204.039 93.1232H185.275V86.5581H204.039V93.1232ZM204.039 84.4963H185.275V77.9312H204.039V84.4963ZM204.039 75.8898H185.275V69.3044H204.039V75.8898ZM204.039 67.263H185.275V60.664H204.039V67.263ZM204.039 58.6293H185.275V52.0303H204.039V58.6293Z" fill="white"/>
<path d="M45.9293 4.50818C45.089 3.76438 44.0631 3.257 42.958 3.03875C41.8529 2.8205 40.709 2.89933 39.6451 3.26706C35.88 4.50818 32.2724 9.89994 33.1828 14.4643C33.8195 17.6247 36.7768 22.284 37.6735 24.0609C38.5703 25.8378 37.3107 28.8423 34.463 35.0818C31.6152 41.3213 30.513 47.1743 38.7688 52.3287C47.0246 57.483 56.3688 49.3039 61.1608 43.4374C65.9527 37.5708 57.5668 24.0609 56.848 18.3436C56.1292 12.6263 54.897 1.66649 45.9293 4.50818Z" fill="#263238"/>
<path d="M65.3356 43.8306C63.2814 45.8668 60.7993 47.4294 58.0661 48.4071C55.3329 49.3847 52.4157 49.7534 49.5223 49.4869L47.5439 57.6594L51.309 76.3172L75.8915 63.6955L70.3261 49.453L65.3356 43.8306Z" fill="#A12366" stroke="#263238" stroke-width="0.875837" stroke-linecap="round" stroke-linejoin="round"/>
<path opacity="0.3" d="M65.3356 43.8306C63.2814 45.8668 60.7993 47.4294 58.0661 48.4071C55.3329 49.3847 52.4157 49.7534 49.5223 49.4869L47.5439 57.6594L51.309 76.3172L75.8915 63.6955L70.3261 49.453L65.3356 43.8306Z" fill="#263238"/>
<path d="M65.3351 43.8308L61.5701 19.1166L50.4117 21.3818L44.8463 24.9357C44.8463 24.9357 38.2061 30.0969 38.2061 30.6259C38.2061 31.1549 49.4397 49.7787 49.4397 49.7787C52.3623 49.95 55.2886 49.5089 58.0276 48.484C60.7665 47.4591 63.2565 45.8735 65.3351 43.8308Z" fill="white"/>
<path d="M65.3351 43.8308L61.5701 19.1166L50.4117 21.3818L44.8463 24.9357C44.8463 24.9357 38.2061 30.0969 38.2061 30.6259C38.2061 31.1549 49.4397 49.7787 49.4397 49.7787C52.3623 49.95 55.2886 49.5089 58.0276 48.484C60.7665 47.4591 63.2565 45.8735 65.3351 43.8308Z" stroke="#263238" stroke-width="0.875837" stroke-linecap="round" stroke-linejoin="round"/>
<path opacity="0.5" d="M50.3635 42.7728C50.3635 42.7728 58.2291 36.9945 57.5035 38.7036C56.7779 40.4126 51.3425 44.6786 49.8843 44.8074C48.4262 44.9363 50.3635 42.7728 50.3635 42.7728Z" fill="#A12366"/>
<path d="M50.6035 31.7994L50.9116 32.1181L52.8283 34.1257L53.3212 41.8371L55.6692 41.4708L53.8141 34.2478L56.7851 40.3653L59.2563 37.9169L53.9442 33.1423L53.8141 29.351L51.0964 28.0013" fill="#263238"/>
<path d="M46.2845 22.6435C46.2845 22.6435 43.9502 23.7083 43.9502 25.8379C43.9502 27.9675 46.4762 33.0338 48.0575 34.0986C49.6389 35.1634 52.3497 30.287 52.3497 30.287C52.3497 30.287 56.4571 32.2403 57.5524 30.4634C58.6477 28.6864 55.04 22.8198 52.7125 21.2192C50.385 19.6186 46.2845 22.6435 46.2845 22.6435Z" fill="white" stroke="#263238" stroke-width="0.875837" stroke-linecap="round" stroke-linejoin="round"/>
<path d="M44.3135 20.507C44.9553 22.1317 45.4949 23.7943 45.929 25.4851C46.285 27.2621 51.1317 30.287 51.6656 30.4633C52.1996 30.6397 52.5624 24.773 52.5624 24.773L51.1317 17.8416L44.3135 20.507Z" fill="white"/>
<g style="mix-blend-mode:multiply" opacity="0.5">
<path d="M51.2807 18.5808C50.9796 18.4971 50.6731 18.4337 50.3634 18.3909L45.414 20.1204L44.7637 21.8024C45.0923 22.7112 45.5098 23.932 45.7631 24.9223C46.5746 25.5704 47.5549 25.9773 48.5903 26.0956C50.0758 26.1973 51.3834 25.0579 52.3075 23.6607L51.2807 18.5808Z" fill="#A12366"/>
</g>
<path d="M44.3135 20.507C44.9553 22.1317 45.4949 23.7943 45.929 25.4851C46.285 27.2621 51.1317 30.287 51.6656 30.4633C52.1996 30.6397 52.5624 24.773 52.5624 24.773L51.1317 17.8416L44.3135 20.507Z" stroke="#263238" stroke-width="0.875837" stroke-linecap="round" stroke-linejoin="round"/>
<path d="M41.0819 17.4824C41.0819 17.4824 39.1035 15.8886 39.1035 17.4824C39.1035 19.0763 40.9039 19.9716 42.3346 19.9716" fill="white"/>
<path d="M41.0819 17.4824C41.0819 17.4824 39.1035 15.8886 39.1035 17.4824C39.1035 19.0763 40.9039 19.9716 42.3346 19.9716" stroke="#263238" stroke-width="0.875837" stroke-linecap="round" stroke-linejoin="round"/>
<path d="M51.6641 12.3277C51.6641 12.3277 52.9236 10.3744 53.2796 12.5108C53.4436 13.9016 53.0585 15.3014 52.2049 16.4174L51.6641 12.3277Z" fill="white" stroke="#263238" stroke-width="0.875837" stroke-linecap="round" stroke-linejoin="round"/>
<g opacity="0.5">
<path d="M41.0819 17.4824C41.0819 17.4824 39.1035 15.8886 39.1035 17.4824C39.1035 19.0763 40.9039 19.9716 42.3346 19.9716" fill="#A12366"/>
<path d="M41.0819 17.4824C41.0819 17.4824 39.1035 15.8886 39.1035 17.4824C39.1035 19.0763 40.9039 19.9716 42.3346 19.9716" stroke="#263238" stroke-width="0.875837" stroke-linecap="round" stroke-linejoin="round"/>
</g>
<path opacity="0.5" d="M51.6641 12.3277C51.6641 12.3277 52.9236 10.3744 53.2796 12.5108C53.4436 13.9016 53.0585 15.3014 52.2049 16.4174L51.6641 12.3277Z" fill="#A12366" stroke="#263238" stroke-width="0.875837" stroke-linecap="round" stroke-linejoin="round"/>
<path d="M38.8564 12.3416C38.8564 12.3416 40.3967 18.6964 43.7031 21.8365C47.0096 24.9766 50.5487 25.0037 51.7741 19.4085C52.7804 14.7967 50.2817 8.64532 50.2817 8.64532C50.2817 8.64532 42.2176 2.06671 38.8564 12.3416Z" fill="white"/>
<g style="mix-blend-mode:multiply" opacity="0.5">
<path d="M44.6006 6.57666L45.8533 9.69639C45.8533 9.69639 47.8249 9.26234 48.9338 11.6225C50.0428 13.9826 51.1587 17.4415 50.522 20.1204C49.9128 22.6704 48.4684 23.5114 46.2435 23.5724C48.6669 24.5965 50.8643 23.5724 51.7748 19.3947C52.7811 14.7829 50.2824 8.63161 50.2824 8.63161C50.2824 8.63161 47.551 6.41389 44.6006 6.57666Z" fill="#A12366"/>
</g>
<path d="M38.8564 12.3416C38.8564 12.3416 40.3967 18.6964 43.7031 21.8365C47.0096 24.9766 50.5487 25.0037 51.7741 19.4085C52.7804 14.7967 50.2817 8.64532 50.2817 8.64532C50.2817 8.64532 42.2176 2.06671 38.8564 12.3416Z" stroke="#263238" stroke-width="0.875837" stroke-linecap="round" stroke-linejoin="round"/>
<path d="M44.976 15.6984C45.1677 16.0579 45.1334 16.4445 44.9007 16.5666C44.6679 16.6887 44.3257 16.492 44.1408 16.1325C43.956 15.773 43.9834 15.3931 44.2161 15.271C44.4489 15.149 44.7912 15.3457 44.976 15.6984Z" fill="#263238"/>
<path d="M48.5497 14.6C48.6866 14.9798 48.5976 15.3597 48.3512 15.4411C48.1047 15.5225 47.7898 15.2918 47.6666 14.912C47.5434 14.5322 47.6187 14.1524 47.8651 14.071C48.1116 13.9896 48.4128 14.2338 48.5497 14.6Z" fill="#263238"/>
<path d="M48.7965 12.5654C48.5169 12.3792 48.1833 12.2891 47.847 12.3087C47.5107 12.3283 47.1902 12.4566 46.9345 12.6739C45.9487 13.4335 47.8107 17.2382 47.8107 17.2382C47.8107 17.2382 47.845 18.4386 46.291 17.8825" stroke="#263238" stroke-width="0.437919" stroke-linecap="round" stroke-linejoin="round"/>
<path d="M48.7949 19.1166C48.6882 19.3664 48.5245 19.5882 48.3165 19.7646C48.1086 19.941 47.8621 20.067 47.5966 20.1328C47.331 20.1986 47.0537 20.2023 46.7864 20.1437C46.5192 20.0851 46.2693 19.9657 46.0566 19.795" stroke="#263238" stroke-width="0.437919" stroke-linecap="round" stroke-linejoin="round"/>
<path d="M44.6276 13.5759C44.6276 13.5759 42.8751 11.9414 42.1084 15.0951" stroke="#263238" stroke-width="0.437919" stroke-linecap="round" stroke-linejoin="round"/>
<path d="M50.3849 6.63102C48.4612 4.9762 46.9073 4.99655 46.2296 5.21357C45.5952 4.8214 44.8738 4.5886 44.128 4.53536C38.7474 3.82325 38.0286 7.9264 38.0286 11.8261C38.0286 15.7258 34.6058 20.3579 36.9538 20.8937C37.5964 21.0465 38.2728 20.9697 38.8638 20.6769C39.4549 20.3841 39.9227 19.8941 40.1849 19.2932C40.1849 19.2932 42.6973 15.2239 42.6973 12.3551C42.6973 9.48628 45.8257 9.75756 45.8257 9.75756C45.9608 9.56002 46.1374 9.39374 46.3434 9.27015C46.5494 9.14655 46.7799 9.06854 47.0192 9.04149C47.2585 9.01443 47.5008 9.03896 47.7297 9.1134C47.9585 9.18783 48.1683 9.3104 48.3449 9.47272C49.7688 10.6799 49.9331 12.0974 51.0831 12.4636C52.2332 12.8298 54.1568 10.9987 54.1568 10.9987C53.061 9.41318 51.7964 7.94889 50.3849 6.63102V6.63102Z" fill="#263238"/>
<path d="M45.9774 7.69571C45.9774 7.69571 43.8142 5.97305 41.87 7.90595C39.9259 9.83886 40.1381 13.4944 39.4877 15.8614C38.8374 18.2284 37.0986 18.6556 37.0986 18.6556" stroke="white" stroke-width="0.437919" stroke-linecap="round" stroke-linejoin="round"/>
<path d="M44.4619 7.05127C44.4619 7.05127 42.1276 4.75889 39.1908 7.66166C36.9523 9.88621 37.9518 11.3444 37.5137 15" stroke="white" stroke-width="0.437919" stroke-linecap="round" stroke-linejoin="round"/>
<path d="M47.0645 6.61763C47.0645 6.61763 51.1718 4.68486 52.9243 9.62866" stroke="white" stroke-width="0.437919" stroke-linecap="round" stroke-linejoin="round"/>
<path d="M38.206 30.6395L31.9971 55.3945L50.2063 60.5082L51.1031 57.307L39.1439 51.8406L43.2033 37.598C43.2033 37.598 42.6693 34.9326 39.7805 31.9146" fill="white"/>
<g style="mix-blend-mode:multiply" opacity="0.5">
<path d="M51.1313 57.3268L39.1721 51.8604L43.2315 37.6182C42.9136 36.4359 42.3976 35.3148 41.705 34.3018L41.3148 34.0101V37.9437C41.3148 40.4598 38.1384 48.483 37.0226 50.3684C35.9067 52.2538 34.168 54.614 34.168 54.614L37.6592 53.0405L50.8917 58.2898L51.1313 57.3268Z" fill="#A12366"/>
</g>
<path d="M38.206 30.6395L31.9971 55.3945L50.2063 60.5082L51.1031 57.307L39.1439 51.8406L43.2033 37.598C43.2033 37.598 42.6693 34.9326 39.7805 31.9146" stroke="#263238" stroke-width="0.875837" stroke-linecap="round" stroke-linejoin="round"/>
<path d="M89.4045 38.0727L75.6175 35.2039L61.5361 19.0826L63.6172 32.0502L72.2563 40.2023L89.6168 40.9891L89.4045 38.0727Z" fill="white"/>
<g style="mix-blend-mode:multiply" opacity="0.5">
<path d="M61.5361 19.0826L63.2133 29.4322L64.2812 32.6673L64.4181 32.7894C64.822 32.3756 67.1016 30.029 67.6835 30.029C68.2653 30.029 74.8303 35.6921 73.8787 36.133L72.9203 36.6009L89.2745 39.2731L89.3909 38.032L75.6312 35.1699L61.5361 19.0826Z" fill="#A12366"/>
</g>
<path d="M89.4045 38.0727L75.6175 35.2039L61.5361 19.0826L63.6172 32.0502L72.2563 40.2023L89.6168 40.9891L89.4045 38.0727Z" stroke="#263238" stroke-width="0.875837" stroke-linecap="round" stroke-linejoin="round"/>
<path d="M218.107 175.336L42.538 149.849C41.9799 149.767 41.4774 149.468 41.1411 149.019C40.8048 148.571 40.6621 148.008 40.7445 147.455L55.3666 48.6325C55.4069 48.359 55.5011 48.096 55.644 47.8586C55.787 47.6212 55.9757 47.4141 56.1995 47.249C56.4234 47.084 56.6778 46.9643 56.9484 46.8968C57.2189 46.8293 57.5003 46.8153 57.7763 46.8556L61.1032 47.3372C61.5247 47.3998 61.9553 47.3349 62.3389 47.151C62.7224 46.9671 63.041 46.6726 63.2528 46.3063L67.6682 38.7442C67.8023 38.5068 67.984 38.2991 68.2021 38.1338C69.2358 37.3933 70.5204 37.0819 71.7824 37.2657L116.039 43.6952C117.032 43.8364 117.957 44.2768 118.688 44.9566C118.883 45.1503 119.037 45.381 119.14 45.6349L123.076 55.2926C123.214 55.6342 123.441 55.9337 123.733 56.1611C124.025 56.3885 124.372 56.5357 124.74 56.588L233.345 72.3632C233.903 72.4437 234.406 72.7403 234.744 73.1879C235.081 73.6355 235.226 74.1974 235.146 74.7505L220.523 173.566C220.439 174.118 220.137 174.614 219.684 174.945C219.231 175.277 218.664 175.418 218.107 175.336V175.336Z" fill="#263238" stroke="#263238" stroke-width="0.875837" stroke-miterlimit="10"/>
<path d="M219.977 174.854H45.9556C45.4504 174.854 44.9501 174.756 44.4833 174.564C44.0166 174.373 43.5925 174.092 43.2352 173.738C42.878 173.384 42.5946 172.964 42.4012 172.501C42.2079 172.039 42.1084 171.543 42.1084 171.043V74.5742C42.1084 73.5633 42.5137 72.5938 43.2352 71.879C43.9567 71.1642 44.9353 70.7626 45.9556 70.7626H46.428C47.1982 70.7611 47.9504 70.5318 48.5883 70.1041C49.2261 69.6763 49.7206 69.0697 50.0082 68.3618L52.6575 61.7628C52.9536 61.0012 53.495 60.3575 54.1977 59.9316C54.9527 59.49 55.8128 59.2559 56.6895 59.2534H101.419C102.02 59.2528 102.616 59.3608 103.178 59.5722C103.959 59.8839 104.61 60.4479 105.026 61.1728L109.579 68.8569C109.918 69.4308 110.403 69.9068 110.985 70.2376C111.568 70.5683 112.227 70.7423 112.899 70.7423H219.977C220.998 70.7423 221.976 71.1439 222.698 71.8587C223.419 72.5735 223.825 73.543 223.825 74.5538V171.043C223.825 171.543 223.725 172.039 223.532 172.501C223.338 172.964 223.055 173.384 222.698 173.738C222.341 174.092 221.916 174.373 221.45 174.564C220.983 174.756 220.483 174.854 219.977 174.854V174.854Z" fill="#A12366"/>
<path opacity="0.1" d="M219.977 174.854H45.9556C45.4504 174.854 44.9501 174.756 44.4833 174.564C44.0166 174.373 43.5925 174.092 43.2352 173.738C42.878 173.384 42.5946 172.964 42.4012 172.501C42.2079 172.039 42.1084 171.543 42.1084 171.043V74.5742C42.1084 73.5633 42.5137 72.5938 43.2352 71.879C43.9567 71.1642 44.9353 70.7626 45.9556 70.7626H46.428C47.1982 70.7611 47.9504 70.5318 48.5883 70.1041C49.2261 69.6763 49.7206 69.0697 50.0082 68.3618L52.6575 61.7628C52.9536 61.0012 53.495 60.3575 54.1977 59.9316C54.9527 59.49 55.8128 59.2559 56.6895 59.2534H101.419C102.02 59.2528 102.616 59.3608 103.178 59.5722C103.959 59.8839 104.61 60.4479 105.026 61.1728L109.579 68.8569C109.918 69.4308 110.403 69.9068 110.985 70.2376C111.568 70.5683 112.227 70.7423 112.899 70.7423H219.977C220.998 70.7423 221.976 71.1439 222.698 71.8587C223.419 72.5735 223.825 73.543 223.825 74.5538V171.043C223.825 171.543 223.725 172.039 223.532 172.501C223.338 172.964 223.055 173.384 222.698 173.738C222.341 174.092 221.916 174.373 221.45 174.564C220.983 174.756 220.483 174.854 219.977 174.854V174.854Z" fill="#263238"/>
<path d="M219.977 174.854H45.9556C45.4504 174.854 44.9501 174.756 44.4833 174.564C44.0166 174.373 43.5925 174.092 43.2352 173.738C42.878 173.384 42.5946 172.964 42.4012 172.501C42.2079 172.039 42.1084 171.543 42.1084 171.043V74.5742C42.1084 73.5633 42.5137 72.5938 43.2352 71.879C43.9567 71.1642 44.9353 70.7626 45.9556 70.7626H46.428C47.1982 70.7611 47.9504 70.5318 48.5883 70.1041C49.2261 69.6763 49.7206 69.0697 50.0082 68.3618L52.6575 61.7628C52.9536 61.0012 53.495 60.3575 54.1977 59.9316C54.9527 59.49 55.8128 59.2559 56.6895 59.2534H101.419C102.02 59.2528 102.616 59.3608 103.178 59.5722C103.959 59.8839 104.61 60.4479 105.026 61.1728L109.579 68.8569C109.918 69.4308 110.403 69.9068 110.985 70.2376C111.568 70.5683 112.227 70.7423 112.899 70.7423H219.977C220.998 70.7423 221.976 71.1439 222.698 71.8587C223.419 72.5735 223.825 73.543 223.825 74.5538V171.043C223.825 171.543 223.725 172.039 223.532 172.501C223.338 172.964 223.055 173.384 222.698 173.738C222.341 174.092 221.916 174.373 221.45 174.564C220.983 174.756 220.483 174.854 219.977 174.854V174.854Z" stroke="#263238" stroke-width="0.875837" stroke-miterlimit="10"/>
<path d="M91.2791 70.4371H63.4313C62.7668 70.4371 62.1295 70.1756 61.6596 69.7101C61.1898 69.2446 60.9258 68.6133 60.9258 67.955V67.955C60.9249 67.6285 60.989 67.305 61.1145 67.003C61.2401 66.7011 61.4245 66.4267 61.6572 66.1955C61.89 65.9643 62.1665 65.7808 62.4709 65.6557C62.7753 65.5305 63.1017 65.4661 63.4313 65.4661H91.2791C91.9454 65.4661 92.5845 65.7283 93.0556 66.1951C93.5268 66.6618 93.7915 67.2949 93.7915 67.955V67.955C93.7915 68.2815 93.7264 68.6048 93.6001 68.9064C93.4738 69.208 93.2886 69.4819 93.0552 69.7125C92.8218 69.9431 92.5448 70.1258 92.24 70.2501C91.9353 70.3745 91.6087 70.438 91.2791 70.4371V70.4371Z" fill="white"/>
<path d="M219.977 191.688H45.9556C44.9353 191.688 43.9567 191.286 43.2352 190.571C42.5137 189.856 42.1084 188.887 42.1084 187.876V91.4075C42.1084 90.3966 42.5137 89.4271 43.2352 88.7123C43.9567 87.9975 44.9353 87.596 45.9556 87.596H46.428C47.1984 87.5953 47.9511 87.3664 48.5891 86.9385C49.2271 86.5107 49.7214 85.9035 50.0082 85.1951L52.6575 78.6029C52.9518 77.8402 53.4936 77.1961 54.1977 76.7717C54.9515 76.3273 55.8124 76.093 56.6895 76.0935H101.419C102.02 76.0929 102.616 76.2009 103.178 76.4123C103.961 76.7243 104.612 77.2912 105.026 78.0196L109.579 85.7105C109.918 86.2845 110.403 86.7605 110.985 87.0912C111.568 87.422 112.227 87.596 112.899 87.596H219.977C220.998 87.596 221.976 87.9975 222.698 88.7123C223.419 89.4271 223.825 90.3966 223.825 91.4075V187.876C223.825 188.887 223.419 189.856 222.698 190.571C221.976 191.286 220.998 191.688 219.977 191.688V191.688Z" fill="#263238" stroke="#263238" stroke-width="0.875837" stroke-miterlimit="10"/>
<path d="M104.621 50.545L76.9918 47.154C76.3319 47.0709 75.7319 46.7327 75.3228 46.213C74.9137 45.6933 74.7286 45.0344 74.8081 44.3801C74.8918 43.7255 75.2344 43.1305 75.7607 42.7261C76.2871 42.3217 76.9539 42.1409 77.6148 42.2234L105.237 45.6144C105.897 45.6958 106.498 46.0336 106.908 46.5537C107.317 47.0738 107.502 47.7337 107.42 48.3883V48.3883C107.38 48.7122 107.275 49.0249 107.112 49.3087C106.95 49.5924 106.732 49.8416 106.472 50.0419C106.212 50.2422 105.915 50.3898 105.597 50.4761C105.279 50.5624 104.947 50.5858 104.621 50.545V50.545Z" fill="#A12366"/>
<path opacity="0.5" d="M104.621 50.545L76.9918 47.154C76.3319 47.0709 75.7319 46.7327 75.3228 46.213C74.9137 45.6933 74.7286 45.0344 74.8081 44.3801C74.8918 43.7255 75.2344 43.1305 75.7607 42.7261C76.2871 42.3217 76.9539 42.1409 77.6148 42.2234L105.237 45.6144C105.897 45.6958 106.498 46.0336 106.908 46.5537C107.317 47.0738 107.502 47.7337 107.42 48.3883V48.3883C107.38 48.7122 107.275 49.0249 107.112 49.3087C106.95 49.5924 106.732 49.8416 106.472 50.0419C106.212 50.2422 105.915 50.3898 105.597 50.4761C105.279 50.5624 104.947 50.5858 104.621 50.545V50.545Z" fill="white"/>
<path d="M91.2791 87.2772H63.4313C63.1017 87.2772 62.7753 87.2128 62.4709 87.0876C62.1665 86.9624 61.89 86.779 61.6572 86.5477C61.4245 86.3165 61.2401 86.0421 61.1145 85.7401C60.989 85.4382 60.9249 85.1147 60.9258 84.7881V84.7881C60.9258 84.1292 61.1895 83.4971 61.6592 83.0305C62.1289 82.5639 62.7662 82.3009 63.4313 82.2991H91.2791C91.9454 82.2991 92.5845 82.5613 93.0556 83.0281C93.5268 83.4949 93.7915 84.128 93.7915 84.7881V84.7881C93.7915 85.4483 93.5268 86.0814 93.0556 86.5482C92.5845 87.0149 91.9454 87.2772 91.2791 87.2772V87.2772Z" fill="#A12366"/>
<path opacity="0.5" d="M91.2791 87.2772H63.4313C63.1017 87.2772 62.7753 87.2128 62.4709 87.0876C62.1665 86.9624 61.89 86.779 61.6572 86.5477C61.4245 86.3165 61.2401 86.0421 61.1145 85.7401C60.989 85.4382 60.9249 85.1147 60.9258 84.7881V84.7881C60.9258 84.1292 61.1895 83.4971 61.6592 83.0305C62.1289 82.5639 62.7662 82.3009 63.4313 82.2991H91.2791C91.9454 82.2991 92.5845 82.5613 93.0556 83.0281C93.5268 83.4949 93.7915 84.128 93.7915 84.7881V84.7881C93.7915 85.4483 93.5268 86.0814 93.0556 86.5482C92.5845 87.0149 91.9454 87.2772 91.2791 87.2772V87.2772Z" fill="white"/>
<path d="M225.665 116.61H40.259C38.2666 116.61 36.6514 118.21 36.6514 120.184V231.336C36.6514 233.31 38.2666 234.91 40.259 234.91H225.665C227.657 234.91 229.273 233.31 229.273 231.336V120.184C229.273 118.21 227.657 116.61 225.665 116.61Z" fill="white"/>
<g style="mix-blend-mode:multiply">
<path d="M229.274 148.451C207.923 168.222 183.664 184.664 157.327 197.215C118.41 215.655 73.9272 228.365 48.0098 234.91H225.66C226.134 234.911 226.604 234.819 227.042 234.64C227.481 234.46 227.879 234.197 228.215 233.865C228.551 233.533 228.817 233.139 228.999 232.705C229.181 232.271 229.274 231.806 229.274 231.336V148.451Z" fill="#A12366"/>
</g>
<path opacity="0.2" d="M229.274 148.451C207.923 168.222 183.664 184.664 157.327 197.215C118.41 215.655 73.9272 228.365 48.0098 234.91H225.66C226.134 234.911 226.604 234.819 227.042 234.64C227.481 234.46 227.879 234.197 228.215 233.865C228.551 233.533 228.817 233.139 228.999 232.705C229.181 232.271 229.274 231.806 229.274 231.336V148.451Z" fill="white"/>
<path d="M225.665 116.61H40.259C38.2666 116.61 36.6514 118.21 36.6514 120.184V231.336C36.6514 233.31 38.2666 234.91 40.259 234.91H225.665C227.657 234.91 229.273 233.31 229.273 231.336V120.184C229.273 118.21 227.657 116.61 225.665 116.61Z" stroke="#263238" stroke-width="0.875837" stroke-miterlimit="10"/>
<path d="M39.4385 127V122.252C39.4403 121.304 39.8219 120.395 40.4996 119.724C41.1772 119.054 42.0955 118.678 43.053 118.678H50.8912" stroke="#263238" stroke-width="0.875837" stroke-miterlimit="10"/>
<path d="M39.4385 199.1V132.785" stroke="#263238" stroke-width="0.875837" stroke-miterlimit="10"/>
<path d="M226.48 221.725V229.233C226.481 229.703 226.388 230.169 226.207 230.603C226.026 231.037 225.761 231.432 225.426 231.765C225.09 232.098 224.692 232.361 224.254 232.541C223.816 232.722 223.347 232.814 222.872 232.814H216.554" stroke="#263238" stroke-width="0.875837" stroke-miterlimit="10"/>
<path d="M226.48 125.331V216.144" stroke="#263238" stroke-width="0.875837" stroke-miterlimit="10"/>
<path d="M161.597 159.866H104.32C103.288 159.866 102.451 160.695 102.451 161.717V190.67C102.451 191.693 103.288 192.522 104.32 192.522H161.597C162.629 192.522 163.466 191.693 163.466 190.67V161.717C163.466 160.695 162.629 159.866 161.597 159.866Z" fill="#263238" stroke="#263238" stroke-width="0.875837" stroke-miterlimit="10"/>
<path d="M161.597 159.866H104.32C103.288 159.866 102.451 160.695 102.451 161.717V167.943C102.451 168.966 103.288 169.795 104.32 169.795H161.597C162.629 169.795 163.466 168.966 163.466 167.943V161.717C163.466 160.695 162.629 159.866 161.597 159.866Z" fill="white" stroke="#263238" stroke-width="0.875837" stroke-miterlimit="10"/>
<path d="M50.207 60.5079L51.4598 62.8205L54.1227 64.7193C54.2901 64.8412 54.4907 64.9102 54.6982 64.9175C54.9058 64.9247 55.1108 64.8699 55.2864 64.76L55.5192 64.6108C55.6885 64.509 55.8145 64.3496 55.8737 64.1623C55.933 63.9751 55.9213 63.7729 55.8409 63.5936L54.3281 60.1485L55.3481 60.9351C55.51 61.0588 55.7141 61.1152 55.9172 61.0924C56.1204 61.0696 56.3066 60.9694 56.4365 60.8131V60.8131C56.5493 60.6735 56.6107 60.5001 56.6107 60.3214C56.6107 60.1426 56.5493 59.9692 56.4365 59.8297L54.0611 56.8525L51.0901 57.3069L50.207 60.5079Z" fill="white" stroke="#263238" stroke-width="0.875837" stroke-miterlimit="10"/>
<path d="M55.5463 64.6109L53.1641 61.5117" stroke="#263238" stroke-width="0.437919" stroke-linecap="round" stroke-linejoin="round"/>
<path d="M54.1501 64.7198L52.2812 62.2644" stroke="#263238" stroke-width="0.437919" stroke-linecap="round" stroke-linejoin="round"/>
<path d="M89.4033 38.0728L93.1273 38.2898L97.6591 41.1587C97.6591 41.1587 97.9124 42.0336 97.2826 42.1557C96.6528 42.2778 93.2506 41.0366 93.2506 41.0366L89.6155 40.9891L89.4033 38.0728Z" fill="white" stroke="#263238" stroke-width="0.875837" stroke-miterlimit="10"/>
<path d="M89.5957 40.5344L93.5046 42.2843C93.5046 42.2843 94.1344 41.4093 93.2513 41.0363L91.9643 40.1614" fill="white"/>
<path d="M89.5957 40.5344L93.5046 42.2843C93.5046 42.2843 94.1344 41.4093 93.2513 41.0363L91.9643 40.1614" stroke="#263238" stroke-width="0.875837" stroke-linejoin="round"/>
<path d="M227.691 106.674L226.075 101.886L224.261 99.4236C224.231 99.3787 224.187 99.3448 224.136 99.3272C224.084 99.3096 224.029 99.3092 223.977 99.3263C223.926 99.3433 223.881 99.3767 223.851 99.4212C223.82 99.4658 223.806 99.5191 223.809 99.5728V106.667L225.178 108.451L227.691 106.674Z" fill="white"/>
<path d="M254.018 127.61L240.464 128.085C239.964 128.102 239.469 127.978 239.037 127.727C238.606 127.476 238.255 127.109 238.027 126.668L227.69 106.674C227.69 106.674 225.363 107.922 225.185 108.451C225.007 108.98 232.838 128.438 235.241 134.413C235.443 134.914 235.797 135.342 236.254 135.635C236.711 135.929 237.25 136.076 237.794 136.054L252.943 135.416" fill="white"/>
<path d="M254.018 127.61L240.464 128.085C239.964 128.102 239.469 127.978 239.037 127.727C238.606 127.476 238.255 127.109 238.027 126.668L227.69 106.674C227.69 106.674 225.363 107.922 225.185 108.451C225.007 108.98 232.838 128.438 235.241 134.413C235.443 134.914 235.797 135.342 236.254 135.635C236.711 135.929 237.25 136.076 237.794 136.054L252.943 135.416" stroke="#263238" stroke-width="0.875837" stroke-miterlimit="10"/>
<path d="M228.684 109.162L226.562 110.03" stroke="#263238" stroke-width="0.656878" stroke-miterlimit="10"/>
<g opacity="0.5">
<g opacity="0.5">
<path d="M254.018 127.61L240.464 128.085C239.964 128.102 239.469 127.978 239.037 127.727C238.606 127.476 238.255 127.109 238.027 126.668L227.69 106.674C227.69 106.674 225.363 107.922 225.185 108.451C225.007 108.98 232.838 128.438 235.241 134.413C235.443 134.914 235.797 135.342 236.254 135.635C236.711 135.929 237.25 136.076 237.794 136.054L252.943 135.416" fill="#A12366"/>
<path d="M254.018 127.61L240.464 128.085C239.964 128.102 239.469 127.978 239.037 127.727C238.606 127.476 238.255 127.109 238.027 126.668L227.69 106.674C227.69 106.674 225.363 107.922 225.185 108.451C225.007 108.98 232.838 128.438 235.241 134.413C235.443 134.914 235.797 135.342 236.254 135.635C236.711 135.929 237.25 136.076 237.794 136.054L252.943 135.416" stroke="#263238" stroke-width="0.875837" stroke-miterlimit="10"/>
</g>
<path opacity="0.5" d="M228.683 109.163L226.561 110.031" stroke="#263238" stroke-width="0.656878" stroke-miterlimit="10"/>
</g>
<path d="M227.691 106.674L226.075 101.886L224.261 99.4236C224.231 99.3787 224.187 99.3448 224.136 99.3272C224.084 99.3096 224.029 99.3092 223.977 99.3263C223.926 99.3433 223.881 99.3767 223.851 99.4212C223.82 99.4658 223.806 99.5191 223.809 99.5728V106.667L225.178 108.451L227.691 106.674Z" fill="#A12366"/>
<path opacity="0.5" d="M227.691 106.674L226.075 101.886L224.261 99.4236C224.231 99.3787 224.187 99.3448 224.136 99.3272C224.084 99.3096 224.029 99.3092 223.977 99.3263C223.926 99.3433 223.881 99.3767 223.851 99.4212C223.82 99.4658 223.806 99.5191 223.809 99.5728V106.667L225.178 108.451L227.691 106.674Z" fill="white"/>
<path d="M227.691 106.674L226.075 101.886L224.261 99.4236C224.231 99.3787 224.187 99.3448 224.136 99.3272C224.084 99.3096 224.029 99.3092 223.977 99.3263C223.926 99.3433 223.881 99.3767 223.851 99.4212C223.82 99.4658 223.806 99.5191 223.809 99.5728V106.667L225.178 108.451L227.691 106.674Z" stroke="#263238" stroke-width="0.875837" stroke-miterlimit="10"/>
<path d="M258.216 114.975C257.565 115.793 257.098 116.738 256.847 117.749C256.648 119.051 256.963 124.063 256.963 124.063L249.912 124.85C249.912 124.85 250.446 119.757 250.473 118.909C250.699 117.858 251.149 116.866 251.792 116.001C252.435 115.135 253.258 114.416 254.204 113.89C256.628 112.71 258.688 113.287 258.216 114.975Z" fill="white"/>
<g style="mix-blend-mode:multiply" opacity="0.5">
<path d="M258.167 115.029C256.887 114.683 255.333 114.297 254.019 113.985C253.115 114.518 252.332 115.229 251.719 116.075C251.105 116.921 250.674 117.883 250.452 118.902C250.452 119.227 250.357 120.177 250.261 121.221C250.945 121.065 252.034 120.828 252.842 120.685C253.481 120.583 254.111 120.427 254.724 120.217L254.484 124.287H254.642L256.942 124.029C256.942 124.029 256.627 119.017 256.826 117.715C257.076 116.736 257.533 115.82 258.167 115.029V115.029Z" fill="#A12366"/>
</g>
<path d="M258.216 114.975C257.565 115.793 257.098 116.738 256.847 117.749C256.648 119.051 256.963 124.063 256.963 124.063L249.912 124.85C249.912 124.85 250.446 119.757 250.473 118.909C250.699 117.858 251.149 116.866 251.792 116.001C252.435 115.135 253.258 114.416 254.204 113.89C256.628 112.71 258.688 113.287 258.216 114.975Z" stroke="#263238" stroke-width="0.879306" stroke-miterlimit="10"/>
<path d="M259.68 115.836C265.527 108.186 251.431 100.238 247.728 107.84C247.212 108.778 246.803 109.77 246.51 110.797C245.948 111.136 244.456 112.045 244.182 112.296C243.908 112.547 244.867 113.191 245.394 113.51C244.387 115.958 244.538 118.536 244.825 119.119C245.325 120.123 247.79 120.136 249.412 119.838C251.034 119.539 251.678 118 252.15 117.579C252.623 117.159 254.978 117.695 255.806 117.939C256.634 118.183 258.544 117.349 259.68 115.836Z" fill="white"/>
<g style="mix-blend-mode:multiply" opacity="0.5">
<path d="M253.895 115.104C253.895 115.104 254.018 115.68 252.841 116.148C251.663 116.616 251.43 116.264 251.081 117.078C250.933 117.613 250.633 118.095 250.217 118.466C249.801 118.837 249.286 119.083 248.733 119.173C247.618 119.383 246.491 119.526 245.358 119.601C246.289 120.116 248.138 120.075 249.466 119.838C251.081 119.546 251.732 118 252.204 117.579C252.676 117.159 255.031 117.695 255.86 117.939C256.054 117.977 256.254 117.977 256.448 117.939C256.757 117.257 256.943 116.527 256.996 115.782L253.895 115.104Z" fill="#A12366"/>
</g>
<path d="M259.68 115.836C265.527 108.186 251.431 100.238 247.728 107.84C247.212 108.778 246.803 109.77 246.51 110.797C245.948 111.136 244.456 112.045 244.182 112.296C243.908 112.547 244.867 113.191 245.394 113.51C244.387 115.958 244.538 118.536 244.825 119.119C245.325 120.123 247.79 120.136 249.412 119.838C251.034 119.539 251.678 118 252.15 117.579C252.623 117.159 254.978 117.695 255.806 117.939C256.634 118.183 258.544 117.349 259.68 115.836Z" stroke="#263238" stroke-width="0.875837" stroke-miterlimit="10"/>
<path d="M248.262 111.469C248.111 111.794 247.858 111.998 247.694 111.923C247.53 111.849 247.516 111.523 247.694 111.197C247.872 110.872 248.098 110.668 248.262 110.743C248.426 110.818 248.413 111.143 248.262 111.469Z" fill="#263238"/>
<path d="M248.125 109.38C248.125 109.38 248.81 108.817 248.947 110.112" stroke="#263238" stroke-width="0.437919" stroke-linecap="round" stroke-linejoin="round"/>
<path d="M245.257 114.826C245.257 114.826 245.257 115.504 246.489 115.504" stroke="#263238" stroke-width="0.437919" stroke-linecap="round" stroke-linejoin="round"/>
<path d="M243.586 159.208L243.045 165.841C243.045 165.841 239.301 192.25 239.479 195.282C239.657 198.314 240.061 229.633 240.061 229.633L244.572 230.345L249.638 195.608L256.75 160.307L243.586 159.208Z" fill="#A12366" stroke="#263238" stroke-width="0.875837" stroke-miterlimit="10"/>
<path opacity="0.2" d="M243.586 159.208L243.045 165.841C243.045 165.841 239.301 192.25 239.479 195.282C239.657 198.314 240.061 229.633 240.061 229.633L244.572 230.345L249.638 195.608L256.75 160.307L243.586 159.208Z" fill="#263238"/>
<path d="M249.296 183.332C249.296 183.332 247.564 193.43 246.257 198.381C244.949 203.332 244.956 208.27 244.956 213.641C244.956 219.013 243.005 228.915 243.005 228.915" stroke="#263238" stroke-width="0.656878" stroke-miterlimit="10"/>
<path d="M252.738 157.581C255.709 156.034 258.899 155.01 259.809 157.065C261.617 161.175 259.453 167.421 259.453 167.421L261.103 196.232L264.122 230.99L259.611 230.271C259.611 230.271 252.683 200.939 251.602 199.148C250.52 197.358 248.815 172.243 248.815 172.243L245.393 169.158" fill="#A12366"/>
<path d="M252.738 157.581C255.709 156.034 258.899 155.01 259.809 157.065C261.617 161.175 259.453 167.421 259.453 167.421L261.103 196.232L264.122 230.99L259.611 230.271C259.611 230.271 252.683 200.939 251.602 199.148C250.52 197.358 248.815 172.243 248.815 172.243L245.393 169.158" stroke="#263238" stroke-width="0.875837" stroke-miterlimit="10"/>
<g opacity="0.2">
<path opacity="0.2" d="M252.738 157.581C255.709 156.034 258.899 155.01 259.809 157.065C261.617 161.175 259.453 167.421 259.453 167.421L261.103 196.232L264.122 230.99L259.611 230.271C259.611 230.271 252.683 200.939 251.602 199.148C250.52 197.358 248.815 172.243 248.815 172.243L245.393 169.158" fill="#263238"/>
</g>
<path d="M256.258 179.405C256.36 186.086 257.045 189.3 257.579 191.064C258.229 193.213 258.01 197.296 258.01 199.202C258.01 201.108 257.141 198.775 259.099 207.592C261.057 216.408 262.35 228.657 262.35 228.657" stroke="#263238" stroke-width="0.656878" stroke-miterlimit="10"/>
<path d="M256.258 164.844C256.258 164.844 256.47 164.41 256.258 174.515C256.258 175.057 256.258 175.58 256.258 176.088" stroke="#263238" stroke-width="0.656878" stroke-miterlimit="10"/>
<path d="M246.241 162.924L246.098 165.949L245.393 168.052L246.447 169.273" stroke="#263238" stroke-width="0.656878" stroke-linecap="round" stroke-linejoin="round"/>
<path d="M244.859 164.729C244.859 164.729 246.626 166.478 251.212 165.949" stroke="#263238" stroke-width="0.656878" stroke-linecap="round" stroke-linejoin="round"/>
<path d="M255.696 163.216C259.119 162.538 259.338 161.602 260.522 160.815C260.544 159.533 260.312 158.258 259.838 157.064C258.941 155.03 255.73 156.034 252.766 157.58L251.329 159.832L243.614 159.208L243.367 162.206C247.328 163.552 251.566 163.899 255.696 163.216V163.216Z" fill="#263238"/>
<path d="M244.36 161.283L244.285 162.477L246.243 162.924L246.394 161.358L244.36 161.283Z" fill="white" stroke="#263238" stroke-width="0.656878" stroke-miterlimit="10"/>
<path d="M258.024 163.053L257.695 160.083L258.688 159.757L259.188 162.395" fill="#A12366"/>
<path d="M258.024 163.053L257.695 160.083L258.688 159.757L259.188 162.395" stroke="#263238" stroke-width="0.875837" stroke-miterlimit="10"/>
<path d="M250.369 164.044L249.705 160.578H251.369L252.033 163.549" fill="#A12366"/>
<path d="M250.369 164.044L249.705 160.578H251.369L252.033 163.549" stroke="#263238" stroke-width="0.875837" stroke-miterlimit="10"/>
<g opacity="0.2">
<path opacity="0.2" d="M258.022 163.053L257.693 160.083L258.686 159.757L259.186 162.395" fill="#263238"/>
<path opacity="0.2" d="M250.369 164.044L249.705 160.578H251.369L252.033 163.549" fill="#263238"/>
</g>
<path d="M242.703 132.92C242.703 132.92 242.135 136.684 240.431 143.094C238.726 149.503 237.008 157.187 237.008 157.187L237.959 161.134L240.8 156.997L242.703 132.92Z" fill="#263238" stroke="#263238" stroke-width="0.875837" stroke-miterlimit="10"/>
<path d="M247.447 127.474C247.447 127.474 243.463 128.41 243.086 130.289C242.883 131.153 242.755 132.034 242.703 132.92L248.775 128.037L256.367 125.026L247.447 127.474Z" fill="#263238" stroke="#263238" stroke-width="0.875837" stroke-miterlimit="10"/>
<path d="M248.535 126.023C248.535 126.023 245.297 129.652 244.01 131.144C242.723 132.636 242.716 148.648 242.716 151.001C242.716 153.355 241.429 159.744 243.579 161.025C245.728 162.307 258.879 161.88 260.172 159.744C261.466 157.607 262.322 131.998 262.11 129.652C261.948 128.599 261.53 127.601 260.89 126.745C260.251 125.889 259.41 125.201 258.44 124.741C256.941 124.056 248.535 126.023 248.535 126.023Z" fill="white"/>
<g style="mix-blend-mode:multiply" opacity="0.5">
<path d="M258.44 124.741C258.262 124.67 258.072 124.629 257.879 124.619L256.948 125.101C258.515 126.373 259.593 128.14 260.001 130.106C260.434 132.962 260.395 135.869 259.885 138.713C259.419 141.853 251.903 138.713 253.313 139.879C254.723 141.046 260.001 143.019 260.241 144.064C260.48 145.108 257.626 146.851 256.599 146.973C255.572 147.095 257.284 149.415 258.358 151.388C259.433 153.362 259.043 156.136 256.599 158.021C254.155 159.907 248.48 160.836 246.029 160.931C245.235 160.931 244.742 161.134 244.592 161.365C248.357 162.199 259.015 161.656 260.172 159.744C261.466 157.608 262.322 131.998 262.11 129.652C261.948 128.599 261.53 127.601 260.89 126.745C260.251 125.89 259.41 125.202 258.44 124.741V124.741Z" fill="#A12366"/>
</g>
<path d="M248.535 126.023C248.535 126.023 245.297 129.652 244.01 131.144C242.723 132.636 242.716 148.648 242.716 151.001C242.716 153.355 241.429 159.744 243.579 161.025C245.728 162.307 258.879 161.88 260.172 159.744C261.466 157.607 262.322 131.998 262.11 129.652C261.948 128.599 261.53 127.601 260.89 126.745C260.251 125.889 259.41 125.201 258.44 124.741C256.941 124.056 248.535 126.023 248.535 126.023Z" stroke="#263238" stroke-width="0.875837" stroke-miterlimit="10"/>
<path d="M255.155 142.266C251.684 141.195 248.645 138.197 248.645 138.197C249.415 141.759 251.506 144.906 254.504 147.014" fill="white"/>
<path d="M255.155 142.266C251.684 141.195 248.645 138.197 248.645 138.197C249.415 141.759 251.506 144.906 254.504 147.014" stroke="#263238" stroke-width="0.656878" stroke-linecap="round" stroke-linejoin="round"/>
<path d="M257.798 122.395L247.454 124.741L246.811 127.732L258.441 124.741L257.798 122.395Z" fill="white" stroke="#263238" stroke-width="0.875837" stroke-miterlimit="10"/>
<path d="M245.174 234.822L244.571 230.318L240.06 229.606L236.302 232.258L232.934 234.089V234.822H245.174Z" fill="#263238" stroke="#263238" stroke-width="0.875837" stroke-miterlimit="10"/>
<path d="M264.684 235.174L264.123 230.99L259.612 230.271L255.853 232.922L252.485 234.76V235.174H264.684Z" fill="#263238" stroke="#263238" stroke-width="0.875837" stroke-miterlimit="10"/>
<path d="M225.719 102.767L222.939 101.173C222.939 101.173 221.858 101.045 222.323 102.238L225.103 104.361" fill="white"/>
<path d="M225.719 102.767L222.939 101.173C222.939 101.173 221.858 101.045 222.323 102.238L225.103 104.361" stroke="#263238" stroke-width="0.875837" stroke-linecap="round" stroke-linejoin="round"/>
<path d="M225.308 106.911C225.178 106.584 224.985 106.285 224.74 106.029L224.22 105.473L221.393 102.001C221.393 102.001 220.517 101.418 220.708 102.679L222.461 106.07L219.346 103.174C219.346 103.174 218.757 102.693 218.757 103.371C218.757 104.049 221.584 107.04 221.584 107.04L218.463 105.589C218.463 105.589 217.778 106.07 218.271 106.552C218.764 107.033 221.386 108.003 221.386 108.003L219.052 107.908C219.052 107.908 218.367 108.484 218.853 108.681C219.339 108.878 222.07 109.447 222.07 109.447C222.418 109.74 222.814 109.969 223.241 110.126L223.926 111.38L226.548 110.071L225.308 106.911Z" fill="white" stroke="#263238" stroke-width="0.875837" stroke-linecap="round" stroke-linejoin="round"/>
<path d="M253.301 137.016L237.68 140.645C236.88 140.784 236.056 140.645 235.348 140.251C234.641 139.856 234.093 139.231 233.798 138.481L223.94 111.353L226.562 110.044L237.454 130.031C237.701 130.488 238.09 130.854 238.563 131.075C239.036 131.296 239.569 131.361 240.082 131.259L252.028 127.915" fill="white"/>
<path d="M253.301 137.016L237.68 140.645C236.88 140.784 236.056 140.645 235.348 140.251C234.641 139.856 234.093 139.231 233.798 138.481L223.94 111.353L226.562 110.044L237.454 130.031C237.701 130.488 238.09 130.854 238.563 131.075C239.036 131.296 239.569 131.361 240.082 131.259L252.028 127.915" stroke="#263238" stroke-width="0.875837" stroke-miterlimit="10"/>
<path d="M228.033 112.601L224.993 114.107" stroke="#263238" stroke-width="0.656878" stroke-miterlimit="10"/>
<path d="M251.355 107.922C251.355 107.922 249.691 109.57 250.52 110.804C251.01 111.517 251.385 112.302 251.629 113.13C251.629 113.13 250.944 114.778 251.492 114.778C252.039 114.778 251.766 113.544 252.738 113.822C253.71 114.1 254.675 115.741 253.847 116.291C253.227 116.634 252.57 116.907 251.889 117.105C251.802 117.131 251.725 117.182 251.667 117.251C251.609 117.32 251.572 117.405 251.562 117.494C251.552 117.583 251.568 117.674 251.609 117.754C251.65 117.834 251.714 117.901 251.793 117.946C252.694 118.548 253.731 118.921 254.812 119.031C255.696 119.049 256.579 118.958 257.441 118.759C257.441 118.759 260.179 115.056 262.15 114.093C264.122 113.13 263.259 108.742 263.259 108.193C263.259 107.643 261.322 106.409 261.322 106.409C261.322 106.409 261.876 105.175 259.385 102.435C256.893 99.6948 252.183 99.1387 252.046 100.102C251.998 100.357 252.025 100.62 252.123 100.86C252.221 101.101 252.387 101.308 252.601 101.458C252.601 101.458 248.445 99.6745 246.508 101.594C244.571 103.513 251.355 107.922 251.355 107.922Z" fill="#263238" stroke="#263238" stroke-width="0.875837" stroke-miterlimit="10"/>
<path d="M251.355 107.921C251.355 107.921 254.723 111.991 259.714 112.384" stroke="white" stroke-width="0.437919" stroke-linecap="round" stroke-linejoin="round"/>
<path d="M250.164 109.162C250.164 109.162 251.732 113.68 258.214 114.968" stroke="white" stroke-width="0.437919" stroke-linecap="round" stroke-linejoin="round"/>
</svg>
