<svg width="237" height="131" viewBox="0 0 237 131" fill="none" xmlns="http://www.w3.org/2000/svg">
<g clip-path="url(#clip0)">
<path d="M140.182 195.473H160.584C160.584 195.473 157.37 142.497 157.549 141.574C157.775 140.39 159.127 135.024 160.911 128.019C161.468 125.828 162.073 123.476 162.705 121.039C164.399 114.452 166.272 107.247 167.903 100.98C170.349 91.6111 172.259 84.2751 172.259 84.2751H152.961C152.961 84.2751 150.709 91.3753 147.879 100.619C143.259 115.631 137.088 136.303 136.478 141.323C135.489 149.461 140.182 195.473 140.182 195.473Z" fill="#AD6359"/>
<path d="M153.588 84.2751C153.588 84.2751 154.03 93.4713 156.145 100.755C156.313 101.357 156.497 101.95 156.697 102.521C158.633 103.3 160.495 104.252 162.258 105.366C162.258 105.366 163.205 140.537 163.153 142.717C162.958 150.886 164.731 195.782 164.731 195.782L185.06 195.877C185.06 195.877 182.824 145.735 182.856 142.743C182.898 137.933 181.751 116.684 180.867 101.185C180.56 95.5063 179.856 89.8562 178.762 84.2751H153.588Z" fill="#AD6359"/>
<path d="M152.962 84.2752C152.962 84.2752 137.262 132.588 136.342 138.467C135.805 141.692 135.434 144.941 135.231 148.203C135.231 148.203 148.874 155.041 158.17 154.811C167.467 154.58 183.95 150.902 183.95 150.902C183.95 150.902 181.382 102.395 181.319 101.887C181.256 101.379 184.739 95.9237 179.499 84.1756L152.962 84.2752Z" fill="#263238"/>
<path d="M171.986 54.9783C173.091 59.338 175.142 64.3841 174.148 68.9324C173.348 72.4956 170.713 75.3252 167.808 77.3898C161.421 81.9276 151.662 84.3433 145.301 78.4011C142.765 76.0274 141.234 70.3158 144.06 67.5333C145.512 66.1028 147.453 65.4373 149.237 64.5518C150.361 64.0345 151.353 63.2718 152.141 62.3202C152.929 61.3687 153.492 60.2527 153.787 59.055C155.113 54.0823 153.982 50.8701 153.409 45.9026C153.315 45.4152 153.326 44.9136 153.441 44.4307C153.555 43.9477 153.77 43.494 154.072 43.0992C154.713 42.1449 155.604 41.3838 156.649 40.8984C157.5 40.2989 158.487 39.9206 159.522 39.798C161.737 39.5779 164.231 41.1447 166.167 42.046C167.06 42.3935 167.854 42.9541 168.479 43.6787C169.103 44.4032 169.54 45.2694 169.75 46.2013C170.534 49.1147 171.239 52.0544 171.986 54.9783Z" fill="#263238"/>
<path d="M172.959 56.9433C171.686 53.0133 170.328 49.1147 169.013 45.2004C169.013 45.2004 168.966 45.2004 168.976 45.2004C169.971 48.4492 170.918 51.7085 171.959 54.9468C173.001 58.1852 174.243 61.3134 174.979 64.5622C176.626 71.8616 169.681 76.3942 163.352 77.3112C163.063 77.3531 163.163 77.8352 163.452 77.7566C168.982 76.7714 175.163 73.5646 175.595 67.2766C175.832 63.8391 174.001 60.1711 172.959 56.9433Z" fill="#263238"/>
<path d="M153.683 45.4467C153.683 45.3681 153.551 45.3943 153.562 45.4467C154.209 49.513 155.345 54.1975 153.767 58.1747C152.989 60.1341 151.633 61.8129 149.879 62.9902C148.485 63.9177 146.885 64.3002 145.359 64.9395C139.404 67.4233 141.066 75.7863 146.249 78.1234C146.359 78.1705 146.448 77.9871 146.343 77.9347C142.66 76.064 140.651 71.6939 142.545 67.8006C144.07 64.6566 148.237 64.7142 150.773 62.6758C156.024 58.4786 155.014 51.2631 153.683 45.4467Z" fill="#263238"/>
<path d="M122.078 61.4078C121.968 57.0848 122.604 55.9634 120.568 52.3688C119.232 50.0056 120.174 48.1454 122.546 49.6754C126.434 52.1749 127.75 57.7136 127.655 59.7677L122.078 61.4078Z" fill="#AD6359"/>
<path d="M162.589 66.2967C157.907 75.9174 151.967 86.3345 146.401 87.9746C141.113 89.5466 127.987 76.6929 125.687 72.3699C124.898 70.8765 135.773 63.944 137.236 65.0339C139.982 67.0513 145.027 73.4965 145.859 73.3026C146.69 73.1087 153.608 66.5587 159.859 61.041C163.641 57.6717 165.809 59.6472 162.589 66.2967Z" fill="#AD6359"/>
<path d="M137.056 47.8153L142.454 62.6654C142.521 62.7429 142.563 62.838 142.577 62.9392C142.59 63.0404 142.573 63.1432 142.528 63.2351C142.483 63.3269 142.413 63.4037 142.325 63.4561C142.237 63.5085 142.136 63.5342 142.033 63.53L134.142 64.3212C133.899 64.3267 133.659 64.2637 133.451 64.1395C133.242 64.0153 133.073 63.8349 132.963 63.6191L127.565 48.7689C127.498 48.6915 127.456 48.5963 127.443 48.4951C127.43 48.3939 127.446 48.2911 127.491 48.1993C127.536 48.1075 127.607 48.0307 127.694 47.9783C127.782 47.9259 127.884 47.9002 127.986 47.9043L135.878 47.1131C136.121 47.1076 136.36 47.1706 136.569 47.2948C136.777 47.4191 136.946 47.5995 137.056 47.8153Z" fill="#A6A6A6"/>
<path d="M136.12 47.8991L141.544 62.7545C141.609 62.832 141.65 62.9267 141.663 63.027C141.675 63.1273 141.658 63.229 141.613 63.3198C141.569 63.4106 141.499 63.4867 141.412 63.5389C141.325 63.591 141.225 63.6171 141.123 63.6138L133.232 64.4051C132.989 64.4123 132.749 64.3506 132.541 64.2272C132.332 64.1038 132.163 63.9237 132.053 63.7081L126.629 48.8527C126.564 48.7751 126.523 48.6805 126.511 48.5802C126.498 48.4799 126.516 48.3782 126.56 48.2874C126.605 48.1966 126.674 48.1205 126.761 48.0683C126.848 48.0162 126.948 47.9901 127.05 47.9934L134.942 47.2021C135.184 47.1949 135.424 47.2566 135.632 47.38C135.841 47.5034 136.01 47.6835 136.12 47.8991Z" fill="#DBDBDB"/>
<path d="M134.026 48.816C134.041 48.9491 134.096 49.0745 134.184 49.1763C134.271 49.2782 134.387 49.3519 134.516 49.3881C134.646 49.4244 134.783 49.4215 134.911 49.3798C135.039 49.3382 135.151 49.2596 135.234 49.1542C135.317 49.0487 135.367 48.9211 135.377 48.7876C135.387 48.654 135.357 48.5205 135.29 48.4039C135.224 48.2874 135.124 48.1932 135.004 48.1331C134.884 48.0731 134.748 48.05 134.615 48.0667C134.527 48.0771 134.441 48.1047 134.364 48.1481C134.287 48.1914 134.219 48.2496 134.164 48.3192C134.109 48.3889 134.069 48.4686 134.045 48.5539C134.021 48.6392 134.015 48.7283 134.026 48.816Z" fill="#455A64"/>
<path d="M126.183 73.1978C126.183 73.1978 122.794 68.0835 122.216 63.4933C121.821 60.3178 121.732 53.3172 129.318 47.4851C131.123 46.1017 134.674 45.3891 132.554 48.727C131.049 51.085 129.397 52.133 128.76 53.663C128.76 53.663 133.38 53.3067 134.7 55.1564C135.856 56.7753 136.895 58.4738 137.81 60.2392C137.521 60.4786 137.219 60.7008 136.905 60.9047C136.905 60.9047 138.089 62.6758 137.431 65.8408L126.183 73.1978Z" fill="#AD6359"/>
<path d="M122.326 60.4017C123.268 59.0131 125.315 56.0997 127.819 54.2971C130.602 52.2954 136.5 49.1881 137.962 51.2474C139.015 52.7565 136.91 54.1451 136.91 54.1451C136.91 54.1451 139.62 53.3696 140.293 54.9469C140.898 56.3826 139.172 57.3573 139.172 57.3573C139.172 57.3573 140.898 57.1686 141.219 58.662C141.603 60.4646 137.925 60.5589 136.731 62.7178C136.442 63.2051 122.326 60.4017 122.326 60.4017Z" fill="#AD6359"/>
<path d="M129.443 57.5826C131.488 55.708 134.057 54.498 136.809 54.1137C136.877 54.1137 136.919 54.1557 136.856 54.1766C134.258 55.0174 131.772 56.1699 129.454 57.6088C129.454 57.6088 129.443 57.5931 129.443 57.5826Z" fill="#263238"/>
<path d="M131.548 60.3179C132.6 59.4113 135.972 57.4987 139.119 57.2944C139.187 57.2944 139.229 57.3416 139.166 57.3625C136.529 58.0676 133.98 59.0678 131.569 60.3441C131.569 60.3441 131.548 60.3336 131.548 60.3179Z" fill="#263238"/>
<path d="M139.688 66.5954L129.581 77.9872C129.581 77.9872 141.04 89.9815 146.185 88.5196C151.331 87.0576 160.701 72.7472 163.547 63.7606C165.525 57.5407 162.121 58.6411 158.612 61.7694C155.103 64.8976 145.917 72.6895 145.496 72.59C145.075 72.4904 139.688 66.5954 139.688 66.5954Z" fill="#455A64"/>
<path d="M163.558 63.7605C160.701 72.7471 151.341 87.0576 146.196 88.5196C143.923 89.1693 140.409 87.1834 137.199 84.7677C142.318 79.1609 155.976 65.5526 162.158 59.4271C163.894 58.8035 164.82 59.7939 163.558 63.7605Z" fill="#37474F"/>
<path d="M133.037 79.7164C134.5 78.1444 140.266 71.4843 141.418 69.9647C141.497 69.8599 141.45 69.7813 141.35 69.8809C136.841 74.4921 134.337 78.0396 132.974 79.6587C132.942 79.7006 133 79.7583 133.037 79.7164Z" fill="#263238"/>
<path d="M180.061 85.4385L152.445 85.8943L154.608 77.6571C153.886 76.6228 153.401 75.4435 153.186 74.2023C152.972 72.9611 153.033 71.6881 153.366 70.473C154.024 68.0521 157.17 64.4156 159.095 62.089C163.788 56.4717 167.866 59.0131 169.171 60.4594C174.163 65.9981 180.061 85.4385 180.061 85.4385Z" fill="white"/>
<path d="M167.039 58.8978C167.039 58.8978 164.33 66.0609 163.272 67.6957C162.215 69.3306 159.095 72.265 159.095 72.265C159.095 72.265 158.737 68.0363 159.095 65.6259C159.453 63.2156 161.515 59.7676 161.515 59.7676C160.964 60.0551 160.47 60.4404 160.058 60.9047C157.722 63.2784 153.655 67.9473 153.039 71.1437C152.81 72.2502 152.804 73.3911 153.021 74.5001C153.238 75.6092 153.673 76.6644 154.302 77.6046L151.188 87.4977L155.544 88.8444L157.696 86.3082L159.91 89.1221L182.007 86.0567L178.325 79.1556C178.325 79.1556 173.063 65.5316 170.959 62.5763C168.602 59.1703 167.039 58.8978 167.039 58.8978Z" fill="#455A64"/>
<path d="M162 77.1697C160.818 77.0641 159.629 77.0448 158.444 77.1121C157.86 77.154 157.276 77.2221 156.692 77.3007C156.402 77.3426 156.113 77.3741 155.818 77.4055C155.512 77.4396 155.204 77.4396 154.898 77.4055C154.871 77.4055 154.866 77.4422 154.898 77.4474C155.18 77.5111 155.467 77.5566 155.755 77.5837C156.037 77.602 156.32 77.602 156.602 77.5837C157.197 77.547 157.791 77.4841 158.386 77.4422C159.591 77.3531 160.795 77.2693 162 77.2693C162.063 77.2693 162.063 77.175 162 77.1697Z" fill="#263238"/>
<path d="M164.694 78.7154C163.754 78.4435 162.8 78.2231 161.837 78.0552C161.353 77.9766 160.869 77.9242 160.379 77.8823C160.148 77.8823 159.916 77.8456 159.68 77.8351C159.443 77.8247 159.154 77.8351 158.912 77.8351C158.885 77.8351 158.875 77.8718 158.912 77.877C159.154 77.877 159.396 77.9661 159.632 78.0028L160.353 78.1128C160.837 78.1862 161.321 78.27 161.8 78.3382C162.768 78.4796 163.731 78.6316 164.688 78.8045C164.72 78.8045 164.73 78.7312 164.694 78.7154Z" fill="#263238"/>
<path d="M166.34 59.2227C166.298 59.7467 164.457 63.2261 162.216 63.4619C161.484 63.5352 160.895 59.5843 160.895 59.5843L160.785 59.3013L159.243 55.3556L163.594 51.5461L164.225 51.0221C164.225 51.0221 164.578 52.1277 164.999 53.5111C164.999 53.5792 165.041 53.6421 165.057 53.7102C165.073 53.7783 165.109 53.8622 165.13 53.9355C165.199 54.1399 165.262 54.3495 165.325 54.5643C165.388 54.7792 165.42 54.8787 165.462 55.0464L165.604 55.5704C165.929 56.7706 166.175 57.9906 166.34 59.2227Z" fill="#AD6359"/>
<path d="M164.998 53.5216C164.758 54.7288 164.258 55.8695 163.531 56.8648C162.804 57.8601 161.869 58.6861 160.79 59.2856L159.248 55.3399L163.599 51.5304L164.23 51.0064C164.23 51.0064 164.578 52.1382 164.998 53.5216Z" fill="#263238"/>
<path d="M152.43 49.8169C152.288 57.2472 156.739 58.1747 158.349 58.2009C159.806 58.2009 164.783 58.1327 165.714 50.7548C166.646 43.3769 163.205 40.9665 159.869 40.7307C156.534 40.4949 152.593 42.3866 152.43 49.8169Z" fill="#AD6359"/>
<path d="M153.603 49.1933C153.77 49.1601 153.935 49.1164 154.097 49.0623C154.28 49.0416 154.451 48.9604 154.581 48.8317C154.617 48.7859 154.636 48.7297 154.636 48.6719C154.636 48.6141 154.617 48.5579 154.581 48.5121C154.493 48.4343 154.385 48.3819 154.269 48.3607C154.154 48.3395 154.034 48.3501 153.924 48.3916C153.689 48.4375 153.479 48.5681 153.335 48.7584C153.305 48.8032 153.29 48.8553 153.289 48.9087C153.288 48.9621 153.303 49.0145 153.331 49.06C153.359 49.1055 153.4 49.1422 153.448 49.1657C153.496 49.1893 153.55 49.1989 153.603 49.1933V49.1933Z" fill="#263238"/>
<path d="M158.575 48.7584C158.398 48.7435 158.223 48.7173 158.049 48.6798C157.858 48.6823 157.673 48.6194 157.523 48.5017C157.487 48.455 157.468 48.3979 157.468 48.3392C157.468 48.2805 157.487 48.2234 157.523 48.1768C157.604 48.0928 157.707 48.0317 157.819 47.9995C157.932 47.9673 158.051 47.9652 158.165 47.9934C158.404 48.0129 158.626 48.1237 158.786 48.3025C158.82 48.3428 158.841 48.3919 158.848 48.444C158.855 48.496 158.847 48.549 158.825 48.5967C158.803 48.6445 158.768 48.685 158.724 48.7136C158.679 48.7422 158.628 48.7578 158.575 48.7584V48.7584Z" fill="#263238"/>
<path d="M157.549 50.2466C157.549 50.2466 157.586 50.2466 157.586 50.2885C157.586 50.8125 157.67 51.3732 158.112 51.5304C158.112 51.5304 158.112 51.5618 158.112 51.5566C157.565 51.4937 157.465 50.7391 157.549 50.2466Z" fill="#263238"/>
<path d="M157.985 49.6911C158.801 49.6073 158.911 51.237 158.154 51.3156C157.396 51.3942 157.328 49.775 157.985 49.6911Z" fill="#263238"/>
<path d="M158.312 49.7697C158.464 49.8536 158.612 50.0055 158.785 50.0108C158.959 50.016 159.127 49.8378 159.248 49.6649H159.275C159.301 49.9741 159.201 50.3042 158.87 50.3723C158.538 50.4404 158.343 50.1732 158.228 49.8483C158.207 49.8221 158.254 49.733 158.312 49.7697Z" fill="#263238"/>
<path d="M154.698 50.2152C154.698 50.2152 154.661 50.2414 154.661 50.2623C154.719 50.7863 154.692 51.3522 154.245 51.5566C154.245 51.5566 154.245 51.588 154.245 51.5828C154.824 51.4361 154.845 50.6606 154.698 50.2152Z" fill="#263238"/>
<path d="M154.224 49.6912C153.403 49.6912 153.461 51.3208 154.224 51.326C154.987 51.3313 154.908 49.6912 154.224 49.6912Z" fill="#263238"/>
<path d="M153.887 49.8169C153.755 49.9059 153.634 50.0684 153.482 50.0841C153.329 50.0998 153.161 49.9321 153.045 49.7645H153.019C153.019 50.0736 153.134 50.3985 153.439 50.4457C153.745 50.4928 153.908 50.2151 153.966 49.9217C153.981 49.864 153.934 49.7802 153.887 49.8169Z" fill="#263238"/>
<path d="M157.855 54.5067C157.744 54.6377 157.644 54.8159 157.46 54.8526C157.273 54.8695 157.085 54.8463 156.908 54.7844C156.908 54.7844 156.876 54.7844 156.908 54.8106C156.99 54.9033 157.096 54.9714 157.215 55.0074C157.334 55.0435 157.461 55.0461 157.581 55.015C157.68 54.9757 157.765 54.9088 157.827 54.8224C157.888 54.7359 157.924 54.6336 157.928 54.5277C157.93 54.5228 157.93 54.5178 157.929 54.5128C157.929 54.5078 157.927 54.503 157.925 54.4987C157.922 54.4943 157.919 54.4904 157.915 54.4873C157.911 54.4842 157.907 54.4819 157.902 54.4805C157.897 54.4791 157.892 54.4787 157.887 54.4793C157.882 54.4799 157.877 54.4814 157.873 54.4838C157.868 54.4863 157.865 54.4895 157.861 54.4935C157.858 54.4974 157.856 54.5019 157.855 54.5067Z" fill="#263238"/>
<path d="M155.628 52.7984C155.628 52.7984 155.565 53.5582 155.581 53.9146C155.581 53.946 155.671 53.9565 155.792 53.9565C156.101 53.9954 156.415 53.9491 156.7 53.8225C156.985 53.6959 157.229 53.494 157.407 53.2386C157.407 53.2019 157.38 53.1652 157.354 53.1914C156.914 53.526 156.377 53.7098 155.823 53.7154C155.792 53.6211 155.976 52.4159 155.918 52.4159C155.642 52.4554 155.373 52.533 155.118 52.6465C155.202 51.0745 155.544 49.5025 155.607 47.9305C155.607 47.8728 155.523 47.8624 155.513 47.9305C155.095 49.5941 154.845 51.295 154.766 53.008C154.766 53.1705 155.486 52.8666 155.628 52.7984Z" fill="#263238"/>
<path d="M155.823 53.8255C156.039 54.1037 156.321 54.3236 156.644 54.4648C156.823 54.535 157.02 54.5478 157.207 54.5014C157.612 54.3966 157.628 54.0246 157.554 53.7102C157.514 53.5396 157.454 53.3743 157.375 53.2177C156.937 53.5806 156.393 53.7937 155.823 53.8255Z" fill="#263238"/>
<path d="M156.645 54.4648C156.824 54.5351 157.021 54.5479 157.207 54.5015C157.613 54.3967 157.628 54.0246 157.555 53.7102C157.34 53.7161 157.134 53.7937 156.968 53.9306C156.803 54.0674 156.689 54.2556 156.645 54.4648V54.4648Z" fill="#FF9ABB"/>
<path d="M165.746 51.1636C165.239 50.9942 164.784 50.6965 164.427 50.2997C164.07 49.9029 163.823 49.4205 163.71 48.8999C162.338 48.5029 161.098 47.7486 160.116 46.7148C160.185 46.8615 160.69 47.9148 160.963 48.444C156.139 48.1715 154.213 44.776 154.213 44.776C153.422 45.7158 152.854 46.8208 152.551 48.0091C152.551 48.0091 152.14 45.1376 153.377 43.0206C153.771 42.2887 154.353 41.6743 155.064 41.2406C155.775 40.8069 156.589 40.5694 157.422 40.5526C158.549 40.1222 159.772 40.0021 160.962 40.205C162.151 40.4078 163.264 40.9261 164.183 41.7054C167.65 44.6293 165.746 51.1636 165.746 51.1636Z" fill="#263238"/>
<path d="M157.26 48.1191C158.071 48.431 158.923 48.6234 159.79 48.6903C159.79 48.6903 159.79 48.6903 159.79 48.6903C158.422 48.5038 157.133 47.9433 156.065 47.0711C155.613 46.6955 155.21 46.2641 154.866 45.7874C154.467 45.281 154.173 44.7002 154.003 44.0791C154.003 44.032 153.924 44.0477 153.935 44.0791C154.035 44.7089 154.243 45.3168 154.55 45.8764C154.872 46.4238 155.295 46.9056 155.797 47.2965C156.244 47.6392 156.736 47.9195 157.26 48.1296" fill="#263238"/>
<path d="M164.299 50.6658C164.299 50.6658 165.767 48.2449 166.862 48.7479C167.956 49.251 166.962 52.6936 165.751 53.2334C165.602 53.3138 165.437 53.3632 165.268 53.3785C165.098 53.3937 164.927 53.3746 164.765 53.3222C164.604 53.2697 164.454 53.1852 164.326 53.0735C164.198 52.9619 164.094 52.8255 164.021 52.6727L164.299 50.6658Z" fill="#AD6359"/>
<path d="M166.551 49.7278C166.551 49.7278 166.577 49.754 166.551 49.7593C166.165 49.9824 165.831 50.2846 165.57 50.6459C165.31 51.0072 165.13 51.4194 165.041 51.8552C165.085 51.765 165.148 51.6854 165.226 51.6219C165.305 51.5584 165.396 51.5126 165.493 51.4877C165.591 51.4628 165.693 51.4593 165.792 51.4775C165.891 51.4958 165.985 51.5352 166.067 51.5932C166.067 51.5932 166.067 51.6456 166.067 51.6456C165.911 51.6072 165.747 51.6177 165.597 51.6759C165.447 51.7341 165.319 51.837 165.23 51.9705C165.086 52.1948 164.966 52.4337 164.873 52.6832C164.836 52.7618 164.694 52.7303 164.715 52.6412C164.615 51.5199 165.373 49.9165 166.551 49.7278Z" fill="#263238"/>
<path d="M170.812 62.0995C177.126 72.9148 186.517 97.7315 188.216 101.279C189.369 103.689 176.721 110.04 176.184 108.285C175.5 106.042 166.714 77.1383 166.151 64.2688C165.883 58.269 168.803 58.6411 170.812 62.0995Z" fill="#AD6359"/>
<path d="M175.842 106.692C176.121 108.762 177.531 112.927 178.583 113.561C179.635 114.196 185.144 114.059 187.921 114.059C190.699 114.059 191.246 113.289 191.199 112.335C191.152 111.382 185.328 111.203 185.328 111.203C185.328 111.203 193.109 113.425 195.066 113.787C197.023 114.148 201.537 115.285 202.19 113.666C202.484 112.938 201.248 112.199 201.248 112.199C201.248 112.199 203.142 112.723 203.442 111.817C203.784 110.769 202.279 110.161 202.279 110.161C202.279 110.161 203.463 110.397 203.489 109.527C203.552 107.588 196.15 106.629 196.15 106.629C196.15 106.629 201.816 109.38 202 107.792C202.253 105.602 190.631 103.192 189.426 102.238C188.635 101.571 187.977 100.762 187.485 99.8536L175.842 106.692Z" fill="#AD6359"/>
<path d="M191.157 112.817C191.177 112.682 191.164 112.544 191.118 112.415C191.072 112.287 190.995 112.171 190.894 112.079C190.695 111.896 190.465 111.749 190.216 111.644C189.708 111.418 189.179 111.242 188.637 111.12C187.543 110.842 186.417 110.643 185.302 110.355C186.457 110.34 187.61 110.47 188.732 110.742C189.304 110.873 189.855 111.083 190.368 111.366C190.634 111.511 190.867 111.709 191.052 111.948C191.145 112.07 191.204 112.216 191.223 112.368C191.241 112.521 191.219 112.676 191.157 112.817Z" fill="#263238"/>
<path d="M201.248 112.199C200.448 112.005 199.669 111.78 198.87 111.555C198.07 111.329 197.291 111.088 196.513 110.852L194.171 110.119C193.388 109.873 192.593 109.631 191.814 109.401C192.635 109.489 193.449 109.632 194.25 109.831C195.05 110.014 195.829 110.245 196.628 110.48C197.428 110.716 198.207 111.004 198.964 111.272C199.722 111.539 200.501 111.853 201.248 112.199Z" fill="#263238"/>
<path d="M193.698 107.462C194.453 107.513 195.204 107.616 195.945 107.771C196.686 107.918 197.419 108.107 198.139 108.337C198.855 108.558 199.558 108.82 200.243 109.123C200.939 109.425 201.612 109.775 202.258 110.171C201.543 109.925 200.848 109.647 200.154 109.417C199.459 109.186 198.738 108.935 198.049 108.714C197.36 108.494 196.618 108.28 195.897 108.07C195.177 107.86 194.424 107.661 193.698 107.462Z" fill="#263238"/>
<path d="M194.84 105.612C197.286 105.821 199.643 106.623 201.706 107.949C200.553 107.541 199.433 107.111 198.291 106.729C197.149 106.346 196.003 105.984 194.84 105.612Z" fill="#263238"/>
<path d="M188.611 100.881L175.089 107.462C175.089 107.462 167.029 76.3837 166.145 66.3491C165.262 56.3145 169.118 58.6254 171.791 63.3414C175.437 69.7813 188.611 100.881 188.611 100.881Z" fill="#455A64"/>
<path d="M175.421 103.957C177.31 103.192 184.922 99.7908 186.517 98.9419C186.627 98.8843 186.617 98.8004 186.517 98.8476C182.727 100.321 179.021 102.001 175.416 103.878C175.347 103.904 175.373 103.978 175.421 103.957Z" fill="#263238"/>
<path d="M170.254 87.6864C170.044 86.2087 169.786 84.7415 169.523 83.2743C169.26 81.8071 168.965 80.3451 168.666 78.8832C168.366 77.4212 168.05 75.9697 167.703 74.5182L167.177 72.3436C166.987 71.6205 166.814 70.8974 166.608 70.1795C166.708 70.9184 166.835 71.652 166.95 72.3908L167.34 74.5916C167.597 76.0588 167.897 77.5208 168.192 78.9827C168.487 80.4447 168.813 81.8962 169.16 83.3476C169.507 84.7991 169.855 86.2454 170.254 87.6864Z" fill="#263238"/>
<path d="M167.403 73.9786C167.297 73.5985 167.149 73.2312 166.961 72.8834C166.78 72.5315 166.559 72.2011 166.304 71.8983C166.412 72.2785 166.562 72.6458 166.751 72.9934C166.93 73.3452 167.149 73.6757 167.403 73.9786V73.9786Z" fill="#263238"/>
<path d="M167.156 59.0655C167.43 60.9728 167.751 62.875 168.071 64.7718L168.171 64.6146C167.046 64.9081 165.925 65.2277 164.804 65.5369L164.615 65.5893L164.699 65.7674C165.031 66.501 165.362 67.2399 165.704 67.9682L165.751 67.7639C164.568 68.8119 163.363 69.8075 162.189 70.8555C161.016 71.9035 159.838 72.9515 158.686 73.9995C159.924 73.0283 161.151 72.0415 162.368 71.0389C163.589 70.0485 164.783 69.0215 165.988 68.0154L166.088 67.9368L166.035 67.811C165.704 67.0774 165.357 66.3491 165.015 65.6155L164.91 65.8513C166.025 65.5212 167.145 65.212 168.256 64.8714L168.382 64.8347L168.356 64.7142C167.966 62.833 167.582 60.9466 167.156 59.0655Z" fill="#263238"/>
<path d="M160.932 60.1712C160.311 60.8157 159.88 61.2768 159.264 61.937C158.648 62.5973 158.049 63.2575 157.454 63.9335L157.333 64.0697L157.491 64.1693L158.659 64.8872L158.627 64.6304C158.149 65.1072 157.659 65.5788 157.191 66.0714L157.128 66.1343V66.2234C157.375 67.5176 157.591 68.8434 157.854 70.1114C158.117 71.3795 158.38 72.7 158.669 73.989C158.506 72.679 158.312 71.369 158.112 70.0695C157.912 68.77 157.686 67.4495 157.47 66.1605L157.423 66.3124C157.907 65.8408 158.375 65.3483 158.854 64.8662L159.001 64.7142L158.817 64.6042L157.638 63.902L157.675 64.1378C158.27 63.4619 158.833 62.765 159.406 62.0733C159.979 61.3816 160.379 60.8943 160.932 60.1712Z" fill="#263238"/>
<path d="M158.685 74.0099C158.516 74.6387 158.348 75.2676 158.201 75.9016C158.053 76.5356 157.901 77.1644 157.764 77.8037C157.717 79.2133 157.706 80.6281 157.685 82.0429C157.664 83.4577 157.685 84.8725 157.685 86.2873C157.766 84.8899 157.829 83.4769 157.875 82.0481C157.911 80.6333 157.959 79.2185 157.969 77.8037C158.101 77.1697 158.227 76.5304 158.343 75.8911C158.459 75.2518 158.58 74.6545 158.685 74.0099Z" fill="#263238"/>
<path d="M159.433 75.2361C159.497 75.2252 159.563 75.2275 159.626 75.2428C159.69 75.2582 159.749 75.2862 159.801 75.3252C159.857 75.3699 159.902 75.4265 159.933 75.4909C159.964 75.5553 159.98 75.6258 159.98 75.6973C159.98 75.7687 159.964 75.8392 159.933 75.9036C159.902 75.968 159.857 76.0246 159.801 76.0693C159.749 76.1083 159.69 76.1364 159.626 76.1517C159.563 76.167 159.497 76.1693 159.433 76.1584C159.327 76.1358 159.232 76.0776 159.164 75.9937C159.096 75.9098 159.059 75.8052 159.059 75.6973C159.059 75.5894 159.096 75.4847 159.164 75.4008C159.232 75.3169 159.327 75.2588 159.433 75.2361ZM159.186 75.9435C159.222 75.9658 159.263 75.9806 159.305 75.9869C159.348 75.9932 159.391 75.9909 159.433 75.9802C159.49 75.9592 159.54 75.9204 159.574 75.8695C159.608 75.8187 159.625 75.7583 159.622 75.6973C159.625 75.6457 159.612 75.5944 159.587 75.5493C159.562 75.5043 159.524 75.4671 159.479 75.4421C159.433 75.417 159.382 75.4051 159.33 75.4076C159.278 75.4101 159.228 75.4269 159.186 75.4562C159.146 75.4829 159.114 75.5189 159.092 75.561C159.07 75.603 159.059 75.6498 159.059 75.6973C159.058 75.7455 159.069 75.7932 159.091 75.8362C159.114 75.8791 159.146 75.916 159.186 75.9435V75.9435Z" fill="#263238"/>
<path d="M158.875 79.3286C158.94 79.3176 159.007 79.3198 159.071 79.3351C159.135 79.3504 159.196 79.3785 159.249 79.4177C159.302 79.4644 159.346 79.5215 159.377 79.5854C159.407 79.6494 159.425 79.7189 159.428 79.7897C159.429 79.8585 159.415 79.9268 159.386 79.9894C159.357 80.0521 159.315 80.1076 159.262 80.1518C159.209 80.196 159.147 80.2279 159.08 80.245C159.013 80.2621 158.943 80.2641 158.875 80.2508C158.769 80.2282 158.674 80.1701 158.606 80.0861C158.538 80.0022 158.501 79.8976 158.501 79.7897C158.501 79.6818 158.538 79.5771 158.606 79.4932C158.674 79.4093 158.769 79.3512 158.875 79.3286V79.3286ZM158.633 80.036C158.668 80.0593 158.708 80.0747 158.75 80.081C158.792 80.0874 158.835 80.0845 158.875 80.0726C158.933 80.0518 158.983 80.0132 159.018 79.9624C159.053 79.9117 159.071 79.8512 159.07 79.7897C159.072 79.7381 159.06 79.6869 159.035 79.6418C159.009 79.5967 158.972 79.5595 158.926 79.5345C158.881 79.5095 158.83 79.4975 158.778 79.5C158.726 79.5025 158.676 79.5194 158.633 79.5486C158.594 79.5762 158.562 79.6128 158.54 79.6552C158.518 79.6976 158.507 79.7446 158.507 79.7923C158.507 79.84 158.518 79.8871 158.54 79.9295C158.562 79.9718 158.594 80.0084 158.633 80.036V80.036Z" fill="#263238"/>
<path d="M158.685 83.0804C158.749 83.0671 158.816 83.0682 158.879 83.0836C158.943 83.099 159.002 83.1284 159.053 83.1695C159.109 83.2136 159.154 83.2698 159.185 83.3338C159.216 83.3977 159.233 83.4679 159.233 83.5389C159.233 83.6099 159.216 83.6801 159.185 83.744C159.154 83.808 159.109 83.8642 159.053 83.9083C159.001 83.9473 158.942 83.9754 158.878 83.9907C158.815 84.006 158.749 84.0083 158.685 83.9974C158.579 83.9755 158.483 83.9176 158.415 83.8335C158.347 83.7494 158.311 83.6443 158.312 83.5363C158.311 83.4289 158.348 83.3245 158.416 83.2413C158.484 83.1581 158.579 83.1012 158.685 83.0804V83.0804ZM158.438 83.7826C158.474 83.806 158.515 83.8215 158.557 83.8278C158.6 83.8341 158.644 83.8312 158.685 83.8192C158.743 83.7982 158.792 83.7594 158.826 83.7086C158.86 83.6577 158.877 83.5974 158.874 83.5363C158.877 83.4759 158.86 83.4164 158.826 83.3664C158.792 83.3165 158.742 83.2787 158.685 83.2586C158.644 83.2466 158.6 83.2437 158.557 83.25C158.515 83.2563 158.474 83.2718 158.438 83.2952C158.401 83.324 158.37 83.3604 158.348 83.402C158.326 83.4436 158.314 83.4894 158.312 83.5363C158.312 83.5843 158.324 83.6315 158.345 83.6743C158.367 83.717 158.399 83.7541 158.438 83.7826V83.7826Z" fill="#263238"/>
<path d="M26.7783 157.09H82.3414V151.258H61.544L54.552 110.753H28.8986L26.7783 157.09Z" fill="#DBDBDB"/>
<path d="M26.7783 157.09H29.8087L31.7817 110.753H28.8986L26.7783 157.09Z" fill="#C7C7C7"/>
<path d="M74.7284 195.258L53.6838 190.569C53.6838 190.569 71.0456 150.488 69.4935 148.46C68.7254 147.449 49.2434 147.15 43.0457 141.92C34.9962 135.108 40.4151 124.754 40.4151 124.754L62.1647 124.099C62.1647 124.099 61.9017 128.626 62.754 129.308C63.3117 129.764 89.2386 131.928 92.0849 140.637C95.5783 151.316 74.7284 195.258 74.7284 195.258Z" fill="#263238"/>
<path d="M73.2233 146.668C72.7325 146.351 72.166 146.17 71.5818 146.144C68.4251 145.62 65.2842 145.096 62.1591 144.572C59.2234 144.079 56.2666 143.644 53.3414 143.078C50.9213 142.617 48.4538 141.988 46.3598 140.678C44.3177 139.388 42.8091 137.409 42.1088 135.103C41.4536 132.782 41.2747 130.353 41.5827 127.961C41.6353 127.379 41.7458 126.798 41.851 126.221C41.851 126.179 41.7932 126.164 41.7826 126.221C40.9882 130.66 40.9145 135.811 44.2554 139.348C45.8863 141.071 48.1223 142.083 50.4057 142.738C53.0044 143.399 55.6394 143.91 58.2974 144.268L67.7201 145.84C69.2301 146.091 70.7663 146.285 72.2658 146.6C72.5681 146.635 72.8526 146.761 73.0812 146.961C73.191 147.116 73.2605 147.296 73.2835 147.484C73.3065 147.673 73.2821 147.864 73.2128 148.041C73.0654 148.78 72.8655 149.508 72.6498 150.231C70.9347 156.058 59.3654 183.856 59.0287 184.501C58.9919 184.563 59.0971 184.616 59.1339 184.553C62.017 179.439 70.398 157.97 72.2868 152.458C72.7923 151.056 73.2053 149.622 73.5232 148.166C73.6231 147.648 73.6757 147.056 73.2233 146.668Z" fill="#37474F"/>
<path d="M113.85 198.015H91.1957C91.1957 198.015 81.4994 159.7 79.7843 157.515C77.4957 154.606 45.4815 154.669 38.6105 145.18C32.4444 136.654 37.653 124.592 37.653 124.592L61.8963 123.874C61.3506 126.462 60.5994 129.002 59.6498 131.472C59.6498 131.472 88.8545 136.832 97.0356 145.74C102.56 151.74 113.85 198.015 113.85 198.015Z" fill="#263238"/>
<path d="M63.8795 129.8C63.175 129.955 62.4864 130.174 61.8224 130.455C61.1279 130.722 60.4387 131.021 59.7706 131.346C58.4531 131.995 57.1727 132.715 55.9352 133.505C55.8983 133.505 55.9352 133.584 55.972 133.563C57.2873 132.881 58.6394 132.274 59.9968 131.692L61.9539 130.853C62.6116 130.571 63.3113 130.329 63.9374 129.984C64.0216 129.936 63.9742 129.785 63.8795 129.8Z" fill="#37474F"/>
<path d="M62.4223 123.848C62.1487 124.948 61.8961 126.059 61.5857 127.149C61.4437 127.673 61.2964 128.16 61.107 128.647C60.9491 129.056 60.7019 129.523 60.2284 129.617C59.7549 129.711 59.5234 129.25 59.5655 128.799C59.6076 128.349 59.7443 127.793 59.8443 127.296C59.9443 126.798 60.0758 126.153 60.181 125.582L60.3389 124.717C60.3389 124.644 60.402 124.099 60.4441 123.942C60.4441 123.942 60.4441 123.968 60.4756 123.942C60.4837 123.94 60.4912 123.936 60.4975 123.93C60.5039 123.925 60.509 123.918 60.5125 123.91C60.5183 123.895 60.5183 123.878 60.5125 123.863C60.5067 123.847 60.4954 123.834 60.4809 123.827C60.4743 123.821 60.4659 123.818 60.4572 123.818C60.4486 123.818 60.4402 123.821 60.4336 123.827C60.3283 123.884 60.3178 124.026 60.2862 124.131C60.1968 124.408 60.1074 124.686 60.0232 124.969C59.8706 125.493 59.7233 126.017 59.5865 126.541L59.1919 128.113C59.0533 128.504 59.0153 128.924 59.0814 129.334C59.1321 129.529 59.2443 129.702 59.4016 129.829C59.5589 129.955 59.7528 130.028 59.9548 130.036C59.9335 130.072 59.9141 130.108 59.8969 130.146C59.8443 130.256 59.8127 130.371 59.7707 130.481C59.7286 130.591 59.6917 130.707 59.6549 130.827C59.6389 130.882 59.6283 130.938 59.6233 130.995C59.6233 131.058 59.6233 131.121 59.6233 131.184C59.6233 131.246 59.7443 131.346 59.7917 131.246C59.839 131.147 59.8654 131.147 59.8969 131.095C59.9308 131.035 59.9573 130.972 59.9758 130.906C60.0127 130.796 60.0442 130.686 60.0758 130.576C60.1074 130.466 60.1389 130.35 60.16 130.24C60.181 130.13 60.16 130.104 60.16 130.036C60.3921 130.016 60.6142 129.933 60.8018 129.795C61.113 129.529 61.3412 129.18 61.4595 128.789C61.6278 128.333 61.7594 127.856 61.8856 127.385C62.2254 126.227 62.4613 125.042 62.5906 123.842C62.5804 123.83 62.5674 123.819 62.5525 123.813C62.5377 123.806 62.5215 123.803 62.5051 123.803C62.4888 123.804 62.4728 123.808 62.4584 123.816C62.444 123.823 62.4316 123.834 62.4223 123.848V123.848Z" fill="#37474F"/>
<path d="M82.4195 157.819C82.2125 157.124 81.8945 156.468 81.4778 155.874C80.9712 155.376 80.3228 155.045 79.6206 154.926C73.5808 153.281 67.3463 152.537 61.2066 151.384C58.184 150.839 55.1972 150.113 52.2626 149.209C49.2792 148.327 46.4284 147.049 43.7869 145.41C42.4955 144.585 41.4248 143.459 40.667 142.13C39.9714 140.847 39.4781 139.465 39.2044 138.032C38.5389 134.763 38.5389 131.393 39.2044 128.123C39.3661 127.309 39.5733 126.504 39.8252 125.713C39.8252 125.661 39.7621 125.645 39.7463 125.713C38.6103 128.865 38.1462 132.218 38.3837 135.559C38.5994 138.462 39.3096 141.512 41.1879 143.817C42.1655 144.939 43.3495 145.864 44.676 146.542C46.0537 147.3 47.4789 147.968 48.9428 148.544C51.8006 149.653 54.7443 150.529 57.7447 151.164C63.874 152.51 70.1242 153.197 76.2482 154.554C77.0058 154.722 77.7582 154.9 78.5105 155.078C79.2834 155.205 80.0333 155.446 80.736 155.791C81.462 156.241 81.6988 157.143 81.9881 157.887C82.2775 158.631 92.1527 191.905 92.3736 192.743C92.382 192.77 92.4009 192.793 92.426 192.806C92.4512 192.819 92.4806 192.822 92.5078 192.814C92.535 192.806 92.5578 192.787 92.5711 192.762C92.5844 192.737 92.5872 192.707 92.5788 192.68C91.7213 189.285 83.0614 159.448 82.4195 157.819Z" fill="#37474F"/>
<path d="M60.1546 103.621C63.2482 108.274 74.7543 123.009 80.3469 123.072C84.0297 123.119 97.7403 117.979 99.8132 116.784C101.418 115.862 96.5723 103.543 94.7625 104.334C92.9526 105.125 81.8832 108.935 80.4048 108.814C78.9264 108.694 65.9892 98.8161 61.4646 96.631C53.6518 92.8687 58.4921 101.116 60.1546 103.621Z" fill="#EB9481"/>
<path d="M98.0032 117.544C99.5237 117.02 107.794 114.368 109.494 113.132C111.193 111.895 115.807 107.97 115.013 106.577C114.218 105.183 112.74 106.22 112.74 106.22C112.74 106.22 114.434 104.26 113.482 102.929C112.529 101.599 110.325 103.291 110.325 103.291C110.325 103.291 111.903 101.148 110.851 99.8903C109.799 98.6327 107.873 100.702 107.873 100.702C107.873 100.702 109.451 98.8109 108.12 98.1401C106.542 97.3279 104.101 101.137 102.117 102.364C101.67 102.647 92.5947 107.373 92.5947 107.373L98.0032 117.544Z" fill="#EB9481"/>
<path d="M108.063 100.519C106.253 103.317 104.969 104.229 101.986 105.607C101.928 105.633 101.955 105.728 102.018 105.707C105.064 104.617 106.837 103.705 108.205 100.603C108.273 100.461 108.152 100.399 108.063 100.519Z" fill="#263238"/>
<path d="M110.467 103.066C108.326 105.811 106.948 106.812 103.928 108.484C103.886 108.51 103.928 108.583 103.965 108.562C107.069 107.169 108.81 106.215 110.588 103.197C110.667 103.061 110.562 102.945 110.467 103.066Z" fill="#263238"/>
<path d="M112.608 106.283C110.341 108.788 108.878 109.951 105.737 111.198C105.721 111.203 105.708 111.214 105.7 111.229C105.692 111.244 105.69 111.261 105.695 111.277C105.7 111.293 105.711 111.306 105.726 111.314C105.741 111.322 105.758 111.324 105.774 111.319C109.104 110.355 110.94 108.919 112.677 106.356C112.771 106.205 112.729 106.147 112.608 106.283Z" fill="#263238"/>
<path d="M121.281 88.2135L93.9902 89.7998L95.1136 108.972L122.404 107.386L121.281 88.2135Z" fill="#EBEBEB"/>
<path d="M96.5723 92.2085L107.779 91.5273C111.514 91.3229 115.249 91.0976 118.99 90.9037C115.255 91.15 111.514 91.3596 107.779 91.5849L96.5723 92.2085Z" fill="#C7C7C7"/>
<path d="M96.625 93.1202L107.831 92.439C111.567 92.2294 115.302 92.0093 119.043 91.8155C115.307 92.0617 111.572 92.2713 107.837 92.4967L96.625 93.1202Z" fill="#C7C7C7"/>
<path d="M96.6777 94.032L107.884 93.3508C111.619 93.1412 115.355 92.9211 119.095 92.7272C115.36 92.9683 111.625 93.1779 107.889 93.4084L96.6777 94.032Z" fill="#C7C7C7"/>
<path d="M96.7305 94.9385L107.937 94.2573C111.672 94.0529 115.413 93.8276 119.148 93.639C115.413 93.88 111.677 94.0896 107.942 94.3202L96.7305 94.9385Z" fill="#C7C7C7"/>
<path d="M96.7832 95.8503L107.989 95.1691C111.73 94.9647 115.466 94.7394 119.201 94.5455C115.466 94.7918 111.73 95.0014 107.995 95.2267L96.7832 95.8503Z" fill="#C7C7C7"/>
<path d="M96.8252 96.762L108.031 96.0808C111.772 95.8712 115.508 95.6512 119.243 95.4573C115.508 95.7036 111.772 95.9132 108.037 96.1385L96.8252 96.762Z" fill="#C7C7C7"/>
<path d="M96.8877 97.6738L108.099 96.9926C111.835 96.783 115.57 96.5629 119.305 96.369C115.57 96.61 111.835 96.8249 108.099 97.0502L96.8877 97.6738Z" fill="#C7C7C7"/>
<path d="M96.9453 98.5803L108.152 97.8991C111.887 97.6948 115.622 97.4695 119.363 97.2808C115.628 97.5219 111.887 97.7315 108.152 97.962L96.9453 98.5803Z" fill="#C7C7C7"/>
<path d="M96.998 99.4711L108.204 98.7899C111.94 98.5856 115.675 98.3602 119.416 98.1716C115.68 98.4126 111.945 98.6222 108.204 98.8476L96.998 99.4711Z" fill="#C7C7C7"/>
<path d="M97.0508 100.404L108.257 99.7226C111.992 99.513 115.728 99.2929 119.469 99.099C115.733 99.3453 111.998 99.5549 108.262 99.7802L97.0508 100.404Z" fill="#C7C7C7"/>
<path d="M97.1035 101.316L108.31 100.634C112.045 100.425 115.781 100.205 119.521 100.011C115.786 100.252 112.05 100.467 108.315 100.692L97.1035 101.316Z" fill="#C7C7C7"/>
<path d="M97.1562 102.222L108.362 101.541C112.103 101.337 115.839 101.111 119.574 100.923C115.839 101.164 112.103 101.373 108.368 101.604L97.1562 102.222Z" fill="#C7C7C7"/>
<path d="M97.209 103.139L108.415 102.458C112.156 102.254 115.891 102.028 119.627 101.84C115.891 102.081 112.156 102.29 108.421 102.516L97.209 103.139Z" fill="#C7C7C7"/>
<path d="M97.2617 104.046L108.473 103.364C112.209 103.155 115.944 102.935 119.679 102.741C115.944 102.987 112.209 103.197 108.473 103.422L97.2617 104.046Z" fill="#C7C7C7"/>
<path d="M97.3145 104.957L108.526 104.276C112.261 104.067 115.997 103.846 119.732 103.653C116.002 103.894 112.261 104.108 108.526 104.334L97.3145 104.957Z" fill="#C7C7C7"/>
<path d="M101.02 98.3393L99.3184 98.4382L99.7539 105.872L101.456 105.773L101.02 98.3393Z" fill="#C73583"/>
<path d="M104.382 95.0317L102.678 95.1336L103.316 105.729L105.021 105.627L104.382 95.0317Z" fill="#455A64"/>
<path d="M107.271 97.1018L105.569 97.2008L106.056 105.513L107.758 105.414L107.271 97.1018Z" fill="#A6A6A6"/>
<path d="M110.266 94.1513L108.564 94.2503L109.213 105.325L110.915 105.226L110.266 94.1513Z" fill="#C73583"/>
<path d="M113.509 95.4517L111.808 95.5506L112.369 105.139L114.071 105.04L113.509 95.4517Z" fill="#455A64"/>
<path d="M116.983 100.705L115.281 100.804L115.525 104.963L117.227 104.864L116.983 100.705Z" fill="#A6A6A6"/>
<path d="M97.1406 91.5325L97.3984 95.1429L97.6404 98.7532C97.8035 101.158 97.9508 103.569 98.0982 105.974L97.9824 105.869L103.433 105.55L108.884 105.246L114.339 104.968L119.795 104.716L114.35 105.099L108.899 105.45L103.449 105.78L97.9929 106.089H97.8824V105.979C97.7457 103.569 97.6089 101.158 97.4931 98.7532L97.309 95.1376L97.1406 91.5325Z" fill="#C7C7C7"/>
<path d="M101.504 106.537L99.8027 106.636L99.8116 106.787L101.513 106.688L101.504 106.537Z" fill="#C7C7C7"/>
<path d="M104.645 106.359L102.943 106.458L102.952 106.61L104.654 106.511L104.645 106.359Z" fill="#C7C7C7"/>
<path d="M107.812 106.171L106.11 106.27L106.119 106.422L107.821 106.323L107.812 106.171Z" fill="#C7C7C7"/>
<path d="M111.383 106.009L109.679 106.111L109.688 106.263L111.392 106.161L111.383 106.009Z" fill="#C7C7C7"/>
<path d="M114.12 105.8L112.418 105.899L112.427 106.051L114.129 105.952L114.12 105.8Z" fill="#C7C7C7"/>
<path d="M117.265 105.623L115.563 105.722L115.572 105.874L117.274 105.775L117.265 105.623Z" fill="#C7C7C7"/>
<path d="M89.9854 106.86C89.9854 106.86 92.0582 103.233 93.3209 101.84C94.5836 100.446 101.213 96.9769 102.044 98.3602C103.096 100.147 99.6922 102.898 97.835 104.03C97.835 104.03 100.323 108.154 98.2927 110.664C96.2619 113.174 89.9854 106.86 89.9854 106.86Z" fill="#EB9481"/>
<path d="M102.202 98.9471C102.002 101.284 99.4666 102.615 97.7515 103.836C97.7254 103.854 97.7041 103.878 97.6894 103.906C97.6747 103.933 97.667 103.964 97.667 103.996C97.667 104.027 97.6747 104.058 97.6894 104.086C97.7041 104.114 97.7254 104.138 97.7515 104.156C98.6774 105.953 99.4613 108.762 98.4565 110.648C98.4495 110.659 98.4472 110.673 98.4502 110.685C98.4531 110.698 98.4611 110.709 98.4722 110.716C98.4834 110.723 98.4969 110.725 98.5097 110.722C98.5225 110.719 98.5337 110.711 98.5406 110.7C99.8928 108.824 99.3509 105.984 98.2039 104.093C99.9875 102.861 102.471 101.42 102.234 98.9523C102.223 98.9471 102.202 98.9471 102.202 98.9471Z" fill="#263238"/>
<path d="M90.3112 104.486L93.9204 120.489C93.9204 120.489 82.914 124.02 77.7265 123.151C71.4132 122.103 59.6282 105.167 57.9288 102.348C55.1352 97.7157 55.1773 94.6241 58.0761 94.8966C59.202 94.9909 60.7593 95.5987 62.7533 96.8354C64.8578 98.1244 77.0215 106.697 80.6412 108.096C82.672 108.903 90.3112 104.486 90.3112 104.486Z" fill="#C73583"/>
<path d="M90.8692 120.305C90.2958 118.073 88.2807 108.856 87.9756 106.833C87.9756 106.697 88.0387 106.65 88.0808 106.791C89.9643 113.436 90.5062 118.063 90.9587 120.279C90.9692 120.337 90.885 120.363 90.8692 120.305Z" fill="#263238"/>
<path d="M78.506 123.234C78.2448 123.222 77.9847 123.192 77.7274 123.145C71.414 122.097 59.629 105.167 57.9297 102.343C55.2991 97.9619 55.1781 94.9542 57.6403 94.8808C62.1333 100.97 71.9454 114.316 78.506 123.234Z" fill="#263238"/>
<path d="M66.5791 129.26C65.8899 129.926 36.5221 132.97 36.3748 132.777C35.9855 132.253 41.4729 104.795 53.2368 95.3368C55.3097 93.6704 58.7663 94.3674 60.3288 95.3682C61.1127 95.8922 63.2803 99.8117 63.9012 103.317C64.522 106.823 67.0105 128.841 66.5791 129.26Z" fill="#EBEBEB"/>
<path d="M54.0048 94.6503C54.0048 94.6503 57.2088 111.235 57.3141 111.911C57.4193 112.587 56.951 131.058 56.951 131.058L35.1436 133.735C35.1436 133.735 37.6058 124.571 37.7373 124.131C37.8688 123.69 42.4723 108.473 47.4547 101.651C52.0161 95.3786 54.0048 94.6503 54.0048 94.6503Z" fill="#C73583"/>
<path d="M60.7803 95.6144C60.7803 95.6144 62.9794 110.328 63.0426 111.256C63.1057 112.183 64.7735 130.078 64.7735 130.078L67.4672 129.077C67.4672 129.077 65.9625 117.429 65.7836 116.417C65.6047 115.406 64.3579 104.57 63.8844 102.547C63.1531 99.3401 60.7803 95.6144 60.7803 95.6144Z" fill="#C73583"/>
<path d="M47.3125 100.802C38.5579 110.648 28.7511 127.191 33.0653 130.67C37.0059 133.814 50.2482 130.801 59.1764 127.212C60.8757 126.53 58.7765 113.064 56.8509 113.415C53.3102 114.059 46.8548 116.323 46.6022 116.386C46.1129 116.527 49.2328 109.181 52.1422 102.054C55.3673 94.1001 52.3158 95.1743 47.3125 100.802Z" fill="#EB9481"/>
<path d="M54.3094 113.986C54.3094 113.986 59.6915 112.749 63.2533 112.136C65.2263 111.79 68.6618 111.502 70.2296 111.911C72.5708 112.524 81.9778 116.569 81.0413 118.859C80.1943 120.955 72.5551 116.438 72.5551 116.438C72.5551 116.438 80.6678 120.3 79.1841 122.611C77.7005 124.922 69.7509 118.697 69.7509 118.697C69.7509 118.697 77.9951 122.847 76.0906 124.985C74.649 126.604 67.1466 121.369 67.1466 121.369C67.1466 121.369 74.2071 124.985 72.7971 126.714C71.2187 128.626 63.9952 124.23 63.9952 124.23C59.6705 128.024 56.0508 128.071 53.4729 127.799C52.81 127.767 54.3094 113.986 54.3094 113.986Z" fill="#EB9481"/>
<path d="M69.8193 114.924C70.7873 115.343 71.7712 115.762 72.6971 116.265C73.6231 116.768 74.5385 117.313 75.4171 117.89C76.5771 118.641 77.6484 119.52 78.6107 120.51C76.7745 118.88 73.481 117.025 72.5498 116.522C71.6186 116.019 70.7242 115.474 69.7982 114.95C69.7719 114.945 69.793 114.913 69.8193 114.924Z" fill="#263238"/>
<path d="M67.9303 118.23C69.1456 118.817 70.3714 119.357 71.5605 120.001C72.7495 120.646 74.3699 121.573 75.5063 122.307C75.5905 122.365 75.5484 122.511 75.459 122.459C74.2963 121.788 72.5917 120.887 71.4184 120.237C70.2452 119.587 69.1035 118.87 67.9145 118.256C67.8882 118.246 67.9145 118.22 67.9303 118.23Z" fill="#263238"/>
<path d="M65.7844 120.777C67.6669 121.642 69.4561 122.695 71.1245 123.921C71.2086 123.984 71.1245 124.01 71.0403 123.958C69.2831 122.883 67.9152 122.024 65.7792 120.861C65.7371 120.824 65.7844 120.761 65.7844 120.777Z" fill="#263238"/>
<path d="M51.6265 96.4581C45.2605 100.372 28.8773 123.402 31.892 129.737C34.9066 136.073 55.4461 129.098 55.4461 129.098L53.9625 113.095C53.9625 113.095 48.2278 114.908 48.049 114.636C47.8701 114.363 51.0163 106.503 52.3 103.312C53.5837 100.121 55.0147 94.3778 51.6265 96.4581Z" fill="#C73583"/>
<path d="M52.8415 128.123C52.4627 125.849 51.2631 116.496 51.1211 114.458C51.1211 114.316 51.2 114.274 51.2316 114.421C52.5363 121.201 52.6731 125.854 52.9362 128.102C52.9415 128.16 52.852 128.181 52.8415 128.123Z" fill="#263238"/>
<path d="M54.0775 112.896C53.4491 113.004 52.83 113.16 52.2256 113.362C51.6995 113.52 51.1313 113.677 50.5894 113.844C49.4109 114.201 48.2377 114.589 47.0697 114.982C45.9017 115.375 44.739 115.783 43.5815 116.202C42.4241 116.622 41.2929 117.114 40.1355 117.539C40.0829 117.539 40.1355 117.638 40.1723 117.623C41.3403 117.219 42.5398 116.889 43.7183 116.517L47.1854 115.411L50.6525 114.311C51.2155 114.133 51.7784 113.944 52.3414 113.761C52.9043 113.577 53.4304 113.389 53.9671 113.174C53.9787 113.468 54.0068 113.762 54.0512 114.054C54.1722 113.996 54.2091 112.88 54.0775 112.896Z" fill="#263238"/>
<path d="M51.6894 106.97C51.358 107.389 51.0318 107.813 50.7214 108.253L50.5583 108.5L50.8108 107.824C51.1403 107.043 51.4265 106.246 51.6684 105.434C51.6684 105.398 51.621 105.382 51.6052 105.434C51.2009 106.221 50.8408 107.029 50.5267 107.855C50.19 108.646 49.848 109.427 49.5218 110.234C49.1956 111.041 48.8694 111.832 48.559 112.634C48.2268 113.416 47.9524 114.222 47.7383 115.044C47.7383 115.092 47.7962 115.107 47.8172 115.071C48.2493 114.298 48.6222 113.494 48.9326 112.665C49.264 111.874 49.5744 111.067 49.8954 110.265C50.0322 109.93 50.1584 109.595 50.2847 109.254L50.453 109.029C50.6056 108.819 50.7529 108.599 50.895 108.384C51.1843 107.928 51.4527 107.473 51.721 107.006C51.7262 106.97 51.6999 106.954 51.6894 106.97Z" fill="#263238"/>
<path d="M55.4828 128.721C55.4828 128.606 55.4144 128.579 55.3933 128.721C55.3723 128.862 55.3933 128.909 55.3618 128.978C54.662 129.166 52.1051 129.942 51.4843 130.125C50.169 130.513 48.8467 130.853 47.5174 131.147C46.1758 131.446 44.8342 131.708 43.4768 131.907C40.8668 132.188 38.2381 132.259 35.6167 132.116C35.5588 132.116 35.564 132.19 35.6167 132.205C38.2504 132.558 40.9188 132.57 43.5557 132.242C44.9078 132.085 46.26 131.86 47.591 131.582C48.9221 131.304 50.2953 130.953 51.6211 130.534C52.284 130.335 52.9416 130.115 53.594 129.884C54.2356 129.701 54.8563 129.451 55.4459 129.14C55.4665 129.126 55.4832 129.108 55.4943 129.085C55.5054 129.063 55.5105 129.039 55.5091 129.014L55.4828 128.721Z" fill="#263238"/>
<path d="M59.3966 100.021C57.7025 100.388 54.851 97.7734 53.7409 95.6773C53.6672 95.5359 54.3564 89.8452 54.3775 88.7029C54.3827 88.4671 61.5747 90.5631 61.5747 90.5631C61.138 91.9827 60.8783 93.4505 60.8013 94.9333C60.775 95.1009 61.0486 99.665 59.3966 100.021Z" fill="#EB9481"/>
<path d="M61.575 90.5631C61.575 90.5946 61.5224 90.736 61.4592 90.9614C61.354 91.3439 61.1962 91.9622 61.0647 92.6749C60.9134 93.4169 60.8289 94.171 60.8121 94.9281C60.8095 94.9804 60.8095 95.0329 60.8121 95.0853V95.1115C60.8121 95.2058 60.8121 95.3315 60.8121 95.4783C60.5782 95.5061 60.3424 95.5149 60.1071 95.5045C56.1928 95.3525 54.9565 90.5422 54.625 88.6924L54.746 88.7186C54.9354 88.7501 55.1879 88.8077 55.4878 88.8758L55.7141 88.9335L57.3555 89.3632L57.9448 89.5204L59.1969 89.8714L59.7231 90.0129L60.2492 90.1544L60.4859 90.2225L60.5964 90.254L61.1909 90.4269L61.475 90.5107C61.5148 90.519 61.5535 90.5313 61.5908 90.5474V90.5474L61.575 90.5631Z" fill="#263238"/>
<path d="M53.2048 81.6551C52.7523 84.2751 55.0199 91.3753 57.0244 92.7692C59.9391 94.7918 64.2374 94.4774 65.8526 91.0976C67.4309 87.8278 64.2742 78.6159 62.0961 77.4002C58.8553 75.5767 53.8729 77.7618 53.2048 81.6551Z" fill="#EB9481"/>
<path d="M60.8968 84.9825C60.8968 84.9825 60.8651 85.0192 60.8968 85.0402C61.0763 85.5118 61.203 86.0882 60.8281 86.3816C60.8281 86.3816 60.8281 86.4183 60.8281 86.3816C61.3138 86.1563 61.1396 85.4017 60.8968 84.9825Z" fill="#263238"/>
<path d="M60.2963 84.6366C59.5071 84.841 59.9806 86.392 60.7067 86.2086C61.4327 86.0252 60.9592 84.4637 60.2963 84.6366Z" fill="#263238"/>
<path d="M63.7158 84.2279C63.7158 84.2279 63.7579 84.2279 63.7632 84.2594C63.8947 84.7414 64.1262 85.2759 64.6102 85.3074V85.3336C64.0578 85.4174 63.7579 84.7048 63.7158 84.2279Z" fill="#263238"/>
<path d="M63.9948 83.5939C64.7524 83.3005 65.2838 84.8358 64.5788 85.1082C63.8738 85.3807 63.3582 83.8402 63.9948 83.5939Z" fill="#263238"/>
<path d="M59.5177 84.0813C59.7163 83.9815 59.9095 83.8713 60.0964 83.7511C60.3174 83.6201 60.5068 83.5415 60.6225 83.3005C60.6483 83.229 60.6494 83.151 60.6256 83.0788C60.6017 83.0067 60.5544 82.9445 60.491 82.9023C60.3542 82.8359 60.202 82.8071 60.0502 82.8191C59.8985 82.8311 59.7528 82.8833 59.6282 82.9704C59.3507 83.109 59.1337 83.3438 59.0179 83.6306C58.9953 83.6982 58.993 83.7708 59.0111 83.8396C59.0293 83.9085 59.0672 83.9706 59.1201 84.0184C59.1731 84.0661 59.2389 84.0975 59.3095 84.1087C59.3801 84.1199 59.4524 84.1103 59.5177 84.0813V84.0813Z" fill="#263238"/>
<path d="M64.3642 82.5616C64.1422 82.5834 63.9191 82.5922 63.696 82.5878C63.461 82.6279 63.2192 82.5911 63.0068 82.483C62.9478 82.4362 62.906 82.3712 62.8879 82.2982C62.8698 82.2253 62.8765 82.1484 62.9069 82.0796C62.9871 81.9505 63.1008 81.8454 63.236 81.7753C63.3711 81.7052 63.5228 81.6728 63.675 81.6813C63.9854 81.6498 64.2965 81.7338 64.5483 81.9171C64.6029 81.9626 64.6431 82.0229 64.6641 82.0906C64.685 82.1584 64.6858 82.2307 64.6663 82.2989C64.6468 82.3671 64.6079 82.4282 64.5543 82.4748C64.5007 82.5215 64.4347 82.5516 64.3642 82.5616Z" fill="#263238"/>
<path d="M63.5115 88.1213C63.3868 88.4473 63.1803 88.7359 62.9117 88.9597C62.7597 89.0745 62.5761 89.1403 62.3856 89.1483C61.9647 89.1483 61.8594 88.813 61.8331 88.4933C61.8208 88.318 61.8314 88.1419 61.8647 87.9693C62.3829 88.195 62.9604 88.2483 63.5115 88.1213Z" fill="#263238"/>
<path d="M62.9115 88.9596C62.7595 89.0744 62.576 89.1402 62.3854 89.1483C61.9645 89.1483 61.8593 88.8129 61.833 88.4933C62.0392 88.4367 62.2587 88.452 62.4549 88.5369C62.6511 88.6217 62.8123 88.7709 62.9115 88.9596V88.9596Z" fill="#FF9ABB"/>
<path d="M54.6045 88.3623C54.6045 88.3623 51.2321 84.3799 51.0795 81.8018C51.0111 80.6333 52.4632 79.6115 52.4632 79.6115C52.2676 79.1621 52.2023 78.6672 52.2749 78.1828C52.3474 77.6984 52.5548 77.2439 52.8735 76.871C54.0363 75.3775 57.3876 75.147 57.3876 75.147C57.3876 75.147 59.0396 71.7253 62.2647 72.4746C65.4898 73.2239 64.0535 76.9496 64.0535 76.9496C64.0535 76.9496 65.4161 78.3486 62.896 80.0045C60.3759 81.6603 54.8412 81.2883 54.8412 81.2883C55.3877 83.1069 55.6573 84.9968 55.6409 86.8951C55.6194 87.2107 55.5114 87.5143 55.3287 87.773C55.1459 88.0317 54.8954 88.2355 54.6045 88.3623V88.3623Z" fill="#263238"/>
<path d="M57.8926 75.1051C57.1729 74.9368 56.4263 74.9171 55.6987 75.0475C55.0448 75.142 54.4116 75.3458 53.8257 75.6501C53.2949 75.8949 52.8408 76.2786 52.5119 76.7603C52.1829 77.2421 51.9915 77.8037 51.958 78.3853C51.9604 78.6848 52.0226 78.9807 52.1409 79.256C52.2592 79.5313 52.4313 79.7804 52.6472 79.9888C52.6472 79.9888 52.6893 79.9888 52.6735 79.9573C51.8317 79.2028 51.9896 77.8037 52.5999 76.9653C53.3652 76.0582 54.4376 75.4617 55.6145 75.2885C56.3629 75.1585 57.1243 75.1198 57.8821 75.1732C57.8895 75.1718 57.8963 75.168 57.9015 75.1626C57.9067 75.1572 57.9101 75.1503 57.9113 75.1428C57.9124 75.1354 57.9112 75.1278 57.9079 75.121C57.9046 75.1143 57.8992 75.1087 57.8926 75.1051V75.1051Z" fill="#263238"/>
<path d="M64.663 73.5907C64.4609 73.215 64.1699 72.8941 63.8151 72.6558C63.4603 72.4174 63.0524 72.2689 62.627 72.2231C61.6397 72.0846 60.6344 72.2782 59.7702 72.7733C58.9062 73.2783 58.1912 74.0013 57.6973 74.8693C57.6973 74.8693 57.6973 74.906 57.7341 74.8693C58.1773 74.0998 58.8208 73.4639 59.5969 73.0285C60.3729 72.5932 61.2525 72.3747 62.1429 72.396C62.5555 72.3918 62.9637 72.4812 63.3365 72.6573C63.7093 72.8334 64.037 73.0917 64.2947 73.4126C64.5046 73.7446 64.6389 74.1185 64.688 74.5078C64.737 74.8971 64.6998 75.2924 64.5788 75.6658C64.2583 76.5544 63.6908 77.3339 62.9426 77.9137C62.9426 77.9137 62.9426 77.9557 62.9426 77.9399C63.6619 77.442 64.2414 76.7692 64.6262 75.9854C64.8011 75.6113 64.8947 75.2046 64.9011 74.792C64.9074 74.3794 64.8263 73.97 64.663 73.5907V73.5907Z" fill="#263238"/>
<path d="M55.5932 87.3458C55.5932 87.3458 53.5939 85.2498 52.6101 85.9834C51.6263 86.717 53.373 89.9448 54.7146 90.2225C54.8818 90.2705 55.057 90.2843 55.2298 90.263C55.4025 90.2417 55.5691 90.1857 55.7195 90.0986C55.87 90.0114 56.0011 89.8948 56.1051 89.7558C56.2091 89.6168 56.2837 89.4583 56.3245 89.2898L55.5932 87.3458Z" fill="#EB9481"/>
<path d="M60.8175 95.5359L59.0971 99.796L53.7781 94.4041L52.2734 96.1333C52.2734 96.1333 57.4715 104.701 57.503 104.313L59.2708 100.645L61.8119 103.202L61.6067 96.7883L60.8175 95.5359Z" fill="#EBEBEB"/>
<path d="M61.8907 100.021C61.8223 98.9733 61.7855 97.8939 61.6645 96.8406C61.6645 96.8039 61.6014 96.7882 61.5908 96.8406C61.3804 97.8624 61.6645 101.908 61.6592 102.877C61.554 102.767 59.3022 100.629 59.2812 100.661C58.8971 101.247 57.6029 103.92 57.5135 104.166C56.6927 102.804 53.5413 97.8781 52.568 96.5681C52.5364 96.5315 52.4838 96.5681 52.5048 96.6048C53.2309 98.0406 57.3977 104.706 57.4661 104.685C58.1482 103.424 58.7628 102.128 59.3075 100.802C59.6916 101.268 61.9381 103.684 61.9696 103.527C62.0073 102.358 61.9809 101.188 61.8907 100.021V100.021Z" fill="#263238"/>
<path d="M181.072 127.636H31.5186V133.17H181.072V127.636Z" fill="#455A64"/>
<path d="M86.1135 126.363H57.6191V127.636H86.1135V126.363Z" fill="#C7C7C7"/>
<path d="M86.1085 126.363H71.7666V127.636H86.1085V126.363Z" fill="#A6A6A6"/>
<path d="M73.3135 127.631H101.082L104.712 108.851H76.9437L73.3135 127.631Z" fill="#C7C7C7"/>
<path d="M87.3183 118.241C87.2951 118.455 87.3181 118.672 87.3856 118.877C87.4532 119.082 87.5638 119.271 87.7102 119.43C87.8565 119.589 88.0352 119.715 88.2343 119.8C88.4335 119.885 88.6485 119.927 88.8651 119.923C89.3248 119.915 89.7657 119.739 90.1041 119.429C90.4425 119.119 90.655 118.696 90.7013 118.241C90.7244 118.027 90.7016 117.81 90.6344 117.605C90.5671 117.401 90.4569 117.213 90.3112 117.054C90.1654 116.895 89.9874 116.768 89.7889 116.683C89.5904 116.598 89.3759 116.555 89.1597 116.559C88.6995 116.567 88.258 116.742 87.9187 117.052C87.5794 117.362 87.3659 117.785 87.3183 118.241Z" fill="#EBEBEB"/>
<path d="M150.758 127.631H122.879L120.722 108.777H148.601L150.758 127.631Z" fill="#C7C7C7"/>
<path d="M149.237 126.368H124.11L122.242 110.04H147.369L149.237 126.368Z" fill="white"/>
<path d="M158.933 126.368H123.073V127.631H158.933V126.368Z" fill="#C7C7C7"/>
<path d="M166.725 126.368H130.865V127.631H166.725V126.368Z" fill="#EBEBEB"/>
<path d="M125.02 111.738C128.45 111.68 131.859 111.696 135.31 111.67C138.762 111.644 142.15 111.67 145.601 111.738C142.171 111.796 138.762 111.78 135.31 111.801C131.859 111.822 128.45 111.796 125.02 111.738Z" fill="#C7C7C7"/>
<path d="M125.125 112.571C128.555 112.519 131.964 112.529 135.416 112.508C138.867 112.487 142.255 112.508 145.712 112.571C142.276 112.629 138.846 112.618 135.416 112.639C131.986 112.66 128.555 112.629 125.125 112.571Z" fill="#C7C7C7"/>
<path d="M125.235 113.41C128.666 113.352 132.075 113.368 135.526 113.347C138.977 113.326 142.392 113.347 145.822 113.41C142.392 113.467 138.983 113.451 135.526 113.478C132.07 113.504 128.66 113.467 125.235 113.41Z" fill="#C7C7C7"/>
<path d="M125.336 114.248C128.766 114.19 132.202 114.206 135.632 114.18C139.062 114.154 142.472 114.18 145.923 114.248C142.493 114.3 139.083 114.29 135.632 114.311C132.181 114.332 128.766 114.3 125.336 114.248Z" fill="#C7C7C7"/>
<path d="M125.445 115.081C128.876 115.023 132.285 115.039 135.736 115.018C139.187 114.997 142.576 115.018 146.027 115.081C142.597 115.139 139.187 115.123 135.736 115.149C132.285 115.175 128.876 115.139 125.445 115.081Z" fill="#C7C7C7"/>
<path d="M125.551 115.919C128.981 115.862 132.39 115.878 135.842 115.851C139.293 115.825 142.681 115.851 146.132 115.919C142.702 115.972 139.293 115.961 135.842 115.982C132.39 116.003 128.981 115.972 125.551 115.919Z" fill="#C7C7C7"/>
<path d="M125.656 116.763C129.087 116.705 132.496 116.721 135.947 116.7C139.398 116.679 142.787 116.7 146.243 116.763C142.808 116.821 139.377 116.805 135.947 116.831C132.517 116.857 129.087 116.81 125.656 116.763Z" fill="#C7C7C7"/>
<path d="M125.762 117.591C129.192 117.533 132.601 117.549 136.053 117.523C139.504 117.497 142.918 117.523 146.349 117.591C142.918 117.649 139.509 117.633 136.053 117.654C132.596 117.675 129.192 117.643 125.762 117.591Z" fill="#C7C7C7"/>
<path d="M125.867 118.424C129.297 118.372 132.707 118.382 136.163 118.361C139.62 118.34 143.003 118.361 146.454 118.424C143.024 118.482 139.615 118.466 136.163 118.492C132.712 118.519 129.297 118.482 125.867 118.424Z" fill="#C7C7C7"/>
<path d="M125.972 119.263C129.407 119.205 132.811 119.221 136.268 119.194C139.724 119.168 143.107 119.194 146.559 119.263C143.128 119.32 139.719 119.305 136.268 119.326C132.816 119.346 129.407 119.32 125.972 119.263Z" fill="#C7C7C7"/>
<path d="M126.083 120.096C129.513 120.043 132.923 120.054 136.374 120.033C139.825 120.012 143.213 120.033 146.665 120.096C143.234 120.153 139.825 120.138 136.374 120.164C132.923 120.19 129.513 120.153 126.083 120.096Z" fill="#C7C7C7"/>
<path d="M126.188 120.955C129.618 120.897 133.027 120.913 136.478 120.887C139.93 120.861 143.318 120.887 146.769 120.955C143.339 121.013 139.93 120.997 136.478 121.018C133.027 121.039 129.618 120.992 126.188 120.955Z" fill="#C7C7C7"/>
<path d="M126.288 121.773C129.718 121.715 133.128 121.725 136.579 121.704C140.03 121.684 143.445 121.704 146.875 121.773C143.445 121.825 140.009 121.815 136.579 121.835C133.149 121.856 129.724 121.825 126.288 121.773Z" fill="#C7C7C7"/>
<path d="M126.398 122.606C129.829 122.548 133.238 122.564 136.694 122.543C140.151 122.522 143.534 122.543 146.985 122.606C143.555 122.663 140.146 122.648 136.694 122.674C133.243 122.7 129.829 122.663 126.398 122.606Z" fill="#C7C7C7"/>
<path d="M126.503 123.444C129.938 123.387 133.342 123.402 136.799 123.376C140.256 123.35 143.638 123.376 147.09 123.444C143.66 123.497 140.25 123.486 136.799 123.507C133.348 123.528 129.938 123.497 126.503 123.444Z" fill="#C7C7C7"/>
<path d="M129.502 117.591H127.939L128.808 124.419H130.365L129.502 117.591Z" fill="#C73583"/>
<path d="M132.186 115.925H130.623L131.702 124.419H133.264L132.186 115.925Z" fill="#C73583"/>
<path d="M135.19 116.784H133.627L134.6 124.419H136.158L135.19 116.784Z" fill="#C73583"/>
<path d="M137.762 114.248H136.199L137.493 124.419H139.056L137.762 114.248Z" fill="#C73583"/>
<path d="M140.83 115.61H139.272L140.388 124.419H141.95L140.83 115.61Z" fill="#C73583"/>
<path d="M143.344 112.571H141.781L143.286 124.419H144.843L143.344 112.571Z" fill="#C73583"/>
<path d="M125.504 111.151C125.855 113.352 126.177 115.558 126.472 117.769C126.793 119.975 127.082 122.181 127.372 124.393L127.187 124.235C130.528 124.209 133.864 124.235 137.184 124.235C140.503 124.235 143.86 124.303 147.18 124.403C143.839 124.497 140.503 124.534 137.184 124.571C133.864 124.607 130.513 124.607 127.187 124.571H127.024V124.414C126.751 122.202 126.498 119.991 126.235 117.774C125.972 115.558 125.72 113.368 125.504 111.151Z" fill="#C7C7C7"/>
<path d="M130.476 125.257H128.913L128.897 125.116H130.455L130.476 125.257Z" fill="#C7C7C7"/>
<path d="M133.369 125.257H131.807L131.791 125.116H133.354L133.369 125.257Z" fill="#C7C7C7"/>
<path d="M136.268 125.257H134.706L134.685 125.116H136.247L136.268 125.257Z" fill="#C7C7C7"/>
<path d="M139.161 125.257H137.599L137.583 125.116H139.146L139.161 125.257Z" fill="#C7C7C7"/>
<path d="M142.055 125.257H140.498L140.477 125.116H142.039L142.055 125.257Z" fill="#C7C7C7"/>
<path d="M144.954 125.257H143.392L143.376 125.116H144.933L144.954 125.257Z" fill="#C7C7C7"/>
<path d="M147.459 110.831L147.369 110.04H122.242L122.332 110.831H147.459Z" fill="#263238"/>
<path d="M124.357 110.438C124.361 110.489 124.384 110.536 124.421 110.572C124.458 110.607 124.506 110.629 124.557 110.632C124.581 110.631 124.604 110.625 124.625 110.614C124.646 110.604 124.664 110.589 124.679 110.57C124.693 110.552 124.704 110.531 124.709 110.508C124.715 110.485 124.715 110.461 124.71 110.438C124.707 110.387 124.684 110.338 124.648 110.302C124.611 110.265 124.562 110.243 124.51 110.239C124.486 110.241 124.463 110.248 124.442 110.259C124.421 110.27 124.403 110.286 124.388 110.305C124.374 110.324 124.363 110.345 124.358 110.368C124.353 110.391 124.352 110.415 124.357 110.438Z" fill="#C7C7C7"/>
<path d="M123.658 110.438C123.662 110.489 123.685 110.536 123.722 110.572C123.759 110.607 123.807 110.629 123.858 110.632C123.882 110.631 123.905 110.625 123.926 110.614C123.947 110.604 123.965 110.589 123.98 110.57C123.994 110.552 124.004 110.531 124.01 110.508C124.015 110.485 124.016 110.461 124.011 110.438C124.008 110.387 123.985 110.338 123.948 110.302C123.912 110.265 123.863 110.243 123.811 110.239C123.787 110.24 123.763 110.246 123.742 110.257C123.72 110.268 123.702 110.284 123.687 110.303C123.672 110.322 123.662 110.344 123.657 110.368C123.652 110.391 123.652 110.415 123.658 110.438Z" fill="white"/>
<path d="M122.9 110.438C122.905 110.489 122.929 110.535 122.965 110.571C123.002 110.606 123.049 110.628 123.1 110.632C123.124 110.631 123.147 110.625 123.168 110.614C123.189 110.604 123.208 110.589 123.223 110.57C123.238 110.552 123.249 110.531 123.255 110.508C123.261 110.485 123.262 110.462 123.259 110.438C123.255 110.387 123.233 110.338 123.196 110.302C123.159 110.265 123.11 110.243 123.058 110.239C123.034 110.24 123.01 110.247 122.988 110.258C122.967 110.269 122.948 110.284 122.933 110.303C122.918 110.322 122.907 110.344 122.901 110.367C122.896 110.39 122.895 110.415 122.9 110.438Z" fill="#C73583"/>
<path d="M217.447 160.428H161.89V154.596H182.687L189.679 114.091H215.332L217.447 160.428Z" fill="#DBDBDB"/>
<path d="M217.448 160.428H214.423L212.444 114.091H215.333L217.448 160.428Z" fill="#C7C7C7"/>
<path d="M144.991 186.455L162.842 190.233C162.842 190.233 148.758 148.36 155.371 142.963C157.208 141.464 161.201 140.94 165.952 142.963C173.044 146.013 181.251 152.238 188.99 154.491C196.24 156.619 204.842 154.659 207.799 151.415C214.023 144.603 209.34 131.708 209.34 131.708L183.676 130.749C183.676 130.749 184.061 131.058 182.835 132.142C182.835 132.142 167.746 128.736 161.19 132.724C149.368 139.961 144.991 186.455 144.991 186.455Z" fill="#37474F"/>
<path d="M193.435 82.7031C197.05 84.9563 198.991 89.5727 198.991 89.5727C198.991 89.5727 202.921 93.7647 202.732 96.5734C202.692 97.3663 202.46 98.1378 202.056 98.8222C201.652 99.5065 201.088 100.083 200.412 100.503L200.359 98.989C200.359 98.989 199.833 101.085 196.845 102.542C193.856 103.998 189.448 103.983 187.017 103.38C185.576 103.025 184.253 102.302 183.176 101.284L184.476 103.212C183.419 103.331 182.349 103.188 181.361 102.795C180.373 102.401 179.498 101.771 178.815 100.959C176.247 98.1192 180.419 92.2556 180.635 91.1447C180.851 90.0339 179.735 82.5668 187.78 82.0795C187.78 82.0743 190.947 81.1311 193.435 82.7031Z" fill="#263238"/>
<path d="M201.49 100.037C202.201 99.2884 202.74 98.3943 203.068 97.417C203.353 96.4258 203.294 95.3679 202.9 94.4145C202.35 93.3129 201.605 92.319 200.701 91.4801C199.828 90.5683 198.886 89.7142 198.028 88.7867C197.981 88.7396 198.06 88.6662 198.112 88.7029C198.986 89.3525 199.82 90.0523 200.611 90.7989C201.399 91.4638 202.105 92.2183 202.716 93.0468C203.286 93.8089 203.624 94.7185 203.689 95.6668C203.701 96.4477 203.52 97.2195 203.163 97.9148C202.716 98.7006 202.168 99.4246 201.532 100.068C201.522 100.137 201.453 100.084 201.49 100.037Z" fill="#263238"/>
<path d="M177.394 97.7524C177.71 94.8389 179.757 92.5752 180.704 89.8924C181.23 88.4304 181.514 86.8794 182.308 85.5327C182.308 85.496 182.392 85.5327 182.377 85.5694C181.745 86.7641 181.519 88.0741 181.161 89.3579C180.757 90.6425 180.228 91.8849 179.583 93.0678C178.462 95.2529 177.115 97.8362 178.057 100.325C178.489 101.478 179.493 102.631 180.798 102.725C180.851 102.725 180.835 102.814 180.798 102.804C180.27 102.722 179.764 102.534 179.311 102.25C178.859 101.966 178.47 101.593 178.168 101.153C177.504 100.15 177.23 98.9418 177.394 97.7524Z" fill="#263238"/>
<path d="M177.447 98.5069C177.128 97.5026 177.128 96.4249 177.447 95.4206C177.838 94.4519 178.434 93.5781 179.194 92.8582C180.02 91.9989 180.903 91.1552 181.298 89.9972C181.298 89.95 181.382 89.9972 181.366 90.0286C180.777 91.9307 179.094 93.1359 178.162 94.8337C177.11 96.7725 177.636 99.1305 179.036 100.755C179.922 101.737 181.029 102.496 182.266 102.971C182.266 102.971 182.266 103.013 182.266 103.008C180.146 102.222 178.115 100.744 177.447 98.5069Z" fill="#263238"/>
<path d="M193.589 106.467C190.364 116.124 187.344 123.47 184.387 125.105C182.004 126.42 178.736 127.227 175.401 127.725C171.836 128.202 168.244 128.443 164.647 128.448C163.542 128.448 162.622 128.448 161.969 128.448C160.349 128.448 158.507 117.649 159.744 116.443C160.028 116.171 161.106 116.019 162.606 115.919C167.662 115.668 177.537 116.255 178.163 115.741C178.789 115.228 184.371 108.562 189.096 103.375C192.352 99.796 195.378 101.111 193.589 106.467Z" fill="#F7A9A0"/>
<path d="M165.273 127.61C163.667 128.182 162.026 128.649 160.359 129.009C159.033 129.234 155.198 129.79 154.803 128.359C154.53 127.385 156.745 126.787 158.302 126.342C159.123 126.106 160.18 125.399 160.007 124.869C159.702 123.947 157.587 124.602 156.171 125.226C153.435 126.42 149.721 128.716 148.28 127.243C147.753 126.688 148.532 125.87 149.637 125.11C147.89 125.949 146.054 126.588 145.428 125.996C145.268 125.844 145.172 125.636 145.16 125.416C145.149 125.196 145.222 124.98 145.365 124.812C145.149 124.884 144.916 124.891 144.696 124.831C144.475 124.771 144.278 124.648 144.129 124.476C143.655 123.863 144.008 123.072 144.681 122.302C144.582 122.279 144.491 122.233 144.413 122.169C144.335 122.104 144.274 122.022 144.234 121.93C143.303 120.101 149.495 115.825 151.478 115.579C155.453 115.186 159.462 115.339 163.395 116.035C165.462 118.073 165.278 127.605 165.273 127.61Z" fill="#F7A9A0"/>
<path d="M157.45 121.353C156.061 121.404 154.7 121.762 153.467 122.401C152.026 123.166 150.837 124.298 149.474 125.194C149.437 125.22 149.474 125.278 149.516 125.252C150.153 124.78 150.847 124.372 151.505 123.926C152.163 123.481 152.783 123.035 153.457 122.648C154.678 121.934 156.044 121.503 157.455 121.385C157.455 121.385 157.466 121.353 157.45 121.353Z" fill="#263238"/>
<path d="M156.656 118.812C155.084 119.005 153.537 119.356 152.036 119.86C150.421 120.462 149.085 121.594 147.769 122.679C146.986 123.334 146.191 124.005 145.449 124.691C145.418 124.717 145.449 124.775 145.491 124.744C146.822 123.622 148.196 122.532 149.595 121.495C150.89 120.519 152.365 119.807 153.936 119.399C154.83 119.168 155.745 119.006 156.656 118.875V118.812Z" fill="#263238"/>
<path d="M155.282 116.517C153.846 116.56 152.429 116.86 151.099 117.402C149.538 118.205 148.084 119.197 146.769 120.358C146.054 120.966 145.354 121.6 144.665 122.244C144.638 122.27 144.665 122.318 144.712 122.297C146.276 120.89 147.929 119.586 149.663 118.393C150.481 117.811 151.384 117.359 152.341 117.051C153.305 116.795 154.288 116.62 155.282 116.527C155.282 116.527 155.292 116.517 155.282 116.517Z" fill="#263238"/>
<path d="M191 116.239L182.514 110.365C182.514 110.365 186.759 104.549 190.216 101.913C193.673 99.2772 194.804 101.63 193.999 105.775C193.194 109.92 191 116.239 191 116.239Z" fill="#C73583"/>
<path d="M184.034 109.155C186.533 110.678 188.927 112.365 191.2 114.206C191.2 114.206 191.174 114.274 191.158 114.269C189.122 113.006 185.26 110.192 183.976 109.238C183.95 109.223 184.008 109.139 184.034 109.155Z" fill="#263238"/>
<path d="M183.234 110.863L191 116.239C191 116.239 193.194 109.951 193.999 105.759C194.525 103.081 194.23 101.153 193.031 100.833L183.234 110.863Z" fill="#263238"/>
<path d="M183.992 123.769L183.677 130.764C183.677 130.764 191.395 131.608 210.482 131.608C210.482 131.608 206.457 111.319 199.997 103.763C196.766 99.9846 192.794 100.095 190.169 102.557C189.506 103.176 183.356 112.959 182.403 116.758C181.572 120.111 183.992 123.769 183.992 123.769Z" fill="#C73583"/>
<path d="M191.437 104.711L189.827 109.485C189.301 111.057 188.775 112.676 188.322 114.279C188.085 115.074 187.888 115.88 187.733 116.695C187.591 117.494 187.591 118.312 187.733 119.111C188.031 120.731 188.648 122.277 189.548 123.659L189.59 123.727V123.8C189.532 125.027 189.432 126.253 189.353 127.468C189.275 128.684 189.164 129.921 189.043 131.136C189.043 129.905 189.043 128.674 189.043 127.442C189.043 126.211 189.075 124.979 189.122 123.774L189.164 123.91C188.206 122.483 187.542 120.88 187.212 119.194C187.052 118.341 187.052 117.465 187.212 116.611C187.382 115.78 187.595 114.958 187.849 114.148C188.327 112.529 188.901 110.952 189.506 109.38C190.111 107.808 190.763 106.231 191.437 104.711Z" fill="#263238"/>
<path d="M187.733 110.658C187.717 110.766 187.743 110.875 187.806 110.964C187.869 111.052 187.963 111.114 188.07 111.135C188.122 111.141 188.175 111.136 188.226 111.121C188.276 111.106 188.323 111.08 188.363 111.047C188.403 111.013 188.437 110.971 188.46 110.924C188.484 110.877 188.498 110.826 188.501 110.774C188.517 110.666 188.491 110.557 188.428 110.469C188.365 110.38 188.271 110.319 188.164 110.297C188.112 110.291 188.059 110.296 188.008 110.311C187.958 110.326 187.911 110.352 187.871 110.386C187.831 110.419 187.797 110.461 187.774 110.508C187.75 110.555 187.736 110.606 187.733 110.658V110.658Z" fill="#263238"/>
<path d="M186.217 115.432C186.202 115.539 186.228 115.649 186.29 115.737C186.353 115.826 186.447 115.887 186.554 115.909C186.606 115.915 186.659 115.91 186.71 115.895C186.76 115.879 186.807 115.854 186.848 115.82C186.888 115.786 186.921 115.745 186.945 115.698C186.968 115.651 186.982 115.6 186.985 115.547C187 115.44 186.973 115.332 186.911 115.243C186.848 115.155 186.755 115.093 186.649 115.071C186.596 115.065 186.543 115.07 186.493 115.085C186.442 115.1 186.396 115.125 186.355 115.159C186.315 115.193 186.282 115.235 186.258 115.282C186.234 115.329 186.221 115.38 186.217 115.432V115.432Z" fill="#263238"/>
<path d="M186.217 120.232C186.202 120.339 186.228 120.448 186.29 120.537C186.353 120.626 186.447 120.687 186.554 120.709C186.607 120.715 186.66 120.71 186.711 120.694C186.762 120.678 186.809 120.653 186.849 120.618C186.89 120.584 186.923 120.542 186.946 120.494C186.97 120.447 186.983 120.395 186.985 120.342C187.001 120.235 186.975 120.127 186.912 120.039C186.849 119.951 186.755 119.891 186.649 119.87C186.596 119.865 186.543 119.87 186.493 119.885C186.442 119.9 186.396 119.925 186.355 119.959C186.315 119.993 186.282 120.035 186.258 120.081C186.234 120.128 186.221 120.18 186.217 120.232V120.232Z" fill="#263238"/>
<path d="M187.733 124.136C187.719 124.243 187.746 124.351 187.808 124.44C187.87 124.528 187.964 124.59 188.07 124.613C188.123 124.618 188.176 124.613 188.227 124.598C188.278 124.582 188.325 124.556 188.365 124.522C188.406 124.488 188.439 124.445 188.462 124.398C188.485 124.35 188.499 124.299 188.501 124.246C188.517 124.139 188.491 124.029 188.428 123.941C188.366 123.852 188.271 123.791 188.165 123.769C188.112 123.765 188.059 123.771 188.009 123.787C187.959 123.803 187.912 123.829 187.872 123.863C187.832 123.897 187.799 123.939 187.775 123.986C187.752 124.032 187.737 124.083 187.733 124.136Z" fill="#263238"/>
<path d="M187.411 128.978C187.394 129.085 187.42 129.195 187.483 129.284C187.546 129.373 187.641 129.434 187.748 129.454C187.8 129.46 187.854 129.455 187.904 129.44C187.954 129.425 188.001 129.399 188.042 129.366C188.082 129.332 188.115 129.29 188.139 129.243C188.162 129.196 188.176 129.145 188.179 129.093C188.195 128.986 188.169 128.876 188.106 128.788C188.044 128.699 187.949 128.638 187.843 128.616C187.79 128.61 187.737 128.615 187.687 128.63C187.636 128.646 187.59 128.671 187.549 128.705C187.509 128.738 187.476 128.78 187.452 128.827C187.428 128.874 187.415 128.925 187.411 128.978Z" fill="#263238"/>
<path d="M186.349 108.709C185.702 109.799 185.092 110.423 184.502 111.544C184.65 111.02 184.823 110.989 185.029 110.47C185.029 110.428 184.976 110.402 184.955 110.438C184.661 110.892 184.451 111.394 184.334 111.921C184.145 112.283 183.95 112.644 183.761 113.016C183.398 113.745 183.019 114.473 182.708 115.238C182.418 116.006 182.251 116.814 182.214 117.633C182.214 117.675 182.288 117.685 182.293 117.633C182.427 116.803 182.686 115.997 183.061 115.243C183.392 114.489 183.766 113.745 184.113 113.006C184.887 111.434 185.655 110.328 186.386 108.725C186.402 108.709 186.365 108.683 186.349 108.709Z" fill="#263238"/>
<path d="M200.643 104.585C205.589 112.739 211.755 126.703 207.882 128.904C201.511 132.515 184.733 132.368 180.93 132.179C179.283 132.101 177.852 121.034 179.162 119.86C180.472 118.686 197.886 120.656 198.186 119.619C198.36 119.037 196.608 113.389 196.04 106.718C195.361 99.0309 199.249 102.285 200.643 104.585Z" fill="#F7A9A0"/>
<path d="M182.135 119.472C182.135 119.472 177.194 118.592 173.933 118.167C172.117 117.932 168.961 117.806 167.545 118.241C165.441 118.89 156.992 122.957 157.933 125.016C158.791 126.881 165.599 122.469 165.599 122.469C165.599 122.469 158.333 126.316 159.78 128.37C161.227 130.424 168.25 124.424 168.25 124.424C168.25 124.424 160.885 128.543 162.705 130.429C164.084 131.854 170.755 126.761 170.755 126.761C170.755 126.761 164.441 130.345 165.799 131.87C167.298 133.557 173.748 129.25 173.748 129.25C177.852 132.551 181.161 132.446 183.508 132.095C184.076 132.027 182.135 119.472 182.135 119.472Z" fill="#F7A9A0"/>
<path d="M168.024 120.955C167.156 121.38 166.272 121.799 165.441 122.297C164.61 122.794 163.799 123.318 163.021 123.869C161.987 124.592 161.042 125.435 160.206 126.378C161.875 124.93 163.677 123.641 165.588 122.527C166.414 122.029 167.214 121.479 168.045 120.997C168.066 120.997 168.045 120.955 168.024 120.955Z" fill="#263238"/>
<path d="M169.876 123.926C168.793 124.513 167.693 125.053 166.63 125.687C165.567 126.321 164.126 127.259 163.116 127.951C163.037 128.008 163.084 128.139 163.163 128.087C164.215 127.427 165.72 126.541 166.767 125.896C167.814 125.252 168.829 124.56 169.892 123.952C169.913 123.942 169.897 123.916 169.876 123.926Z" fill="#263238"/>
<path d="M171.928 126.195C170.24 127.054 168.645 128.083 167.167 129.266C167.093 129.323 167.167 129.35 167.246 129.292C168.824 128.244 170.029 127.411 171.955 126.258C171.986 126.195 171.965 126.153 171.928 126.195Z" fill="#263238"/>
<path d="M182.861 119.436C180.604 119.037 173.975 117.864 171.692 117.68C169.79 117.43 167.855 117.698 166.094 118.456C163.339 119.647 160.805 121.291 158.597 123.318C158.165 123.764 157.518 124.471 157.886 125.105C158.334 125.881 160.517 125.572 163.063 123.968C163.158 123.91 163.116 123.858 163.021 123.91C159.512 125.87 158.334 125.378 158.086 124.896C157.923 124.586 158.207 124.141 158.455 123.811C158.848 123.336 159.298 122.912 159.796 122.548C161.468 121.279 163.264 120.182 165.157 119.273C167.205 118.231 169.507 117.79 171.797 118C174.138 118.204 180.515 119.352 182.845 119.525C182.903 119.525 182.909 119.446 182.861 119.436Z" fill="#263238"/>
<path d="M159.585 127.322C159.885 126.74 160.296 126.222 160.795 125.797C161.331 125.234 161.921 124.725 162.557 124.277C162.589 124.277 162.626 124.277 162.594 124.319C162.038 124.781 161.511 125.276 161.016 125.802C160.748 126.09 160.499 126.395 160.269 126.714C160.005 127.004 159.844 127.372 159.811 127.762C159.848 128.522 160.779 128.663 161.389 128.558C161.77 128.484 162.143 128.377 162.505 128.239C162.996 128.029 163.47 127.784 163.925 127.505C163.967 127.505 164.052 127.505 164.01 127.531C163.057 128.176 161.221 129.533 160.053 128.721C159.824 128.578 159.652 128.36 159.567 128.105C159.481 127.85 159.488 127.573 159.585 127.322V127.322Z" fill="#263238"/>
<path d="M206.93 113.163L196.971 115.925C196.971 115.925 195.187 108.955 195.35 104.622C195.513 100.289 198.065 100.923 200.754 104.187C203.442 107.452 206.93 113.163 206.93 113.163Z" fill="#C73583"/>
<path d="M196.982 113.996C199.755 113.051 202.588 112.291 205.463 111.722C205.463 111.722 205.5 111.785 205.463 111.79C203.19 112.55 198.55 113.713 196.993 114.091C196.982 114.101 196.956 114.007 196.982 113.996Z" fill="#263238"/>
<path d="M195.382 110.197H195.408C195.555 110.543 195.687 110.889 195.808 111.245C195.698 110.48 195.603 109.71 195.524 108.94H195.566C196.05 111.219 196.592 113.483 197.029 115.752C197.276 115.752 197.555 115.752 197.776 115.752C197.782 115.754 197.788 115.759 197.792 115.765C197.797 115.771 197.799 115.778 197.799 115.786C197.799 115.793 197.797 115.8 197.792 115.806C197.788 115.812 197.782 115.817 197.776 115.82C197.502 115.862 197.25 115.93 196.965 115.998C196.935 116.01 196.9 116.01 196.87 115.997C196.839 115.984 196.815 115.96 196.802 115.93C196.424 114.622 196.127 113.292 195.913 111.948C195.824 111.738 195.74 111.528 195.671 111.313C195.546 110.949 195.449 110.576 195.382 110.197Z" fill="#263238"/>
<path d="M195.267 101.651C195.24 102.175 193.504 105.754 191.252 106.068C190.521 106.168 189.79 102.206 189.79 102.206L189.669 101.923L187.975 97.9986L192.226 94.0057L192.846 93.4817C192.846 93.4817 193.241 94.5874 193.715 95.9655C193.715 96.0284 193.757 96.0965 193.783 96.1646C193.809 96.2327 193.841 96.3113 193.862 96.3847C193.935 96.5943 194.009 96.8039 194.078 97.0135C194.146 97.2231 194.188 97.3279 194.235 97.4956L194.393 98.0196C194.766 99.2089 195.058 100.422 195.267 101.651V101.651Z" fill="#F7A9A0"/>
<path d="M193.715 95.9498C193.517 97.1785 193.052 98.3494 192.353 99.3811C191.655 100.413 190.738 101.28 189.669 101.923L187.975 97.9986L192.226 94.0057L192.846 93.4817C192.846 93.4817 193.241 94.5717 193.715 95.9498Z" fill="#263238"/>
<path d="M180.93 92.8215C181.593 100.289 186.16 100.739 187.77 100.598C189.238 100.467 194.22 99.8379 194.341 92.3395C194.462 84.841 190.763 82.7869 187.391 82.9075C184.019 83.028 180.273 85.3493 180.93 92.8215Z" fill="#F7A9A0"/>
<path d="M182.014 90.5631C182.183 90.5211 182.349 90.4704 182.513 90.4111C182.698 90.3817 182.868 90.2934 182.997 90.1596C183.028 90.1085 183.042 90.0488 183.036 89.9893C183.031 89.9299 183.006 89.8738 182.966 89.8295C182.873 89.7566 182.762 89.7095 182.644 89.6929C182.527 89.6764 182.407 89.6909 182.298 89.7352C182.061 89.7921 181.853 89.9338 181.714 90.1334C181.686 90.1809 181.672 90.2353 181.674 90.2903C181.676 90.3453 181.694 90.3986 181.726 90.4438C181.757 90.489 181.801 90.5242 181.852 90.5454C181.903 90.5665 181.959 90.5726 182.014 90.5631Z" fill="#263238"/>
<path d="M186.996 90.1806C186.819 90.1705 186.644 90.1495 186.47 90.1177C186.28 90.1273 186.094 90.0697 185.944 89.9552C185.904 89.9116 185.88 89.856 185.875 89.7972C185.87 89.7385 185.885 89.6798 185.917 89.6304C185.995 89.5408 186.096 89.4737 186.209 89.4359C186.322 89.3982 186.443 89.3911 186.559 89.4155C186.801 89.4304 187.029 89.5329 187.201 89.7037C187.237 89.7446 187.26 89.7947 187.268 89.8482C187.277 89.9017 187.27 89.9564 187.248 90.0062C187.227 90.056 187.192 90.0987 187.147 90.1296C187.103 90.1604 187.05 90.1781 186.996 90.1806Z" fill="#263238"/>
<path d="M186.039 92.1927C186.039 92.1927 186.081 92.1927 186.081 92.2346C186.081 92.7586 186.207 93.335 186.686 93.4713V93.5027C186.107 93.4608 185.976 92.6591 186.039 92.1927Z" fill="#263238"/>
<path d="M186.465 91.6111C187.286 91.4905 187.465 93.1411 186.702 93.2512C185.939 93.3612 185.771 91.7263 186.465 91.6111Z" fill="#263238"/>
<path d="M186.791 91.6792C186.948 91.7578 187.106 91.9045 187.28 91.9045C187.454 91.9045 187.617 91.7159 187.732 91.5325C187.732 91.5325 187.759 91.5325 187.764 91.5325C187.801 91.8521 187.717 92.1875 187.38 92.2713C187.043 92.3552 186.822 92.0879 186.706 91.7788C186.691 91.7369 186.733 91.6478 186.791 91.6792Z" fill="#263238"/>
<path d="M183.181 92.3604C183.181 92.3604 183.145 92.3919 183.145 92.4128C183.224 92.9368 183.224 93.5132 182.776 93.7385V93.7647C183.339 93.6233 183.334 92.832 183.181 92.3604Z" fill="#263238"/>
<path d="M182.661 91.8835C181.83 91.915 181.956 93.5656 182.724 93.5394C183.492 93.5132 183.361 91.8573 182.661 91.8835Z" fill="#263238"/>
<path d="M182.324 92.0146C182.198 92.1141 182.082 92.2818 181.925 92.3028C181.767 92.3237 181.598 92.1613 181.467 91.9988C181.467 92.3132 181.609 92.6329 181.919 92.6748C182.23 92.7167 182.387 92.4233 182.445 92.0984C182.424 92.0617 182.377 91.9779 182.324 92.0146Z" fill="#263238"/>
<path d="M184.102 94.6346C184.102 94.6346 184.071 95.4101 184.102 95.7664C184.102 95.8031 184.192 95.8083 184.318 95.8031C184.634 95.8317 184.952 95.7723 185.236 95.6317C185.52 95.4911 185.76 95.2747 185.928 95.0066C185.928 94.9699 185.901 94.9385 185.87 94.9647C185.439 95.3206 184.903 95.5283 184.344 95.5568C184.307 95.4625 184.444 94.2363 184.386 94.2363C184.107 94.2876 183.837 94.3757 183.581 94.4983C183.608 92.8844 183.886 91.2862 183.886 89.6828C183.886 89.6251 183.802 89.6147 183.792 89.6828C183.435 91.3859 183.25 93.1202 183.239 94.8599C183.245 95.0485 183.965 94.7079 184.102 94.6346Z" fill="#263238"/>
<path d="M194.025 91.9937C192.699 92.5177 191.594 89.4575 191.594 89.4575C191.594 89.4575 185.528 89.8662 183.892 85.2655C183.621 87.3656 182.549 89.2813 180.898 90.6155C180.898 90.6155 179.846 85.3755 183.734 83.3896C183.734 83.3896 188.406 80.3084 192.262 83.662C196.119 87.0156 194.919 91.6583 194.025 91.9937Z" fill="#263238"/>
<path d="M183.787 84.9091C183.897 85.6551 184.164 86.3695 184.571 87.0051C184.975 87.6593 185.513 88.2216 186.149 88.6557C186.302 88.771 186.476 88.8496 186.639 88.9492L186.886 89.0959L187.149 89.2059L187.675 89.4208L188.228 89.5622L188.501 89.6304L188.78 89.667L189.343 89.7404C189.716 89.7404 190.095 89.7404 190.463 89.7404C190.095 89.6723 189.727 89.6461 189.364 89.578L188.838 89.4574L188.569 89.3998L188.312 89.3107L187.786 89.1378C187.617 89.0697 187.454 88.9911 187.291 88.9177L187.044 88.8024L186.812 88.6662C186.653 88.5782 186.498 88.482 186.349 88.378C185.755 87.9638 185.235 87.4517 184.813 86.8636C184.598 86.568 184.406 86.2561 184.24 85.9309C184.061 85.6033 183.909 85.2615 183.787 84.9091V84.9091Z" fill="#263238"/>
<path d="M184.818 92.9368L184.997 92.6748C184.618 92.3919 183.766 92.046 183.256 92.7167L183.503 92.9211C183.961 92.3185 184.782 92.9106 184.818 92.9368Z" fill="#EBEBEB"/>
<path d="M195.735 92.6591L196.014 92.4862C195.93 92.3552 195.204 91.2338 194.467 91.1762C193.73 91.1185 189.474 91.8941 189.29 91.9255L189.348 92.2451C190.584 92.0251 193.915 91.4591 194.446 91.5011C194.977 91.543 195.546 92.3342 195.735 92.6591Z" fill="#EBEBEB"/>
<path d="M185.276 94.1367C184.902 93.859 184.46 92.7848 184.855 92.2556C185.591 91.2652 189.4 90.5945 189.563 90.5683L189.774 90.5316V90.7465C189.774 90.8355 189.663 93.0363 189.001 93.7385C188.647 94.0349 188.22 94.2305 187.764 94.3044C186.843 94.5088 185.739 94.4878 185.276 94.1367ZM185.134 92.4599C184.881 92.8005 185.223 93.6704 185.481 93.8643C186.007 94.273 188.164 94.1105 188.743 93.4975C189.169 93.0468 189.358 91.6582 189.411 90.9456C188.211 91.1709 185.644 91.7735 185.134 92.4599Z" fill="#EBEBEB"/>
<path d="M181.919 94.5821C181.714 94.6066 181.505 94.5818 181.311 94.5098C181.117 94.4378 180.943 94.3206 180.804 94.1681C180.367 93.5865 179.989 91.611 179.973 91.5482L179.931 91.349H180.141C180.409 91.349 182.798 91.349 183.298 92.2346C183.438 92.5129 183.508 92.8207 183.502 93.1319C183.497 93.443 183.416 93.7482 183.266 94.0214C183.04 94.2991 182.72 94.4853 182.367 94.5454C182.219 94.5714 182.069 94.5837 181.919 94.5821ZM181.078 93.9638C181.187 94.0687 181.318 94.1477 181.462 94.1949C181.606 94.2421 181.759 94.2562 181.909 94.2363C182.105 94.2417 182.299 94.2062 182.481 94.1322C182.662 94.0582 182.825 93.9473 182.961 93.8066C183.076 93.5871 183.137 93.3443 183.142 93.097C183.147 92.8498 183.094 92.6048 182.987 92.3813C182.666 91.8311 181.114 91.6896 180.325 91.6687C180.468 92.4648 180.721 93.2373 181.078 93.9638V93.9638Z" fill="#EBEBEB"/>
<path d="M193.062 92.3552C193.062 92.3552 194.272 89.7666 195.424 90.1544C196.577 90.5421 195.95 94.1001 194.798 94.776C194.656 94.8718 194.496 94.9382 194.328 94.9711C194.16 95.004 193.986 95.0028 193.818 94.9676C193.65 94.9324 193.491 94.8639 193.351 94.7662C193.21 94.6684 193.09 94.5435 192.999 94.3988L193.062 92.3552Z" fill="#F7A9A0"/>
<path d="M195.209 91.1709C195.209 91.1709 195.235 91.1709 195.209 91.2023C194.847 91.4685 194.545 91.8076 194.323 92.1976C194.101 92.5876 193.964 93.0198 193.92 93.466C193.955 93.3707 194.011 93.2841 194.082 93.2122C194.154 93.1403 194.241 93.0847 194.336 93.0493C194.432 93.014 194.534 92.9997 194.636 93.0074C194.737 93.0151 194.836 93.0446 194.925 93.094C194.925 93.094 194.925 93.1464 194.925 93.1411C194.764 93.1207 194.6 93.1499 194.456 93.2249C194.312 93.2998 194.195 93.4169 194.12 93.5603C193.999 93.8013 193.904 94.0542 193.836 94.3149C193.836 94.3987 193.662 94.383 193.678 94.3149C193.468 93.1831 194.052 91.4853 195.209 91.1709Z" fill="#263238"/>
<path d="M189.611 101.798L191.105 105.099L195.114 100.676L196.356 101.986C196.356 101.986 192.547 108.903 192.505 108.604L191 105.759L189.08 107.855L189.032 102.793L189.611 101.798Z" fill="#C73583"/>
<path d="M188.896 105.366C188.896 104.528 188.896 103.689 188.969 102.851C188.969 102.851 189.017 102.809 189.027 102.851C189.227 103.653 189.132 106.844 189.169 107.609C189.248 107.52 190.953 105.764 190.968 105.791C191.289 106.236 192.399 108.3 192.473 108.489C193.078 107.389 195.63 103.05 196.372 102.007C196.375 102.003 196.378 101.999 196.383 101.997C196.388 101.994 196.393 101.993 196.398 101.993C196.403 101.993 196.408 101.994 196.413 101.997C196.417 101.999 196.421 102.003 196.424 102.007C195.898 103.16 192.584 108.882 192.531 108.872C191.953 107.9 191.426 106.9 190.953 105.874C190.334 106.661 189.663 107.405 188.943 108.101C188.88 107.191 188.864 106.278 188.896 105.366V105.366Z" fill="#263238"/>
</g>
<defs>
<clipPath id="clip0">
<rect width="237" height="131" fill="white"/>
</clipPath>
</defs>
</svg>
