<svg width="372" height="263" viewBox="0 0 372 263" fill="none" xmlns="http://www.w3.org/2000/svg">
<path d="M54.4631 232.873C127.085 272.448 244.782 272.456 317.403 232.873C390.025 193.29 390.025 129.116 317.403 89.5333C244.782 49.9503 127.085 49.9503 54.4631 89.5333C-18.1585 129.116 -18.1502 193.274 54.4631 232.873Z" fill="#F5F5F5"/>
<path d="M93.1693 218.508L143.762 247.723C151.993 252.473 165.34 252.473 173.571 247.723L297.578 176.128C305.809 171.379 305.809 163.674 297.578 158.916L246.985 129.701C238.746 124.951 225.399 124.951 217.169 129.701L93.1693 201.295C84.9305 206.045 84.9305 213.75 93.1693 218.508Z" fill="#EBEBEB"/>
<path d="M291.51 167.514C290.992 164.768 290.057 160.285 286.81 156.738C283.295 152.986 279.151 149.879 274.565 147.556C270.007 145.235 267.52 138.983 276.151 139.208C284.114 139.442 291.685 148.39 292.578 156.003L291.51 167.514Z" fill="#37474F"/>
<path d="M292.219 160.285C292.112 160.285 292.008 160.245 291.929 160.172C291.85 160.1 291.802 160 291.793 159.893C290.833 147.697 277.678 141.946 275.099 141.704C275.037 141.709 274.974 141.701 274.916 141.68C274.857 141.659 274.804 141.625 274.76 141.581C274.716 141.536 274.682 141.483 274.661 141.425C274.64 141.366 274.632 141.304 274.637 141.242C274.643 141.18 274.662 141.12 274.693 141.066C274.725 141.012 274.767 140.966 274.819 140.93C274.87 140.895 274.928 140.871 274.989 140.86C275.051 140.85 275.114 140.853 275.174 140.869C278.029 141.128 291.668 146.913 292.703 159.843C292.708 159.899 292.701 159.955 292.684 160.008C292.667 160.062 292.639 160.111 292.602 160.154C292.566 160.197 292.521 160.232 292.471 160.257C292.421 160.282 292.367 160.298 292.311 160.302L292.219 160.285Z" fill="white"/>
<path d="M298.496 167.514C298.989 165.594 300.95 162.364 303.504 161.462C306.059 160.561 311.643 161.863 314.164 157.831C316.685 153.799 314.448 148.24 314.865 145.961C315.283 143.682 316.885 141.787 320.066 139.6C323.246 137.413 324.773 133.198 322.97 131.186C321.167 129.175 317.92 128.924 313.655 131.862C309.389 134.801 309.247 134.041 305.491 133.699C301.735 133.357 298.388 137.28 297.795 142.739L298.496 167.514Z" fill="#455A64"/>
<path d="M298.212 157.856H298.112C298.057 157.844 298.005 157.822 297.96 157.789C297.914 157.757 297.875 157.716 297.845 157.669C297.816 157.621 297.796 157.568 297.787 157.513C297.779 157.458 297.781 157.401 297.795 157.347C300.524 145.268 314.297 134.1 319.322 132.205C319.433 132.165 319.555 132.171 319.662 132.221C319.768 132.271 319.85 132.361 319.89 132.472C319.93 132.583 319.924 132.705 319.874 132.811C319.824 132.917 319.734 133 319.623 133.039C314.723 134.893 301.259 145.777 298.629 157.572C298.599 157.658 298.542 157.732 298.467 157.783C298.392 157.834 298.303 157.859 298.212 157.856V157.856Z" fill="white"/>
<path d="M304.649 145.435C304.563 145.435 304.479 145.41 304.408 145.362C304.337 145.315 304.281 145.247 304.248 145.168C302.896 141.829 303.154 137.405 303.163 137.213C303.194 137.124 303.255 137.047 303.334 136.995C303.413 136.943 303.508 136.918 303.602 136.925C303.697 136.931 303.787 136.969 303.858 137.031C303.93 137.094 303.979 137.178 303.997 137.272C303.997 137.272 303.739 141.704 305.024 144.843C305.046 144.895 305.057 144.951 305.056 145.008C305.055 145.065 305.044 145.121 305.021 145.173C304.998 145.225 304.966 145.272 304.925 145.312C304.884 145.351 304.835 145.382 304.782 145.402C304.74 145.421 304.695 145.433 304.649 145.435Z" fill="white"/>
<path d="M311.143 153.833C309.256 153.833 304.415 153.574 300.625 151.086C300.53 151.024 300.463 150.927 300.44 150.816C300.416 150.705 300.438 150.589 300.5 150.494C300.562 150.399 300.659 150.332 300.77 150.308C300.882 150.285 300.998 150.307 301.093 150.369C305.559 153.298 311.819 152.965 311.886 152.956C311.942 152.953 311.999 152.961 312.053 152.98C312.106 152.998 312.155 153.028 312.197 153.066C312.239 153.104 312.273 153.15 312.297 153.201C312.321 153.253 312.334 153.309 312.337 153.365C312.34 153.421 312.332 153.477 312.314 153.53C312.296 153.583 312.267 153.632 312.23 153.674C312.193 153.716 312.147 153.75 312.097 153.774C312.047 153.799 311.992 153.813 311.936 153.816C311.836 153.824 311.552 153.833 311.143 153.833Z" fill="white"/>
<path d="M155.173 246.229C154.205 242.748 150.932 239.743 145.515 236.621C140.098 233.499 130.824 229.476 132.994 224.025C135.164 218.574 144.605 222.965 148.136 226.045C152.76 230.085 156.341 236.062 156.442 240.177L155.173 246.229Z" fill="#37474F"/>
<path d="M156.049 242.623C155.95 242.623 155.854 242.59 155.776 242.527C155.699 242.465 155.645 242.378 155.624 242.281C153.62 232.757 142.335 225.394 136.851 224.117C136.739 224.091 136.642 224.022 136.581 223.925C136.52 223.828 136.5 223.711 136.525 223.6C136.553 223.489 136.622 223.394 136.719 223.333C136.815 223.272 136.931 223.251 137.043 223.274C142.719 224.601 154.388 232.231 156.467 242.106C156.479 242.161 156.48 242.218 156.47 242.274C156.459 242.33 156.438 242.383 156.407 242.43C156.376 242.478 156.336 242.519 156.289 242.55C156.242 242.582 156.189 242.604 156.133 242.615L156.049 242.623Z" fill="white"/>
<path d="M162.16 246.229C162.594 242.439 165.741 240.186 169.573 239.284C173.404 238.383 176.81 237.773 177.085 233.566C177.361 229.359 173.512 225.895 176.601 222.281C179.69 218.666 184.397 214.885 184.072 208.541C183.746 202.197 177.853 201.538 175.558 205.536C173.262 209.534 172.786 212.306 169.556 211.922C166.325 211.538 161.15 213.649 160.499 223.307L162.16 246.229Z" fill="#455A64"/>
<path d="M161.583 238.583H161.525C161.413 238.566 161.311 238.506 161.243 238.416C161.174 238.325 161.143 238.212 161.158 238.099C162.435 228.641 169.063 220.569 173.904 214.676C175.983 212.172 177.777 209.96 178.554 208.357C178.577 208.306 178.61 208.26 178.651 208.222C178.693 208.184 178.741 208.154 178.794 208.135C178.847 208.115 178.903 208.107 178.959 208.109C179.015 208.111 179.07 208.125 179.121 208.149C179.224 208.199 179.302 208.287 179.341 208.395C179.38 208.502 179.376 208.62 179.33 208.725C178.495 210.394 176.684 212.648 174.564 215.227C169.789 221.07 163.253 228.992 162.043 238.216C162.028 238.324 161.972 238.423 161.887 238.491C161.801 238.56 161.693 238.593 161.583 238.583V238.583Z" fill="white"/>
<path d="M166.734 225.06C166.646 225.061 166.559 225.034 166.487 224.983C166.415 224.932 166.361 224.86 166.333 224.776C165.571 222.121 165.208 219.367 165.256 216.604C165.261 216.49 165.309 216.382 165.392 216.302C165.474 216.223 165.584 216.179 165.699 216.179C165.755 216.18 165.811 216.192 165.863 216.215C165.915 216.238 165.961 216.271 166 216.312C166.039 216.353 166.069 216.402 166.089 216.455C166.109 216.508 166.118 216.564 166.116 216.621C166.072 219.281 166.418 221.933 167.143 224.493C167.162 224.546 167.171 224.602 167.168 224.659C167.165 224.715 167.151 224.77 167.126 224.821C167.101 224.872 167.066 224.917 167.023 224.954C166.98 224.991 166.93 225.018 166.876 225.035C166.83 225.052 166.782 225.061 166.734 225.06V225.06Z" fill="white"/>
<path d="M172.652 233.341C169.499 233.163 166.398 232.47 163.47 231.287C163.417 231.268 163.369 231.238 163.328 231.2C163.287 231.161 163.254 231.115 163.232 231.063C163.209 231.012 163.197 230.957 163.196 230.9C163.196 230.844 163.206 230.788 163.228 230.736C163.247 230.684 163.277 230.635 163.315 230.594C163.354 230.553 163.4 230.52 163.451 230.496C163.502 230.473 163.558 230.46 163.614 230.458C163.67 230.457 163.726 230.466 163.779 230.486C166.613 231.629 169.611 232.311 172.66 232.506C172.717 232.507 172.773 232.519 172.825 232.542C172.876 232.565 172.923 232.598 172.962 232.64C173.001 232.681 173.031 232.729 173.051 232.782C173.071 232.835 173.08 232.892 173.078 232.948C173.071 233.056 173.023 233.157 172.944 233.23C172.864 233.304 172.76 233.343 172.652 233.341V233.341Z" fill="white"/>
<path d="M94.2211 183.666C94.4214 183.583 95.0558 170.185 89.2795 162.289C83.5031 154.392 76.5331 153.482 71.9421 155.402C67.3511 157.322 68.286 162.038 73.9371 164.868C79.5882 167.698 86.625 172.631 88.3028 181.646L94.2211 183.666Z" fill="#37474F"/>
<path d="M92.1003 179.734C91.9985 179.734 91.9001 179.698 91.8223 179.632C91.7445 179.567 91.6922 179.476 91.6746 179.375C89.5127 165.769 81.4659 159.1 74.6628 157.397C74.6077 157.384 74.5558 157.361 74.5099 157.328C74.4641 157.295 74.4253 157.253 74.3958 157.205C74.3662 157.156 74.3466 157.103 74.338 157.047C74.3294 156.991 74.332 156.934 74.3456 156.879C74.3567 156.818 74.3809 156.759 74.4167 156.708C74.4524 156.657 74.4988 156.614 74.5527 156.582C74.6066 156.55 74.6668 156.531 74.729 156.524C74.7912 156.518 74.854 156.525 74.9132 156.546C81.9834 158.315 90.339 165.202 92.5678 179.217C92.5773 179.273 92.5755 179.33 92.5625 179.385C92.5495 179.441 92.5255 179.493 92.4921 179.539C92.4586 179.585 92.4164 179.623 92.3677 179.653C92.3191 179.682 92.2651 179.701 92.2088 179.709L92.1003 179.734Z" fill="white"/>
<path d="M93.1859 208.541C92.3512 205.01 88.7535 202.698 84.5548 202.297C80.1891 201.905 75.114 201.462 73.7617 197.79C72.4094 194.117 73.7617 189.117 73.1523 186.671C72.4094 183.708 71.2742 181.946 65.5396 180.143C60.406 178.532 57.5679 173.624 62.7432 171.554C67.9186 169.484 73.1023 170.794 76.6248 172.389C80.1474 173.983 80.2976 175.627 85.2559 175.202C90.2143 174.776 93.9121 177.89 94.221 180.895L93.1859 208.541Z" fill="#455A64"/>
<path d="M93.1864 196.563C93.0977 196.562 93.0112 196.534 92.9382 196.484C92.8653 196.433 92.8092 196.362 92.7774 196.279C88.7039 184.926 72.0427 174.651 66.5001 174C66.3878 173.985 66.2856 173.927 66.2154 173.838C66.1453 173.749 66.1126 173.637 66.1244 173.524C66.1371 173.41 66.1941 173.306 66.2833 173.234C66.3724 173.162 66.4863 173.128 66.6002 173.14C72.2931 173.816 89.4134 184.35 93.5871 195.987C93.6069 196.04 93.616 196.096 93.6136 196.153C93.6113 196.21 93.5977 196.265 93.5736 196.316C93.5495 196.368 93.5154 196.414 93.4733 196.452C93.4312 196.49 93.3819 196.519 93.3283 196.537L93.1864 196.563Z" fill="white"/>
<path d="M89.2791 189.743H89.1873C89.0757 189.717 88.9789 189.648 88.9179 189.551C88.8569 189.454 88.8368 189.337 88.8617 189.225C90.2307 183.307 88.8617 179.501 88.8617 179.459C88.823 179.348 88.8298 179.227 88.8807 179.121C88.9316 179.015 89.0223 178.934 89.133 178.895C89.2437 178.857 89.3653 178.864 89.4709 178.914C89.5766 178.965 89.6577 179.056 89.6965 179.167C89.7549 179.325 91.1406 183.24 89.6965 189.417C89.6725 189.51 89.6186 189.592 89.5431 189.651C89.4677 189.71 89.3748 189.742 89.2791 189.743V189.743Z" fill="white"/>
<path d="M92.1008 194.108C92.0309 194.109 91.962 194.092 91.9005 194.058C88.5616 192.247 81.2994 193.541 81.2243 193.549C81.1679 193.564 81.1092 193.567 81.0517 193.557C80.9942 193.548 80.9391 193.528 80.89 193.496C80.8408 193.465 80.7986 193.424 80.7659 193.376C80.7332 193.328 80.7107 193.274 80.6999 193.216C80.689 193.159 80.69 193.1 80.7027 193.044C80.7155 192.987 80.7398 192.933 80.7741 192.886C80.8083 192.839 80.8519 192.8 80.9021 192.77C80.9522 192.741 81.0079 192.722 81.0657 192.714C81.3745 192.656 88.6951 191.354 92.3095 193.307C92.4072 193.346 92.4875 193.419 92.5355 193.512C92.5834 193.606 92.5958 193.714 92.5703 193.816C92.5448 193.918 92.4832 194.007 92.3968 194.067C92.3105 194.127 92.2053 194.154 92.1008 194.142V194.108Z" fill="white"/>
<path d="M167.242 41.1356C164.045 38.1306 158.261 36.9619 150.999 41.4111C143.736 45.8602 137.993 60.0923 136.19 70.1592C134.387 80.226 133.252 93.3731 136.858 98.9491C140.464 104.525 153.553 110.435 153.553 110.435L155.139 104.951L167.242 41.1356Z" fill="#7A0E48"/>
<path opacity="0.4" d="M167.242 41.1356C164.045 38.1306 158.261 36.9619 150.999 41.4111C143.736 45.8602 137.993 60.0923 136.19 70.1592C134.387 80.226 133.252 93.3731 136.858 98.9491C140.464 104.525 153.553 110.435 153.553 110.435L155.139 104.951L167.242 41.1356Z" fill="white"/>
<path d="M140.448 97.2796C146.116 104.066 155.173 104.984 155.173 104.984L190.106 84.7586L176.116 76.6868L140.448 97.2796Z" fill="#7A0E48"/>
<path opacity="0.2" d="M140.448 97.2796C146.116 104.066 155.173 104.984 155.173 104.984L190.106 84.7586L176.116 76.6868L140.448 97.2796Z" fill="black"/>
<path d="M140.448 97.2796C138.152 94.5583 137.685 87.5549 138.928 76.7285C140.281 64.8419 144.68 46.4528 155.164 40.3926C167.459 33.2974 179.947 50.9269 176.141 76.7285L140.448 97.2796Z" fill="#7A0E48"/>
<path d="M222.285 154.809C228.737 162.122 233.462 163.574 235.19 165.135C236.918 166.696 236.233 170.068 232.377 171.145C228.52 172.222 224.188 171.587 221.475 169.258C218.762 166.93 216.751 163.749 214.029 162.096C211.308 160.444 209.956 160.051 209.405 157.923C208.854 155.794 210.323 149.158 210.323 149.158L222.285 154.809Z" fill="#263238"/>
<path d="M218.588 143.19C218.245 146.045 217.828 148.557 219.998 151.804C220.699 152.848 221.463 153.849 222.286 154.801C226.059 159.15 229.122 162.539 229.665 163.148C230.207 163.758 227.444 165.97 224.022 164.818C220.599 163.666 217.386 158.975 214.998 156.195C213.938 154.951 212.903 153.824 212.085 152.956C210.985 151.799 210.346 150.278 210.29 148.682L210.132 144.175L218.588 143.19Z" fill="#FFA8A7"/>
<path d="M202.695 166.771C209.148 174.092 213.864 175.536 215.6 177.097C217.336 178.658 216.643 182.038 212.787 183.115C208.931 184.192 204.598 183.557 201.877 181.22C199.156 178.883 197.161 175.719 194.44 174.067C191.718 172.414 190.358 172.021 189.815 169.893C189.273 167.764 190.733 161.128 190.733 161.128L202.695 166.771Z" fill="#263238"/>
<path d="M198.988 155.16C198.654 158.023 198.228 160.527 200.407 163.774C201.106 164.82 201.87 165.821 202.694 166.771C206.467 171.128 209.522 174.517 210.065 175.118C210.608 175.719 207.853 177.94 204.422 176.788C200.991 175.636 197.786 170.945 195.407 168.173C194.347 166.921 193.312 165.803 192.494 164.935C191.395 163.776 190.757 162.256 190.699 160.661L190.532 156.145L198.988 155.16Z" fill="#FFA8A7"/>
<path d="M172.895 9.45693e-06H177.853C179.79 -0.00218402 181.708 0.377216 183.497 1.11653C185.287 1.85585 186.914 2.9406 188.285 4.3088C189.655 5.67699 190.743 7.30182 191.485 9.09045C192.227 10.8791 192.61 12.7965 192.611 14.733V51.7617H158.153V14.733C158.156 10.8248 159.71 7.07744 162.474 4.3147C165.238 1.55197 168.986 8.83037e-06 172.895 9.45693e-06Z" fill="#263238"/>
<path d="M194.68 43.0221C188.912 36.9619 185.966 36.3442 182.46 36.3442L189.138 55.9604C189.138 55.9604 200.123 63.2226 206.55 67.2293L210.632 58.2309C210.632 58.2309 200.448 49.0572 194.68 43.0221Z" fill="#FFA8A7"/>
<path d="M155.699 87.2628C153.553 91.8872 150.79 96.8038 153.587 101.562C156.383 106.32 179.096 101.562 179.096 101.562V87.2628H155.699Z" fill="#263238"/>
<path d="M180.274 36.3442C182.778 36.1355 185.616 36.2107 188.621 41.2691C191.626 46.3276 193.312 49.1657 192.361 56.528C191.409 63.8904 187.853 69.5665 187.594 72.3211C187.336 75.0758 187.995 88.3146 187.995 88.3146C187.995 88.3146 183.604 94.5834 172.686 94.8756C169.467 94.9461 166.273 94.2996 163.335 92.9829C160.397 91.6662 157.789 89.7123 155.699 87.2628L164.047 72.2878L161.91 41.8535L170.065 36.9703L180.274 36.3442Z" fill="#7A0E48"/>
<path d="M180.274 36.3442C182.778 36.1355 185.616 36.2107 188.621 41.2691C191.626 46.3276 193.312 49.1657 192.361 56.528C191.409 63.8904 187.853 69.5665 187.594 72.3211C187.336 75.0758 187.995 88.3146 187.995 88.3146C187.995 88.3146 183.604 94.5834 172.686 94.8756C169.467 94.9461 166.273 94.2996 163.335 92.9829C160.397 91.6662 157.789 89.7123 155.699 87.2628L164.047 72.2878L161.91 41.8535L170.065 36.9703L180.274 36.3442Z" fill="#E0E0E0"/>
<path d="M170.073 47.1123C169.282 47.1123 168.499 46.9563 167.768 46.6534C167.037 46.3504 166.373 45.9063 165.814 45.3466C165.256 44.7868 164.812 44.1224 164.51 43.3912C164.208 42.6601 164.054 41.8766 164.055 41.0855V23.5562H170.073V47.1123Z" fill="#263238"/>
<path d="M186.934 6.96167C188.745 8.03847 190.999 12.6128 190.774 22.1955C190.59 30.3258 187.952 32.3292 186.6 32.9135C185.248 33.4978 182.727 33.1388 180.239 32.7215V37.6047C180.239 37.6047 183.67 41.5863 183.453 43.8151C183.236 46.0438 178.503 46.5864 175.298 44.3994C173.219 42.9019 171.433 41.0343 170.031 38.8901V27.0954C170.031 27.0954 168.361 29.3325 165.623 27.5128C162.885 25.693 162.777 21.1938 164.371 19.5828C165.965 17.9718 169.379 18.4726 170.031 20.7097C170.031 20.7097 173.987 20.8516 179.213 17.9634C181.275 16.8675 183.05 15.2998 184.392 13.3879C185.734 11.476 186.605 9.2741 186.934 6.96167V6.96167Z" fill="#FFA8A7"/>
<path d="M181.701 20.1587C181.713 20.4288 181.617 20.6927 181.435 20.8923C181.253 21.0919 180.998 21.2108 180.728 21.223C180.458 21.2352 180.194 21.1396 179.995 20.9572C179.795 20.7748 179.676 20.5206 179.664 20.2506C179.658 20.1168 179.678 19.9832 179.724 19.8573C179.77 19.7315 179.84 19.6158 179.93 19.517C180.02 19.4182 180.129 19.3381 180.25 19.2814C180.372 19.2246 180.503 19.1923 180.637 19.1863C180.77 19.1802 180.904 19.2006 181.03 19.2462C181.156 19.2918 181.271 19.3618 181.37 19.4521C181.469 19.5424 181.549 19.6513 181.606 19.7725C181.663 19.8938 181.695 20.025 181.701 20.1587V20.1587Z" fill="#263238"/>
<path d="M179.856 17.0285L177.736 18.339C177.564 18.0486 177.511 17.7026 177.589 17.374C177.667 17.0454 177.869 16.7599 178.154 16.5777C178.294 16.493 178.451 16.4374 178.613 16.4142C178.776 16.3911 178.942 16.4008 179.1 16.4428C179.259 16.4849 179.408 16.5584 179.538 16.659C179.668 16.7596 179.776 16.8852 179.856 17.0285V17.0285Z" fill="#263238"/>
<path d="M181.977 27.0453L184.347 27.8049C184.302 27.9622 184.226 28.1088 184.124 28.2363C184.022 28.3639 183.895 28.4696 183.751 28.5474C183.607 28.6251 183.449 28.6734 183.286 28.6892C183.123 28.705 182.959 28.6882 182.803 28.6396C182.488 28.529 182.227 28.3025 182.074 28.0062C181.92 27.71 181.885 27.3663 181.977 27.0453V27.0453Z" fill="#F28F8F"/>
<path d="M190.107 17.0202L188.037 15.5844C188.123 15.4443 188.237 15.3233 188.372 15.2291C188.507 15.1348 188.66 15.0692 188.821 15.0363C188.982 15.0035 189.148 15.004 189.309 15.038C189.47 15.072 189.622 15.1386 189.757 15.2338C190.032 15.4308 190.221 15.7254 190.286 16.0574C190.352 16.3895 190.288 16.7338 190.107 17.0202Z" fill="#263238"/>
<path d="M189.605 19.4158C189.608 19.6174 189.552 19.8154 189.443 19.9852C189.334 20.1549 189.178 20.2889 188.994 20.3704C188.809 20.4519 188.605 20.4773 188.406 20.4435C188.207 20.4097 188.023 20.3181 187.876 20.1802C187.729 20.0423 187.626 19.8641 187.579 19.668C187.533 19.4718 187.545 19.2663 187.615 19.0771C187.684 18.8879 187.808 18.7233 187.971 18.604C188.133 18.4846 188.327 18.4157 188.528 18.4058C188.665 18.4014 188.802 18.424 188.93 18.4723C189.058 18.5207 189.176 18.5939 189.276 18.6877C189.376 18.7815 189.457 18.8941 189.513 19.019C189.569 19.1439 189.601 19.2788 189.605 19.4158V19.4158Z" fill="#263238"/>
<path d="M184.781 18.8315L184.948 24.9835L188.187 23.9818L184.781 18.8315Z" fill="#F28F8F"/>
<path d="M180.274 32.7214C178.212 32.4877 174.072 31.2356 173.153 29.8416C173.33 30.7321 173.826 31.5274 174.547 32.0787C175.9 33.3725 180.274 34.3074 180.274 34.3074V32.7214Z" fill="#F28F8F"/>
<path d="M158.662 171.554L92.2422 133.206L232.076 52.4712L298.496 90.8187L158.662 171.554Z" fill="#7A0E48"/>
<path opacity="0.4" d="M158.662 171.554L92.2422 133.206L232.076 52.4712L298.496 90.8187L158.662 171.554Z" fill="white"/>
<path d="M92.2422 133.206V209.902L95.7397 211.922V159.442L155.173 193.749V246.229L158.662 248.249V171.554L92.2422 133.206Z" fill="#7A0E48"/>
<path opacity="0.3" d="M92.2422 133.206V209.902L95.7397 211.922V159.442L155.173 193.749V246.229L158.662 248.249V171.554L92.2422 133.206Z" fill="black"/>
<path d="M95.7402 211.922L99.2378 209.902V161.462L95.7402 159.442V211.922Z" fill="#7A0E48"/>
<path opacity="0.5" d="M95.7402 211.922L99.2378 209.902V161.462L95.7402 159.442V211.922Z" fill="black"/>
<path d="M158.662 248.249L162.16 246.229V193.75L294.999 117.054V169.534L298.496 167.514V90.8188L158.662 171.554V248.249Z" fill="#7A0E48"/>
<path opacity="0.1" d="M158.662 248.249L162.16 246.229V193.75L294.999 117.054V169.534L298.496 167.514V90.8188L158.662 171.554V248.249Z" fill="black"/>
<path d="M162.16 189.718V173.574L204.114 149.35V165.494L162.16 189.718Z" fill="#7A0E48"/>
<path opacity="0.3" d="M162.16 189.718V173.574L204.114 149.35V165.494L162.16 189.718Z" fill="black"/>
<path d="M207.603 163.482V147.33L249.556 123.115V139.258L207.603 163.482Z" fill="#7A0E48"/>
<path opacity="0.3" d="M207.603 163.482V147.33L249.556 123.115V139.258L207.603 163.482Z" fill="black"/>
<path d="M253.054 137.238V121.095L294.999 96.8706V113.023L253.054 137.238Z" fill="#7A0E48"/>
<path opacity="0.3" d="M253.054 137.238V121.095L294.999 96.8706V113.023L253.054 137.238Z" fill="black"/>
<path d="M190.106 157.422V158.716C190.106 159.425 188.437 160.97 186.375 162.155L179.847 165.928C177.786 167.113 176.116 167.506 176.116 166.763V165.477L190.106 157.422Z" fill="#263238"/>
<path d="M235.575 131.186V132.48C235.575 133.19 233.905 134.734 231.843 135.919L225.316 139.692C223.262 140.878 221.593 141.262 221.593 140.527V139.233L235.575 131.186Z" fill="#263238"/>
<path d="M281.017 104.951V106.236C281.017 106.954 279.347 108.49 277.294 109.684L270.758 113.448C268.705 114.642 267.035 115.026 267.035 114.283V112.989L281.017 104.951Z" fill="#263238"/>
<path d="M294.999 169.534L291.51 167.514V119.074L294.999 117.054V169.534Z" fill="#7A0E48"/>
<path opacity="0.3" d="M294.999 169.534L291.51 167.514V119.074L294.999 117.054V169.534Z" fill="black"/>
<path d="M197.118 96.0108V95.7187C197.133 95.4602 197.208 95.2087 197.337 94.9841C197.466 94.7596 197.645 94.5681 197.861 94.4248L241.86 69.049C242.092 68.9329 242.347 68.8725 242.607 68.8725C242.866 68.8725 243.122 68.9329 243.354 69.049L252.352 74.241C252.568 74.3843 252.747 74.5758 252.876 74.8003C253.005 75.0249 253.08 75.2763 253.095 75.5348V75.8354C253.078 76.0931 253.001 76.3434 252.871 76.5665C252.741 76.7895 252.56 76.9793 252.344 77.1208L208.395 102.497C208.163 102.613 207.908 102.673 207.648 102.673C207.389 102.673 207.133 102.613 206.901 102.497L197.861 97.2796C197.649 97.1388 197.471 96.9513 197.342 96.7314C197.214 96.5115 197.137 96.265 197.118 96.0108V96.0108Z" fill="#7A0E48"/>
<path opacity="0.7" d="M197.118 96.0108V95.7187C197.133 95.4602 197.208 95.2087 197.337 94.9841C197.466 94.7596 197.645 94.5681 197.861 94.4248L241.86 69.049C242.092 68.9329 242.347 68.8725 242.607 68.8725C242.866 68.8725 243.122 68.9329 243.354 69.049L252.352 74.241C252.568 74.3843 252.747 74.5758 252.876 74.8003C253.005 75.0249 253.08 75.2763 253.095 75.5348V75.8354C253.078 76.0931 253.001 76.3434 252.871 76.5665C252.741 76.7895 252.56 76.9793 252.344 77.1208L208.395 102.497C208.163 102.613 207.908 102.673 207.648 102.673C207.389 102.673 207.133 102.613 206.901 102.497L197.861 97.2796C197.649 97.1388 197.471 96.9513 197.342 96.7314C197.214 96.5115 197.137 96.265 197.118 96.0108V96.0108Z" fill="white"/>
<path d="M197.861 95.2846L206.859 100.485C207.091 100.601 207.347 100.661 207.606 100.661C207.865 100.661 208.121 100.601 208.353 100.485L252.302 75.1091C252.382 75.0725 252.449 75.0137 252.497 74.9397C252.544 74.8657 252.57 74.7797 252.57 74.6918C252.57 74.6039 252.544 74.5178 252.497 74.4438C252.449 74.3698 252.382 74.311 252.302 74.2744L243.303 69.0824C243.071 68.9663 242.816 68.9059 242.556 68.9059C242.297 68.9059 242.041 68.9663 241.809 69.0824L197.852 94.4582C197.452 94.6669 197.452 95.0509 197.861 95.2846Z" fill="#7A0E48"/>
<path opacity="0.9" d="M197.861 95.2846L206.859 100.485C207.091 100.601 207.347 100.661 207.606 100.661C207.865 100.661 208.121 100.601 208.353 100.485L252.302 75.1091C252.382 75.0725 252.449 75.0137 252.497 74.9397C252.544 74.8657 252.57 74.7797 252.57 74.6918C252.57 74.6039 252.544 74.5178 252.497 74.4438C252.449 74.3698 252.382 74.311 252.302 74.2744L243.303 69.0824C243.071 68.9663 242.816 68.9059 242.556 68.9059C242.297 68.9059 242.041 68.9663 241.809 69.0824L197.852 94.4582C197.452 94.6669 197.452 95.0509 197.861 95.2846Z" fill="white"/>
<path d="M141.934 120.176L168.403 135.469C168.635 135.585 168.891 135.645 169.151 135.645C169.41 135.645 169.666 135.585 169.898 135.469L189.38 124.216C189.463 124.183 189.534 124.125 189.584 124.05C189.634 123.976 189.661 123.889 189.661 123.799C189.661 123.709 189.634 123.622 189.584 123.548C189.534 123.473 189.463 123.415 189.38 123.382L162.903 108.098C162.673 107.978 162.418 107.916 162.16 107.916C161.901 107.916 161.646 107.978 161.417 108.098L141.934 119.317C141.517 119.559 141.517 119.943 141.934 120.176Z" fill="#7A0E48"/>
<path opacity="0.8" d="M141.934 120.176L168.403 135.469C168.635 135.585 168.891 135.645 169.151 135.645C169.41 135.645 169.666 135.585 169.898 135.469L189.38 124.216C189.463 124.183 189.534 124.125 189.584 124.05C189.634 123.976 189.661 123.889 189.661 123.799C189.661 123.709 189.634 123.622 189.584 123.548C189.534 123.473 189.463 123.415 189.38 123.382L162.903 108.098C162.673 107.978 162.418 107.916 162.16 107.916C161.901 107.916 161.646 107.978 161.417 108.098L141.934 119.317C141.517 119.559 141.517 119.943 141.934 120.176Z" fill="white"/>
<path d="M161.417 108.073L142.911 118.749L168.404 133.474C168.636 133.59 168.892 133.65 169.151 133.65C169.41 133.65 169.666 133.59 169.898 133.474L188.437 122.789L162.936 108.073C162.703 107.948 162.442 107.882 162.177 107.882C161.912 107.882 161.651 107.948 161.417 108.073V108.073Z" fill="#7A0E48"/>
<path opacity="0.7" d="M161.417 108.073L142.911 118.749L168.404 133.474C168.636 133.59 168.892 133.65 169.151 133.65C169.41 133.65 169.666 133.59 169.898 133.474L188.437 122.789L162.936 108.073C162.703 107.948 162.442 107.882 162.177 107.882C161.912 107.882 161.651 107.948 161.417 108.073V108.073Z" fill="white"/>
<path d="M141.933 117.488L168.403 132.772C168.635 132.888 168.89 132.949 169.15 132.949C169.409 132.949 169.665 132.888 169.897 132.772L189.379 121.529C189.459 121.492 189.527 121.433 189.575 121.359C189.622 121.285 189.647 121.199 189.647 121.111C189.647 121.023 189.622 120.937 189.575 120.863C189.527 120.789 189.459 120.73 189.379 120.694L162.902 105.376C162.671 105.262 162.417 105.202 162.159 105.202C161.901 105.202 161.647 105.262 161.416 105.376L141.933 116.629C141.842 116.657 141.762 116.715 141.705 116.792C141.649 116.869 141.618 116.963 141.618 117.059C141.618 117.154 141.649 117.248 141.705 117.325C141.762 117.402 141.842 117.46 141.933 117.488Z" fill="#7A0E48"/>
<path opacity="0.9" d="M141.933 117.488L168.403 132.772C168.635 132.888 168.89 132.949 169.15 132.949C169.409 132.949 169.665 132.888 169.897 132.772L189.379 121.529C189.459 121.492 189.527 121.433 189.575 121.359C189.622 121.285 189.647 121.199 189.647 121.111C189.647 121.023 189.622 120.937 189.575 120.863C189.527 120.789 189.459 120.73 189.379 120.694L162.902 105.376C162.671 105.262 162.417 105.202 162.159 105.202C161.901 105.202 161.647 105.262 161.416 105.376L141.933 116.629C141.842 116.657 141.762 116.715 141.705 116.792C141.649 116.869 141.618 116.963 141.618 117.059C141.618 117.154 141.649 117.248 141.705 117.325C141.762 117.402 141.842 117.46 141.933 117.488Z" fill="white"/>
<path d="M156.609 101.562C155.732 103.949 157.076 105.877 159.622 105.861C160.96 105.791 162.251 105.346 163.348 104.577C164.444 103.808 165.303 102.746 165.824 101.512C166.709 99.1244 165.357 97.1961 162.811 97.2128C161.473 97.2826 160.182 97.7275 159.085 98.4966C157.988 99.2657 157.13 100.328 156.609 101.562V101.562Z" fill="#7A0E48"/>
<path opacity="0.1" d="M156.609 101.562C155.732 103.949 157.076 105.877 159.622 105.861C160.96 105.791 162.251 105.346 163.348 104.577C164.444 103.808 165.303 102.746 165.824 101.512C166.709 99.1244 165.357 97.1961 162.811 97.2128C161.473 97.2826 160.182 97.7275 159.085 98.4966C157.988 99.2657 157.13 100.328 156.609 101.562V101.562Z" fill="black"/>
<path d="M158.721 112.889C156.726 118.29 159.781 122.655 165.549 122.622C171.317 122.589 177.586 118.148 179.589 112.772C181.592 107.397 178.521 103.014 172.761 103.039C167.001 103.064 160.707 107.48 158.721 112.889Z" fill="#455A64"/>
<path d="M163.395 97.2796L159.939 99.692L156.483 102.104C155.339 106.637 154.997 113.715 159.246 119.809L179.129 105.919C174.839 99.7838 168.011 97.7304 163.395 97.2796Z" fill="#455A64"/>
<path d="M165.39 97.6052C165.39 97.6052 166.008 103.073 161.909 105.552C161.909 105.552 165.766 104.492 166.918 101.779C168.069 99.0659 165.39 97.6052 165.39 97.6052Z" fill="#263238"/>
<path d="M165.899 98.2228C164.36 96.083 162.288 94.3825 159.889 93.2896L157.118 95.2595L156.809 95.4765L154.029 97.4465C154.271 100.061 155.185 102.569 156.684 104.725V104.725C157.029 105.165 157.477 105.513 157.987 105.74C158.498 105.967 159.056 106.066 159.614 106.028C161.023 105.951 162.381 105.478 163.534 104.665C164.687 103.851 165.588 102.73 166.133 101.428C166.358 100.912 166.452 100.348 166.409 99.786C166.365 99.2243 166.184 98.6818 165.882 98.2061L165.899 98.2228Z" fill="#37474F"/>
<path d="M154.121 95.9607C153.955 96.2967 153.882 96.6716 153.91 97.0456C153.939 97.4197 154.069 97.7789 154.285 98.0853C154.502 98.3917 154.797 98.6337 155.14 98.7858C155.483 98.9379 155.861 98.9943 156.233 98.9491C157.165 98.8998 158.063 98.5884 158.825 98.0509C159.587 97.5133 160.182 96.7714 160.541 95.9106C160.707 95.5754 160.78 95.2014 160.751 94.8282C160.723 94.4549 160.594 94.0964 160.378 93.7903C160.163 93.4842 159.869 93.242 159.527 93.0892C159.185 92.9364 158.809 92.8788 158.437 92.9223C157.506 92.9768 156.609 93.2901 155.847 93.8269C155.084 94.3637 154.487 95.1027 154.121 95.9607Z" fill="#455A64"/>
<path d="M159.814 102.747C159.467 102.247 159.007 101.836 158.473 101.546C157.938 101.256 157.342 101.096 156.734 101.078C156.503 101.057 156.27 101.105 156.066 101.215C155.861 101.325 155.693 101.492 155.582 101.695V101.695L147.385 121.487C147.325 121.679 147.31 121.882 147.342 122.08C147.373 122.279 147.451 122.467 147.568 122.63C147.916 123.132 148.377 123.544 148.913 123.834C149.45 124.124 150.047 124.284 150.657 124.3C150.888 124.321 151.121 124.274 151.326 124.164C151.531 124.054 151.699 123.887 151.809 123.682V123.682L159.989 103.957C160.067 103.758 160.091 103.541 160.061 103.329C160.03 103.117 159.945 102.917 159.814 102.747V102.747Z" fill="#455A64"/>
<path d="M169.572 151.22C169.572 150.939 169.542 150.659 169.481 150.385C168.778 147.183 166.89 144.365 164.197 142.497H153.137C150.44 144.364 148.55 147.182 147.844 150.385C147.786 150.659 147.758 150.939 147.761 151.22C147.758 151.27 147.758 151.32 147.761 151.37C147.861 152.898 148.913 154.409 150.933 155.544C155.198 158.048 162.102 158.048 166.367 155.544C168.387 154.375 169.439 152.864 169.539 151.37C169.553 151.321 169.564 151.271 169.572 151.22V151.22Z" fill="#455A64"/>
<path d="M158.662 149.601C162.756 149.601 166.075 147.683 166.075 145.318C166.075 142.953 162.756 141.036 158.662 141.036C154.569 141.036 151.25 142.953 151.25 145.318C151.25 147.683 154.569 149.601 158.662 149.601Z" fill="#37474F"/>
<path d="M156.909 144.3C156.696 144.371 156.51 144.507 156.379 144.689C156.248 144.871 156.177 145.09 156.177 145.314C156.177 145.539 156.248 145.758 156.379 145.94C156.51 146.122 156.696 146.258 156.909 146.328C157.454 146.604 158.056 146.748 158.666 146.748C159.277 146.748 159.879 146.604 160.423 146.328C160.636 146.258 160.822 146.122 160.953 145.94C161.085 145.758 161.156 145.539 161.156 145.314C161.156 145.09 161.085 144.871 160.953 144.689C160.822 144.507 160.636 144.371 160.423 144.3C159.879 144.024 159.277 143.881 158.666 143.881C158.056 143.881 157.454 144.024 156.909 144.3Z" fill="#455A64"/>
<path d="M146.759 124.951C146.546 125.022 146.36 125.158 146.229 125.34C146.097 125.522 146.026 125.741 146.026 125.965C146.026 126.19 146.097 126.409 146.229 126.591C146.36 126.773 146.546 126.909 146.759 126.979C147.303 127.255 147.905 127.399 148.516 127.399C149.126 127.399 149.728 127.255 150.273 126.979C150.486 126.909 150.672 126.773 150.803 126.591C150.934 126.409 151.005 126.19 151.005 125.965C151.005 125.741 150.934 125.522 150.803 125.34C150.672 125.158 150.486 125.022 150.273 124.951C149.728 124.675 149.126 124.531 148.516 124.531C147.905 124.531 147.303 124.675 146.759 124.951V124.951Z" fill="#7A0E48"/>
<path opacity="0.3" d="M146.759 124.951C146.546 125.022 146.36 125.158 146.229 125.34C146.097 125.522 146.026 125.741 146.026 125.965C146.026 126.19 146.097 126.409 146.229 126.591C146.36 126.773 146.546 126.909 146.759 126.979C147.303 127.255 147.905 127.399 148.516 127.399C149.126 127.399 149.728 127.255 150.273 126.979C150.486 126.909 150.672 126.773 150.803 126.591C150.934 126.409 151.005 126.19 151.005 125.965C151.005 125.741 150.934 125.522 150.803 125.34C150.672 125.158 150.486 125.022 150.273 124.951C149.728 124.675 149.126 124.531 148.516 124.531C147.905 124.531 147.303 124.675 146.759 124.951V124.951Z" fill="black"/>
<path d="M150.907 125.56L161.049 144.909L156.283 145.727L146.124 126.353L150.907 125.56Z" fill="#455A64"/>
<path d="M147.327 119.926C147.013 119.849 146.683 119.864 146.378 119.971C146.073 120.078 145.805 120.271 145.608 120.527C145.035 121.171 144.622 121.942 144.403 122.776C144.184 123.61 144.165 124.484 144.347 125.327C144.398 125.603 144.512 125.865 144.682 126.089C144.852 126.314 145.071 126.496 145.324 126.62V126.62L149.114 128.039L151 121.278L147.327 119.926Z" fill="#37474F"/>
<path d="M149.347 121.929C148.772 122.574 148.357 123.346 148.137 124.181C147.916 125.017 147.896 125.892 148.078 126.737C148.495 128.265 149.747 128.59 150.849 127.463C151.424 126.82 151.838 126.05 152.059 125.216C152.279 124.382 152.299 123.507 152.118 122.664C151.709 121.136 150.457 120.811 149.347 121.929Z" fill="#263238"/>
<path d="M130.289 138.699C133.812 135.11 135.874 126.136 132.443 123.29H114.98C111.55 126.136 113.612 135.101 117.134 138.699L117.226 138.799L117.351 138.916C117.451 139.017 117.557 139.112 117.668 139.2L117.752 139.267L118.019 139.467C118.163 139.573 118.314 139.671 118.47 139.759C120.096 140.582 121.893 141.011 123.716 141.011C125.539 141.011 127.336 140.582 128.962 139.759V139.759C129.112 139.676 129.263 139.575 129.421 139.467L129.663 139.275L129.772 139.2L130.072 138.924L130.214 138.782L130.289 138.699Z" fill="#7A0E48"/>
<path opacity="0.7" d="M130.289 138.699C133.812 135.11 135.874 126.136 132.443 123.29H114.98C111.55 126.136 113.612 135.101 117.134 138.699L117.226 138.799L117.351 138.916C117.451 139.017 117.557 139.112 117.668 139.2L117.752 139.267L118.019 139.467C118.163 139.573 118.314 139.671 118.47 139.759C120.096 140.582 121.893 141.011 123.716 141.011C125.539 141.011 127.336 140.582 128.962 139.759V139.759C129.112 139.676 129.263 139.575 129.421 139.467L129.663 139.275L129.772 139.2L130.072 138.924L130.214 138.782L130.289 138.699Z" fill="white"/>
<path d="M123.704 132.205C129.342 132.205 133.913 129.566 133.913 126.312C133.913 123.057 129.342 120.418 123.704 120.418C118.066 120.418 113.495 123.057 113.495 126.312C113.495 129.566 118.066 132.205 123.704 132.205Z" fill="#7A0E48"/>
<path opacity="0.9" d="M123.704 132.205C129.342 132.205 133.913 129.566 133.913 126.312C133.913 123.057 129.342 120.418 123.704 120.418C118.066 120.418 113.495 123.057 113.495 126.312C113.495 129.566 118.066 132.205 123.704 132.205Z" fill="white"/>
<path d="M119.314 123.774C116.893 125.176 116.893 127.447 119.314 128.849C120.677 129.537 122.182 129.895 123.708 129.895C125.235 129.895 126.74 129.537 128.103 128.849C130.524 127.447 130.524 125.176 128.103 123.774C126.741 123.083 125.236 122.722 123.708 122.722C122.181 122.722 120.675 123.083 119.314 123.774V123.774Z" fill="#7A0E48"/>
<path opacity="0.7" d="M119.314 123.774C116.893 125.176 116.893 127.447 119.314 128.849C120.677 129.537 122.182 129.895 123.708 129.895C125.235 129.895 126.74 129.537 128.103 128.849C130.524 127.447 130.524 125.176 128.103 123.774C126.741 123.083 125.236 122.722 123.708 122.722C122.181 122.722 120.675 123.083 119.314 123.774V123.774Z" fill="white"/>
<path d="M128.103 126.178C126.74 125.49 125.235 125.132 123.709 125.132C122.182 125.132 120.677 125.49 119.314 126.178C118.73 126.501 118.232 126.959 117.861 127.513C118.232 128.068 118.73 128.526 119.314 128.849C120.677 129.537 122.182 129.895 123.709 129.895C125.235 129.895 126.74 129.537 128.103 128.849C128.687 128.526 129.185 128.068 129.556 127.513C129.185 126.959 128.687 126.501 128.103 126.178V126.178Z" fill="#7A0E48"/>
<path opacity="0.3" d="M128.103 126.178C126.74 125.49 125.235 125.132 123.709 125.132C122.182 125.132 120.677 125.49 119.314 126.178C118.73 126.501 118.232 126.959 117.861 127.513C118.232 128.068 118.73 128.526 119.314 128.849C120.677 129.537 122.182 129.895 123.709 129.895C125.235 129.895 126.74 129.537 128.103 128.849C128.687 128.526 129.185 128.068 129.556 127.513C129.185 126.959 128.687 126.501 128.103 126.178V126.178Z" fill="black"/>
<path d="M125.29 128.064C127.82 126.484 129.729 124.082 130.699 121.261C132.31 116.554 131.358 110.861 129.914 108.507C127.961 105.318 123.236 105.677 124.63 111.011C126.024 116.345 126.892 122.113 124.68 125.969L125.29 128.064Z" fill="#37474F"/>
<path d="M125.456 127.096C125.405 127.096 125.355 127.079 125.315 127.046C125.294 127.026 125.278 127.002 125.267 126.975C125.256 126.949 125.25 126.92 125.25 126.892C125.25 126.863 125.256 126.835 125.267 126.808C125.278 126.781 125.294 126.757 125.315 126.737C126.726 125.177 127.806 123.346 128.489 121.356C129.172 119.366 129.444 117.258 129.288 115.16C129.046 111.295 127.618 108.482 127.076 108.056C127.036 108.014 127.015 107.959 127.015 107.902C127.015 107.844 127.036 107.789 127.076 107.747C127.116 107.708 127.17 107.687 127.226 107.687C127.282 107.687 127.336 107.708 127.376 107.747C128.094 108.365 129.497 111.37 129.73 115.143C129.892 117.3 129.613 119.467 128.911 121.514C128.21 123.56 127.1 125.442 125.648 127.046C125.624 127.07 125.593 127.088 125.559 127.097C125.525 127.105 125.49 127.105 125.456 127.096Z" fill="white"/>
<path d="M121.216 128.064C121.081 127.599 120.785 127.197 120.381 126.929C119.882 126.651 119.357 126.425 118.812 126.253C117.869 125.911 116.667 125.418 116.541 124.283C116.512 123.876 116.563 123.468 116.692 123.081C116.924 122.557 116.98 121.971 116.85 121.412C116.642 120.911 116.107 120.644 115.648 120.343C115.142 120.044 114.711 119.633 114.388 119.141C114.115 118.704 113.984 118.194 114.012 117.68C114.104 116.629 115.114 115.936 115.147 114.892C115.189 113.365 111.616 111.295 113.52 109.884C115.957 108.039 119.772 110.176 120.865 111.745C121.959 113.315 121.959 114.016 123.954 115.343C125.623 116.445 127.56 116.67 127.56 118.841C127.56 121.011 124.78 121.111 126.967 123.574C128.286 125.051 126.132 126.328 125.298 128.081C123.937 128.064 122.56 127.998 121.216 128.064Z" fill="#455A64"/>
<path d="M123.42 128.256C123.392 128.255 123.364 128.249 123.338 128.237C123.312 128.225 123.288 128.208 123.269 128.187C123.25 128.166 123.235 128.142 123.225 128.115C123.215 128.088 123.21 128.06 123.211 128.031C123.696 115.418 117.276 110.994 115.991 110.644C115.938 110.626 115.895 110.588 115.869 110.539C115.843 110.49 115.837 110.433 115.852 110.38C115.867 110.326 115.902 110.28 115.949 110.252C115.997 110.223 116.054 110.214 116.108 110.226C118.278 110.819 124.096 116.145 123.62 128.048C123.619 128.101 123.597 128.152 123.56 128.19C123.523 128.229 123.473 128.252 123.42 128.256V128.256Z" fill="white"/>
<path d="M122.402 119.291C122.35 119.292 122.3 119.274 122.26 119.241C120.398 117.572 116.759 117.639 116.717 117.639C116.661 117.639 116.607 117.617 116.566 117.578C116.526 117.539 116.502 117.486 116.5 117.43C116.5 117.373 116.521 117.318 116.56 117.276C116.599 117.234 116.652 117.209 116.709 117.205C116.867 117.205 120.557 117.163 122.552 118.874C122.583 118.903 122.605 118.942 122.615 118.983C122.625 119.025 122.622 119.069 122.607 119.109C122.592 119.15 122.565 119.185 122.53 119.21C122.495 119.235 122.453 119.249 122.41 119.25L122.402 119.291Z" fill="white"/>
<path d="M270.708 84.6418L273.846 46.5446C273.879 45.928 273.752 45.3134 273.477 44.7606C273.202 44.2077 272.788 43.7353 272.277 43.3893C271.712 43.1158 271.09 42.9793 270.462 42.9909C269.834 43.0025 269.217 43.1619 268.663 43.4561L226.926 67.5465C226.374 67.9037 225.906 68.3757 225.553 68.9303C225.2 69.4849 224.971 70.109 224.881 70.7602L221.742 108.857C221.71 109.474 221.837 110.088 222.112 110.641C222.387 111.194 222.8 111.667 223.312 112.013C223.877 112.286 224.499 112.423 225.127 112.411C225.755 112.399 226.371 112.24 226.926 111.946L268.663 87.8555C269.214 87.4974 269.681 87.0251 270.034 86.4707C270.387 85.9163 270.617 85.2926 270.708 84.6418V84.6418Z" fill="#7A0E48"/>
<path opacity="0.8" d="M270.708 84.6418L273.846 46.5446C273.879 45.928 273.752 45.3134 273.477 44.7606C273.202 44.2077 272.788 43.7353 272.277 43.3893C271.712 43.1158 271.09 42.9793 270.462 42.9909C269.834 43.0025 269.217 43.1619 268.663 43.4561L226.926 67.5465C226.374 67.9037 225.906 68.3757 225.553 68.9303C225.2 69.4849 224.971 70.109 224.881 70.7602L221.742 108.857C221.71 109.474 221.837 110.088 222.112 110.641C222.387 111.194 222.8 111.667 223.312 112.013C223.877 112.286 224.499 112.423 225.127 112.411C225.755 112.399 226.371 112.24 226.926 111.946L268.663 87.8555C269.214 87.4974 269.681 87.0251 270.034 86.4707C270.387 85.9163 270.617 85.2926 270.708 84.6418V84.6418Z" fill="white"/>
<path d="M270.709 84.6418L273.847 46.5446C273.88 45.928 273.753 45.3134 273.478 44.7606C273.203 44.2077 272.789 43.7353 272.278 43.3893C271.713 43.1158 271.091 42.9793 270.463 42.9909C269.835 43.0025 269.218 43.1619 268.664 43.4561L226.927 67.5465C226.373 67.8902 225.907 68.3591 225.566 68.9154L232.052 72.655V108.966L268.639 87.8388C269.193 87.4859 269.665 87.0177 270.022 86.466C270.379 85.9143 270.614 85.2921 270.709 84.6418Z" fill="#7A0E48"/>
<path opacity="0.9" d="M270.709 84.6418L273.847 46.5446C273.88 45.928 273.753 45.3134 273.478 44.7606C273.203 44.2077 272.789 43.7353 272.278 43.3893C271.713 43.1158 271.091 42.9793 270.463 42.9909C269.835 43.0025 269.218 43.1619 268.664 43.4561L226.927 67.5465C226.373 67.8902 225.907 68.3591 225.566 68.9154L232.052 72.655V108.966L268.639 87.8388C269.193 87.4859 269.665 87.0177 270.022 86.466C270.379 85.9143 270.614 85.2921 270.709 84.6418Z" fill="white"/>
<path d="M225.266 110.877L228.404 72.7802C228.495 72.1293 228.724 71.5052 229.075 70.9496C229.427 70.394 229.892 69.9196 230.441 69.5582L272.178 45.4762C273.213 44.8835 273.964 45.3593 273.847 46.5446L270.709 84.6418C270.619 85.2919 270.39 85.9152 270.039 86.4696C269.687 87.0239 269.221 87.4965 268.672 87.8555L226.935 111.946C225.917 112.539 225.166 112.063 225.266 110.877Z" fill="#7A0E48"/>
<path opacity="0.7" d="M225.266 110.877L228.404 72.7802C228.495 72.1293 228.724 71.5052 229.075 70.9496C229.427 70.394 229.892 69.9196 230.441 69.5582L272.178 45.4762C273.213 44.8835 273.964 45.3593 273.847 46.5446L270.709 84.6418C270.619 85.2919 270.39 85.9152 270.039 86.4696C269.687 87.0239 269.221 87.4965 268.672 87.8555L226.935 111.946C225.917 112.539 225.166 112.063 225.266 110.877Z" fill="white"/>
<path d="M246.793 80.3095C246.906 79.2853 247.238 78.2974 247.765 77.4119C248.292 76.5264 249.002 75.764 249.848 75.1759C251.376 74.2911 252.477 75.1759 252.352 77.1125C252.238 78.1363 251.906 79.1239 251.379 80.0092C250.852 80.8945 250.142 81.6571 249.297 82.2461C247.703 83.0891 246.634 82.2544 246.793 80.3095Z" fill="#7A0E48"/>
<path opacity="0.4" d="M246.793 80.3095C246.906 79.2853 247.238 78.2974 247.765 77.4119C248.292 76.5264 249.002 75.764 249.848 75.1759C251.376 74.2911 252.477 75.1759 252.352 77.1125C252.238 78.1363 251.906 79.1239 251.379 80.0092C250.852 80.8945 250.142 81.6571 249.297 82.2461C247.703 83.0891 246.634 82.2544 246.793 80.3095Z" fill="white"/>
<path d="M246.058 92.8388L260.04 84.767L258.295 83.757L244.313 91.8288L246.058 92.8388Z" fill="#7A0E48"/>
<path opacity="0.9" d="M246.058 92.8388L260.04 84.767L258.295 83.757L244.313 91.8288L246.058 92.8388Z" fill="white"/>
<path d="M262.787 103.356L250.266 110.569C250.01 110.706 249.721 110.77 249.431 110.752C249.196 110.742 248.965 110.682 248.755 110.577V110.577L243.254 107.405C243.045 107.261 242.872 107.071 242.747 106.849C242.623 106.628 242.551 106.381 242.536 106.128V105.836C242.536 105.36 242.87 105.159 243.279 105.402L246.618 107.313L247.361 107.747L247.194 106.912L244.306 91.8873L246.05 92.8973L260.04 84.7587L263.379 102.071C263.418 102.32 263.383 102.575 263.277 102.803C263.172 103.032 263.001 103.225 262.787 103.356V103.356Z" fill="#7A0E48"/>
<path opacity="0.7" d="M262.787 103.356L250.266 110.569C250.01 110.706 249.721 110.77 249.431 110.752C249.196 110.742 248.965 110.682 248.755 110.577V110.577L243.254 107.405C243.045 107.261 242.872 107.071 242.747 106.849C242.623 106.628 242.551 106.381 242.536 106.128V105.836C242.536 105.36 242.87 105.159 243.279 105.402L246.618 107.313L247.361 107.747L247.194 106.912L244.306 91.8873L246.05 92.8973L260.04 84.7587L263.379 102.071C263.418 102.32 263.383 102.575 263.277 102.803C263.172 103.032 263.001 103.225 262.787 103.356V103.356Z" fill="white"/>
<path d="M242.795 105.318L247.052 102.856L247.92 108.59L242.795 105.318Z" fill="#7A0E48"/>
<path opacity="0.7" d="M242.795 105.318L247.052 102.856L247.92 108.59L242.795 105.318Z" fill="white"/>
<path d="M246.034 92.8388L244.289 91.8287L247.177 106.854C247.277 107.313 247.01 107.505 246.601 107.263L243.262 105.351C242.853 105.109 242.52 105.351 242.52 105.785V106.078C242.534 106.331 242.606 106.578 242.731 106.799C242.855 107.02 243.029 107.21 243.237 107.355L248.738 110.527C248.949 110.632 249.179 110.692 249.414 110.702L246.034 92.8388Z" fill="#7A0E48"/>
<path opacity="0.8" d="M246.034 92.8388L244.289 91.8287L247.177 106.854C247.277 107.313 247.01 107.505 246.601 107.263L243.262 105.351C242.853 105.109 242.52 105.351 242.52 105.785V106.078C242.534 106.331 242.606 106.578 242.731 106.799C242.855 107.02 243.029 107.21 243.237 107.355L248.738 110.527C248.949 110.632 249.179 110.692 249.414 110.702L246.034 92.8388Z" fill="white"/>
<path d="M200.958 113.023C203.521 112.831 204.347 111.887 204.765 110.752C205.182 109.617 205.332 108.373 204.339 105.744C203.346 103.114 197.661 99.6669 191.76 100.927C185.858 102.188 185.04 106.695 185.357 107.906C185.674 109.116 189.222 112.188 193.821 112.714C196.187 113.023 198.575 113.126 200.958 113.023Z" fill="#7A0E48"/>
<path opacity="0.7" d="M200.958 113.023C203.521 112.831 204.347 111.887 204.765 110.752C205.182 109.617 205.332 108.373 204.339 105.744C203.346 103.114 197.661 99.6669 191.76 100.927C185.858 102.188 185.04 106.695 185.357 107.906C185.674 109.116 189.222 112.188 193.821 112.714C196.187 113.023 198.575 113.126 200.958 113.023Z" fill="white"/>
<path d="M197.961 104.792C198.3 104.525 198.719 104.379 199.151 104.379C199.582 104.379 200.001 104.525 200.34 104.792C201.121 105.234 201.745 105.908 202.126 106.72C202.385 107.397 202.26 107.998 201.968 107.998C201.676 107.998 201.459 107.38 200.34 106.445C199.222 105.51 197.711 105.143 197.961 104.792Z" fill="#7A0E48"/>
<path opacity="0.9" d="M197.961 104.792C198.3 104.525 198.719 104.379 199.151 104.379C199.582 104.379 200.001 104.525 200.34 104.792C201.121 105.234 201.745 105.908 202.126 106.72C202.385 107.397 202.26 107.998 201.968 107.998C201.676 107.998 201.459 107.38 200.34 106.445C199.222 105.51 197.711 105.143 197.961 104.792Z" fill="white"/>
<path d="M161.909 41.8701C159.155 43.7232 155.891 45.9186 156.342 53.1473C156.793 60.3761 162.185 80.3178 162.552 82.7469C162.92 85.176 177.577 96.9373 180.274 99.2579C183.37 101.954 184.539 102.522 185.941 104.066C187.344 105.61 188.663 109.55 190.115 111.261C192.394 113.907 197.302 113.966 199.564 113.657C201.826 113.348 200.399 110.602 199.564 108.649C198.729 106.695 196.492 104.033 197.127 103.573C197.561 103.265 199.923 103.682 201.751 105.243C203.162 106.445 203.329 107.622 204.122 108.173C205.449 109.108 205.891 107.455 204.523 104.834C203.154 102.213 201.067 100.335 199.005 99.6836C199.915 99.7553 200.825 99.5517 201.618 99.0993C202.753 98.3981 203.154 96.8121 201.751 97.2295C200.916 97.4716 200.082 97.2295 198.412 97.2295C193.17 97.2295 191.593 99.1327 185.524 93.2729C179.456 87.4131 171.334 79.4414 171.334 79.4414C171.334 79.4414 168.604 62.8302 167.377 55.4762C166.334 49.1406 165.899 44.992 161.909 41.8701Z" fill="#FFA8A7"/>
<path d="M210.633 58.2058L220.992 36.2691L226.835 38.6815C226.835 38.6815 218.246 64.675 217.01 67.4964C216.284 69.1659 213.955 71.1943 210.583 69.5498C209.848 69.1909 208.388 68.3311 206.576 67.2042" fill="#FFA8A7"/>
<path d="M224.639 45.2174C225.357 43.0722 227.635 40.785 227.978 39.8751C228.282 39.1565 228.383 38.3683 228.27 37.5963L225.607 37.8634L224.639 45.2174Z" fill="#FFA8A7"/>
<path d="M219.147 40.1005C219.581 39.1072 219.656 35.6264 219.147 33.623C218.638 31.6196 219.865 29.1154 219.556 27.7047C219.247 26.294 220.149 25.8683 220.967 26.3775C221.468 26.6955 221.882 27.1324 222.174 27.6494C222.465 28.1665 222.624 28.7475 222.636 29.3408C222.678 30.8016 222.77 34.5162 222.177 36.3275C221.584 38.1389 219.147 40.1005 219.147 40.1005Z" fill="#FFA8A7"/>
<path d="M220.524 36.6865C220.683 37.1372 221.284 37.7633 223.229 37.4294L226.81 38.6815L228.27 38.598C227.49 39.1504 226.534 39.3992 225.583 39.2978C224.632 39.1964 223.75 38.7517 223.103 38.0471C223.103 38.0471 220.474 38.3726 220.524 36.6865Z" fill="#F28F8F"/>
<path d="M230.541 35.2174C228.295 36.9703 228.613 39.2491 231.259 40.3176C232.725 40.8215 234.29 40.9723 235.826 40.7577C237.362 40.543 238.826 39.969 240.098 39.0822C242.344 37.3293 242.018 35.0421 239.381 33.9736C237.913 33.4729 236.348 33.3245 234.812 33.5406C233.277 33.7567 231.813 34.3311 230.541 35.2174V35.2174Z" fill="#7A0E48"/>
<path opacity="0.7" d="M230.541 35.2174C228.295 36.9703 228.613 39.2491 231.259 40.3176C232.725 40.8215 234.29 40.9723 235.826 40.7577C237.362 40.543 238.826 39.969 240.098 39.0822C242.344 37.3293 242.018 35.0421 239.381 33.9736C237.913 33.4729 236.348 33.3245 234.812 33.5406C233.277 33.7567 231.813 34.3311 230.541 35.2174V35.2174Z" fill="white"/>
<path d="M241.66 22.4209L233.422 23.5728L225.166 24.7248C225.35 30.067 227.161 36.0521 229.523 39.0988L241.41 37.4294C242.854 33.84 242.946 27.6046 241.66 22.4209Z" fill="#7A0E48"/>
<path opacity="0.7" d="M241.66 22.4209L233.422 23.5728L225.166 24.7248C225.35 30.067 227.161 36.0521 229.523 39.0988L241.41 37.4294C242.854 33.84 242.946 27.6046 241.66 22.4209Z" fill="white"/>
<path d="M227.286 22.2289C224.264 24.0737 224.581 26.3441 227.995 27.2874C231.965 28.1565 236.114 27.5637 239.682 25.6179C242.703 23.7648 242.386 21.5027 238.972 20.5511C235.002 19.6853 230.852 20.2811 227.286 22.2289V22.2289Z" fill="#7A0E48"/>
<path opacity="0.9" d="M227.286 22.2289C224.264 24.0737 224.581 26.3441 227.995 27.2874C231.965 28.1565 236.114 27.5637 239.682 25.6179C242.703 23.7648 242.386 21.5027 238.972 20.5511C235.002 19.6853 230.852 20.2811 227.286 22.2289V22.2289Z" fill="white"/>
<path d="M228.503 22.9885C225.999 24.2657 226.241 25.7431 228.963 26.3274C232.16 26.8115 235.429 26.3532 238.37 25.0086C240.832 23.7314 240.632 22.254 237.903 21.6696C234.708 21.1863 231.442 21.6446 228.503 22.9885Z" fill="#7A0E48"/>
<path opacity="0.4" d="M228.503 22.9885C225.999 24.2657 226.241 25.7431 228.963 26.3274C232.16 26.8115 235.429 26.3532 238.37 25.0086C240.832 23.7314 240.632 22.254 237.903 21.6696C234.708 21.1863 231.442 21.6446 228.503 22.9885Z" fill="white"/>
<path d="M228.813 24.9418C228.371 25.159 227.963 25.4402 227.603 25.7765C228.041 26.0012 228.511 26.1588 228.997 26.244C232.194 26.728 235.463 26.2697 238.404 24.9251C238.848 24.7114 239.257 24.4297 239.614 24.0904C239.176 23.8657 238.706 23.7081 238.22 23.6229C235.023 23.1389 231.754 23.5972 228.813 24.9418V24.9418Z" fill="#7A0E48"/>
<path opacity="0.3" d="M228.813 24.9418C228.371 25.159 227.963 25.4402 227.603 25.7765C228.041 26.0012 228.511 26.1588 228.997 26.244C232.194 26.728 235.463 26.2697 238.404 24.9251C238.848 24.7114 239.257 24.4297 239.614 24.0904C239.176 23.8657 238.706 23.7081 238.22 23.6229C235.023 23.1389 231.754 23.5972 228.813 24.9418V24.9418Z" fill="black"/>
<path d="M227.06 38.8484C226.367 38.9511 225.661 38.9171 224.982 38.7482C224.047 38.4978 223.162 37.5963 222.285 35.9852C221.551 34.633 220.29 31.6279 220.825 29.9668C221.509 27.855 223.955 27.5544 225.583 27.3541L226.142 27.279L226.501 29.8416L225.9 29.9167C224.982 30.0253 223.454 30.2172 223.279 30.7515C223.045 31.7865 224.798 35.8183 225.691 36.2607C226.496 36.3725 227.317 36.2387 228.045 35.8767L229.214 38.1806C228.535 38.5146 227.808 38.7399 227.06 38.8484V38.8484Z" fill="#7A0E48"/>
<path opacity="0.7" d="M227.06 38.8484C226.367 38.9511 225.661 38.9171 224.982 38.7482C224.047 38.4978 223.162 37.5963 222.285 35.9852C221.551 34.633 220.29 31.6279 220.825 29.9668C221.509 27.855 223.955 27.5544 225.583 27.3541L226.142 27.279L226.501 29.8416L225.9 29.9167C224.982 30.0253 223.454 30.2172 223.279 30.7515C223.045 31.7865 224.798 35.8183 225.691 36.2607C226.496 36.3725 227.317 36.2387 228.045 35.8767L229.214 38.1806C228.535 38.5146 227.808 38.7399 227.06 38.8484V38.8484Z" fill="white"/>
<path d="M223.996 30.7599C222.402 30.7599 217.719 32.6213 217.619 34.3075C217.518 35.9937 220.699 35.8684 220.699 35.8684C220.549 36.119 220.491 36.4143 220.537 36.7028C220.583 36.9912 220.729 37.2544 220.949 37.4461C221.742 38.1306 227.752 36.0437 227.752 36.0437C227.542 35.355 227.224 34.7041 226.809 34.1155C226.509 33.7349 226.071 33.4887 225.59 33.431C225.59 33.431 226.367 30.7599 223.996 30.7599Z" fill="#FFA8A7"/>
<path d="M104.722 112.964L97.7266 108.933L104.722 106.912V112.964Z" fill="#E0E0E0"/>
<g style="mix-blend-mode:multiply" opacity="0.5">
<g style="mix-blend-mode:multiply" opacity="0.5">
<path d="M104.722 106.912V112.964L97.7266 108.933" fill="#E0E0E0"/>
</g>
</g>
<path d="M62.768 131.136V137.564L24.3203 115.368V108.932L62.768 131.136Z" fill="#E0E0E0"/>
<g style="mix-blend-mode:multiply" opacity="0.5">
<g style="mix-blend-mode:multiply" opacity="0.5">
<path d="M62.768 131.136V137.564L24.3203 115.368V108.932L62.768 131.136Z" fill="#E0E0E0"/>
</g>
</g>
<path d="M20.8228 58.473L59.2788 80.6769V133.148L20.8228 110.953V58.473Z" fill="#E0E0E0"/>
<path d="M59.2793 80.6768L111.709 50.4011V102.872L59.2793 133.148V80.6768Z" fill="#EBEBEB"/>
<path d="M111.708 50.4011L73.2606 28.1973L20.8228 58.473L59.2788 80.6768L111.708 50.4011Z" fill="#F5F5F5"/>
<path d="M62.7676 82.6969L108.219 56.4529V68.5649L62.7676 94.8005V82.6969Z" fill="#E0E0E0"/>
<g style="mix-blend-mode:multiply" opacity="0.5">
<g style="mix-blend-mode:multiply" opacity="0.5">
<path d="M80.2476 73.6067C80.2476 74.1659 81.9171 73.6567 83.9789 72.4714L90.5064 68.6984C92.5682 67.5131 94.2294 66.0941 94.2294 65.5348V64.5248L80.2393 72.605L80.2476 73.6067Z" fill="#E0E0E0"/>
</g>
</g>
<path d="M62.7676 98.8406L108.219 72.605V84.7086L62.7676 110.953V98.8406Z" fill="#E0E0E0"/>
<g style="mix-blend-mode:multiply" opacity="0.5">
<g style="mix-blend-mode:multiply" opacity="0.5">
<path d="M80.2476 89.7671C80.2476 90.3264 81.9171 89.7671 83.9789 88.6235L90.5064 84.8506C92.5682 83.6652 94.2294 82.2462 94.2294 81.6953V80.6852L80.2393 88.7571L80.2476 89.7671Z" fill="#E0E0E0"/>
</g>
</g>
<path d="M62.7676 114.984L108.219 88.7487V100.861L62.7676 127.096V114.984Z" fill="#E0E0E0"/>
<g style="mix-blend-mode:multiply" opacity="0.5">
<g style="mix-blend-mode:multiply" opacity="0.5">
<path d="M80.2476 105.902C80.2476 106.462 81.9171 105.953 83.9789 104.759L90.5064 100.994C92.5682 99.8005 94.2294 98.3899 94.2294 97.8306V96.8206L80.2393 104.892L80.2476 105.902Z" fill="#E0E0E0"/>
</g>
</g>
<path d="M62.7676 137.564L66.2651 135.552V129.116L62.7676 131.136V137.564Z" fill="#E0E0E0"/>
<path d="M104.722 112.964L108.219 110.953V104.892L104.722 106.912V112.964Z" fill="#E0E0E0"/>
<path d="M43.3022 60.66C46.8248 57.0623 48.8949 48.1391 45.4558 45.2426H27.9849C24.5541 48.0973 26.6159 57.0623 30.1385 60.6517L30.2303 60.7519L30.3555 60.8687C30.4553 60.9697 30.5613 61.0645 30.6727 61.1525L30.7562 61.2193L31.0233 61.4196C31.1677 61.5258 31.3182 61.6233 31.474 61.7118C33.1004 62.5348 34.8976 62.9636 36.7203 62.9636C38.5431 62.9636 40.3402 62.5348 41.9666 61.7118V61.7118C42.1252 61.6234 42.2785 61.5259 42.4257 61.4196L42.6678 61.236L42.7763 61.1525L43.0852 60.8771L43.2187 60.7435L43.3022 60.66Z" fill="#EBEBEB"/>
<path d="M29.5042 44.0989C25.5142 46.4028 25.5142 50.134 29.5042 52.4462C33.4942 54.7584 39.9551 54.7501 43.9367 52.4462C47.9184 50.1424 47.9268 46.4195 43.9367 44.0989C39.9467 41.7784 33.4859 41.795 29.5042 44.0989Z" fill="#F5F5F5"/>
<path d="M32.3414 45.7266C29.9207 47.129 29.9207 49.3995 32.3414 50.8018C33.7032 51.4932 35.209 51.8536 36.7363 51.8536C38.2636 51.8536 39.7693 51.4932 41.1311 50.8018C43.5519 49.3995 43.5519 47.129 41.1311 45.7266C39.7682 45.0391 38.2629 44.6809 36.7363 44.6809C35.2097 44.6809 33.7044 45.0391 32.3414 45.7266V45.7266Z" fill="#E0E0E0"/>
<path d="M41.1147 48.139C39.7529 47.4476 38.2471 47.0872 36.7199 47.0872C35.1926 47.0872 33.6868 47.4476 32.325 48.139C31.7391 48.4552 31.2402 48.9111 30.8726 49.4662C31.2397 50.0239 31.7385 50.4826 32.325 50.8018C33.6868 51.4932 35.1926 51.8536 36.7199 51.8536C38.2471 51.8536 39.7529 51.4932 41.1147 50.8018C41.7012 50.4826 42.2 50.0239 42.5671 49.4662C42.1995 48.9111 41.7006 48.4552 41.1147 48.139V48.139Z" fill="#E0E0E0"/>
<g style="mix-blend-mode:multiply" opacity="0.5">
<g style="mix-blend-mode:multiply" opacity="0.5">
<path d="M41.1147 48.139C39.7529 47.4476 38.2471 47.0872 36.7199 47.0872C35.1926 47.0872 33.6868 47.4476 32.325 48.139C31.7391 48.4552 31.2402 48.9111 30.8726 49.4662C31.2397 50.0239 31.7385 50.4826 32.325 50.8018C33.6868 51.4932 35.1926 51.8536 36.7199 51.8536C38.2471 51.8536 39.7529 51.4932 41.1147 50.8018C41.7012 50.4826 42.2 50.0239 42.5671 49.4662C42.1995 48.9111 41.7006 48.4552 41.1147 48.139V48.139Z" fill="#E0E0E0"/>
</g>
</g>
<path d="M32.8683 49.4663C31.6251 48.2061 30.5555 46.7857 29.688 45.2426C28.2189 42.6549 27.9517 39.1741 28.7114 38.7484C29.471 38.3226 32.5511 41.7868 32.5511 41.7868C32.2704 40.327 32.1611 38.8395 32.2256 37.3544C32.3591 35.0422 32.9184 32.947 33.5862 32.5213C34.254 32.0955 35.7231 35.0255 36.3575 37.129C36.9919 39.2325 37.3508 40.9771 37.3508 40.9771C37.6064 39.3287 37.9859 37.7019 38.4861 36.1106C39.254 33.9236 39.9552 33.4228 40.4978 33.6064C41.0403 33.7901 41.3993 34.8502 41.5579 37.7801C41.6132 39.1727 41.5686 40.5675 41.4243 41.9537C41.4243 41.9537 42.5178 40.7517 43.7198 39.5914C45.047 38.3143 45.6147 38.139 45.9986 38.3811C46.3826 38.6231 46.4828 40.6098 44.4293 44.3244C43.4057 46.2165 42.0965 47.9396 40.5478 49.4329C40.5478 49.4329 37.7264 51.3027 32.8683 49.4663Z" fill="#EBEBEB"/>
<path d="M78.5359 64.9839L99.4041 52.8803C99.8132 52.6466 99.8132 52.2626 99.4041 52.0456L70.7395 35.7182C70.5075 35.6022 70.2518 35.5417 69.9924 35.5417C69.733 35.5417 69.4772 35.6022 69.2453 35.7182L48.5607 47.6799C48.1517 47.922 48.1517 48.306 48.5607 48.5147L77.0417 64.9589C77.2717 65.0788 77.5265 65.1436 77.7858 65.1479C78.0452 65.1523 78.302 65.0961 78.5359 64.9839Z" fill="#E0E0E0"/>
<g style="mix-blend-mode:multiply" opacity="0.5">
<g style="mix-blend-mode:multiply" opacity="0.5">
<path d="M78.5359 64.9839L99.4041 52.8803C99.8132 52.6466 99.8132 52.2626 99.4041 52.0456L70.7395 35.7182C70.5075 35.6022 70.2518 35.5417 69.9924 35.5417C69.733 35.5417 69.4772 35.6022 69.2453 35.7182L48.5607 47.6799C48.1517 47.922 48.1517 48.306 48.5607 48.5147L77.0417 64.9589C77.2717 65.0788 77.5265 65.1436 77.7858 65.1479C78.0452 65.1523 78.302 65.0961 78.5359 64.9839Z" fill="#E0E0E0"/>
</g>
</g>
<path d="M48.5441 47.6549L72.0668 32.6965C72.2948 32.5773 72.5483 32.515 72.8055 32.515C73.0628 32.515 73.3163 32.5773 73.5443 32.6965L82.0168 37.588C82.215 37.7082 82.361 37.8983 82.4259 38.1208C82.4908 38.3434 82.4699 38.5821 82.3674 38.79L82.0252 39.4578C81.9226 39.6657 81.9018 39.9045 81.9667 40.127C82.0316 40.3495 82.1775 40.5396 82.3757 40.6598L99.446 50.5347C99.5366 50.5702 99.6144 50.6322 99.6693 50.7126C99.7241 50.793 99.7535 50.8881 99.7535 50.9854C99.7535 51.0828 99.7241 51.1779 99.6693 51.2583C99.6144 51.3387 99.5366 51.4007 99.446 51.4362L78.4942 64.9255C78.2691 65.0489 78.0165 65.1137 77.7597 65.1137C77.5029 65.1137 77.2503 65.0489 77.0251 64.9255L48.5441 48.4813C48.4712 48.4396 48.4106 48.3795 48.3685 48.307C48.3264 48.2344 48.3042 48.152 48.3042 48.0681C48.3042 47.9842 48.3264 47.9017 48.3685 47.8292C48.4106 47.7566 48.4712 47.6965 48.5441 47.6549V47.6549Z" fill="#EBEBEB"/>
<path d="M344.248 83.156C350.308 76.9706 353.872 51.7951 347.954 46.8869H317.904C311.986 51.7868 315.55 76.9372 321.61 83.1476L321.769 83.3146L321.977 83.5233C322.153 83.6902 322.336 83.8488 322.528 84.0074L322.67 84.1243C322.82 84.2411 322.971 84.358 323.129 84.4665C323.38 84.65 323.642 84.8173 323.914 84.9673C328.922 87.8472 336.986 87.8472 341.978 84.9673C342.25 84.8173 342.512 84.65 342.762 84.4665L343.188 84.141L343.372 83.9991C343.555 83.8488 343.73 83.6902 343.897 83.5316L344.14 83.2979L344.248 83.156Z" fill="#37474F"/>
<path d="M320.483 44.9086C313.614 48.8736 313.614 55.301 320.483 59.266C327.353 63.231 338.48 63.2226 345.342 59.266C352.203 55.3094 352.203 48.8736 345.342 44.9086C338.48 40.9436 327.345 40.9436 320.483 44.9086Z" fill="#455A64"/>
<path d="M323.781 46.8117C318.772 49.7249 318.772 54.4412 323.781 57.3544C328.789 60.2676 337.003 60.2676 342.036 57.3544C347.07 54.4412 347.045 49.7249 342.036 46.8117C337.028 43.8985 328.822 43.9069 323.781 46.8117Z" fill="#37474F"/>
<path d="M342.028 51.8202C337.02 48.907 328.814 48.907 323.773 51.8202C322.555 52.48 321.517 53.4287 320.751 54.5831C321.516 55.7401 322.554 56.6917 323.773 57.3544C328.781 60.2676 336.986 60.2676 342.028 57.3544C343.25 56.6963 344.289 55.7438 345.05 54.5831C344.288 53.4256 343.249 52.476 342.028 51.8202V51.8202Z" fill="#E0E0E0"/>
<g style="mix-blend-mode:multiply">
<g style="mix-blend-mode:multiply">
<path d="M342.028 51.8202C337.02 48.907 328.814 48.907 323.773 51.8202C322.555 52.48 321.517 53.4287 320.751 54.5831C321.516 55.7401 322.554 56.6917 323.773 57.3544C328.781 60.2676 336.986 60.2676 342.028 57.3544C343.25 56.6963 344.289 55.7438 345.05 54.5831C344.288 53.4256 343.249 52.476 342.028 51.8202V51.8202Z" fill="#263238"/>
</g>
</g>
<path d="M338.538 54.5998C339.999 50.1758 342.036 42.0789 349.607 36.0104C357.37 29.7666 365.024 24.825 362.387 20.7264C359.982 17.0035 352.754 16.4526 344.49 22.83C336.468 29.007 332.845 43.1807 333.555 52.5798L338.538 54.5998Z" fill="#7A0E48"/>
<g opacity="0.1">
<path opacity="0.1" d="M338.538 54.5998C339.999 50.1758 342.036 42.0789 349.607 36.0104C357.37 29.7666 365.024 24.825 362.387 20.7264C359.982 17.0035 352.754 16.4526 344.49 22.83C336.468 29.007 332.845 43.1807 333.555 52.5798L338.538 54.5998Z" fill="black"/>
</g>
<path d="M334.849 53.5397H334.791C334.735 53.5335 334.681 53.5162 334.632 53.4888C334.583 53.4613 334.54 53.4243 334.506 53.3798C334.472 53.3354 334.447 53.2845 334.432 53.2303C334.418 53.176 334.415 53.1194 334.423 53.0639C337.295 30.8517 351.118 21.0185 357.871 20.693C357.927 20.6872 357.984 20.6932 358.038 20.7106C358.092 20.728 358.142 20.7565 358.185 20.7942C358.227 20.8319 358.261 20.8779 358.285 20.9295C358.308 20.981 358.321 21.037 358.322 21.0937C358.326 21.2083 358.286 21.3202 358.21 21.4059C358.134 21.4915 358.027 21.5442 357.913 21.5528C352.904 21.7865 338.313 29.7331 335.275 53.1724C335.261 53.2749 335.21 53.3687 335.131 53.4363C335.053 53.5039 334.953 53.5407 334.849 53.5397V53.5397Z" fill="white"/>
<path d="M327.495 55.6349C327.299 54.3891 326.806 53.2085 326.06 52.1919C325.314 51.1753 324.334 50.3523 323.205 49.7918C320.742 48.4562 317.745 49.7918 314.857 45.76C311.969 41.7283 314.498 38.4561 314.023 36.5028C313.547 34.5496 313.046 33.2724 309.757 31.8701C306.468 30.4677 305.583 28.4059 306.719 23.7815C307.854 19.1571 307.795 17.7548 304.982 15.7264C302.169 13.698 302.036 11.127 304.982 9.4325C307.929 7.73799 313.171 7.76303 317.32 11.4442C321.468 15.1254 321.994 16.7114 326.56 17.1538C331.126 17.5962 333.739 17.7798 334.774 20.4927C335.809 23.2056 335.275 25.3091 334.774 27.8467C334.539 29.005 334.697 30.2088 335.223 31.2672C335.749 32.3257 336.613 33.1782 337.679 33.6898C339.674 34.633 342.996 35.3592 344.232 38.9987C345.467 42.6381 342.729 50.0589 339.223 54.6165C339.181 54.5998 338.347 57.2626 327.495 55.6349Z" fill="#7A0E48"/>
<path d="M335.133 56.0606C335.076 56.0606 335.02 56.0493 334.968 56.0274C334.916 56.0055 334.869 55.9734 334.829 55.9329C334.789 55.8925 334.758 55.8446 334.737 55.792C334.716 55.7394 334.706 55.6831 334.707 55.6265C334.572 48.5052 332.984 41.4865 330.041 35.0003C325.342 24.8583 310.325 12.8799 309.407 12.329C309.355 12.3124 309.307 12.2852 309.266 12.2491C309.225 12.213 309.193 12.1688 309.17 12.1194C309.147 12.0699 309.135 12.0162 309.134 11.9618C309.133 11.9073 309.143 11.8533 309.165 11.8031C309.209 11.6945 309.294 11.6071 309.401 11.559C309.508 11.5109 309.63 11.5056 309.74 11.5444C310.258 11.7113 325.876 23.9568 330.817 34.633C333.811 41.2413 335.427 48.39 335.567 55.6432C335.567 55.6994 335.556 55.7551 335.534 55.8069C335.512 55.8586 335.48 55.9054 335.439 55.9444C335.398 55.9834 335.35 56.0138 335.298 56.0337C335.245 56.0537 335.189 56.0628 335.133 56.0606V56.0606Z" fill="white"/>
<path d="M325.2 27.2873C325.13 27.2877 325.061 27.2705 324.999 27.2373C321.853 25.5094 314.332 26.7364 314.257 26.7531C314.144 26.7678 314.03 26.7388 313.939 26.672C313.847 26.6052 313.784 26.5057 313.764 26.3942C313.754 26.3388 313.756 26.2821 313.768 26.2273C313.781 26.1725 313.804 26.1207 313.837 26.0749C313.869 26.0291 313.911 25.9902 313.958 25.9605C314.006 25.9308 314.059 25.9108 314.115 25.9017C314.432 25.8516 322.011 24.6162 325.409 26.486C325.458 26.513 325.502 26.5497 325.537 26.5938C325.573 26.638 325.599 26.6887 325.615 26.7431C325.63 26.7975 325.635 26.8545 325.628 26.9107C325.621 26.9668 325.603 27.0211 325.575 27.0703C325.539 27.1374 325.484 27.1932 325.418 27.2315C325.352 27.2697 325.276 27.2891 325.2 27.2873Z" fill="white"/>
<path d="M334.356 48.0305C334.252 48.0422 334.147 48.0156 334.06 47.9556C333.974 47.8957 333.912 47.8064 333.887 47.7044C333.861 47.6024 333.874 47.4946 333.922 47.4011C333.97 47.3075 334.05 47.2346 334.148 47.1958C337.687 45.2759 340.392 39.8501 340.417 39.8C340.437 39.7423 340.469 39.6894 340.511 39.6449C340.553 39.6005 340.604 39.5654 340.661 39.542C340.717 39.5186 340.778 39.5074 340.839 39.5092C340.9 39.511 340.96 39.5257 341.015 39.5524C341.071 39.579 341.119 39.617 341.159 39.6639C341.198 39.7107 341.227 39.7654 341.244 39.8243C341.261 39.8831 341.265 39.9448 341.256 40.0054C341.247 40.066 341.226 40.124 341.193 40.1757C341.076 40.4094 338.33 45.9019 334.557 47.9554C334.498 47.9974 334.429 48.0233 334.356 48.0305Z" fill="white"/>
</svg>
