<svg width="222" height="135" viewBox="0 0 222 135" fill="none" xmlns="http://www.w3.org/2000/svg">
<g clip-path="url(#clip0)">
<path d="M130.517 27.9154L97.5708 116.841C96.8812 118.703 97.6756 120.835 99.345 121.603L142.656 141.548C144.326 142.316 146.238 141.431 146.927 139.57L179.873 50.6436C180.563 48.7824 179.769 46.6504 178.099 45.8817L134.788 25.9374C133.119 25.1687 131.206 26.0543 130.517 27.9154Z" fill="white" stroke="#263238" stroke-width="0.847705" stroke-miterlimit="10"/>
<path d="M168.725 52.7541L167.14 57.0161C166.91 57.633 166.47 58.1229 165.916 58.3781C165.363 58.6334 164.741 58.6331 164.187 58.3773L138.089 46.2993C137.635 46.09 137.255 45.7217 137.006 45.2501C136.757 44.7786 136.652 44.2294 136.708 43.6857C136.731 43.4522 136.785 43.2237 136.868 43.0076L138.453 38.7456C138.567 38.4396 138.733 38.1615 138.944 37.9274C139.154 37.6933 139.403 37.5077 139.678 37.3813C139.953 37.2548 140.247 37.19 140.544 37.1906C140.841 37.1911 141.136 37.2569 141.41 37.3844L167.508 49.4624C167.782 49.5891 168.031 49.7749 168.241 50.0091C168.45 50.2432 168.616 50.5211 168.729 50.8269C168.842 51.1327 168.9 51.4603 168.899 51.791C168.898 52.1217 168.839 52.449 168.725 52.7541V52.7541Z" fill="#EECADD"/>
<path d="M150.116 44.4183L148.784 47.9724L148.194 47.7002L148.762 46.1756L147.115 45.4133L146.547 46.9379L145.956 46.6607L147.288 43.1115L147.883 43.3838L147.341 44.8737L148.989 45.636L149.535 44.151L150.116 44.4183Z" fill="#263238"/>
<path d="M152.301 48.2447L150.392 47.3636C150.361 47.5743 150.399 47.7904 150.499 47.9723C150.599 48.1542 150.755 48.2896 150.938 48.3536C151.059 48.4135 151.19 48.4444 151.322 48.4444C151.454 48.4444 151.585 48.4135 151.706 48.3536L151.866 48.8832C151.606 49.0013 151.321 49.0343 151.045 48.9784C150.768 48.9225 150.512 48.78 150.306 48.5676C150.099 48.3552 149.951 48.0817 149.879 47.779C149.807 47.4764 149.814 47.1571 149.899 46.8587C149.963 46.6711 150.061 46.5002 150.186 46.3567C150.312 46.2132 150.463 46.1003 150.63 46.025C150.797 45.9497 150.976 45.9137 151.156 45.9191C151.335 45.9246 151.512 45.9714 151.675 46.0568C151.845 46.1256 151.999 46.2336 152.129 46.3737C152.259 46.5138 152.36 46.6828 152.427 46.8697C152.494 47.0565 152.525 47.2571 152.518 47.4582C152.511 47.6593 152.466 47.8565 152.386 48.0368L152.301 48.2447ZM150.547 46.9379L151.924 47.5764C151.979 47.3794 151.964 47.1661 151.881 46.9815C151.798 46.7968 151.654 46.6552 151.48 46.5864C151.313 46.5043 151.125 46.4948 150.952 46.5599C150.78 46.625 150.635 46.7598 150.547 46.9379V46.9379Z" fill="#263238"/>
<path d="M153.828 45.8885L154.396 46.1508L152.993 49.9178L152.425 49.6505L153.828 45.8885Z" fill="#263238"/>
<path d="M155.143 46.4973L155.711 46.7597L154.312 50.5266L153.744 50.2593L155.143 46.4973Z" fill="#263238"/>
<path d="M155.36 49.4228C155.457 49.1293 155.629 48.8747 155.856 48.6917C156.083 48.5087 156.355 48.4057 156.635 48.396C156.915 48.3863 157.191 48.4703 157.428 48.6372C157.665 48.8041 157.851 49.0463 157.964 49.3325C158.076 49.6187 158.109 49.9359 158.058 50.2431C158.007 50.5503 157.875 50.8335 157.679 51.0563C157.482 51.279 157.23 51.431 156.956 51.4928C156.681 51.5546 156.396 51.5232 156.137 51.4028C155.966 51.3346 155.81 51.2282 155.677 51.0901C155.544 50.952 155.438 50.7851 155.366 50.5997C155.293 50.4143 155.255 50.2142 155.254 50.0118C155.253 49.8094 155.289 49.609 155.36 49.4228V49.4228ZM157.376 50.3534C157.418 50.2472 157.44 50.1329 157.442 50.017C157.444 49.901 157.425 49.7859 157.386 49.6783C157.348 49.5707 157.29 49.4727 157.217 49.3903C157.144 49.3078 157.057 49.2424 156.961 49.1979C156.865 49.1534 156.762 49.1308 156.658 49.1313C156.554 49.1317 156.451 49.1554 156.355 49.2007C156.259 49.2461 156.173 49.3123 156.1 49.3955C156.028 49.4787 155.971 49.5771 155.933 49.6851C155.891 49.7912 155.869 49.9056 155.867 50.0215C155.865 50.1374 155.884 50.2526 155.923 50.3602C155.962 50.4678 156.019 50.5657 156.092 50.6482C156.165 50.7307 156.253 50.7961 156.349 50.8406C156.445 50.8851 156.548 50.9077 156.652 50.9072C156.756 50.9067 156.859 50.8831 156.954 50.8377C157.05 50.7924 157.137 50.7261 157.209 50.643C157.281 50.5598 157.338 50.4613 157.376 50.3534V50.3534Z" fill="#263238"/>
<path d="M158.024 51.8037C158.044 51.7511 158.073 51.7035 158.11 51.6638C158.146 51.6241 158.19 51.5931 158.238 51.5728C158.285 51.5524 158.336 51.5431 158.387 51.5453C158.438 51.5476 158.489 51.5614 158.535 51.5859C158.583 51.605 158.626 51.6348 158.664 51.6734C158.701 51.7121 158.73 51.7588 158.751 51.8108C158.771 51.8627 158.782 51.9187 158.782 51.9754C158.782 52.032 158.772 52.0882 158.752 52.1403C158.707 52.2398 158.631 52.3168 158.537 52.3556C158.443 52.3944 158.34 52.3923 158.248 52.3497C158.155 52.307 158.081 52.227 158.04 52.1257C157.998 52.0244 157.993 51.9094 158.024 51.8037V51.8037ZM159.241 48.6258L159.916 48.9376L158.917 51.2592L158.473 51.0513L159.241 48.6258Z" fill="#263238"/>
<path d="M162.108 75.6347L128.933 60.2841L128.097 62.5289L161.273 77.8795L162.108 75.6347Z" fill="#263238"/>
<path d="M159.96 81.4034L126.784 66.0529L125.949 68.2977L159.124 83.6482L159.96 81.4034Z" fill="#263238"/>
<path d="M157.809 87.1726L124.633 71.822L123.797 74.0668L156.973 89.4174L157.809 87.1726Z" fill="#E5E5E5"/>
<path d="M155.659 92.9413L122.483 77.5907L121.648 79.8355L154.823 95.1861L155.659 92.9413Z" fill="#263238"/>
<path d="M153.515 98.7169L120.339 83.3663L119.503 85.6111L152.679 100.962L153.515 98.7169Z" fill="#263238" fill-opacity="0.12"/>
<path d="M151.367 104.481L118.191 89.1305L117.356 91.3753L150.531 106.726L151.367 104.481Z" fill="#263238"/>
<path d="M156.741 115.292L147.679 139.632C147.345 140.529 146.705 141.242 145.9 141.613C145.095 141.984 144.19 141.984 143.386 141.612L112.266 127.202C114.192 124.595 116.833 122.764 119.783 121.99C124.342 120.861 129.551 122.237 133.444 119.376C136.592 117.074 138.133 112.446 141.592 110.793C143.337 109.956 145.321 110.011 147.182 110.422C150.641 111.273 153.899 112.934 156.741 115.292V115.292Z" fill="#EECADD" stroke="#263238" stroke-width="0.851631" stroke-miterlimit="10"/>
<path d="M136.064 35.241C134.86 36.231 134.079 37.716 133.4 39.201C131.854 42.7155 130.833 46.4973 129.266 50.0019C127.699 53.5065 125.456 56.828 122.273 58.4813C121.383 58.9378 120.432 59.2319 119.458 59.3525L131.357 27.4299C131.522 26.9852 131.764 26.5811 132.069 26.2408C132.374 25.9005 132.737 25.6307 133.135 25.4467C133.534 25.2628 133.962 25.1684 134.393 25.1689C134.825 25.1695 135.252 25.265 135.651 25.4499L143.247 28.9644C142.639 32.0037 138.461 33.3105 136.064 35.241Z" fill="#EECADD" stroke="#263238" stroke-width="0.851631" stroke-miterlimit="10"/>
<path opacity="0.1" d="M168.725 52.7541L167.14 57.0161C166.91 57.633 166.47 58.1229 165.916 58.3782C165.362 58.6334 164.741 58.6331 164.187 58.3773L138.089 46.2993C137.635 46.09 137.255 45.7217 137.006 45.2501C136.757 44.7786 136.652 44.2295 136.708 43.6857C138.071 43.6857 139.754 44.9826 140.873 45.4925C142.693 46.3241 144.528 47.1045 146.378 47.8338C152.19 50.1356 158.57 51.9522 164.462 49.898C165.155 49.6627 165.825 49.3544 166.465 48.9773L167.508 49.4723C168.059 49.7284 168.497 50.2177 168.725 50.8329C168.953 51.4481 168.953 52.139 168.725 52.7541V52.7541Z" fill="black"/>
<path d="M168.725 52.7541L167.14 57.0161C166.91 57.633 166.47 58.1229 165.916 58.3781C165.363 58.6334 164.741 58.6331 164.187 58.3773L138.089 46.2993C137.635 46.09 137.255 45.7217 137.006 45.2501C136.757 44.7786 136.652 44.2294 136.708 43.6857C136.731 43.4522 136.785 43.2237 136.868 43.0076L138.453 38.7456C138.567 38.4396 138.733 38.1615 138.944 37.9274C139.154 37.6933 139.403 37.5077 139.678 37.3813C139.953 37.2548 140.247 37.19 140.544 37.1906C140.841 37.1911 141.136 37.2569 141.41 37.3844L167.508 49.4624C167.782 49.5891 168.031 49.7749 168.241 50.0091C168.45 50.2432 168.616 50.5211 168.729 50.8269C168.842 51.1327 168.9 51.4603 168.899 51.791C168.898 52.1217 168.839 52.449 168.725 52.7541V52.7541Z" stroke="#263238" stroke-width="0.851631" stroke-miterlimit="10"/>
<path d="M64.1981 60.8786C65.6189 61.9478 67.2129 62.7794 68.4028 64.1555C69.7733 65.8308 70.5608 67.9975 70.6228 70.2638C70.6695 72.514 70.2976 74.7505 69.5306 76.8325C69.166 78.1005 68.5324 79.2518 67.6835 80.1886C66.8116 80.9822 65.7669 81.5048 64.6555 81.7033C62.4951 82.1488 60.2698 81.9993 58.1731 81.2677C56.3028 80.7035 54.5956 79.6086 53.218 78.0898C52.1844 76.8153 51.3634 75.3451 50.7938 73.7486C49.8356 71.3166 49.2229 68.7331 48.9778 66.091C48.8254 63.534 48.8685 60.9673 49.1066 58.4185L49.5506 52.0973C49.6305 50.9489 49.5106 47.974 50.8115 47.4988C51.886 47.1077 53.551 49.0976 54.2747 49.8203C56.5347 52.0874 58.3817 54.805 60.4907 57.2453C61.6062 58.6011 62.8491 59.8192 64.1981 60.8786Z" fill="#263238"/>
<path d="M58.0625 70.2836C58.0625 70.2836 63.3505 70.7192 66.0278 68.8629C68.7052 67.0067 74.7746 74.5703 74.7746 74.5703L72.6834 114.141C72.6834 114.141 67.3554 115.398 64.0831 113.646C60.8109 111.893 59.1991 111.987 58.3955 109.898C57.5918 107.81 57.5963 104.335 54.2041 101.315C50.812 98.2956 50.8075 96.7215 49.7641 94.8158C48.7207 92.91 45.3241 90.2519 45.0844 88.1432C44.8446 86.0345 45.2043 80.7182 45.2043 80.7182L51.6822 75.09C51.6822 75.09 53.2673 68.8629 58.0625 70.2836Z" fill="#C75491" fill-opacity="0.62"/>
<path opacity="0.1" d="M62.2002 75.9117C62.406 78.5146 62.8965 81.0796 63.661 83.5496C60.8402 83.6344 58.0803 84.4838 55.6201 86.0246C57.5084 89.2183 59.8561 92.043 62.5687 94.3851C63.2018 93.4864 64.0891 92.8531 65.0862 92.5883C65.4725 92.4843 65.8676 92.4447 66.2406 92.3012C66.5929 92.1605 66.9273 91.9691 67.2352 91.7319C68.9703 90.4479 70.4047 88.7199 71.4189 86.692C72.433 84.6641 72.9974 82.3952 73.0649 80.0747C73.0679 77.3349 72.5218 74.629 71.4665 72.1547C70.6406 70.1302 69.3841 68.066 67.4705 67.5265C66.4381 67.3033 65.3731 67.3559 64.3625 67.6799C63.5722 67.8779 62.4089 68.0462 61.6985 68.5412C60.624 69.3085 60.9259 69.0362 61.2811 70.3727C61.7625 72.1776 62.0705 74.0343 62.2002 75.9117V75.9117Z" fill="black"/>
<path d="M54.5775 51.2162C54.5775 51.2162 57.3747 56.6068 58.1916 59.2352C58.788 61.3786 58.9398 63.645 58.6356 65.8633C58.8419 67.2952 59.2717 68.6757 59.9055 69.9421L61.6193 70.2787C61.6193 70.2787 63.9947 75.8375 64.1368 84.0347C64.1368 84.0347 60.0875 78.3224 57.2814 76.8275C54.4753 75.3326 55.0614 75.496 55.0614 75.496C55.0614 75.496 52.7704 70.9915 51.5716 69.6154C50.3728 68.2393 45.1913 72.7289 45.1913 72.7289L39.7656 63.1309L42.4296 57.5374L46.0438 54.414L49.5736 51.2162H54.5775Z" fill="white"/>
<path d="M64.5979 113.656C64.5979 113.656 61.1125 126.674 64.5979 140.267C68.0833 153.859 64.7755 162.22 72.4389 179.119C72.4389 179.119 76.0265 182.421 78.504 177.565C78.504 177.565 77.798 158.72 76.5992 154.255C75.4004 149.791 80.5464 140.034 78.8459 130.733C77.707 124.813 75.9066 119.076 73.4868 113.656C73.4868 113.656 67.737 115.017 64.5979 113.656Z" fill="#263238"/>
<path d="M81.7539 145.489C81.7539 145.489 84.3069 164.398 87.4948 171.511C87.4948 171.511 91.1934 174.481 93.4888 170.655C93.4888 170.655 93.7464 139.232 91.4464 136.817C89.1465 134.401 81.7539 145.489 81.7539 145.489Z" fill="#263238"/>
<path d="M121.696 22.036L136.792 133.277C136.867 133.832 136.844 134.397 136.723 134.941C136.602 135.485 136.386 135.997 136.087 136.448C135.789 136.899 135.413 137.28 134.983 137.569C134.552 137.858 134.075 138.05 133.578 138.133L79.4097 147.261C78.9127 147.347 78.4054 147.322 77.9171 147.188C77.4287 147.055 76.9689 146.814 76.564 146.482C76.1592 146.149 75.8174 145.731 75.5583 145.25C75.2991 144.77 75.1277 144.237 75.054 143.682L59.958 32.4458C59.8064 31.3268 60.0593 30.1864 60.6612 29.275C61.263 28.3637 62.1647 27.7558 63.1682 27.5849L117.336 18.4571C118.089 18.3302 118.859 18.4564 119.547 18.8197C120.235 19.183 120.81 19.7668 121.199 20.4965C121.454 20.9681 121.623 21.4913 121.696 22.036Z" fill="white"/>
<path d="M117.121 29.8787L110.026 31.0748L110.119 31.7551L117.213 30.559L117.121 29.8787Z" fill="#263238"/>
<path d="M116.857 27.9247L109.763 29.1209L109.855 29.8012L116.949 28.6051L116.857 27.9247Z" fill="#263238"/>
<path d="M116.725 25.9782L109.622 27.1781L109.715 27.8593L116.818 26.6594L116.725 25.9782Z" fill="#263238"/>
<path d="M120.231 102.37L120.951 107.676C121.002 108.058 120.986 108.447 120.902 108.822C120.818 109.197 120.669 109.55 120.463 109.86C120.256 110.171 119.997 110.433 119.7 110.631C119.403 110.83 119.073 110.961 118.731 111.017L86.2076 116.497C85.5158 116.612 84.8113 116.415 84.2493 115.951C83.6873 115.487 83.3136 114.793 83.2106 114.022L82.4913 108.71C82.4397 108.328 82.4562 107.939 82.5399 107.564C82.6236 107.189 82.7729 106.836 82.9791 106.526C83.1854 106.216 83.4445 105.954 83.7418 105.755C84.039 105.557 84.3685 105.425 84.7113 105.369L117.23 99.8896C117.573 99.8314 117.923 99.8494 118.26 99.9428C118.597 100.036 118.914 100.203 119.193 100.433C119.472 100.664 119.708 100.954 119.886 101.286C120.064 101.618 120.181 101.986 120.231 102.37Z" fill="#C75491" fill-opacity="0.62"/>
<path d="M96.3135 107.542L95.8117 110.819L95.2567 110.913L94.2533 108.72L93.8626 111.151L93.3076 111.245L91.9756 108.275L92.5128 108.181L93.5296 110.438L93.9336 107.963L94.4131 107.879L95.4255 110.131L95.8206 107.626L96.3135 107.542Z" fill="#263238"/>
<path d="M98.8257 109.28L97.1518 109.562C97.208 109.729 97.3171 109.868 97.4586 109.952C97.6 110.035 97.7641 110.059 97.9199 110.017C98.0285 110.003 98.1331 109.963 98.2272 109.901C98.3212 109.839 98.4026 109.755 98.466 109.656L98.7813 109.958C98.6426 110.163 98.4547 110.32 98.2392 110.411C98.0238 110.501 97.7896 110.522 97.5641 110.47C97.3386 110.418 97.1308 110.296 96.9651 110.118C96.7994 109.939 96.6824 109.712 96.6279 109.463C96.6014 109.301 96.605 109.135 96.6384 108.975C96.6719 108.816 96.7345 108.665 96.8223 108.533C96.9102 108.401 97.0214 108.291 97.1491 108.209C97.2769 108.127 97.4183 108.075 97.5647 108.057C97.7093 108.027 97.858 108.03 98.0012 108.068C98.1444 108.105 98.2791 108.176 98.3965 108.274C98.514 108.373 98.6116 108.498 98.6832 108.642C98.7548 108.785 98.7988 108.943 98.8123 109.107C98.8168 109.156 98.8212 109.225 98.8257 109.28ZM97.0941 109.191L98.3062 108.988C98.2721 108.823 98.1824 108.68 98.0558 108.588C97.9292 108.496 97.7755 108.462 97.6269 108.493C97.4754 108.513 97.3363 108.596 97.2375 108.725C97.1386 108.854 97.0874 109.021 97.0941 109.191V109.191Z" fill="#263238"/>
<path d="M99.0039 106.914L99.5056 106.829L99.9496 110.141L99.4479 110.225L99.0039 106.914Z" fill="#263238"/>
<path d="M100.269 108.854C100.245 108.687 100.252 108.517 100.289 108.353C100.327 108.189 100.395 108.036 100.488 107.903C100.582 107.77 100.699 107.66 100.832 107.58C100.966 107.5 101.113 107.452 101.264 107.438C101.445 107.394 101.634 107.408 101.809 107.479C101.984 107.55 102.136 107.675 102.249 107.839L101.899 108.156C101.83 108.062 101.741 107.991 101.639 107.948C101.538 107.905 101.428 107.893 101.321 107.914C101.153 107.953 101.004 108.064 100.906 108.222C100.808 108.38 100.768 108.574 100.795 108.764C100.821 108.954 100.911 109.125 101.047 109.243C101.183 109.361 101.354 109.417 101.526 109.399C101.633 109.383 101.734 109.336 101.819 109.262C101.904 109.188 101.97 109.09 102.01 108.978L102.427 109.161C102.363 109.356 102.251 109.527 102.103 109.653C101.955 109.78 101.778 109.856 101.592 109.874C101.445 109.91 101.292 109.912 101.144 109.88C100.996 109.848 100.855 109.782 100.731 109.686C100.607 109.59 100.502 109.467 100.422 109.324C100.343 109.181 100.291 109.021 100.269 108.854Z" fill="#263238"/>
<path d="M102.565 108.468C102.522 108.217 102.548 107.957 102.639 107.722C102.73 107.488 102.881 107.288 103.074 107.15C103.267 107.012 103.493 106.942 103.722 106.948C103.951 106.954 104.174 107.036 104.361 107.184C104.548 107.332 104.691 107.539 104.771 107.778C104.852 108.018 104.867 108.278 104.813 108.527C104.76 108.776 104.642 109.001 104.473 109.174C104.304 109.347 104.093 109.459 103.866 109.497C103.719 109.532 103.568 109.532 103.421 109.498C103.275 109.463 103.136 109.396 103.014 109.299C102.892 109.203 102.789 109.079 102.712 108.936C102.634 108.793 102.584 108.633 102.565 108.468ZM104.341 108.166C104.316 108.028 104.256 107.902 104.167 107.802C104.078 107.702 103.966 107.634 103.842 107.605C103.719 107.576 103.591 107.588 103.474 107.639C103.357 107.691 103.256 107.779 103.183 107.894C103.111 108.009 103.07 108.145 103.066 108.285C103.062 108.426 103.096 108.564 103.162 108.684C103.228 108.803 103.324 108.899 103.438 108.958C103.552 109.017 103.679 109.038 103.804 109.017C103.891 109.005 103.975 108.973 104.05 108.922C104.125 108.872 104.19 108.804 104.24 108.724C104.291 108.644 104.325 108.553 104.342 108.456C104.358 108.36 104.356 108.261 104.337 108.166H104.341Z" fill="#263238"/>
<path d="M108.869 107.225L109.051 108.592L108.554 108.676L108.376 107.384C108.319 106.958 108.114 106.785 107.813 106.834C107.511 106.884 107.289 107.166 107.369 107.641L107.533 108.849L107.036 108.933L106.858 107.641C106.8 107.216 106.596 107.042 106.294 107.092C105.992 107.141 105.77 107.428 105.85 107.899L106.01 109.106L105.513 109.191L105.188 106.81L105.664 106.73L105.708 107.032C105.78 106.909 105.876 106.804 105.989 106.727C106.102 106.65 106.229 106.602 106.361 106.587C106.5 106.553 106.645 106.56 106.781 106.609C106.916 106.658 107.038 106.746 107.133 106.864C107.213 106.718 107.322 106.594 107.451 106.502C107.581 106.409 107.727 106.35 107.879 106.33C107.998 106.304 108.121 106.308 108.239 106.342C108.357 106.375 108.466 106.436 108.561 106.521C108.655 106.607 108.731 106.714 108.785 106.835C108.838 106.957 108.867 107.09 108.869 107.225V107.225Z" fill="#263238"/>
<path d="M111.578 107.131L109.9 107.414C109.956 107.581 110.065 107.719 110.207 107.802C110.349 107.885 110.513 107.907 110.668 107.864C110.776 107.852 110.881 107.813 110.976 107.752C111.07 107.69 111.151 107.607 111.214 107.508L111.529 107.81C111.391 108.015 111.203 108.172 110.987 108.262C110.772 108.353 110.538 108.373 110.312 108.322C110.087 108.27 109.879 108.148 109.713 107.969C109.547 107.791 109.43 107.564 109.376 107.315C109.349 107.153 109.353 106.986 109.387 106.826C109.421 106.666 109.484 106.515 109.572 106.383C109.66 106.251 109.772 106.141 109.9 106.059C110.028 105.978 110.17 105.926 110.317 105.909C110.461 105.878 110.61 105.882 110.753 105.92C110.896 105.957 111.03 106.027 111.147 106.126C111.264 106.225 111.362 106.35 111.433 106.493C111.504 106.637 111.547 106.795 111.56 106.958C111.569 107.015 111.575 107.073 111.578 107.131V107.131ZM109.846 107.042L111.059 106.839C111.013 106.684 110.919 106.551 110.794 106.465C110.669 106.38 110.521 106.346 110.376 106.37C110.23 106.394 110.098 106.475 110.001 106.598C109.904 106.721 109.849 106.879 109.846 107.042Z" fill="#263238"/>
<path d="M129.437 118.491L78.4697 127.1L78.6076 128.114L129.575 119.505L129.437 118.491Z" fill="#263238"/>
<path d="M129.619 121.129L78.7158 129.712L78.8533 130.725L129.756 122.142L129.619 121.129Z" fill="#263238"/>
<path d="M129.998 123.886L79.0947 132.469L79.2322 133.482L130.135 124.9L129.998 123.886Z" fill="#263238"/>
<path d="M130.566 126.783L79.5986 135.393L79.7365 136.407L130.703 127.798L130.566 126.783Z" fill="#263238"/>
<path opacity="0.1" d="M120.232 102.37L120.951 107.676C121.003 108.058 120.986 108.447 120.902 108.822C120.819 109.197 120.669 109.55 120.463 109.86C120.257 110.171 119.998 110.433 119.7 110.631C119.403 110.83 119.074 110.961 118.731 111.017L86.2079 116.497C85.5161 116.612 84.8117 116.415 84.2497 115.951C83.6876 115.487 83.314 114.793 83.2109 114.022V113.962C89.1961 114.037 110.091 113.324 116.808 99.9589L117.226 99.8896C117.569 99.8307 117.92 99.8482 118.258 99.9412C118.595 100.034 118.913 100.201 119.192 100.431C119.472 100.662 119.707 100.952 119.886 101.285C120.064 101.617 120.182 101.986 120.232 102.37V102.37Z" fill="black"/>
<path d="M120.231 102.37L120.951 107.676C121.002 108.058 120.986 108.447 120.902 108.822C120.818 109.197 120.669 109.55 120.463 109.86C120.256 110.171 119.997 110.433 119.7 110.631C119.403 110.83 119.073 110.961 118.731 111.017L86.2076 116.497C85.5158 116.612 84.8113 116.415 84.2493 115.951C83.6873 115.487 83.3136 114.793 83.2106 114.022L82.4913 108.71C82.4397 108.328 82.4562 107.939 82.5399 107.564C82.6236 107.189 82.7729 106.836 82.9791 106.526C83.1854 106.216 83.4445 105.954 83.7418 105.755C84.039 105.557 84.3685 105.425 84.7113 105.369L117.23 99.8896C117.573 99.8314 117.923 99.8494 118.26 99.9428C118.597 100.036 118.914 100.203 119.193 100.433C119.472 100.664 119.708 100.954 119.886 101.286C120.064 101.618 120.181 101.986 120.231 102.37Z" stroke="#263238" stroke-width="0.851631" stroke-linecap="round" stroke-linejoin="round"/>
<path d="M96.8056 94.2119C96.8298 94.3848 96.8072 94.5618 96.7407 94.7203C96.6743 94.8788 96.5671 95.0117 96.4327 95.102C96.2983 95.1923 96.1428 95.236 95.986 95.2274C95.8293 95.2189 95.6784 95.1585 95.5525 95.0539C95.4267 94.9494 95.3316 94.8055 95.2794 94.6405C95.2272 94.4755 95.2202 94.2969 95.2594 94.1275C95.2985 93.9581 95.3821 93.8055 95.4993 93.6892C95.6165 93.5729 95.7621 93.4981 95.9176 93.4744C96.123 93.4418 96.3316 93.501 96.4979 93.6392C96.6643 93.7773 96.7749 93.9832 96.8056 94.2119Z" fill="#263238"/>
<path d="M100.531 93.5833C100.554 93.7549 100.531 93.9303 100.464 94.0873C100.398 94.2442 100.291 94.3756 100.157 94.4648C100.024 94.554 99.8696 94.5969 99.7141 94.5882C99.5586 94.5794 99.409 94.5194 99.2841 94.4157C99.1593 94.312 99.0649 94.1693 99.0129 94.0058C98.9609 93.8422 98.9537 93.665 98.9921 93.4969C99.0305 93.3287 99.1129 93.177 99.2287 93.0611C99.3446 92.9451 99.4887 92.8702 99.6429 92.8457C99.8482 92.8131 100.057 92.8724 100.223 93.0105C100.39 93.1487 100.5 93.3546 100.531 93.5833V93.5833Z" fill="#263238"/>
<path d="M104.261 92.9547C104.285 93.1275 104.262 93.3045 104.196 93.463C104.129 93.6215 104.022 93.7544 103.888 93.8447C103.753 93.935 103.598 93.9787 103.441 93.9701C103.284 93.9616 103.133 93.9012 103.008 93.7967C102.882 93.6921 102.787 93.5482 102.734 93.3832C102.682 93.2182 102.675 93.0397 102.714 92.8702C102.754 92.7008 102.837 92.5482 102.954 92.4319C103.072 92.3156 103.217 92.2408 103.373 92.2171C103.578 92.1858 103.786 92.2456 103.952 92.3835C104.118 92.5214 104.229 92.7265 104.261 92.9547V92.9547Z" fill="#263238"/>
<path d="M92.0549 30.1053L67.4134 34.26C66.5066 34.4129 65.8827 35.3564 66.0198 36.3674L66.0995 36.9547C66.2366 37.9656 67.0829 38.6612 67.9897 38.5083L92.6312 34.3536C93.538 34.2007 94.1619 33.2572 94.0248 32.2463L93.9451 31.6589C93.8079 30.648 92.9617 29.9524 92.0549 30.1053Z" fill="white" stroke="#263238" stroke-width="0.851631" stroke-miterlimit="10"/>
<path d="M68.6743 37.3562L68.3857 35.2376" stroke="#263238" stroke-width="0.851631" stroke-linecap="round" stroke-linejoin="round"/>
<path d="M118.185 37.7217L67.3652 46.2903L73.9183 94.5975L124.738 86.0289L118.185 37.7217Z" fill="#C75491" fill-opacity="0.62"/>
<path opacity="0.5" d="M118.185 37.7217L67.3652 46.2903L73.9183 94.5975L124.738 86.0289L118.185 37.7217Z" fill="white"/>
<path d="M118.185 37.7217L67.3652 46.2903L73.9183 94.5975L124.738 86.0289L118.185 37.7217Z" stroke="#263238" stroke-width="0.851631" stroke-miterlimit="10"/>
<path d="M114.472 53.529C116.086 51.0585 115.598 47.597 113.382 45.7975C111.166 43.9979 108.061 44.5419 106.447 47.0123C104.833 49.4828 105.321 52.9443 107.537 54.7439C109.753 56.5434 112.858 55.9995 114.472 53.529Z" fill="#C75491" fill-opacity="0.62" stroke="#263238" stroke-width="0.851631" stroke-miterlimit="10"/>
<path d="M121.097 59.2352L124.729 86.0395L73.909 94.603L71.6357 77.8423C73.1897 73.8823 75.503 69.3233 78.2025 67.9918C83.2153 65.5168 88.3701 81.9854 97.8761 79.2976C107.382 76.6097 109.163 59.354 121.097 59.2352Z" fill="#C75491" fill-opacity="0.62"/>
<path opacity="0.1" d="M121.097 59.2352L124.729 86.0395L73.909 94.603L71.6357 77.8423C73.1897 73.8823 75.503 69.3233 78.2025 67.9918C83.2153 65.5168 88.3701 81.9854 97.8761 79.2976C107.382 76.6097 109.163 59.354 121.097 59.2352Z" fill="black"/>
<path d="M121.097 59.2352L124.729 86.0395L73.909 94.603L71.6357 77.8423C73.1897 73.8823 75.503 69.3233 78.2025 67.9918C83.2153 65.5168 88.3701 81.9854 97.8761 79.2976C107.382 76.6097 109.163 59.354 121.097 59.2352Z" stroke="#263238" stroke-width="0.851631" stroke-miterlimit="10"/>
<path opacity="0.1" d="M121.697 22.036L136.793 133.277C136.868 133.831 136.844 134.397 136.723 134.941C136.602 135.485 136.386 135.997 136.088 136.448C135.789 136.899 135.414 137.28 134.983 137.569C134.553 137.858 134.075 138.05 133.578 138.133L79.4101 147.261C78.4216 147.432 77.4125 147.164 76.5996 146.514C88.672 134.579 126.727 91.0093 121.204 20.4866C121.459 20.9616 121.626 21.4882 121.697 22.036V22.036Z" fill="black"/>
<path d="M121.696 22.036L136.792 133.277C136.867 133.832 136.844 134.397 136.723 134.941C136.602 135.485 136.386 135.997 136.087 136.448C135.789 136.899 135.413 137.28 134.983 137.569C134.552 137.858 134.075 138.05 133.578 138.133L79.4097 147.261C78.9127 147.347 78.4054 147.322 77.9171 147.188C77.4287 147.055 76.9689 146.814 76.564 146.482C76.1592 146.149 75.8174 145.731 75.5583 145.25C75.2991 144.77 75.1277 144.237 75.054 143.682L59.958 32.4458C59.8064 31.3268 60.0593 30.1864 60.6612 29.275C61.263 28.3637 62.1647 27.7558 63.1682 27.5849L117.336 18.4571C118.089 18.3302 118.859 18.4564 119.547 18.8197C120.235 19.183 120.81 19.7668 121.199 20.4965C121.454 20.9681 121.623 21.4913 121.696 22.036Z" stroke="#263238" stroke-width="0.851631" stroke-miterlimit="10"/>
<path d="M55.1455 52.127C55.1455 52.127 58.0803 58.562 58.8129 60.9281C59.5455 63.2942 58.8129 67.1701 56.957 68.9224C55.1011 70.6747 53.0453 70.5657 50.741 69.2985C49.1363 68.366 47.5985 67.2969 46.1411 66.1009C45.9804 66.0995 45.8199 66.1145 45.6616 66.1454C45.2176 66.1454 43.4416 65.3683 42.82 64.1209C41.3237 61.0172 44.6315 62.1409 45.2975 62.6359" stroke="#263238" stroke-width="0.851631" stroke-linecap="round" stroke-linejoin="round"/>
<path d="M54.5771 58.7303C54.8873 59.5302 55.4074 60.2067 56.069 60.6707C56.3627 60.8136 56.6149 61.0451 56.7971 61.339C56.8597 61.5121 56.8807 61.7003 56.8581 61.8852C56.8355 62.0701 56.7701 62.2452 56.6684 62.3933C56.4587 62.6898 56.2012 62.9399 55.9091 63.1309" stroke="#263238" stroke-width="0.851631" stroke-linecap="round" stroke-linejoin="round"/>
<path d="M53.3379 65.6059C53.6691 65.7639 54.0255 65.8453 54.3857 65.8453C54.7459 65.8453 55.1024 65.7639 55.4336 65.6059" stroke="#263238" stroke-width="0.851631" stroke-linecap="round" stroke-linejoin="round"/>
<path d="M52.6724 60.4925C52.8544 60.9232 52.8677 61.3439 52.7034 61.433C52.5392 61.5221 52.2595 61.2449 52.0641 60.8093C51.8687 60.3737 51.8687 59.9579 52.0375 59.8688C52.2062 59.7797 52.4903 60.0569 52.6724 60.4925Z" fill="#263238"/>
<path d="M56.0555 57.9532C56.2376 58.3838 56.2509 58.8095 56.0822 58.8937C55.9135 58.9778 55.6382 58.7056 55.4473 58.2749C55.2563 57.8443 55.2519 57.4186 55.4206 57.3295C55.5893 57.2404 55.8735 57.5225 56.0555 57.9532Z" fill="#263238"/>
<path d="M51.6774 58.0027C51.6774 58.0027 50.2788 58.0027 49.9414 59.8985" stroke="#263238" stroke-width="0.851631" stroke-linecap="round" stroke-linejoin="round"/>
<path d="M54.1777 56.3246C54.1777 56.3246 54.6795 55.0723 55.6163 55.8296" stroke="#263238" stroke-width="0.851631" stroke-linecap="round" stroke-linejoin="round"/>
<path d="M45.0399 62.4824C45.1198 62.5468 49.3111 60.0668 49.804 53.0329C49.804 53.0329 52.206 55.0822 56.1265 53.3744C56.1265 53.3744 52.9031 45.9494 48.1834 46.9939C43.4637 48.0383 39.3522 51.4736 39.1924 57.6562C39.0814 62.0369 39.925 66.3979 39.925 70.7786C39.9961 73.0075 39.7564 75.2351 39.2146 77.3819C38.2156 80.9509 35.9601 83.3219 36.9324 87.376C37.6473 90.346 40.0404 93.811 42.882 93.3952C44.0897 93.217 46.878 92.4349 47.322 91.8112C46.6096 90.7199 46.1201 89.4679 45.8879 88.1432C45.697 84.5297 46.4296 83.1536 46.4296 83.1536L53.9421 73.4764L51.8508 69.8233L46.141 66.1009C46.141 66.1009 43.77 66.4078 42.4691 63.1309C42.216 61.1855 45.0399 62.4824 45.0399 62.4824Z" fill="#263238"/>
<path d="M62.7417 94.8208C62.7417 94.8208 57.0185 89.9401 54.4922 84.5297" stroke="#263238" stroke-width="0.851631" stroke-linecap="round" stroke-linejoin="round"/>
<path d="M66.0278 92.8012C65.8768 92.3458 65.2818 92.3062 64.9044 92.5438C64.5612 92.8496 64.2363 93.1803 63.9321 93.5338C63.6561 93.7231 63.3974 93.9419 63.1595 94.1872C62.9499 94.5115 62.8226 94.8928 62.791 95.291C62.5351 96.9536 62.5141 98.6505 62.7288 100.32" stroke="#263238" stroke-width="0.851631" stroke-linecap="round" stroke-linejoin="round"/>
<path d="M60.9932 100.305C61.1163 99.0133 61.4017 97.7469 61.8412 96.5434" stroke="#263238" stroke-width="0.851631" stroke-linecap="round" stroke-linejoin="round"/>
<path d="M68.3856 101.746C68.5016 101.868 68.594 102.014 68.6572 102.177C68.7204 102.34 68.753 102.516 68.753 102.694C68.753 102.871 68.7204 103.047 68.6572 103.21C68.594 103.373 68.5016 103.52 68.3856 103.642C68.1912 103.802 67.9864 103.946 67.7729 104.072C67.1424 104.528 66.8005 105.345 66.2278 105.884C65.4375 106.627 64.1188 106.686 63.4217 105.835C62.8401 105.112 62.6935 103.587 62.7246 102.617" stroke="#263238" stroke-width="0.851631" stroke-linecap="round" stroke-linejoin="round"/>
<path d="M63.1021 105.874C59.377 106.369 47.3401 91.8161 47.3401 91.8161C45.5419 89.3411 45.5064 85.5841 46.8473 82.7774C48.1305 80.0896 50.6613 78.4066 52.1442 75.8474" stroke="#263238" stroke-width="0.851631" stroke-linecap="round" stroke-linejoin="round"/>
<path d="M52.1748 70.1252C53.2544 71.5353 54.0453 73.1907 54.4925 74.9762" stroke="#263238" stroke-width="0.851631" stroke-linecap="round" stroke-linejoin="round"/>
<path d="M58.666 65.8633C58.6734 66.8428 58.8622 67.81 59.2205 68.7044C59.5788 69.5987 60.099 70.401 60.7484 71.0608" stroke="#263238" stroke-width="0.851631" stroke-linecap="round" stroke-linejoin="round"/>
<path d="M52.8857 74.3723C51.9977 75.397 52.3751 77.5354 53.4896 78.2333C54.604 78.9313 56.1536 78.3175 57.4856 78.6739C57.6686 78.7115 57.8389 78.8039 57.9784 78.9412C58.1754 79.2388 58.2656 79.6078 58.2315 79.9757C58.2315 80.7529 58.3691 81.629 58.9419 82.0745C59.3183 82.3001 59.7296 82.4445 60.154 82.5002C62.4228 83.0893 63.9502 84.6386 65.1046 86.8958" stroke="#263238" stroke-width="0.851631" stroke-linecap="round" stroke-linejoin="round"/>
<path d="M54.2041 75.1049C56.8054 76.2791 59.1585 78.045 61.1133 80.29C63.0681 82.5349 64.5816 85.2096 65.5572 88.1432" stroke="#263238" stroke-width="0.851631" stroke-linecap="round" stroke-linejoin="round"/>
<path d="M49.5156 94.4247C50.8476 99.2361 55.7005 101.582 57.2057 106.305C57.592 107.513 57.7474 108.834 58.3956 109.889C59.2259 111.235 60.6822 111.869 62.0542 112.458C62.9866 112.854 64.0699 113.73 65.0023 114.121" stroke="#263238" stroke-width="0.851631" stroke-linecap="round" stroke-linejoin="round"/>
<path d="M69.3622 114.373C68.19 114.21 67.2798 113.18 66.5516 112.146C65.8235 111.111 65.1353 109.968 64.083 109.374" stroke="#263238" stroke-width="0.851631" stroke-linecap="round" stroke-linejoin="round"/>
<path d="M59.9717 70.0806C61.5308 70.4239 63.1454 70.2624 64.6248 69.6154" stroke="#263238" stroke-width="0.851631" stroke-linecap="round" stroke-linejoin="round"/>
<path d="M61.7744 70.2836C63.0531 74.6248 64.3851 79.9114 64.0921 84.5347" stroke="#263238" stroke-width="0.851631" stroke-linecap="round" stroke-linejoin="round"/>
<path d="M65.1084 93.6427C65.1084 93.6427 65.286 99.5827 67.617 102.112C67.617 102.112 73.389 95.7613 75.8221 91.831C78.2553 87.9007 81.0125 83.2427 81.8117 79.9856C82.6109 76.7285 80.5729 75.8474 80.5729 75.8474C80.5729 75.8474 79.9602 73.9961 79.3342 74.204C78.7081 74.4119 77.6692 77.8126 77.6692 77.8126C77.6692 77.8126 77.0209 76.0603 75.7289 78.6145C74.4368 81.1687 73.8197 82.3418 74.7077 84.6634L69.6372 90.1777L65.1084 93.6427Z" fill="white"/>
<path d="M76.9499 79.9509C76.9499 79.9509 78.0466 76.575 76.9499 77.3027C75.8532 78.0303 74.8231 80.0252 74.4368 81.1736C74.0506 82.322 74.7077 84.6633 74.7077 84.6633C71.9682 88.7372 67.6747 91.8854 65.1084 93.6426" stroke="#263238" stroke-width="0.851631" stroke-linecap="round" stroke-linejoin="round"/>
<path d="M77.0877 79.4906C77.0877 79.4906 78.6284 74.7782 79.3343 74.204C80.0403 73.6298 80.0447 75.496 80.0447 75.496C80.0447 75.496 81.1414 76.085 81.3323 76.7978C81.5233 77.5106 82.0428 78.0403 81.914 79.4956C81.7852 80.9509 78.5041 87.4156 78.5041 87.4156C77.4296 89.9549 71.9329 97.4987 67.6172 102.102" stroke="#263238" stroke-width="0.851631" stroke-linecap="round" stroke-linejoin="round"/>
<path d="M80.0449 75.496C79.9394 76.4348 79.7823 77.3655 79.5742 78.2828" stroke="#263238" stroke-width="0.851631" stroke-linecap="round" stroke-linejoin="round"/>
<path d="M65.2333 93.4843C65.1347 93.5869 65.0607 93.7153 65.018 93.858C64.9754 94.0007 64.9654 94.153 64.9891 94.301C65.0745 97.4475 66.1334 100.464 67.9861 102.84" stroke="#263238" stroke-width="0.851631" stroke-linecap="round" stroke-linejoin="round"/>
<path opacity="0.2" d="M41.8652 63.9427C42.7201 67.4569 42.9865 71.1167 42.6511 74.7386C42.3936 77.5205 41.7631 80.2727 41.8608 83.0695C41.9585 85.8662 42.8864 88.8362 45.0132 90.3212" stroke="white" stroke-width="0.851631" stroke-linecap="round" stroke-linejoin="round"/>
<path opacity="0.2" d="M43.8672 59.9282C45.2441 57.223 46.4173 54.3951 47.3748 51.4736" stroke="white" stroke-width="0.851631" stroke-linecap="round" stroke-linejoin="round"/>
<path opacity="0.2" d="M42.2871 59.453C43.3749 56.5573 43.144 53.2457 44.0276 50.2658" stroke="white" stroke-width="0.851631" stroke-linecap="round" stroke-linejoin="round"/>
<path d="M53.0537 70.1648C53.0537 70.1648 56.0241 71.7241 57.5159 71.0608C59.0077 70.3975 58.3817 66.685 58.3817 66.685C58.3817 66.685 56.8854 70.8578 53.0537 70.1648Z" fill="#263238"/>
</g>
<defs>
<clipPath id="clip0">
<rect width="222" height="135" fill="white"/>
</clipPath>
</defs>
</svg>
