<svg width="434" height="334" viewBox="0 0 434 334" fill="none" xmlns="http://www.w3.org/2000/svg">
<path d="M434 293.002H0V293.225H434V293.002Z" fill="#E0E0E0"/>
<path d="M368.127 305.557H358.918V305.781H368.127V305.557Z" fill="#E0E0E0"/>
<path d="M352.547 305.665H315.093V305.889H352.547V305.665Z" fill="#E0E0E0"/>
<path d="M268.794 303.535H205.586V303.759H268.794V303.535Z" fill="#E0E0E0"/>
<path d="M169.225 307.419H149.166V307.643H169.225V307.419Z" fill="#E0E0E0"/>
<path d="M102.381 303.642H74.7617V303.866H102.381V303.642Z" fill="#E0E0E0"/>
<path d="M133.014 303.642H107.199V303.866H133.014V303.642Z" fill="#E0E0E0"/>
<path d="M83.0325 299.731H56.6714V299.955H83.0325V299.731Z" fill="#E0E0E0"/>
<path d="M205.716 253.087H38.1141C36.8011 253.085 35.5427 252.546 34.6151 251.588C33.6875 250.63 33.1665 249.331 33.1665 247.977V5.06533C33.1779 3.71937 33.704 2.43241 34.6303 1.484C35.5567 0.535581 36.8086 0.0023057 38.1141 0H205.716C207.031 0 208.291 0.538382 209.221 1.49671C210.15 2.45503 210.673 3.7548 210.673 5.11008V247.977C210.673 249.333 210.15 250.632 209.221 251.591C208.291 252.549 207.031 253.087 205.716 253.087V253.087ZM38.1141 0.178988C36.8587 0.181358 35.6554 0.697212 34.7685 1.61332C33.8816 2.52943 33.3835 3.77094 33.3835 5.06533V247.977C33.3835 249.272 33.8816 250.513 34.7685 251.429C35.6554 252.346 36.8587 252.861 38.1141 252.864H205.716C206.972 252.861 208.177 252.346 209.065 251.43C209.953 250.514 210.453 249.273 210.456 247.977V5.06533C210.453 3.77012 209.953 2.52863 209.065 1.61278C208.177 0.696922 206.972 0.181353 205.716 0.178988H38.1141Z" fill="#E0E0E0"/>
<path d="M393.472 253.087H225.862C224.548 253.085 223.288 252.546 222.359 251.588C221.43 250.63 220.908 249.332 220.905 247.977V5.06533C220.919 3.71855 221.447 2.43161 222.375 1.48344C223.302 0.535268 224.555 0.00228055 225.862 0H393.472C394.776 0.00465768 396.026 0.538974 396.951 1.48714C397.875 2.4353 398.4 3.72092 398.411 5.06533V247.977C398.411 249.33 397.891 250.627 396.966 251.584C396.04 252.542 394.784 253.083 393.472 253.087V253.087ZM225.862 0.178988C224.605 0.181353 223.401 0.696922 222.513 1.61278C221.625 2.52863 221.125 3.77012 221.122 5.06533V247.977C221.125 249.273 221.625 250.514 222.513 251.43C223.401 252.346 224.605 252.861 225.862 252.864H393.472C394.729 252.861 395.933 252.346 396.821 251.43C397.709 250.514 398.209 249.273 398.212 247.977V5.06533C398.209 3.77012 397.709 2.52863 396.821 1.61278C395.933 0.696922 394.729 0.181353 393.472 0.178988H225.862Z" fill="#E0E0E0"/>
<path d="M373.656 18.3192H58.6069C55.002 18.3192 52.0796 21.3323 52.0796 25.0492V268.919C52.0796 272.636 55.002 275.649 58.6069 275.649H373.656C377.261 275.649 380.184 272.636 380.184 268.919V25.0492C380.184 21.3323 377.261 18.3192 373.656 18.3192Z" fill="#E0E0E0"/>
<path d="M375.393 18.3192H60.3438C56.7388 18.3192 53.8164 21.3323 53.8164 25.0492V268.919C53.8164 272.636 56.7388 275.649 60.3438 275.649H375.393C378.998 275.649 381.92 272.636 381.92 268.919V25.0492C381.92 21.3323 378.998 18.3192 375.393 18.3192Z" fill="#EBEBEB"/>
<path d="M53.8164 35.7169V268.919C53.8233 270.701 54.5135 272.408 55.7363 273.667C56.9592 274.926 58.6155 275.635 60.3438 275.64H375.428C377.157 275.635 378.815 274.925 380.038 273.664C381.261 272.403 381.95 270.693 381.955 268.91V35.7169H53.8164Z" fill="#E0E0E0"/>
<path d="M380.714 44.6661H55.0234V266.699H380.714V44.6661Z" fill="#FAFAFA"/>
<path d="M369.195 246.385H66.5407C66.5123 246.382 66.4858 246.369 66.4665 246.347C66.4471 246.326 66.4364 246.298 66.4365 246.268V59.0657C66.4365 59.0516 66.4392 59.0377 66.4445 59.0246C66.4497 59.0116 66.4574 58.9998 66.467 58.9898C66.4767 58.9798 66.4882 58.9719 66.5008 58.9665C66.5135 58.9611 66.527 58.9583 66.5407 58.9583H369.195C369.223 58.9583 369.249 58.9697 369.269 58.9898C369.288 59.0099 369.299 59.0373 369.299 59.0657V246.268C369.3 246.283 369.298 246.298 369.294 246.312C369.289 246.326 369.282 246.339 369.272 246.35C369.262 246.361 369.25 246.37 369.237 246.376C369.224 246.382 369.209 246.385 369.195 246.385V246.385ZM66.6535 246.161H369.082V59.1821H66.6535V246.161Z" fill="#E0E0E0"/>
<path d="M68.1384 31.0989C67.3659 31.0989 66.6107 30.8627 65.9684 30.4202C65.326 29.9777 64.8254 29.3487 64.5298 28.6128C64.2341 27.877 64.1568 27.0672 64.3075 26.286C64.4582 25.5048 64.8302 24.7873 65.3765 24.224C65.9227 23.6608 66.6187 23.2773 67.3764 23.1219C68.1341 22.9665 68.9195 23.0462 69.6332 23.3511C70.3469 23.6559 70.9569 24.172 71.3861 24.8343C71.8153 25.4966 72.0444 26.2752 72.0444 27.0717C72.0421 28.1391 71.6299 29.162 70.8978 29.9168C70.1658 30.6715 69.1737 31.0965 68.1384 31.0989V31.0989ZM68.1384 23.9394C67.5376 23.9394 66.9502 24.1231 66.4506 24.4673C65.951 24.8115 65.5616 25.3007 65.3317 25.873C65.1017 26.4454 65.0416 27.0752 65.1588 27.6828C65.276 28.2904 65.5654 28.8485 65.9902 29.2866C66.4151 29.7246 66.9564 30.0229 67.5457 30.1438C68.1351 30.2646 68.7459 30.2026 69.301 29.9655C69.8561 29.7285 70.3306 29.327 70.6644 28.8119C70.9982 28.2968 71.1764 27.6912 71.1764 27.0717C71.1764 26.241 70.8564 25.4443 70.2866 24.8569C69.7169 24.2694 68.9442 23.9394 68.1384 23.9394Z" fill="#FAFAFA"/>
<path d="M80.4372 31.0989C79.6647 31.0989 78.9095 30.8627 78.2672 30.4202C77.6249 29.9777 77.1242 29.3487 76.8286 28.6128C76.5329 27.877 76.4556 27.0672 76.6063 26.286C76.757 25.5048 77.129 24.7873 77.6753 24.224C78.2216 23.6608 78.9175 23.2773 79.6752 23.1219C80.4329 22.9665 81.2183 23.0462 81.932 23.3511C82.6457 23.6559 83.2558 24.172 83.685 24.8343C84.1142 25.4966 84.3432 26.2752 84.3432 27.0717C84.341 28.1391 83.9287 29.162 83.1967 29.9168C82.4647 30.6715 81.4725 31.0965 80.4372 31.0989V31.0989ZM80.4372 23.9394C79.8364 23.9394 79.249 24.1231 78.7494 24.4673C78.2498 24.8115 77.8604 25.3007 77.6305 25.873C77.4006 26.4454 77.3404 27.0752 77.4576 27.6828C77.5748 28.2904 77.8642 28.8485 78.2891 29.2866C78.7139 29.7246 79.2552 30.0229 79.8446 30.1438C80.4339 30.2646 81.0447 30.2026 81.5998 29.9655C82.155 29.7285 82.6294 29.327 82.9633 28.8119C83.2971 28.2968 83.4752 27.6912 83.4752 27.0717C83.4752 26.241 83.1552 25.4443 82.5854 24.8569C82.0157 24.2694 81.243 23.9394 80.4372 23.9394Z" fill="#FAFAFA"/>
<path d="M92.7449 31.0989C91.9723 31.0989 91.2172 30.8627 90.5748 30.4202C89.9325 29.9777 89.4318 29.3487 89.1362 28.6128C88.8406 27.877 88.7632 27.0672 88.9139 26.286C89.0646 25.5048 89.4366 24.7873 89.9829 24.224C90.5292 23.6608 91.2252 23.2773 91.9828 23.1219C92.7405 22.9665 93.5259 23.0462 94.2396 23.3511C94.9534 23.6559 95.5634 24.172 95.9926 24.8343C96.4218 25.4966 96.6509 26.2752 96.6509 27.0717C96.6486 28.1391 96.2363 29.162 95.5043 29.9168C94.7723 30.6715 93.7801 31.0965 92.7449 31.0989V31.0989ZM92.7449 23.9394C92.144 23.9394 91.5566 24.1231 91.057 24.4673C90.5574 24.8115 90.1681 25.3007 89.9381 25.873C89.7082 26.4454 89.648 27.0752 89.7652 27.6828C89.8825 28.2904 90.1718 28.8485 90.5967 29.2866C91.0216 29.7246 91.5629 30.0229 92.1522 30.1438C92.7415 30.2646 93.3523 30.2026 93.9075 29.9655C94.4626 29.7285 94.9371 29.327 95.2709 28.8119C95.6047 28.2968 95.7829 27.6912 95.7829 27.0717C95.7829 26.241 95.4628 25.4443 94.8931 24.8569C94.3233 24.2694 93.5506 23.9394 92.7449 23.9394Z" fill="#FAFAFA"/>
<path d="M381.92 35.2694H53.8164V36.1643H381.92V35.2694Z" fill="#E0E0E0"/>
<path d="M233.137 66.7263H83.042V224.45H233.137V66.7263Z" fill="#EBEBEB"/>
<path d="M361.765 66.7263H262.665V118.033H361.765V66.7263Z" fill="#EBEBEB"/>
<path d="M281.232 97.5479C287.464 97.5479 292.516 92.3391 292.516 85.9138C292.516 79.4884 287.464 74.2796 281.232 74.2796C275 74.2796 269.948 79.4884 269.948 85.9138C269.948 92.3391 275 97.5479 281.232 97.5479Z" fill="#FAFAFA"/>
<path d="M351.825 74.2796H302.931V79.0496H351.825V74.2796Z" fill="#FAFAFA"/>
<path d="M334.665 83.0321H302.931V87.8021H334.665V83.0321Z" fill="#FAFAFA"/>
<path d="M361.765 137.22H262.665V266.7H361.765V137.22Z" fill="#EBEBEB"/>
<path d="M309.338 146.984H267.066V190.567H309.338V146.984Z" fill="#FAFAFA"/>
<path d="M309.667 196.107H267.396V239.69H309.667V196.107Z" fill="#FAFAFA"/>
<path d="M357.373 146.984H315.102V170.1H357.373V146.984Z" fill="#FAFAFA"/>
<path d="M357.373 175.649H315.102V219.232H357.373V175.649Z" fill="#FAFAFA"/>
<path d="M309.667 244.908H267.396V266.699H309.667V244.908Z" fill="#FAFAFA"/>
<path d="M357.373 224.449H315.102V266.699H357.373V224.449Z" fill="#FAFAFA"/>
<path d="M217 333.417C309.947 333.417 385.296 328.881 385.296 323.286C385.296 317.691 309.947 313.155 217 313.155C124.052 313.155 48.7031 317.691 48.7031 323.286C48.7031 328.881 124.052 333.417 217 333.417Z" fill="#F5F5F5"/>
<path d="M235.463 272.23H77.5734C73.2877 272.23 69.8135 275.812 69.8135 280.231V309.271C69.8135 313.69 73.2877 317.272 77.5734 317.272H235.463C239.748 317.272 243.223 313.69 243.223 309.271V280.231C243.223 275.812 239.748 272.23 235.463 272.23Z" fill="#11709E"/>
<path d="M237.296 274.118H79.4064C75.1207 274.118 71.6465 277.7 71.6465 282.119V311.16C71.6465 315.578 75.1207 319.16 79.4064 319.16H237.296C241.581 319.16 245.056 315.578 245.056 311.16V282.119C245.056 277.7 241.581 274.118 237.296 274.118Z" fill="#11709E"/>
<path opacity="0.6" d="M237.296 274.118H79.4064C75.1207 274.118 71.6465 277.7 71.6465 282.119V311.16C71.6465 315.578 75.1207 319.16 79.4064 319.16H237.296C241.581 319.16 245.056 315.578 245.056 311.16V282.119C245.056 277.7 241.581 274.118 237.296 274.118Z" fill="#FAFAFA"/>
<path d="M239.127 276.007H81.2375C76.9518 276.007 73.4775 279.589 73.4775 284.008V313.057C73.4775 317.476 76.9518 321.058 81.2375 321.058H239.127C243.412 321.058 246.887 317.476 246.887 313.057V284.008C246.887 279.589 243.412 276.007 239.127 276.007Z" fill="#11709E"/>
<path opacity="0.8" d="M239.127 276.007H81.2375C76.9518 276.007 73.4775 279.589 73.4775 284.008V313.057C73.4775 317.476 76.9518 321.058 81.2375 321.058H239.127C243.412 321.058 246.887 317.476 246.887 313.057V284.008C246.887 279.589 243.412 276.007 239.127 276.007Z" fill="#FAFAFA"/>
<path d="M204.492 283.623H120.201C119.285 283.623 118.543 284.388 118.543 285.332V288.733C118.543 289.677 119.285 290.442 120.201 290.442H204.492C205.408 290.442 206.15 289.677 206.15 288.733V285.332C206.15 284.388 205.408 283.623 204.492 283.623Z" fill="#11709E"/>
<path d="M157.959 295.123H120.201C119.285 295.123 118.543 295.888 118.543 296.832V300.233C118.543 301.177 119.285 301.942 120.201 301.942H157.959C158.874 301.942 159.617 301.177 159.617 300.233V296.832C159.617 295.888 158.874 295.123 157.959 295.123Z" fill="#11709E"/>
<path d="M194.417 295.123H165.434C164.519 295.123 163.776 295.888 163.776 296.832V300.233C163.776 301.177 164.519 301.942 165.434 301.942H194.417C195.332 301.942 196.075 301.177 196.075 300.233V296.832C196.075 295.888 195.332 295.123 194.417 295.123Z" fill="#11709E"/>
<path d="M221.34 306.622H119.446C118.947 306.622 118.543 307.039 118.543 307.553V308.26C118.543 308.774 118.947 309.191 119.446 309.191H221.34C221.839 309.191 222.243 308.774 222.243 308.26V307.553C222.243 307.039 221.839 306.622 221.34 306.622Z" fill="#11709E"/>
<path opacity="0.5" d="M221.34 306.622H119.446C118.947 306.622 118.543 307.039 118.543 307.553V308.26C118.543 308.774 118.947 309.191 119.446 309.191H221.34C221.839 309.191 222.243 308.774 222.243 308.26V307.553C222.243 307.039 221.839 306.622 221.34 306.622Z" fill="#FAFAFA"/>
<path d="M109.684 302.264C111.675 293.643 106.51 284.99 98.1482 282.938C89.7865 280.886 81.3944 286.211 79.4039 294.832C77.4134 303.453 82.5783 312.106 90.94 314.158C99.3017 316.21 107.694 310.885 109.684 302.264Z" fill="#11709E"/>
<path d="M107.388 298.532C107.388 301.152 106.635 303.713 105.223 305.891C103.812 308.069 101.805 309.766 99.4578 310.769C97.1105 311.771 94.5275 312.034 92.0355 311.523C89.5435 311.012 87.2545 309.75 85.4579 307.898C83.6613 306.045 82.4378 303.685 81.9422 301.116C81.4465 298.547 81.7009 295.884 82.6732 293.463C83.6455 291.043 85.2921 288.975 87.4046 287.519C89.5172 286.064 92.0009 285.287 94.5417 285.287C96.2329 285.272 97.9102 285.604 99.4756 286.264C101.041 286.924 102.463 287.899 103.659 289.132C104.855 290.365 105.801 291.831 106.441 293.445C107.081 295.059 107.403 296.788 107.388 298.532Z" fill="#FAFAFA"/>
<path d="M105.836 304.842C104.731 306.934 103.101 308.68 101.115 309.897C99.129 311.114 96.8616 311.756 94.5516 311.756C92.2415 311.756 89.9742 311.114 87.9884 309.897C86.0026 308.68 84.3717 306.934 83.2676 304.842C86.6098 302.546 90.5358 301.322 94.5516 301.322C98.5673 301.322 102.493 302.546 105.836 304.842Z" fill="#11709E"/>
<path opacity="0.7" d="M105.836 304.842C104.731 306.934 103.101 308.68 101.115 309.897C99.129 311.114 96.8616 311.756 94.5516 311.756C92.2415 311.756 89.9742 311.114 87.9884 309.897C86.0026 308.68 84.3717 306.934 83.2676 304.842C86.6098 302.546 90.5358 301.322 94.5516 301.322C98.5673 301.322 102.493 302.546 105.836 304.842Z" fill="#FAFAFA"/>
<path d="M94.5434 299.901C97.7025 299.901 100.263 297.261 100.263 294.004C100.263 290.747 97.7025 288.106 94.5434 288.106C91.3842 288.106 88.8232 290.747 88.8232 294.004C88.8232 297.261 91.3842 299.901 94.5434 299.901Z" fill="#11709E"/>
<path opacity="0.7" d="M94.5434 299.901C97.7025 299.901 100.263 297.261 100.263 294.004C100.263 290.747 97.7025 288.106 94.5434 288.106C91.3842 288.106 88.8232 290.747 88.8232 294.004C88.8232 297.261 91.3842 299.901 94.5434 299.901Z" fill="#FAFAFA"/>
<path d="M235.463 220.109H77.5734C73.2877 220.109 69.8135 223.691 69.8135 228.11V257.15C69.8135 261.569 73.2877 265.151 77.5734 265.151H235.463C239.748 265.151 243.223 261.569 243.223 257.15V228.11C243.223 223.691 239.748 220.109 235.463 220.109Z" fill="#11709E"/>
<path d="M237.296 221.997H79.4064C75.1207 221.997 71.6465 225.579 71.6465 229.998V259.048C71.6465 263.466 75.1207 267.048 79.4064 267.048H237.296C241.581 267.048 245.056 263.466 245.056 259.048V229.998C245.056 225.579 241.581 221.997 237.296 221.997Z" fill="#11709E"/>
<path opacity="0.6" d="M237.296 221.997H79.4064C75.1207 221.997 71.6465 225.579 71.6465 229.998V259.048C71.6465 263.466 75.1207 267.048 79.4064 267.048H237.296C241.581 267.048 245.056 263.466 245.056 259.048V229.998C245.056 225.579 241.581 221.997 237.296 221.997Z" fill="#FAFAFA"/>
<path d="M239.127 223.886H81.2375C76.9518 223.886 73.4775 227.468 73.4775 231.887V260.927C73.4775 265.346 76.9518 268.928 81.2375 268.928H239.127C243.412 268.928 246.887 265.346 246.887 260.927V231.887C246.887 227.468 243.412 223.886 239.127 223.886Z" fill="#11709E"/>
<path opacity="0.8" d="M239.127 223.886H81.2375C76.9518 223.886 73.4775 227.468 73.4775 231.887V260.927C73.4775 265.346 76.9518 268.928 81.2375 268.928H239.127C243.412 268.928 246.887 265.346 246.887 260.927V231.887C246.887 227.468 243.412 223.886 239.127 223.886Z" fill="#FAFAFA"/>
<path d="M145.321 231.502H120.201C119.285 231.502 118.543 232.267 118.543 233.211V236.612C118.543 237.556 119.285 238.321 120.201 238.321H145.321C146.236 238.321 146.979 237.556 146.979 236.612V233.211C146.979 232.267 146.236 231.502 145.321 231.502Z" fill="#11709E"/>
<path d="M171.726 231.502H152.326C151.41 231.502 150.668 232.267 150.668 233.211V236.612C150.668 237.556 151.41 238.321 152.326 238.321H171.726C172.641 238.321 173.384 237.556 173.384 236.612V233.211C173.384 232.267 172.641 231.502 171.726 231.502Z" fill="#11709E"/>
<path d="M208.398 243.001H120.201C119.285 243.001 118.543 243.767 118.543 244.711V248.112C118.543 249.056 119.285 249.821 120.201 249.821H208.398C209.314 249.821 210.056 249.056 210.056 248.112V244.711C210.056 243.767 209.314 243.001 208.398 243.001Z" fill="#11709E"/>
<path d="M180.943 254.502H119.446C118.947 254.502 118.543 254.918 118.543 255.432V256.139C118.543 256.653 118.947 257.07 119.446 257.07H180.943C181.442 257.07 181.846 256.653 181.846 256.139V255.432C181.846 254.918 181.442 254.502 180.943 254.502Z" fill="#11709E"/>
<path opacity="0.5" d="M180.943 254.502H119.446C118.947 254.502 118.543 254.918 118.543 255.432V256.139C118.543 256.653 118.947 257.07 119.446 257.07H180.943C181.442 257.07 181.846 256.653 181.846 256.139V255.432C181.846 254.918 181.442 254.502 180.943 254.502Z" fill="#FAFAFA"/>
<path d="M109.686 250.145C111.677 241.524 106.512 232.872 98.1501 230.819C89.7884 228.767 81.3964 234.092 79.4059 242.714C77.4154 251.335 82.5802 259.987 90.9419 262.039C99.3036 264.092 107.696 258.767 109.686 250.145Z" fill="#11709E"/>
<path d="M107.388 246.411C107.388 249.031 106.635 251.592 105.223 253.77C103.812 255.948 101.805 257.646 99.4578 258.648C97.1105 259.651 94.5275 259.913 92.0355 259.402C89.5435 258.891 87.2545 257.629 85.4579 255.777C83.6613 253.925 82.4378 251.564 81.9422 248.995C81.4465 246.426 81.7009 243.763 82.6732 241.343C83.6455 238.922 85.2921 236.854 87.4046 235.398C89.5172 233.943 92.0009 233.166 94.5417 233.166C96.2329 233.151 97.9102 233.483 99.4756 234.143C101.041 234.803 102.463 235.778 103.659 237.011C104.855 238.244 105.801 239.71 106.441 241.324C107.081 242.938 107.403 244.668 107.388 246.411V246.411Z" fill="#FAFAFA"/>
<path d="M105.836 252.721C104.731 254.813 103.101 256.559 101.115 257.776C99.129 258.993 96.8616 259.635 94.5516 259.635C92.2415 259.635 89.9742 258.993 87.9884 257.776C86.0026 256.559 84.3717 254.813 83.2676 252.721C86.6098 250.425 90.5358 249.201 94.5516 249.201C98.5673 249.201 102.493 250.425 105.836 252.721Z" fill="#11709E"/>
<path opacity="0.7" d="M105.836 252.721C104.731 254.813 103.101 256.559 101.115 257.776C99.129 258.993 96.8616 259.635 94.5516 259.635C92.2415 259.635 89.9742 258.993 87.9884 257.776C86.0026 256.559 84.3717 254.813 83.2676 252.721C86.6098 250.425 90.5358 249.201 94.5516 249.201C98.5673 249.201 102.493 250.425 105.836 252.721Z" fill="#FAFAFA"/>
<path d="M94.5434 247.78C97.7025 247.78 100.263 245.14 100.263 241.883C100.263 238.626 97.7025 235.985 94.5434 235.985C91.3842 235.985 88.8232 238.626 88.8232 241.883C88.8232 245.14 91.3842 247.78 94.5434 247.78Z" fill="#11709E"/>
<path opacity="0.7" d="M94.5434 247.78C97.7025 247.78 100.263 245.14 100.263 241.883C100.263 238.626 97.7025 235.985 94.5434 235.985C91.3842 235.985 88.8232 238.626 88.8232 241.883C88.8232 245.14 91.3842 247.78 94.5434 247.78Z" fill="#FAFAFA"/>
<path d="M235.463 167.988H77.5734C73.2877 167.988 69.8135 171.57 69.8135 175.989V205.038C69.8135 209.457 73.2877 213.039 77.5734 213.039H235.463C239.748 213.039 243.223 209.457 243.223 205.038V175.989C243.223 171.57 239.748 167.988 235.463 167.988Z" fill="#11709E"/>
<path d="M237.296 169.877H79.4064C75.1207 169.877 71.6465 173.459 71.6465 177.877V206.918C71.6465 211.337 75.1207 214.919 79.4064 214.919H237.296C241.581 214.919 245.056 211.337 245.056 206.918V177.877C245.056 173.459 241.581 169.877 237.296 169.877Z" fill="#11709E"/>
<path opacity="0.6" d="M237.296 169.877H79.4064C75.1207 169.877 71.6465 173.459 71.6465 177.877V206.918C71.6465 211.337 75.1207 214.919 79.4064 214.919H237.296C241.581 214.919 245.056 211.337 245.056 206.918V177.877C245.056 173.459 241.581 169.877 237.296 169.877Z" fill="#FAFAFA"/>
<path d="M239.127 171.764H81.2375C76.9518 171.764 73.4775 175.347 73.4775 179.765V208.815C73.4775 213.233 76.9518 216.816 81.2375 216.816H239.127C243.412 216.816 246.887 213.233 246.887 208.815V179.765C246.887 175.347 243.412 171.764 239.127 171.764Z" fill="#11709E"/>
<path opacity="0.8" d="M239.127 171.764H81.2375C76.9518 171.764 73.4775 175.347 73.4775 179.765V208.815C73.4775 213.233 76.9518 216.816 81.2375 216.816H239.127C243.412 216.816 246.887 213.233 246.887 208.815V179.765C246.887 175.347 243.412 171.764 239.127 171.764Z" fill="#FAFAFA"/>
<path d="M203.867 179.381H120.201C119.285 179.381 118.543 180.146 118.543 181.09V184.491C118.543 185.435 119.285 186.2 120.201 186.2H203.867C204.783 186.2 205.525 185.435 205.525 184.491V181.09C205.525 180.146 204.783 179.381 203.867 179.381Z" fill="#11709E"/>
<path d="M175.701 190.881H120.201C119.285 190.881 118.543 191.646 118.543 192.59V195.991C118.543 196.935 119.285 197.7 120.201 197.7H175.701C176.616 197.7 177.359 196.935 177.359 195.991V192.59C177.359 191.646 176.616 190.881 175.701 190.881Z" fill="#11709E"/>
<path d="M189.086 190.881H183.93C183.015 190.881 182.272 191.646 182.272 192.59V195.991C182.272 196.935 183.015 197.7 183.93 197.7H189.086C190.002 197.7 190.744 196.935 190.744 195.991V192.59C190.744 191.646 190.002 190.881 189.086 190.881Z" fill="#11709E"/>
<path d="M164.208 202.381H119.446C118.947 202.381 118.543 202.797 118.543 203.311V204.018C118.543 204.532 118.947 204.949 119.446 204.949H164.208C164.707 204.949 165.111 204.532 165.111 204.018V203.311C165.111 202.797 164.707 202.381 164.208 202.381Z" fill="#11709E"/>
<path opacity="0.5" d="M164.208 202.381H119.446C118.947 202.381 118.543 202.797 118.543 203.311V204.018C118.543 204.532 118.947 204.949 119.446 204.949H164.208C164.707 204.949 165.111 204.532 165.111 204.018V203.311C165.111 202.797 164.707 202.381 164.208 202.381Z" fill="#FAFAFA"/>
<path d="M222.078 202.381H170.753C170.255 202.381 169.851 202.797 169.851 203.311V204.018C169.851 204.532 170.255 204.949 170.753 204.949H222.078C222.577 204.949 222.981 204.532 222.981 204.018V203.311C222.981 202.797 222.577 202.381 222.078 202.381Z" fill="#11709E"/>
<path opacity="0.5" d="M222.078 202.381H170.753C170.255 202.381 169.851 202.797 169.851 203.311V204.018C169.851 204.532 170.255 204.949 170.753 204.949H222.078C222.577 204.949 222.981 204.532 222.981 204.018V203.311C222.981 202.797 222.577 202.381 222.078 202.381Z" fill="#FAFAFA"/>
<path d="M105.551 205.633C111.629 199.366 111.629 189.206 105.551 182.94C99.4729 176.674 89.6188 176.674 83.541 182.94C77.4632 189.206 77.4632 199.366 83.541 205.633C89.6188 211.899 99.4729 211.899 105.551 205.633Z" fill="#11709E"/>
<path d="M107.388 194.29C107.388 196.91 106.635 199.47 105.223 201.649C103.812 203.827 101.805 205.524 99.4578 206.527C97.1105 207.529 94.5275 207.792 92.0355 207.281C89.5435 206.77 87.2545 205.508 85.4579 203.656C83.6613 201.803 82.4378 199.443 81.9422 196.874C81.4465 194.305 81.7009 191.642 82.6732 189.221C83.6455 186.801 85.2921 184.733 87.4046 183.277C89.5172 181.822 92.0009 181.045 94.5417 181.045C96.2329 181.029 97.9102 181.361 99.4756 182.022C101.041 182.682 102.463 183.657 103.659 184.89C104.855 186.123 105.801 187.589 106.441 189.203C107.081 190.817 107.403 192.546 107.388 194.29V194.29Z" fill="#FAFAFA"/>
<path d="M105.836 200.599C104.731 202.692 103.101 204.438 101.115 205.655C99.129 206.872 96.8616 207.514 94.5516 207.514C92.2415 207.514 89.9742 206.872 87.9884 205.655C86.0026 204.438 84.3717 202.692 83.2676 200.599C86.6098 198.304 90.5358 197.079 94.5516 197.079C98.5673 197.079 102.493 198.304 105.836 200.599Z" fill="#11709E"/>
<path opacity="0.7" d="M105.836 200.599C104.731 202.692 103.101 204.438 101.115 205.655C99.129 206.872 96.8616 207.514 94.5516 207.514C92.2415 207.514 89.9742 206.872 87.9884 205.655C86.0026 204.438 84.3717 202.692 83.2676 200.599C86.6098 198.304 90.5358 197.079 94.5516 197.079C98.5673 197.079 102.493 198.304 105.836 200.599Z" fill="#FAFAFA"/>
<path d="M100.263 189.726C100.262 190.892 99.9248 192.032 99.2952 193C98.6657 193.969 97.7717 194.723 96.7263 195.168C95.681 195.614 94.5311 195.729 93.4221 195.5C92.3131 195.272 91.2947 194.709 90.4956 193.884C89.6965 193.059 89.1525 192.008 88.9325 190.865C88.7125 189.721 88.8263 188.535 89.2595 187.458C89.6927 186.381 90.4259 185.461 91.3663 184.813C92.3068 184.165 93.4124 183.82 94.5434 183.82C95.2953 183.82 96.0398 183.972 96.7344 184.269C97.4289 184.566 98.0599 185.002 98.5912 185.55C99.1224 186.099 99.5436 186.75 99.8306 187.467C100.118 188.183 100.265 188.951 100.263 189.726V189.726Z" fill="#11709E"/>
<path opacity="0.7" d="M100.263 189.726C100.262 190.892 99.9248 192.032 99.2952 193C98.6657 193.969 97.7717 194.723 96.7263 195.168C95.681 195.614 94.5311 195.729 93.4221 195.5C92.3131 195.272 91.2947 194.709 90.4956 193.884C89.6965 193.059 89.1525 192.008 88.9325 190.865C88.7125 189.721 88.8263 188.535 89.2595 187.458C89.6927 186.381 90.4259 185.461 91.3663 184.813C92.3068 184.165 93.4124 183.82 94.5434 183.82C95.2953 183.82 96.0398 183.972 96.7344 184.269C97.4289 184.566 98.0599 185.002 98.5912 185.55C99.1224 186.099 99.5436 186.75 99.8306 187.467C100.118 188.183 100.265 188.951 100.263 189.726V189.726Z" fill="#FAFAFA"/>
<path d="M113.136 60.6138H109.178V61.5088H113.136V60.6138Z" fill="#11709E"/>
<path d="M102.911 60.6138H93.5537V61.5088H102.911V60.6138Z" fill="#11709E"/>
<path d="M235.463 63.7461H77.5734C73.2877 63.7461 69.8135 67.3281 69.8135 71.7468V100.796C69.8135 105.215 73.2877 108.797 77.5734 108.797H235.463C239.748 108.797 243.223 105.215 243.223 100.796V71.7468C243.223 67.3281 239.748 63.7461 235.463 63.7461Z" fill="#11709E"/>
<path d="M237.296 65.6345H79.4064C75.1207 65.6345 71.6465 69.2165 71.6465 73.6352V102.685C71.6465 107.103 75.1207 110.686 79.4064 110.686H237.296C241.581 110.686 245.056 107.103 245.056 102.685V73.6352C245.056 69.2165 241.581 65.6345 237.296 65.6345Z" fill="#11709E"/>
<path opacity="0.6" d="M237.296 65.6345H79.4064C75.1207 65.6345 71.6465 69.2165 71.6465 73.6352V102.685C71.6465 107.103 75.1207 110.686 79.4064 110.686H237.296C241.581 110.686 245.056 107.103 245.056 102.685V73.6352C245.056 69.2165 241.581 65.6345 237.296 65.6345Z" fill="#FAFAFA"/>
<path d="M239.127 67.5226H81.2375C76.9518 67.5226 73.4775 71.1047 73.4775 75.5234V104.573C73.4775 108.992 76.9518 112.574 81.2375 112.574H239.127C243.412 112.574 246.887 108.992 246.887 104.573V75.5234C246.887 71.1047 243.412 67.5226 239.127 67.5226Z" fill="#11709E"/>
<path opacity="0.8" d="M239.127 67.5226H81.2375C76.9518 67.5226 73.4775 71.1047 73.4775 75.5234V104.573C73.4775 108.992 76.9518 112.574 81.2375 112.574H239.127C243.412 112.574 246.887 108.992 246.887 104.573V75.5234C246.887 71.1047 243.412 67.5226 239.127 67.5226Z" fill="#FAFAFA"/>
<path d="M196.967 75.1386H120.201C119.285 75.1386 118.543 75.9039 118.543 76.8479V80.2487C118.543 81.1927 119.285 81.958 120.201 81.958H196.967C197.882 81.958 198.625 81.1927 198.625 80.2487V76.8479C198.625 75.9039 197.882 75.1386 196.967 75.1386Z" fill="#11709E"/>
<path d="M223.441 86.6385H120.201C119.285 86.6385 118.543 87.4038 118.543 88.3478V91.7486C118.543 92.6926 119.285 93.4579 120.201 93.4579H223.441C224.356 93.4579 225.099 92.6926 225.099 91.7486V88.3478C225.099 87.4038 224.356 86.6385 223.441 86.6385Z" fill="#11709E"/>
<path d="M147.621 98.1384H119.446C118.947 98.1384 118.543 98.5551 118.543 99.0691V99.7761C118.543 100.29 118.947 100.707 119.446 100.707H147.621C148.12 100.707 148.524 100.29 148.524 99.7761V99.0691C148.524 98.5551 148.12 98.1384 147.621 98.1384Z" fill="#11709E"/>
<path opacity="0.5" d="M147.621 98.1384H119.446C118.947 98.1384 118.543 98.5551 118.543 99.0691V99.7761C118.543 100.29 118.947 100.707 119.446 100.707H147.621C148.12 100.707 148.524 100.29 148.524 99.7761V99.0691C148.524 98.5551 148.12 98.1384 147.621 98.1384Z" fill="#FAFAFA"/>
<path d="M109.686 93.7723C111.677 85.1512 106.512 76.4987 98.1501 74.4464C89.7884 72.3942 81.3964 77.7193 79.4059 86.3405C77.4154 94.9616 82.5802 103.614 90.9419 105.666C99.3036 107.719 107.696 102.393 109.686 93.7723Z" fill="#11709E"/>
<path d="M107.388 90.0483C107.388 92.668 106.635 95.2287 105.223 97.4069C103.812 99.585 101.805 101.283 99.4578 102.285C97.1104 103.288 94.5275 103.55 92.0355 103.039C89.5435 102.528 87.2545 101.266 85.4579 99.414C83.6613 97.5616 82.4378 95.2016 81.9422 92.6323C81.4465 90.063 81.7009 87.3999 82.6732 84.9797C83.6455 82.5595 85.2921 80.4909 87.4046 79.0355C89.5172 77.5801 92.0009 76.8033 94.5417 76.8033C96.231 76.795 97.9051 77.1319 99.4673 77.7946C101.03 78.4573 102.449 79.4326 103.643 80.6642C104.838 81.8958 105.784 83.3592 106.427 84.9699C107.069 86.5806 107.396 88.3066 107.388 90.0483V90.0483Z" fill="#FAFAFA"/>
<path d="M105.836 96.3575C104.731 98.4495 103.101 100.196 101.115 101.413C99.129 102.63 96.8616 103.272 94.5516 103.272C92.2415 103.272 89.9742 102.63 87.9884 101.413C86.0026 100.196 84.3717 98.4495 83.2676 96.3575C86.6098 94.0622 90.5358 92.8374 94.5516 92.8374C98.5673 92.8374 102.493 94.0622 105.836 96.3575V96.3575Z" fill="#11709E"/>
<path opacity="0.7" d="M105.836 96.3575C104.731 98.4495 103.101 100.196 101.115 101.413C99.129 102.63 96.8616 103.272 94.5516 103.272C92.2415 103.272 89.9742 102.63 87.9884 101.413C86.0026 100.196 84.3717 98.4495 83.2676 96.3575C86.6098 94.0622 90.5358 92.8374 94.5516 92.8374C98.5673 92.8374 102.493 94.0622 105.836 96.3575V96.3575Z" fill="#FAFAFA"/>
<path d="M94.5434 91.4086C97.7025 91.4086 100.263 88.7682 100.263 85.511C100.263 82.2539 97.7025 79.6134 94.5434 79.6134C91.3842 79.6134 88.8232 82.2539 88.8232 85.511C88.8232 88.7682 91.3842 91.4086 94.5434 91.4086Z" fill="#11709E"/>
<path opacity="0.7" d="M94.5434 91.4086C97.7025 91.4086 100.263 88.7682 100.263 85.511C100.263 82.2539 97.7025 79.6134 94.5434 79.6134C91.3842 79.6134 88.8232 82.2539 88.8232 85.511C88.8232 88.7682 91.3842 91.4086 94.5434 91.4086Z" fill="#FAFAFA"/>
<path d="M346.446 184.455L340.752 187.507L347.132 192.617C347.132 192.617 351.42 188.912 349.736 186.352L346.446 184.455Z" fill="#E4897B"/>
<path d="M337.496 193.727L342.938 197.629L347.131 192.617L340.751 187.507L337.496 193.727Z" fill="#E4897B"/>
<path d="M348.649 133.703C349.43 134.759 350.098 135.708 350.775 136.737C351.452 137.766 352.095 138.76 352.737 139.78C354.004 141.838 355.211 143.95 356.322 146.116C357.461 148.304 358.493 150.55 359.412 152.846L360.097 154.636L360.714 156.426C360.931 157.016 361.096 157.643 361.278 158.26L361.547 159.155L361.608 159.388L361.712 159.773C361.778 160.05 361.831 160.331 361.868 160.614C362.07 162.31 361.952 164.03 361.521 165.679C361.2 167.002 360.792 168.299 360.297 169.563C359.38 171.881 358.312 174.132 357.103 176.302C354.785 180.503 352.146 184.507 349.213 188.276L345.22 185.592C347.138 181.466 349.013 177.215 350.654 173.063C351.457 171.035 352.155 168.965 352.746 166.861C353.018 165.917 353.224 164.954 353.362 163.979C353.475 163.346 353.475 162.697 353.362 162.064C353.362 162.064 353.362 162.064 353.362 162.064C353.362 162.064 353.362 162.118 353.362 162.064L353.292 161.885L353.006 161.142C352.824 160.65 352.65 160.167 352.424 159.674L351.799 158.207L351.114 156.73C350.165 154.779 349.146 152.84 348.058 150.913C346.956 148.998 345.819 147.083 344.586 145.203C343.354 143.324 342.13 141.418 340.967 139.69L348.649 133.703Z" fill="#E4897B"/>
<path d="M360.506 147.441L346.21 157.777C346.21 157.777 345.342 155.844 344.135 153.025C343.154 150.779 341.93 147.978 340.715 145.15C340.22 144.004 339.734 142.859 339.257 141.74C335.95 133.972 339.813 128.379 346.6 129.417C352.581 130.339 360.506 147.441 360.506 147.441Z" fill="#263238"/>
<path d="M344.821 136.683C345.099 139.458 345.125 148.04 344.136 153.025C343.155 150.779 341.931 147.977 340.716 145.149L344.821 136.683Z" fill="#11709E"/>
<path opacity="0.8" d="M344.821 136.683C345.099 139.458 345.125 148.04 344.136 153.025C343.155 150.779 341.931 147.977 340.716 145.149L344.821 136.683Z" fill="#11709E"/>
<g opacity="0.8">
<path opacity="0.8" d="M344.821 136.683C345.099 139.458 345.125 148.04 344.136 153.025C343.155 150.779 341.931 147.977 340.716 145.149L344.821 136.683Z" fill="black"/>
<path opacity="0.8" d="M344.821 136.683C345.099 139.458 345.125 148.04 344.136 153.025C343.155 150.779 341.931 147.977 340.716 145.149L344.821 136.683Z" fill="black"/>
</g>
<path d="M366.209 207.061L213.632 165.214C211.65 164.656 209.962 163.315 208.932 161.483C207.902 159.651 207.613 157.474 208.129 155.423L215.368 127.358C215.915 125.32 217.217 123.586 218.994 122.529C220.771 121.473 222.879 121.179 224.864 121.711L377.441 163.549C379.424 164.108 381.114 165.449 382.145 167.284C383.175 169.118 383.462 171.298 382.944 173.349L375.705 201.36C375.169 203.408 373.871 205.156 372.093 206.223C370.315 207.291 368.201 207.592 366.209 207.061V207.061Z" fill="#11709E"/>
<path opacity="0.8" d="M366.209 207.061L213.632 165.214C211.65 164.656 209.962 163.315 208.932 161.483C207.902 159.651 207.613 157.474 208.129 155.423L215.368 127.358C215.915 125.32 217.217 123.586 218.994 122.529C220.771 121.473 222.879 121.179 224.864 121.711L377.441 163.549C379.424 164.108 381.114 165.449 382.145 167.284C383.175 169.118 383.462 171.298 382.944 173.349L375.705 201.36C375.169 203.408 373.871 205.156 372.093 206.223C370.315 207.291 368.201 207.592 366.209 207.061V207.061Z" fill="#FAFAFA"/>
<path d="M367.502 209.415L214.934 167.523C212.951 166.967 211.26 165.627 210.229 163.794C209.197 161.962 208.907 159.784 209.422 157.732L216.67 129.676C217.21 127.631 218.509 125.888 220.286 124.825C222.064 123.761 224.176 123.462 226.166 123.993L378.734 165.84C380.717 166.397 382.408 167.736 383.44 169.569C384.472 171.402 384.761 173.58 384.246 175.631L377.007 203.696C376.475 205.749 375.177 207.503 373.397 208.574C371.617 209.645 369.498 209.947 367.502 209.415V209.415Z" fill="#11709E"/>
<path opacity="0.4" d="M367.502 209.415L214.934 167.523C212.951 166.967 211.26 165.627 210.229 163.794C209.197 161.962 208.907 159.784 209.422 157.732L216.67 129.676C217.21 127.631 218.509 125.888 220.286 124.825C222.064 123.761 224.176 123.462 226.166 123.993L378.734 165.84C380.717 166.397 382.408 167.736 383.44 169.569C384.472 171.402 384.761 173.58 384.246 175.631L377.007 203.696C376.475 205.749 375.177 207.503 373.397 208.574C371.617 209.645 369.498 209.947 367.502 209.415V209.415Z" fill="#FAFAFA"/>
<path d="M368.803 211.688L216.235 169.841C214.252 169.284 212.561 167.945 211.529 166.112C210.498 164.279 210.208 162.101 210.723 160.05L217.962 131.985C218.503 129.94 219.805 128.197 221.584 127.135C223.363 126.073 225.477 125.777 227.467 126.311L380.035 168.149C382.03 168.705 383.73 170.053 384.763 171.898C385.796 173.743 386.078 175.935 385.547 177.994L378.299 206.05C377.75 208.086 376.447 209.819 374.671 210.873C372.894 211.928 370.787 212.221 368.803 211.688V211.688Z" fill="#11709E"/>
<path opacity="0.2" d="M368.803 211.688L216.235 169.841C214.252 169.284 212.561 167.945 211.529 166.112C210.498 164.279 210.208 162.101 210.723 160.05L217.962 131.985C218.503 129.94 219.805 128.197 221.584 127.135C223.363 126.073 225.477 125.777 227.467 126.311L380.035 168.149C382.03 168.705 383.73 170.053 384.763 171.898C385.796 173.743 386.078 175.935 385.547 177.994L378.299 206.05C377.75 208.086 376.447 209.819 374.671 210.873C372.894 211.928 370.787 212.221 368.803 211.688V211.688Z" fill="black"/>
<path d="M360.212 170.626L263.203 144.013C262.318 143.77 261.41 144.313 261.174 145.225L260.326 148.511C260.091 149.424 260.617 150.36 261.502 150.603L358.511 177.216C359.396 177.459 360.304 176.916 360.539 176.004L361.387 172.717C361.623 171.805 361.096 170.869 360.212 170.626Z" fill="#11709E"/>
<path opacity="0.7" d="M360.212 170.626L263.203 144.013C262.318 143.77 261.41 144.313 261.174 145.225L260.326 148.511C260.091 149.424 260.617 150.36 261.502 150.603L358.511 177.216C359.396 177.459 360.304 176.916 360.539 176.004L361.387 172.717C361.623 171.805 361.096 170.869 360.212 170.626Z" fill="#FAFAFA"/>
<path d="M321.615 171.93L260.339 155.119C259.455 154.877 258.546 155.42 258.311 156.332L257.463 159.618C257.227 160.531 257.754 161.467 258.639 161.71L319.914 178.52C320.799 178.762 321.707 178.22 321.943 177.307L322.791 174.021C323.026 173.109 322.5 172.172 321.615 171.93Z" fill="#11709E"/>
<path opacity="0.7" d="M321.615 171.93L260.339 155.119C259.455 154.877 258.546 155.42 258.311 156.332L257.463 159.618C257.227 160.531 257.754 161.467 258.639 161.71L319.914 178.52C320.799 178.762 321.707 178.22 321.943 177.307L322.791 174.021C323.026 173.109 322.5 172.172 321.615 171.93Z" fill="#FAFAFA"/>
<path d="M346.15 190.555L256.741 166.027C256.259 165.895 255.764 166.191 255.636 166.687L255.46 167.371C255.332 167.867 255.618 168.377 256.1 168.509L345.509 193.037C345.991 193.17 346.485 192.874 346.614 192.377L346.79 191.694C346.918 191.197 346.632 190.688 346.15 190.555Z" fill="#FAFAFA"/>
<path d="M246.866 160.104C251.766 152.837 250.024 142.851 242.976 137.8C235.927 132.749 226.242 134.545 221.343 141.812C216.443 149.078 218.185 159.064 225.234 164.116C232.282 169.167 241.967 167.371 246.866 160.104Z" fill="#11709E"/>
<path d="M247.12 155.003C246.467 157.534 245.1 159.809 243.192 161.539C241.285 163.27 238.923 164.378 236.405 164.725C233.887 165.071 231.325 164.64 229.045 163.486C226.764 162.331 224.867 160.506 223.592 158.24C222.318 155.974 221.724 153.369 221.885 150.755C222.047 148.14 222.956 145.634 224.499 143.553C226.042 141.472 228.149 139.909 230.553 139.062C232.957 138.216 235.551 138.123 238.006 138.796C239.642 139.233 241.178 140.001 242.524 141.055C243.87 142.109 245 143.428 245.848 144.936C246.695 146.443 247.245 148.11 247.463 149.838C247.681 151.566 247.565 153.322 247.12 155.003Z" fill="#FAFAFA"/>
<path d="M244.047 160.686C242.46 162.426 240.446 163.691 238.219 164.347C235.991 165.003 233.633 165.025 231.395 164.411C229.156 163.797 227.12 162.571 225.503 160.861C223.885 159.151 222.747 157.021 222.208 154.699C226.014 153.365 230.117 153.221 234.002 154.287C237.886 155.352 241.378 157.579 244.038 160.686H244.047Z" fill="#11709E"/>
<path opacity="0.7" d="M244.047 160.686C242.46 162.426 240.446 163.691 238.219 164.347C235.991 165.003 233.633 165.025 231.395 164.411C229.156 163.797 227.12 162.571 225.503 160.861C223.885 159.151 222.747 157.021 222.208 154.699C226.014 153.365 230.117 153.221 234.002 154.287C237.886 155.352 241.378 157.579 244.038 160.686H244.047Z" fill="#FAFAFA"/>
<path d="M241.366 148.738C241.074 149.865 240.465 150.877 239.616 151.647C238.767 152.416 237.715 152.909 236.594 153.063C235.473 153.217 234.333 153.025 233.318 152.511C232.303 151.997 231.458 151.184 230.891 150.176C230.324 149.167 230.059 148.008 230.131 146.844C230.202 145.681 230.607 144.565 231.293 143.638C231.979 142.711 232.916 142.015 233.986 141.638C235.056 141.26 236.21 141.218 237.304 141.516C238.031 141.715 238.713 142.059 239.31 142.53C239.908 143 240.41 143.588 240.788 144.258C241.165 144.929 241.41 145.67 241.509 146.439C241.609 147.208 241.56 147.989 241.366 148.738V148.738Z" fill="#11709E"/>
<path opacity="0.7" d="M241.366 148.738C241.074 149.865 240.465 150.877 239.616 151.647C238.767 152.416 237.715 152.909 236.594 153.063C235.473 153.217 234.333 153.025 233.318 152.511C232.303 151.997 231.458 151.184 230.891 150.176C230.324 149.167 230.059 148.008 230.131 146.844C230.202 145.681 230.607 144.565 231.293 143.638C231.979 142.711 232.916 142.015 233.986 141.638C235.056 141.26 236.21 141.218 237.304 141.516C238.031 141.715 238.713 142.059 239.31 142.53C239.908 143 240.41 143.588 240.788 144.258C241.165 144.929 241.41 145.67 241.509 146.439C241.609 147.208 241.56 147.989 241.366 148.738V148.738Z" fill="#FAFAFA"/>
<path d="M337.6 110.184C335.977 114.749 333.738 123.233 336.446 126.902C336.446 126.902 334.458 131.475 325.969 130.07C316.629 128.522 322.245 124.557 322.245 124.557C327.54 124.145 328.009 120.226 327.696 116.413L337.6 110.184Z" fill="#E4897B"/>
<path d="M320.292 126.079C320.769 125.246 320.344 121.998 320.344 121.998C320.344 121.998 333.85 120.969 338.572 123.027C341.098 124.128 338.572 128.763 338.572 128.763L320.292 126.079Z" fill="#11709E"/>
<path opacity="0.1" d="M320.292 126.079C320.769 125.246 320.344 121.998 320.344 121.998C320.344 121.998 333.85 120.969 338.572 123.027C341.098 124.128 338.572 128.763 338.572 128.763L320.292 126.079Z" fill="black"/>
<path d="M322.028 102.166C321.941 102.685 321.612 103.061 321.282 103.007C320.952 102.953 320.752 102.488 320.83 101.969C320.909 101.45 321.247 101.074 321.577 101.128C321.907 101.181 322.08 101.647 322.028 102.166Z" fill="#263238"/>
<path d="M321.968 102.425C321.122 103.913 320.079 105.271 318.869 106.462C319.171 106.778 319.536 107.023 319.94 107.177C320.343 107.332 320.775 107.393 321.204 107.357L321.968 102.425Z" fill="#DE5753"/>
<path d="M324.059 100.555C324.004 100.558 323.949 100.544 323.902 100.515C323.854 100.487 323.815 100.445 323.79 100.394C323.624 100.045 323.38 99.7426 323.079 99.5107C322.777 99.2788 322.425 99.1245 322.054 99.0603C321.983 99.043 321.921 99 321.878 98.939C321.835 98.8781 321.815 98.8033 321.821 98.7284C321.828 98.6535 321.86 98.5834 321.912 98.531C321.965 98.4785 322.033 98.4473 322.106 98.4428C322.576 98.5171 323.023 98.7061 323.408 98.9941C323.793 99.282 324.105 99.6607 324.32 100.098C324.357 100.171 324.365 100.256 324.342 100.334C324.32 100.413 324.268 100.479 324.198 100.519C324.156 100.543 324.108 100.556 324.059 100.555V100.555Z" fill="#263238"/>
<path d="M282.613 308.063L276.346 307.195L276.641 291.999L282.908 292.867L282.613 308.063Z" fill="#E4897B"/>
<path d="M329.398 315.205H323.07L318.148 300.098H324.467L329.398 315.205Z" fill="#E4897B"/>
<path d="M322.228 314.444H329.945C330.07 314.447 330.191 314.492 330.288 314.573C330.386 314.654 330.454 314.766 330.483 314.892L331.733 320.691C331.762 320.832 331.759 320.978 331.726 321.118C331.692 321.258 331.628 321.388 331.539 321.499C331.45 321.61 331.337 321.699 331.21 321.759C331.083 321.819 330.944 321.848 330.804 321.845C328.322 321.801 326.516 321.657 323.391 321.657C321.464 321.657 317.506 321.863 314.85 321.863C312.194 321.863 311.847 319.178 312.932 318.91C317.81 317.809 319.642 316.297 321.204 314.847C321.486 314.587 321.851 314.444 322.228 314.444V314.444Z" fill="#263238"/>
<path d="M276.128 305.719L282.977 306.667C283.101 306.685 283.215 306.747 283.3 306.841C283.386 306.936 283.437 307.058 283.446 307.186L283.932 313.102C283.944 313.245 283.924 313.388 283.875 313.522C283.825 313.655 283.747 313.776 283.646 313.874C283.545 313.972 283.424 314.045 283.291 314.088C283.159 314.131 283.019 314.143 282.881 314.122C280.416 313.728 276.875 313.084 273.767 312.654C270.139 312.144 267.691 311.867 263.464 311.276C260.86 310.918 260.53 308.135 261.641 308.037C266.684 307.616 269.965 308.108 274.549 306.005C275.039 305.761 275.586 305.662 276.128 305.719V305.719Z" fill="#263238"/>
<path d="M276.641 291.999L276.484 299.839L282.76 300.707L282.908 292.876L276.641 291.999Z" fill="#CE6F64"/>
<path d="M324.476 300.107H318.148L320.692 307.893H327.019L324.476 300.107Z" fill="#CE6F64"/>
<path d="M312.481 125.21C312.481 125.21 302.525 143.691 304.8 181.009L338.313 185.672C339.242 180.401 339.398 154.072 347.635 129.765C344.026 128.509 340.341 127.499 336.603 126.741C331.897 125.793 327.141 125.129 322.359 124.754C319.06 124.64 315.757 124.792 312.481 125.21V125.21Z" fill="#263238"/>
<path d="M316.336 134.625C314.947 137.104 313.471 139.503 311.996 141.937L307.508 149.096C306.015 151.495 304.453 153.857 302.882 156.256C302.1 157.437 301.293 158.609 300.486 159.782L299.262 161.572C298.811 162.207 298.281 162.932 297.778 163.532C295.801 165.861 293.622 168 291.268 169.921C289.002 171.783 286.702 173.501 284.324 175.112C279.629 178.316 274.731 181.192 269.663 183.721L267.346 179.47C271.686 176.186 276.026 172.723 280.157 169.205C282.215 167.416 284.228 165.626 286.112 163.755C287.948 161.988 289.638 160.067 291.164 158.01C291.528 157.518 291.806 157.115 292.136 156.551L293.203 154.761L295.33 151.181L299.583 143.959L303.836 136.71C305.286 134.312 306.701 131.878 308.176 129.506L316.336 134.625Z" fill="#E4897B"/>
<path d="M319.425 133.148C318.618 139.323 308.141 154.018 308.141 154.018L293.55 141.319C293.55 141.319 301.18 132.522 307.438 127.501C313.696 122.481 320.293 126.365 319.425 133.148Z" fill="#263238"/>
<path d="M270.486 177.609L265.026 179.524L270.495 185.404C270.495 185.404 273.828 184.992 273.524 180.249L270.486 177.609Z" fill="#E4897B"/>
<path d="M261.406 183.999L267.647 187.158L270.494 185.404L265.026 179.524L261.406 183.999Z" fill="#E4897B"/>
<path d="M339.249 103.186C337.878 109.504 337.383 113.272 333.755 116.028C328.286 120.172 321.108 116.028 320.622 109.379C320.179 103.428 322.497 94.1023 328.955 92.563C330.375 92.2172 331.858 92.2517 333.262 92.6632C334.666 93.0747 335.944 93.8495 336.976 94.914C338.007 95.9786 338.758 97.2974 339.156 98.7452C339.554 100.193 339.586 101.722 339.249 103.186V103.186Z" fill="#E4897B"/>
<path d="M347.729 102.971C347.648 102.485 347.468 102.022 347.2 101.613C346.932 101.204 346.583 100.859 346.176 100.6C349.144 99.2572 347.66 97.7 345.125 95.4269C341.853 92.4109 340.49 86.3075 340.638 85.0009C339.605 86.6207 339.883 89.0102 340.759 91.158C339.667 89.9178 338.786 88.4956 338.155 86.9518C335.621 80.392 330.144 86.1285 324.858 86.3164C315.978 86.6297 323.009 81.8418 329.527 81.985C319.814 78.9153 310.128 82.7188 311.707 89.4129C313.287 96.107 324.154 87.623 324.094 93.7981C324.094 95.051 325.422 96.286 327.392 97.2615C324.658 103.061 331.324 114.713 335.204 115.089C339.084 115.464 345.881 108.502 346.167 102.47C346.714 102.533 347.244 102.703 347.729 102.971V102.971Z" fill="#263238"/>
<path d="M330.431 104.627C330.044 106.203 329.071 107.56 327.723 108.403C325.917 109.495 324.485 107.974 324.528 105.924C324.572 104.09 325.57 101.298 327.592 101.038C328.036 100.99 328.484 101.056 328.896 101.231C329.308 101.406 329.672 101.684 329.954 102.04C330.235 102.397 330.426 102.82 330.51 103.271C330.593 103.723 330.566 104.189 330.431 104.627V104.627Z" fill="#E4897B"/>
<path d="M329.303 306.381H317.689C317.689 306.381 302.395 266.171 300.772 245.31C300.424 240.836 301.119 234.938 302.403 228.593C304.591 217.747 308.479 205.513 311.604 196.375C314.408 188.321 316.656 182.638 316.656 182.638L338.295 185.654C336.169 201.844 319 227.591 318.8 249.731C318.635 270.154 329.303 306.381 329.303 306.381Z" fill="#11709E"/>
<path opacity="0.1" d="M329.303 306.381H317.689C317.689 306.381 302.395 266.171 300.772 245.31C300.424 240.836 301.119 234.938 302.403 228.593C304.591 217.747 308.479 205.513 311.604 196.375C314.408 188.321 316.656 182.638 316.656 182.638L338.295 185.654C336.169 201.844 319 227.591 318.8 249.731C318.635 270.154 329.303 306.381 329.303 306.381Z" fill="black"/>
<path d="M317.107 201.459C316.351 212.278 308.279 223.787 302.429 228.593C304.616 217.746 308.505 205.513 311.629 196.375C313.27 196.17 315.865 199.508 317.107 201.459Z" fill="#11709E"/>
<path opacity="0.2" d="M317.107 201.459C316.351 212.278 308.279 223.787 302.429 228.593C304.616 217.746 308.505 205.513 311.629 196.375C313.27 196.17 315.865 199.508 317.107 201.459Z" fill="black"/>
<path d="M304.799 181.01C304.799 181.01 275.044 221.863 273.143 241.632C271.164 262.216 274.332 298.013 274.332 298.013L284.947 299.49C284.947 299.49 288.15 265.876 291.266 245.794C294.652 223.922 326.854 201.307 329.103 184.375L304.799 181.01Z" fill="#11709E"/>
<path opacity="0.1" d="M304.799 181.01C304.799 181.01 275.044 221.863 273.143 241.632C271.164 262.216 274.332 298.013 274.332 298.013L284.947 299.49C284.947 299.49 288.15 265.876 291.266 245.794C294.652 223.922 326.854 201.307 329.103 184.375L304.799 181.01Z" fill="black"/>
<path d="M315.665 306.64H330.812V302.434L313.886 302.166L315.665 306.64Z" fill="#11709E"/>
<path opacity="0.4" d="M315.665 306.64H330.812V302.434L313.886 302.166L315.665 306.64Z" fill="#FAFAFA"/>
<path d="M272.189 297.942L286.936 300.027L287.483 295.821L271 293.261L272.189 297.942Z" fill="#11709E"/>
<path opacity="0.4" d="M272.189 297.942L286.936 300.027L287.483 295.821L271 293.261L272.189 297.942Z" fill="#FAFAFA"/>
<path d="M320.135 315.59C319.704 315.622 319.276 315.502 318.92 315.25C318.805 315.153 318.715 315.027 318.66 314.885C318.606 314.742 318.588 314.587 318.607 314.435C318.607 314.345 318.632 314.256 318.678 314.178C318.724 314.101 318.789 314.038 318.868 313.997C319.562 313.639 321.611 314.892 321.836 315.071C321.86 315.087 321.88 315.11 321.892 315.137C321.904 315.164 321.909 315.194 321.906 315.223C321.903 315.254 321.89 315.282 321.87 315.305C321.849 315.327 321.822 315.343 321.793 315.348C321.252 315.496 320.695 315.578 320.135 315.59ZM319.198 314.239C319.135 314.223 319.07 314.223 319.007 314.239C319.007 314.239 318.92 314.301 318.911 314.418C318.897 314.521 318.908 314.627 318.942 314.725C318.977 314.824 319.035 314.912 319.111 314.981C319.819 315.312 320.622 315.354 321.359 315.098C320.699 314.671 319.965 314.379 319.198 314.239V314.239Z" fill="#11709E"/>
<path d="M321.759 315.357H321.689C321.029 314.99 319.771 313.567 319.901 312.833C319.923 312.72 319.983 312.617 320.07 312.544C320.157 312.471 320.266 312.431 320.378 312.431C320.492 312.414 320.607 312.423 320.716 312.457C320.826 312.491 320.927 312.549 321.012 312.628C321.75 313.245 321.88 315.125 321.88 315.205C321.885 315.233 321.881 315.263 321.868 315.288C321.856 315.314 321.836 315.335 321.811 315.348L321.759 315.357ZM320.483 312.672H320.413C320.222 312.672 320.205 312.789 320.196 312.825C320.118 313.254 320.925 314.337 321.576 314.847C321.528 314.106 321.269 313.396 320.83 312.807C320.729 312.732 320.606 312.697 320.483 312.708V312.672Z" fill="#11709E"/>
<path d="M274.533 306.56C273.543 306.56 272.363 306.426 271.929 305.88C271.841 305.773 271.778 305.645 271.746 305.509C271.715 305.372 271.715 305.229 271.747 305.092C271.765 305.009 271.802 304.932 271.855 304.867C271.907 304.801 271.974 304.75 272.05 304.716C272.866 304.394 275.21 306.059 275.479 306.247C275.504 306.266 275.524 306.292 275.535 306.322C275.546 306.352 275.547 306.386 275.54 306.417C275.531 306.448 275.512 306.475 275.487 306.494C275.462 306.513 275.432 306.524 275.401 306.524C275.158 306.542 274.845 306.56 274.533 306.56ZM272.293 304.985C272.239 304.971 272.183 304.971 272.128 304.985C272.098 304.995 272.072 305.014 272.052 305.039C272.032 305.065 272.019 305.096 272.016 305.128C271.993 305.218 271.991 305.311 272.011 305.402C272.031 305.492 272.071 305.576 272.128 305.647C272.467 306.05 273.5 306.265 274.906 306.211C274.123 305.626 273.235 305.21 272.293 304.985Z" fill="#11709E"/>
<path d="M275.365 306.533H275.286C274.575 306.077 273.264 304.475 273.472 303.759C273.516 303.598 273.655 303.401 274.037 303.401H274.08C274.23 303.408 274.377 303.446 274.512 303.512C274.648 303.578 274.769 303.671 274.87 303.786C275.347 304.568 275.571 305.486 275.512 306.408C275.513 306.435 275.506 306.463 275.492 306.487C275.479 306.511 275.458 306.53 275.434 306.542L275.365 306.533ZM274.037 303.687C273.794 303.687 273.767 303.785 273.759 303.821C273.629 304.251 274.505 305.486 275.217 306.077C275.241 305.329 275.041 304.591 274.644 303.964C274.573 303.88 274.485 303.811 274.386 303.763C274.288 303.715 274.18 303.69 274.071 303.687H274.037Z" fill="#11709E"/>
</svg>
