<svg width="181" height="153" viewBox="0 0 181 153" fill="none" xmlns="http://www.w3.org/2000/svg">
<path d="M26.3661 138.913C61.5139 157.248 118.502 157.248 153.654 138.913C188.806 120.577 188.802 90.8514 153.654 72.5158C118.506 54.1803 61.5139 54.1761 26.3619 72.5158C-8.7901 90.8555 -8.7859 120.577 26.3661 138.913Z" fill="#FAFAFA"/>
<path d="M120.793 142.161C127.981 142.161 133.808 139.388 133.808 135.966C133.808 132.545 127.981 129.772 120.793 129.772C113.605 129.772 107.778 132.545 107.778 135.966C107.778 139.388 113.605 142.161 120.793 142.161Z" fill="#F0F0F0"/>
<path d="M121.104 25.0172C121.05 25.0165 120.997 25.0025 120.949 24.9763L119.672 24.2368C119.637 24.2166 119.606 24.1896 119.582 24.1574C119.557 24.1253 119.539 24.0885 119.528 24.0494C119.518 24.0102 119.515 23.9693 119.52 23.9291C119.525 23.8889 119.539 23.8501 119.559 23.8149C119.579 23.7798 119.606 23.7489 119.638 23.7242C119.671 23.6995 119.707 23.6813 119.747 23.6708C119.786 23.6603 119.827 23.6576 119.867 23.6628C119.907 23.6681 119.946 23.6812 119.981 23.7015L121.258 24.441C121.293 24.4612 121.324 24.4882 121.349 24.5203C121.374 24.5525 121.392 24.5892 121.403 24.6284C121.413 24.6676 121.416 24.7085 121.411 24.7487C121.405 24.789 121.392 24.8278 121.372 24.8629C121.345 24.9099 121.306 24.9489 121.258 24.976C121.211 25.003 121.158 25.0173 121.104 25.0172V25.0172Z" fill="white"/>
<path d="M38.5693 51.9164V119.416C38.5693 120.169 39.0964 120.473 39.7461 120.097L118.595 74.6416C118.939 74.4176 119.225 74.1161 119.43 73.7614C119.635 73.4068 119.754 73.009 119.777 72.6V5.10027C119.777 4.34714 119.245 4.04317 118.595 4.41973L39.7461 49.8748C39.4031 50.0988 39.1178 50.4004 38.9133 50.7551C38.7089 51.1098 38.591 51.5077 38.5693 51.9164V51.9164Z" fill="#3B92BC"/>
<path d="M47.7969 64.3837C47.7969 66.7384 49.5552 67.6276 51.7316 66.3754L114.238 30.339V21.8278L51.7316 57.8597C49.5552 59.1164 47.7969 62.0336 47.7969 64.3837Z" fill="#F5F5F5"/>
<path d="M119.554 18.7744C121.726 17.5223 123.489 18.4115 123.489 20.7616C123.489 23.1117 121.726 26.0335 119.554 27.2856L114.261 30.339V21.8278L119.554 18.7744Z" fill="#C73583"/>
<path d="M117.646 25.9472C117.42 25.9504 117.197 25.8924 117.001 25.7794C116.76 25.618 116.566 25.3946 116.442 25.1327C116.317 24.8708 116.265 24.58 116.292 24.2913C116.325 23.5812 116.528 22.8892 116.883 22.2735C117.239 21.6578 117.737 21.1362 118.337 20.7525C118.566 20.5661 118.846 20.4538 119.14 20.4303C119.434 20.4069 119.729 20.4734 119.984 20.6212C120.24 20.769 120.444 20.9909 120.57 21.2575C120.696 21.5241 120.738 21.8227 120.69 22.1136C120.657 22.8234 120.453 23.5149 120.098 24.1305C119.742 24.746 119.244 25.2678 118.646 25.6523C118.344 25.8364 117.999 25.9381 117.646 25.9472V25.9472ZM119.332 21.0701C119.088 21.0821 118.852 21.1571 118.646 21.2878C118.144 21.6207 117.726 22.0651 117.425 22.5862C117.124 23.1072 116.948 23.6908 116.91 24.2913C116.863 24.4719 116.877 24.663 116.949 24.8351C117.022 25.0072 117.148 25.1509 117.31 25.2441C117.472 25.3373 117.66 25.3749 117.846 25.3511C118.031 25.3273 118.204 25.2435 118.337 25.1124C118.839 24.7801 119.257 24.3358 119.558 23.8146C119.86 23.2935 120.036 22.7096 120.072 22.109C120.096 21.9291 120.071 21.7463 120.001 21.579C119.931 21.4117 119.817 21.2658 119.673 21.1563C119.569 21.097 119.451 21.0672 119.332 21.0701V21.0701Z" fill="white"/>
<path d="M120.463 37.4029L60.0329 72.219C59.6883 72.4417 59.4015 72.7429 59.1961 73.0978C58.9908 73.4527 58.8727 73.8512 58.8516 74.2606V92.83C58.8516 93.5832 59.3786 93.8871 60.0329 93.5106L120.463 58.6809C120.807 58.4576 121.093 58.1563 121.298 57.8015C121.504 57.4467 121.622 57.0485 121.644 56.6393V38.0834C121.621 37.3303 121.094 37.0263 120.463 37.4029Z" fill="#C73583"/>
<path opacity="0.2" d="M120.463 37.4029L60.0329 72.219C59.6883 72.4417 59.4015 72.7429 59.1961 73.0978C58.9908 73.4527 58.8727 73.8512 58.8516 74.2606V92.83C58.8516 93.5832 59.3786 93.8871 60.0329 93.5106L120.463 58.6809C120.807 58.4576 121.093 58.1563 121.298 57.8015C121.504 57.4467 121.622 57.0485 121.644 56.6393V38.0834C121.621 37.3303 121.094 37.0263 120.463 37.4029Z" fill="white"/>
<path d="M82.0016 62.6506L92.9516 56.3353C93.4968 56.0222 93.9376 56.2445 93.9376 56.8343C93.9129 57.1641 93.8107 57.4834 93.6394 57.7663C93.4681 58.0493 93.2325 58.288 92.9516 58.4631L82.0016 64.7784C81.4564 65.0915 81.0156 64.8692 81.0156 64.2794C81.0403 63.9497 81.1425 63.6304 81.3138 63.3474C81.4851 63.0644 81.7207 62.8257 82.0016 62.6506V62.6506Z" fill="white"/>
<path d="M81.0156 68.5349C81.0156 69.1247 81.47 69.347 82.0016 69.034L115.102 49.9519C115.382 49.7755 115.617 49.5358 115.787 49.2521C115.958 48.9684 116.059 48.6486 116.083 48.3186C116.083 47.7333 115.629 47.511 115.102 47.8241L82.0016 66.9062C81.7207 67.0813 81.4851 67.32 81.3138 67.603C81.1425 67.8859 81.0403 68.2052 81.0156 68.5349Z" fill="white"/>
<path d="M81.0156 72.7906C81.0156 73.3804 81.47 73.6027 82.0016 73.2896L115.102 54.2075C115.382 54.0312 115.617 53.7915 115.787 53.5077C115.958 53.224 116.059 52.9042 116.083 52.5742C116.083 51.9889 115.629 51.7666 115.102 52.0797L82.0016 71.1618C81.7207 71.3369 81.4851 71.5756 81.3138 71.8586C81.1425 72.1416 81.0403 72.4608 81.0156 72.7906Z" fill="white"/>
<path d="M81.0156 77.0462C81.0156 77.636 81.47 77.8583 82.0016 77.5453L115.102 58.4631C115.382 58.2868 115.617 58.0471 115.787 57.7633C115.958 57.4796 116.059 57.1598 116.083 56.8298C116.083 56.2446 115.629 56.0222 115.102 56.3353L82.0016 75.4174C81.7207 75.5925 81.4851 75.8312 81.3138 76.1142C81.1425 76.3972 81.0403 76.7165 81.0156 77.0462V77.0462Z" fill="white"/>
<path d="M61.8962 73.2806L76.1449 65.0643C76.7991 64.6922 77.3262 64.9962 77.3262 65.7448V80.0496C77.304 80.4587 77.1854 80.8568 76.9802 81.2116C76.7749 81.5663 76.4887 81.8677 76.1449 82.0912L61.8962 90.303C61.2464 90.6795 60.7148 90.3756 60.7148 89.627V75.3222C60.7367 74.913 60.8551 74.5148 61.0604 74.1599C61.2657 73.8051 61.5521 73.5038 61.8962 73.2806V73.2806Z" fill="white"/>
<path d="M73.4369 72.2053L69.1977 80.9797L67.0395 79.7365C66.831 79.6164 66.5833 79.5839 66.3507 79.646C66.1181 79.708 65.9198 79.8597 65.7991 80.0677L60.7148 88.8557V89.6224C60.7148 90.3756 61.2464 90.6795 61.8962 90.303L76.1449 82.0912C76.489 81.8679 76.7754 81.5666 76.9807 81.2118C77.186 80.857 77.3043 80.4588 77.3262 80.0496V75.0273L74.4592 72.042C74.3942 71.9586 74.308 71.8942 74.2096 71.8554C74.1112 71.8167 74.0041 71.805 73.8996 71.8217C73.7952 71.8384 73.6971 71.8828 73.6157 71.9503C73.5343 72.0178 73.4725 72.1058 73.4369 72.2053V72.2053Z" fill="#C73583"/>
<path d="M62.8549 78.5161C63.7358 77.9423 64.4689 77.1692 64.9946 76.2595C65.5204 75.3499 65.824 74.3293 65.8809 73.2806C65.9111 72.9324 65.8586 72.582 65.7275 72.258C65.5965 71.934 65.3906 71.6454 65.1267 71.4159L61.8962 73.2806C61.5521 73.5038 61.2657 73.8051 61.0604 74.1599C60.8551 74.5147 60.7367 74.913 60.7148 75.3222V78.7248C61.2646 79.0424 62.0189 78.997 62.8549 78.5161Z" fill="#C73583"/>
<path d="M120.463 65.0642L60.0329 99.8803C59.6888 100.104 59.4024 100.405 59.1971 100.76C58.9918 101.114 58.8734 101.513 58.8516 101.922V120.505C58.8516 121.254 59.3786 121.557 60.0329 121.185L120.463 86.3467C120.807 86.1235 121.093 85.8222 121.298 85.4674C121.504 85.1126 121.622 84.7143 121.644 84.3051V65.7447C121.621 64.9961 121.094 64.7012 120.463 65.0642Z" fill="#C73583"/>
<path opacity="0.2" d="M120.463 65.0642L60.0329 99.8803C59.6888 100.104 59.4024 100.405 59.1971 100.76C58.9918 101.114 58.8734 101.513 58.8516 101.922V120.505C58.8516 121.254 59.3786 121.557 60.0329 121.185L120.463 86.3467C120.807 86.1235 121.093 85.8222 121.298 85.4674C121.504 85.1126 121.622 84.7143 121.644 84.3051V65.7447C121.621 64.9961 121.094 64.7012 120.463 65.0642Z" fill="white"/>
<path d="M82.0016 90.312L92.9516 84.0012C93.4968 83.6881 93.9376 83.9105 93.9376 84.4957C93.9136 84.8262 93.8118 85.1464 93.6404 85.4302C93.4691 85.714 93.2331 85.9535 92.9516 86.129L82.0016 92.4398C81.4564 92.7528 81.0156 92.5305 81.0156 91.9453C81.0396 91.6148 81.1414 91.2946 81.3128 91.0108C81.4841 90.7269 81.7201 90.4875 82.0016 90.312Z" fill="white"/>
<path d="M81.0156 96.2009C81.0156 96.7861 81.47 97.0084 82.0016 96.6954L115.102 77.6132C115.381 77.4374 115.616 77.1984 115.786 76.9155C115.957 76.6326 116.058 76.3137 116.083 75.9845C116.083 75.3947 115.629 75.1724 115.102 75.4854L82.0016 94.5676C81.7201 94.7431 81.4841 94.9825 81.3128 95.2663C81.1414 95.5502 81.0396 95.8703 81.0156 96.2009Z" fill="white"/>
<path d="M81.0156 100.456C81.0156 101.042 81.47 101.264 82.0016 100.951L115.102 81.8688C115.381 81.693 115.616 81.454 115.786 81.1711C115.957 80.8882 116.058 80.5693 116.083 80.2401C116.083 79.6503 115.629 79.428 115.102 79.741L82.0016 98.8232C81.7201 98.9987 81.4841 99.2381 81.3128 99.5219C81.1414 99.8058 81.0396 100.126 81.0156 100.456Z" fill="white"/>
<path d="M81.0156 104.712C81.0156 105.297 81.47 105.52 82.0016 105.207L115.102 86.1245C115.381 85.9486 115.616 85.7096 115.786 85.4267C115.957 85.1438 116.058 84.8249 116.083 84.4957C116.083 83.9059 115.629 83.6836 115.102 83.9967L82.0016 103.079C81.7201 103.254 81.4841 103.494 81.3128 103.778C81.1414 104.061 81.0396 104.382 81.0156 104.712Z" fill="white"/>
<path d="M61.8962 100.946L76.1449 92.7302C76.7991 92.3536 77.3262 92.6576 77.3262 93.4107V107.711C77.3051 108.12 77.187 108.519 76.9816 108.874C76.7763 109.229 76.4895 109.53 76.1449 109.753L61.8962 117.969C61.2464 118.345 60.7148 118.041 60.7148 117.288V102.988C60.7367 102.579 60.8551 102.181 61.0604 101.826C61.2657 101.471 61.5521 101.17 61.8962 100.946V100.946Z" fill="white"/>
<path d="M73.4369 99.8712L69.1977 108.646L67.0395 107.398C66.936 107.339 66.8218 107.3 66.7034 107.285C66.5851 107.27 66.4649 107.278 66.3497 107.309C66.2345 107.34 66.1266 107.394 66.0321 107.467C65.9377 107.54 65.8585 107.63 65.7991 107.734L60.7148 116.522V117.288C60.7148 118.041 61.2464 118.345 61.8962 117.969L76.1449 109.753C76.4889 109.53 76.7753 109.23 76.9806 108.876C77.1859 108.522 77.3044 108.124 77.3262 107.715V102.689L74.4592 99.7079C74.3951 99.6231 74.309 99.5573 74.2103 99.5177C74.1116 99.478 74.0039 99.4659 73.8989 99.4827C73.7938 99.4995 73.6953 99.5445 73.6139 99.613C73.5325 99.6814 73.4713 99.7707 73.4369 99.8712V99.8712Z" fill="#C73583"/>
<path d="M62.8549 106.177C63.7357 105.605 64.4688 104.832 64.9946 103.923C65.5204 103.014 65.824 101.995 65.8809 100.946C65.9111 100.598 65.8586 100.248 65.7275 99.9239C65.5965 99.5998 65.3906 99.3113 65.1267 99.0818L61.8962 100.946C61.5521 101.17 61.2657 101.471 61.0604 101.826C60.8551 102.181 60.7367 102.579 60.7148 102.988V106.391C61.2646 106.704 62.0189 106.658 62.8549 106.177Z" fill="#C73583"/>
<path d="M118.925 3.73209V0.842088C118.925 0.0889652 118.394 -0.215006 117.744 0.161555L38.8991 45.6166C38.555 45.8399 38.2686 46.1412 38.0633 46.496C37.858 46.8508 37.7396 47.249 37.7178 47.6582V50.5527L118.925 3.73209Z" fill="#C73583"/>
<path d="M110.104 10.422C109.85 10.5887 109.638 10.8126 109.487 11.0758C109.335 11.3391 109.248 11.6341 109.231 11.9373C109.231 12.4954 109.622 12.7222 110.104 12.4409C110.359 12.2766 110.572 12.0539 110.725 11.7912C110.877 11.5285 110.965 11.2333 110.981 10.9301C110.981 10.3721 110.59 10.1452 110.104 10.422Z" fill="#F5F5F5"/>
<path d="M113.579 8.44395C113.324 8.61009 113.112 8.83384 112.959 9.09709C112.807 9.36034 112.719 9.65569 112.702 9.95926C112.702 10.5173 113.097 10.7396 113.579 10.4629C113.835 10.2975 114.048 10.074 114.2 9.81054C114.353 9.54712 114.44 9.25136 114.456 8.94754C114.456 8.36682 114.065 8.14451 113.579 8.44395Z" fill="#F5F5F5"/>
<path d="M117.055 6.42052C116.799 6.58487 116.586 6.80758 116.434 7.07027C116.281 7.33296 116.193 7.62809 116.178 7.9313C116.178 8.48934 116.568 8.71618 117.055 8.43943C117.309 8.27278 117.52 8.04881 117.672 7.7856C117.823 7.52238 117.911 7.22728 117.927 6.92411C117.927 6.36608 117.536 6.13923 117.055 6.42052Z" fill="#F5F5F5"/>
<path d="M166.415 131.426C166.669 132 166.844 132.599 166.936 133.211C167.173 133.844 167.227 134.519 167.095 135.175C166.53 136.013 165.63 136.632 164.576 136.908C163.825 137.062 163.047 137.075 162.291 136.946C161.535 136.817 160.817 136.55 160.183 136.161C158.646 135.347 157.495 134.354 155.312 133.808C153.754 133.51 152.288 132.916 151.011 132.068C149.802 131.209 148.189 128.819 150.499 128.266C152.809 127.714 157.84 129.663 162.417 129.842L166.415 131.426Z" fill="#263238"/>
<path d="M166.197 128.737C166.197 128.737 166.466 131.59 166.466 131.941C166.466 132.905 162.468 134.182 161.729 131.941L161.091 128.909L166.197 128.737Z" fill="#F28F8F"/>
<path d="M161.292 66.1396C162.667 67.9371 163.926 69.8024 165.064 71.7264C165.064 71.7264 165.458 75.8791 165.458 78.6427C165.458 83.7215 164.576 87.6427 163.779 97.6511C165.078 99.6199 165.821 101.839 165.946 104.119C166.281 108.653 166.29 108.601 166.323 129.514C165.558 129.881 164.718 130.108 163.853 130.183C162.988 130.257 162.114 130.177 161.284 129.947L153.725 100.661L152.885 89.1664L150.517 74.8783L161.292 66.1396Z" fill="#37474F"/>
<path d="M143.403 136.661C143.671 136.908 143.579 137.408 143.705 138.23C143.845 138.862 143.881 139.508 143.814 140.149C143.373 141.038 142.577 141.748 141.58 142.144C140.855 142.376 140.084 142.473 139.315 142.428C138.546 142.383 137.796 142.197 137.112 141.882C135.482 141.24 134.197 140.388 131.955 140.082C130.368 139.961 128.829 139.535 127.445 138.835C126.126 138.088 124.186 135.922 126.403 135.1C128.621 134.279 134.181 135.75 138.741 135.422L143.403 136.661Z" fill="#263238"/>
<path d="M144.452 133.076C144.452 133.076 143.612 136.333 143.385 137.057C142.881 138.798 138.539 138.887 138.539 136.878L138.833 132.247L144.452 133.076Z" fill="#F28F8F"/>
<path d="M151.49 67.0286C153.666 70.8303 155.765 74.1838 155.833 78.232C155.992 86.7988 151.994 96.2321 150.525 102.424C150.962 104.665 151.087 106.945 150.894 109.213C150.6 111.805 143.957 135.354 143.957 135.354C143.957 135.354 140.261 136.042 138.69 134.555L140.555 89.2113L141.059 76.0436L151.49 67.0286Z" fill="#37474F"/>
<path d="M148.501 43.8076L149.87 50.552L156.724 50.1039L155.287 42.4631L148.501 43.8076Z" fill="#FFA8A7"/>
<path d="M163.955 49.6109C163.274 47.781 160.662 45.7868 158.075 46.22C154.19 46.8073 150.36 47.6562 146.619 48.7594C144.226 49.5063 142.042 51.3661 141.84 58.372L141.093 75.9987C142.128 76.817 143.37 77.4012 144.713 77.7016C148.349 78.5904 150.752 79.1207 156.278 78.0452C163.476 76.6485 165.189 72.7721 165.189 72.7721C165.189 72.7721 164.912 63.4434 164.694 58.372C164.517 54.0624 164.417 50.8731 163.955 49.6109Z" fill="#455A64"/>
<path d="M145.578 35.1959L110.68 26.7784C107.522 26.2929 106.203 33.1494 109.361 33.6274L145.2 36.8465L145.578 35.1959Z" fill="#263238"/>
<path d="M135.541 49.4168L128.41 49.611C128.41 49.611 129.485 40.1777 130.149 38.9379C130.812 37.698 132.4 37.444 133.979 37.0482C135.558 36.6523 135.549 35.9801 135.549 35.9801L134.13 35.8532C132.887 35.7411 132.391 34.3594 132.929 33.4258C133.189 32.9926 133.609 32.3054 134.365 32.4922L136.246 32.9477C136.275 32.2097 136.069 31.4793 135.65 30.8415C135.02 30.2216 134.6 30.4158 133.34 30.0274C132.408 29.7361 130.501 29.2208 128.964 29.7809C127.427 30.3411 126.26 32.9104 125.865 34.7254C125.466 36.8241 124.818 38.8795 123.933 40.8574C122.564 44.2184 120.574 51.1197 120.364 53.8832C120.272 55.1604 120.406 55.9222 122.002 56.2583C123.598 56.5944 135.339 56.6168 135.339 56.6168L135.541 49.4168Z" fill="#FFA8A7"/>
<path d="M143.428 35.8232C143.428 35.8232 141.748 38.0041 141.984 38.2432C142.363 38.4681 142.784 38.6324 143.227 38.7286L143.428 35.8232Z" fill="#FFA8A7"/>
<path d="M148.492 28.9369C146.896 29.6838 144.141 30.976 143.377 36.1743C142.596 41.5072 143.629 43.225 144.435 43.9345C144.99 44.4126 147.963 44.4424 149.475 44.0391C151.339 43.5462 155.547 42.1196 157.471 39.3785C159.73 36.1519 160.234 31.8349 157.689 30.117C156.394 29.2435 154.871 28.6769 153.262 28.4705C151.653 28.2641 150.012 28.4246 148.492 28.9369V28.9369Z" fill="#FFA8A7"/>
<path d="M153.188 93.2967L156.824 84.1547C159.643 83.2661 162.169 81.767 164.173 79.7928C164.173 79.7928 163.333 82.3995 157.589 85.0734L153.599 93.7224V98.5324L153.188 93.2967Z" fill="#263238"/>
<path d="M143.05 30.6921C143.57 31.9693 144.452 35.1062 148.131 36.4133C148.131 36.4133 148.66 34.4191 150.542 34.6282C152.423 34.8374 152.75 36.9809 151.591 38.3104C150.432 39.6399 149.307 39.1619 149.307 39.1619C149.307 39.1619 149.055 42.0225 151.205 43.3221C152.006 43.7418 152.905 43.9906 153.832 44.0489C154.758 44.1073 155.688 43.9735 156.547 43.6582C157.781 43.1577 159.537 40.5212 160.562 38.3552C162.728 33.7842 163.039 30.1394 159.722 28.9593C159.31 26.8829 158.26 26.0987 156.144 25.7103C151.591 24.8813 148.148 27.5402 144.326 27.0697C142.369 26.8232 142.445 29.2282 143.05 30.6921Z" fill="#263238"/>
<path d="M159.83 29.6838L161.98 28.4962C161.793 28.2633 161.513 28.1025 161.197 28.0464C160.881 27.9904 160.553 28.0432 160.28 28.1943C160.006 28.3455 159.807 28.5835 159.724 28.8601C159.641 29.1367 159.679 29.4312 159.83 29.6838V29.6838Z" fill="#263238"/>
<path d="M133.946 49.2897C133.946 49.2897 143.982 48.7744 146.544 48.7594C149.106 48.7445 151.827 52.6358 150.231 55.2873C149.173 57.0275 145.872 57.6251 141.715 57.8043C137.557 57.9836 133.366 57.9836 133.366 57.9836C133.366 57.9836 129.629 54.1968 133.946 49.2897Z" fill="#455A64"/>
<path d="M141.84 57.8044C141.84 57.8044 148.198 57.7297 150.281 55.2874C150.281 55.2874 149.794 56.7812 147.324 57.6998C145.555 58.3047 143.69 58.6624 141.798 58.7604L141.84 57.8044Z" fill="#37474F"/>
<path d="M110.68 26.7784C107.522 26.2929 106.203 33.1494 109.361 33.6274L114.401 34.0755C112.351 33.8888 113.771 27.5178 115.333 27.8913L110.68 26.7784Z" fill="#455A64"/>
</svg>
