<svg width="33" height="32" viewBox="0 0 33 32" fill="none" xmlns="http://www.w3.org/2000/svg">
<path d="M19.2552 15.7217L15.3948 13.975C15.058 13.8233 14.7812 13.9933 14.7812 14.355V17.645C14.7812 18.0067 15.058 18.1767 15.3948 18.025L19.2534 16.2783C19.592 16.125 19.592 15.875 19.2552 15.7217ZM16.5 0C7.38719 0 0 7.16333 0 16C0 24.8367 7.38719 32 16.5 32C25.6128 32 33 24.8367 33 16C33 7.16333 25.6128 0 16.5 0ZM16.5 22.5C8.05406 22.5 7.90625 21.7617 7.90625 16C7.90625 10.2383 8.05406 9.5 16.5 9.5C24.9459 9.5 25.0937 10.2383 25.0937 16C25.0937 21.7617 24.9459 22.5 16.5 22.5Z" fill="#11709E"/>
</svg>
