<svg width="33" height="32" viewBox="0 0 33 32" fill="none" xmlns="http://www.w3.org/2000/svg">
<path d="M16.5 0C7.38719 0 0 7.16333 0 16C0 24.8367 7.38719 32 16.5 32C25.6128 32 33 24.8367 33 16C33 7.16333 25.6128 0 16.5 0ZM12.4609 22.6317H9.11969V12.205H12.4609V22.6317ZM10.7697 10.925C9.71437 10.925 9.03203 10.2 9.03203 9.30333C9.03203 8.38833 9.735 7.685 10.8127 7.685C11.8903 7.685 12.5503 8.38833 12.5709 9.30333C12.5709 10.2 11.8903 10.925 10.7697 10.925ZM24.6641 22.6317H21.3228V16.8533C21.3228 15.5083 20.8381 14.595 19.6298 14.595C18.7069 14.595 18.1586 15.2133 17.9163 15.8083C17.8269 16.02 17.8045 16.32 17.8045 16.6183V22.63H14.4616V15.53C14.4616 14.2283 14.4186 13.14 14.3739 12.2033H17.2769L17.4298 13.6517H17.4969C17.9369 12.9717 19.0145 11.9683 20.8175 11.9683C23.0158 11.9683 24.6641 13.3967 24.6641 16.4667V22.6317V22.6317Z" fill="#11709E"/>
</svg>
