<svg width="33" height="32" viewBox="0 0 33 32" fill="none" xmlns="http://www.w3.org/2000/svg">
<path d="M30.5321 7.39981C25.5957 -0.000243984 15.5172 -2.20026 7.70122 2.39977C0.090939 6.99981 -2.37726 16.9999 2.55914 24.3999L2.9705 24.9999L1.32504 31L7.49553 29.4L8.11259 29.8C10.7865 31.2 13.666 32 16.5456 32C19.6308 32 22.7161 31.2 25.39 29.6C33.0003 24.7999 35.2628 14.9999 30.5321 7.39981ZM26.2127 22.7999C25.39 23.9999 24.3616 24.7999 22.9218 24.9999C22.099 24.9999 21.0706 25.3999 16.957 23.7999C13.4603 22.1999 10.5808 19.5999 8.52395 16.5999C7.28985 15.1999 6.6728 13.3999 6.46712 11.5998C6.46712 9.99983 7.08417 8.59982 8.11259 7.59981C8.52395 7.19981 8.93532 6.99981 9.34668 6.99981H10.3751C10.7865 6.99981 11.1978 6.99981 11.4035 7.79982C11.8149 8.79982 12.8433 11.1998 12.8433 11.3998C13.049 11.5998 13.049 11.9998 12.8433 12.1998C13.049 12.5999 12.8433 12.9999 12.6376 13.1999C12.4319 13.3999 12.2262 13.7999 12.0206 13.9999C11.6092 14.1999 11.4035 14.5999 11.6092 14.9999C12.4319 16.1999 13.4603 17.3999 14.4888 18.3999C15.7229 19.3999 16.957 20.1999 18.3967 20.7999C18.8081 20.9999 19.2195 20.9999 19.4252 20.5999C19.6308 20.1999 20.6593 19.1999 21.0706 18.7999C21.482 18.3999 21.6877 18.3999 22.099 18.5999L25.39 20.1999C25.8013 20.3999 26.2127 20.5999 26.4184 20.7999C26.6241 21.3999 26.6241 22.1999 26.2127 22.7999Z" fill="#11709E"/>
</svg>
