<svg width="33" height="32" viewBox="0 0 33 32" fill="none" xmlns="http://www.w3.org/2000/svg">
<path d="M16.5 0C7.38817 0 0 7.16429 0 16C0 24.8357 7.38817 32 16.5 32C25.6118 32 33 24.8357 33 16C33 7.16429 25.6118 0 16.5 0ZM24.4296 12.0607C24.4406 12.2286 24.4406 12.4036 24.4406 12.575C24.4406 17.8179 20.323 23.8571 12.7985 23.8571C10.4782 23.8571 8.32734 23.2036 6.51529 22.0786C6.84676 22.1143 7.16351 22.1286 7.50234 22.1286C9.41752 22.1286 11.178 21.5 12.5813 20.4357C10.7839 20.4 9.27388 19.2571 8.75826 17.6857C9.38806 17.775 9.95525 17.775 10.6035 17.6143C9.67801 17.432 8.84619 16.9446 8.24932 16.2349C7.65246 15.5253 7.32735 14.6372 7.32924 13.7214V13.6714C7.87065 13.9679 8.50781 14.15 9.17444 14.175C8.61404 13.8128 8.15445 13.3222 7.83644 12.7465C7.51842 12.1709 7.35179 11.528 7.35134 10.875C7.35134 10.1357 7.55022 9.46071 7.90748 8.875C8.93469 10.1012 10.2165 11.1041 11.6696 11.8184C13.1227 12.5328 14.7145 12.9427 16.3416 13.0214C15.7634 10.325 17.8406 8.14286 20.3377 8.14286C21.5163 8.14286 22.577 8.62143 23.3247 9.39286C24.2491 9.225 25.133 8.88929 25.9212 8.43929C25.6155 9.35714 24.9747 10.1321 24.1239 10.6214C24.9489 10.5357 25.7444 10.3143 26.481 10.0036C25.9249 10.7964 25.2288 11.5 24.4296 12.0607Z" fill="#11709E"/>
</svg>
