<svg width="33" height="32" viewBox="0 0 33 32" fill="none" xmlns="http://www.w3.org/2000/svg">
<path d="M21.6562 16C21.6562 17.3261 21.113 18.5979 20.146 19.5355C19.179 20.4732 17.8675 21 16.5 21C15.1325 21 13.821 20.4732 12.854 19.5355C11.887 18.5979 11.3437 17.3261 11.3437 16C11.3437 15.715 11.3747 15.4367 11.428 15.1667H9.625V21.8283C9.625 22.2917 10.0117 22.6667 10.4895 22.6667H22.5122C22.7412 22.6662 22.9606 22.5777 23.1224 22.4205C23.2842 22.2634 23.375 22.0504 23.375 21.8283V15.1667H21.572C21.6253 15.4367 21.6562 15.715 21.6562 16V16ZM16.5 19.3333C16.9515 19.3332 17.3986 19.2469 17.8157 19.0792C18.2329 18.9116 18.6118 18.6659 18.931 18.3562C19.2502 18.0465 19.5034 17.6789 19.6761 17.2743C19.8488 16.8698 19.9376 16.4362 19.9375 15.9983C19.9374 15.5605 19.8483 15.1269 19.6754 14.7225C19.5025 14.318 19.2492 13.9505 18.9298 13.641C18.6105 13.3314 18.2314 13.0859 17.8141 12.9185C17.3969 12.751 16.9498 12.6649 16.4983 12.665C15.5864 12.6652 14.7119 13.0167 14.0672 13.6421C13.4226 14.2676 13.0606 15.1157 13.0608 16C13.061 16.8843 13.4235 17.7322 14.0685 18.3574C14.7134 18.9825 15.5881 19.3336 16.5 19.3333V19.3333ZM20.625 12.5H22.6858C22.8227 12.5 22.954 12.4474 23.051 12.3537C23.148 12.2599 23.2027 12.1328 23.2031 12V10.0017C23.2031 9.86862 23.1486 9.74102 23.0516 9.64693C22.9546 9.55285 22.823 9.5 22.6858 9.5H20.625C20.4878 9.5 20.3562 9.55285 20.2592 9.64693C20.1622 9.74102 20.1077 9.86862 20.1077 10.0017V12C20.1094 12.275 20.3414 12.5 20.625 12.5V12.5ZM16.5 0C12.1239 0 7.92709 1.68571 4.83274 4.68629C1.73839 7.68687 0 11.7565 0 16C0 20.2435 1.73839 24.3131 4.83274 27.3137C7.92709 30.3143 12.1239 32 16.5 32C18.6668 32 20.8124 31.5861 22.8143 30.7821C24.8161 29.978 26.6351 28.7994 28.1673 27.3137C29.6994 25.828 30.9148 24.0641 31.744 22.1229C32.5732 20.1817 33 18.1012 33 16C33 13.8989 32.5732 11.8183 31.744 9.87706C30.9148 7.93586 29.6994 6.17203 28.1673 4.68629C26.6351 3.20055 24.8161 2.022 22.8143 1.21793C20.8124 0.413852 18.6668 0 16.5 0V0ZM25.0937 22.4817C25.0937 23.5 24.2344 24.3333 23.1842 24.3333H9.81578C8.76562 24.3333 7.90625 23.5 7.90625 22.4817V9.51833C7.90625 8.5 8.76562 7.66667 9.81578 7.66667H23.1842C24.2344 7.66667 25.0937 8.5 25.0937 9.51833V22.4817V22.4817Z" fill="#11709E"/>
</svg>
